%TF.GenerationSoftware,KiCad,Pcbnew,5.1.6+dfsg1-1~bpo10+1*%
%TF.CreationDate,2020-11-22T17:09:41+10:30*%
%TF.ProjectId,robotcontrol,726f626f-7463-46f6-9e74-726f6c2e6b69,rev?*%
%TF.SameCoordinates,Original*%
%TF.FileFunction,Soldermask,Bot*%
%TF.FilePolarity,Negative*%
%FSLAX46Y46*%
G04 Gerber Fmt 4.6, Leading zero omitted, Abs format (unit mm)*
G04 Created by KiCad (PCBNEW 5.1.6+dfsg1-1~bpo10+1) date 2020-11-22 17:09:41*
%MOMM*%
%LPD*%
G01*
G04 APERTURE LIST*
%ADD10C,0.100000*%
G04 APERTURE END LIST*
D10*
G36*
X96457874Y-167359023D02*
G01*
X96731287Y-167413408D01*
X97031568Y-167537789D01*
X97301814Y-167718361D01*
X97531639Y-167948186D01*
X97712211Y-168218432D01*
X97836592Y-168518713D01*
X97900000Y-168837489D01*
X97900000Y-169162511D01*
X97836592Y-169481287D01*
X97712211Y-169781568D01*
X97531639Y-170051814D01*
X97301814Y-170281639D01*
X97031568Y-170462211D01*
X96731287Y-170586592D01*
X96457874Y-170640977D01*
X96412512Y-170650000D01*
X96087488Y-170650000D01*
X96042126Y-170640977D01*
X95768713Y-170586592D01*
X95468432Y-170462211D01*
X95198186Y-170281639D01*
X94968361Y-170051814D01*
X94787789Y-169781568D01*
X94663408Y-169481287D01*
X94600000Y-169162511D01*
X94600000Y-168837489D01*
X94663408Y-168518713D01*
X94787789Y-168218432D01*
X94968361Y-167948186D01*
X95198186Y-167718361D01*
X95468432Y-167537789D01*
X95768713Y-167413408D01*
X96042126Y-167359023D01*
X96087488Y-167350000D01*
X96412512Y-167350000D01*
X96457874Y-167359023D01*
G37*
G36*
X171457874Y-167359023D02*
G01*
X171731287Y-167413408D01*
X172031568Y-167537789D01*
X172301814Y-167718361D01*
X172531639Y-167948186D01*
X172712211Y-168218432D01*
X172836592Y-168518713D01*
X172900000Y-168837489D01*
X172900000Y-169162511D01*
X172836592Y-169481287D01*
X172712211Y-169781568D01*
X172531639Y-170051814D01*
X172301814Y-170281639D01*
X172031568Y-170462211D01*
X171731287Y-170586592D01*
X171457874Y-170640977D01*
X171412512Y-170650000D01*
X171087488Y-170650000D01*
X171042126Y-170640977D01*
X170768713Y-170586592D01*
X170468432Y-170462211D01*
X170198186Y-170281639D01*
X169968361Y-170051814D01*
X169787789Y-169781568D01*
X169663408Y-169481287D01*
X169600000Y-169162511D01*
X169600000Y-168837489D01*
X169663408Y-168518713D01*
X169787789Y-168218432D01*
X169968361Y-167948186D01*
X170198186Y-167718361D01*
X170468432Y-167537789D01*
X170768713Y-167413408D01*
X171042126Y-167359023D01*
X171087488Y-167350000D01*
X171412512Y-167350000D01*
X171457874Y-167359023D01*
G37*
G36*
X157837935Y-163672664D02*
G01*
X157992624Y-163736739D01*
X157992626Y-163736740D01*
X158131844Y-163829762D01*
X158250238Y-163948156D01*
X158341950Y-164085414D01*
X158343261Y-164087376D01*
X158407336Y-164242065D01*
X158440000Y-164406281D01*
X158440000Y-164573719D01*
X158407336Y-164737935D01*
X158343261Y-164892624D01*
X158343260Y-164892626D01*
X158250238Y-165031844D01*
X158131844Y-165150238D01*
X157992626Y-165243260D01*
X157992625Y-165243261D01*
X157992624Y-165243261D01*
X157837935Y-165307336D01*
X157673719Y-165340000D01*
X157506281Y-165340000D01*
X157342065Y-165307336D01*
X157187376Y-165243261D01*
X157187375Y-165243261D01*
X157187374Y-165243260D01*
X157048156Y-165150238D01*
X156929762Y-165031844D01*
X156836740Y-164892626D01*
X156836739Y-164892624D01*
X156772664Y-164737935D01*
X156740000Y-164573719D01*
X156740000Y-164406281D01*
X156772664Y-164242065D01*
X156836739Y-164087376D01*
X156838050Y-164085414D01*
X156929762Y-163948156D01*
X157048156Y-163829762D01*
X157187374Y-163736740D01*
X157187376Y-163736739D01*
X157342065Y-163672664D01*
X157506281Y-163640000D01*
X157673719Y-163640000D01*
X157837935Y-163672664D01*
G37*
G36*
X147677935Y-163672664D02*
G01*
X147832624Y-163736739D01*
X147832626Y-163736740D01*
X147971844Y-163829762D01*
X148090238Y-163948156D01*
X148181950Y-164085414D01*
X148183261Y-164087376D01*
X148247336Y-164242065D01*
X148280000Y-164406281D01*
X148280000Y-164573719D01*
X148247336Y-164737935D01*
X148183261Y-164892624D01*
X148183260Y-164892626D01*
X148090238Y-165031844D01*
X147971844Y-165150238D01*
X147832626Y-165243260D01*
X147832625Y-165243261D01*
X147832624Y-165243261D01*
X147677935Y-165307336D01*
X147513719Y-165340000D01*
X147346281Y-165340000D01*
X147182065Y-165307336D01*
X147027376Y-165243261D01*
X147027375Y-165243261D01*
X147027374Y-165243260D01*
X146888156Y-165150238D01*
X146769762Y-165031844D01*
X146676740Y-164892626D01*
X146676739Y-164892624D01*
X146612664Y-164737935D01*
X146580000Y-164573719D01*
X146580000Y-164406281D01*
X146612664Y-164242065D01*
X146676739Y-164087376D01*
X146678050Y-164085414D01*
X146769762Y-163948156D01*
X146888156Y-163829762D01*
X147027374Y-163736740D01*
X147027376Y-163736739D01*
X147182065Y-163672664D01*
X147346281Y-163640000D01*
X147513719Y-163640000D01*
X147677935Y-163672664D01*
G37*
G36*
X123547935Y-163672664D02*
G01*
X123702624Y-163736739D01*
X123702626Y-163736740D01*
X123841844Y-163829762D01*
X123960238Y-163948156D01*
X124051950Y-164085414D01*
X124053261Y-164087376D01*
X124117336Y-164242065D01*
X124150000Y-164406281D01*
X124150000Y-164573719D01*
X124117336Y-164737935D01*
X124053261Y-164892624D01*
X124053260Y-164892626D01*
X123960238Y-165031844D01*
X123841844Y-165150238D01*
X123702626Y-165243260D01*
X123702625Y-165243261D01*
X123702624Y-165243261D01*
X123547935Y-165307336D01*
X123383719Y-165340000D01*
X123216281Y-165340000D01*
X123052065Y-165307336D01*
X122897376Y-165243261D01*
X122897375Y-165243261D01*
X122897374Y-165243260D01*
X122758156Y-165150238D01*
X122639762Y-165031844D01*
X122546740Y-164892626D01*
X122546739Y-164892624D01*
X122482664Y-164737935D01*
X122450000Y-164573719D01*
X122450000Y-164406281D01*
X122482664Y-164242065D01*
X122546739Y-164087376D01*
X122548050Y-164085414D01*
X122639762Y-163948156D01*
X122758156Y-163829762D01*
X122897374Y-163736740D01*
X122897376Y-163736739D01*
X123052065Y-163672664D01*
X123216281Y-163640000D01*
X123383719Y-163640000D01*
X123547935Y-163672664D01*
G37*
G36*
X161560920Y-162405386D02*
G01*
X161602066Y-162422429D01*
X161724710Y-162473230D01*
X161872117Y-162571724D01*
X161997476Y-162697083D01*
X162075408Y-162813717D01*
X162095971Y-162844492D01*
X162163814Y-163008280D01*
X162198400Y-163182156D01*
X162198400Y-163359444D01*
X162163814Y-163533320D01*
X162106096Y-163672665D01*
X162095970Y-163697110D01*
X161997476Y-163844517D01*
X161872117Y-163969876D01*
X161724710Y-164068370D01*
X161724709Y-164068371D01*
X161724708Y-164068371D01*
X161560920Y-164136214D01*
X161387044Y-164170800D01*
X161209756Y-164170800D01*
X161035880Y-164136214D01*
X160872092Y-164068371D01*
X160872091Y-164068371D01*
X160872090Y-164068370D01*
X160724683Y-163969876D01*
X160599324Y-163844517D01*
X160500830Y-163697110D01*
X160490705Y-163672665D01*
X160432986Y-163533320D01*
X160398400Y-163359444D01*
X160398400Y-163182156D01*
X160432986Y-163008280D01*
X160500829Y-162844492D01*
X160521392Y-162813717D01*
X160599324Y-162697083D01*
X160724683Y-162571724D01*
X160872090Y-162473230D01*
X160994735Y-162422429D01*
X161035880Y-162405386D01*
X161209756Y-162370800D01*
X161387044Y-162370800D01*
X161560920Y-162405386D01*
G37*
G36*
X143882520Y-162354586D02*
G01*
X144046310Y-162422430D01*
X144193717Y-162520924D01*
X144319076Y-162646283D01*
X144353019Y-162697083D01*
X144417571Y-162793692D01*
X144485414Y-162957480D01*
X144520000Y-163131356D01*
X144520000Y-163308644D01*
X144509895Y-163359444D01*
X144485414Y-163482520D01*
X144417570Y-163646310D01*
X144319076Y-163793717D01*
X144193717Y-163919076D01*
X144046310Y-164017570D01*
X144046309Y-164017571D01*
X144046308Y-164017571D01*
X143882520Y-164085414D01*
X143708644Y-164120000D01*
X143531356Y-164120000D01*
X143357480Y-164085414D01*
X143193692Y-164017571D01*
X143193691Y-164017571D01*
X143193690Y-164017570D01*
X143046283Y-163919076D01*
X142920924Y-163793717D01*
X142822430Y-163646310D01*
X142754586Y-163482520D01*
X142730105Y-163359444D01*
X142720000Y-163308644D01*
X142720000Y-163131356D01*
X142754586Y-162957480D01*
X142822429Y-162793692D01*
X142886981Y-162697083D01*
X142920924Y-162646283D01*
X143046283Y-162520924D01*
X143193690Y-162422430D01*
X143357480Y-162354586D01*
X143531356Y-162320000D01*
X143708644Y-162320000D01*
X143882520Y-162354586D01*
G37*
G36*
X141342520Y-162354586D02*
G01*
X141506310Y-162422430D01*
X141653717Y-162520924D01*
X141779076Y-162646283D01*
X141813019Y-162697083D01*
X141877571Y-162793692D01*
X141945414Y-162957480D01*
X141980000Y-163131356D01*
X141980000Y-163308644D01*
X141969895Y-163359444D01*
X141945414Y-163482520D01*
X141877570Y-163646310D01*
X141779076Y-163793717D01*
X141653717Y-163919076D01*
X141506310Y-164017570D01*
X141506309Y-164017571D01*
X141506308Y-164017571D01*
X141342520Y-164085414D01*
X141168644Y-164120000D01*
X140991356Y-164120000D01*
X140817480Y-164085414D01*
X140653692Y-164017571D01*
X140653691Y-164017571D01*
X140653690Y-164017570D01*
X140506283Y-163919076D01*
X140380924Y-163793717D01*
X140282430Y-163646310D01*
X140214586Y-163482520D01*
X140190105Y-163359444D01*
X140180000Y-163308644D01*
X140180000Y-163131356D01*
X140214586Y-162957480D01*
X140282429Y-162793692D01*
X140346981Y-162697083D01*
X140380924Y-162646283D01*
X140506283Y-162520924D01*
X140653690Y-162422430D01*
X140817480Y-162354586D01*
X140991356Y-162320000D01*
X141168644Y-162320000D01*
X141342520Y-162354586D01*
G37*
G36*
X138802520Y-162354586D02*
G01*
X138966310Y-162422430D01*
X139113717Y-162520924D01*
X139239076Y-162646283D01*
X139273019Y-162697083D01*
X139337571Y-162793692D01*
X139405414Y-162957480D01*
X139440000Y-163131356D01*
X139440000Y-163308644D01*
X139429895Y-163359444D01*
X139405414Y-163482520D01*
X139337570Y-163646310D01*
X139239076Y-163793717D01*
X139113717Y-163919076D01*
X138966310Y-164017570D01*
X138966309Y-164017571D01*
X138966308Y-164017571D01*
X138802520Y-164085414D01*
X138628644Y-164120000D01*
X138451356Y-164120000D01*
X138277480Y-164085414D01*
X138113692Y-164017571D01*
X138113691Y-164017571D01*
X138113690Y-164017570D01*
X137966283Y-163919076D01*
X137840924Y-163793717D01*
X137742430Y-163646310D01*
X137674586Y-163482520D01*
X137650105Y-163359444D01*
X137640000Y-163308644D01*
X137640000Y-163131356D01*
X137674586Y-162957480D01*
X137742429Y-162793692D01*
X137806981Y-162697083D01*
X137840924Y-162646283D01*
X137966283Y-162520924D01*
X138113690Y-162422430D01*
X138277480Y-162354586D01*
X138451356Y-162320000D01*
X138628644Y-162320000D01*
X138802520Y-162354586D01*
G37*
G36*
X128642520Y-162354586D02*
G01*
X128806310Y-162422430D01*
X128953717Y-162520924D01*
X129079076Y-162646283D01*
X129113019Y-162697083D01*
X129177571Y-162793692D01*
X129245414Y-162957480D01*
X129280000Y-163131356D01*
X129280000Y-163308644D01*
X129269895Y-163359444D01*
X129245414Y-163482520D01*
X129177570Y-163646310D01*
X129079076Y-163793717D01*
X128953717Y-163919076D01*
X128806310Y-164017570D01*
X128806309Y-164017571D01*
X128806308Y-164017571D01*
X128642520Y-164085414D01*
X128468644Y-164120000D01*
X128291356Y-164120000D01*
X128117480Y-164085414D01*
X127953692Y-164017571D01*
X127953691Y-164017571D01*
X127953690Y-164017570D01*
X127806283Y-163919076D01*
X127680924Y-163793717D01*
X127582430Y-163646310D01*
X127514586Y-163482520D01*
X127490105Y-163359444D01*
X127480000Y-163308644D01*
X127480000Y-163131356D01*
X127514586Y-162957480D01*
X127582429Y-162793692D01*
X127646981Y-162697083D01*
X127680924Y-162646283D01*
X127806283Y-162520924D01*
X127953690Y-162422430D01*
X128117480Y-162354586D01*
X128291356Y-162320000D01*
X128468644Y-162320000D01*
X128642520Y-162354586D01*
G37*
G36*
X133722520Y-162354586D02*
G01*
X133886310Y-162422430D01*
X134033717Y-162520924D01*
X134159076Y-162646283D01*
X134193019Y-162697083D01*
X134257571Y-162793692D01*
X134325414Y-162957480D01*
X134360000Y-163131356D01*
X134360000Y-163308644D01*
X134349895Y-163359444D01*
X134325414Y-163482520D01*
X134257570Y-163646310D01*
X134159076Y-163793717D01*
X134033717Y-163919076D01*
X133886310Y-164017570D01*
X133886309Y-164017571D01*
X133886308Y-164017571D01*
X133722520Y-164085414D01*
X133548644Y-164120000D01*
X133371356Y-164120000D01*
X133197480Y-164085414D01*
X133033692Y-164017571D01*
X133033691Y-164017571D01*
X133033690Y-164017570D01*
X132886283Y-163919076D01*
X132760924Y-163793717D01*
X132662430Y-163646310D01*
X132594586Y-163482520D01*
X132570105Y-163359444D01*
X132560000Y-163308644D01*
X132560000Y-163131356D01*
X132594586Y-162957480D01*
X132662429Y-162793692D01*
X132726981Y-162697083D01*
X132760924Y-162646283D01*
X132886283Y-162520924D01*
X133033690Y-162422430D01*
X133197480Y-162354586D01*
X133371356Y-162320000D01*
X133548644Y-162320000D01*
X133722520Y-162354586D01*
G37*
G36*
X167512520Y-161374586D02*
G01*
X167676310Y-161442430D01*
X167823717Y-161540924D01*
X167949076Y-161666283D01*
X167983382Y-161717626D01*
X168047571Y-161813692D01*
X168115414Y-161977480D01*
X168150000Y-162151356D01*
X168150000Y-162328644D01*
X168115414Y-162502520D01*
X168055866Y-162646283D01*
X168047570Y-162666310D01*
X167949076Y-162813717D01*
X167823717Y-162939076D01*
X167676310Y-163037570D01*
X167676309Y-163037571D01*
X167676308Y-163037571D01*
X167512520Y-163105414D01*
X167338644Y-163140000D01*
X167161356Y-163140000D01*
X166987480Y-163105414D01*
X166823692Y-163037571D01*
X166823691Y-163037571D01*
X166823690Y-163037570D01*
X166676283Y-162939076D01*
X166550924Y-162813717D01*
X166452430Y-162666310D01*
X166444135Y-162646283D01*
X166384586Y-162502520D01*
X166350000Y-162328644D01*
X166350000Y-162151356D01*
X166384586Y-161977480D01*
X166452429Y-161813692D01*
X166516618Y-161717626D01*
X166550924Y-161666283D01*
X166676283Y-161540924D01*
X166823690Y-161442430D01*
X166987480Y-161374586D01*
X167161356Y-161340000D01*
X167338644Y-161340000D01*
X167512520Y-161374586D01*
G37*
G36*
X157837935Y-160497664D02*
G01*
X157992624Y-160561739D01*
X157992626Y-160561740D01*
X158131844Y-160654762D01*
X158250238Y-160773156D01*
X158281165Y-160819442D01*
X158343261Y-160912376D01*
X158407336Y-161067065D01*
X158440000Y-161231281D01*
X158440000Y-161398719D01*
X158407336Y-161562935D01*
X158400267Y-161580000D01*
X158343260Y-161717626D01*
X158250238Y-161856844D01*
X158131844Y-161975238D01*
X157992626Y-162068260D01*
X157992625Y-162068261D01*
X157992624Y-162068261D01*
X157837935Y-162132336D01*
X157673719Y-162165000D01*
X157506281Y-162165000D01*
X157342065Y-162132336D01*
X157187376Y-162068261D01*
X157187375Y-162068261D01*
X157187374Y-162068260D01*
X157048156Y-161975238D01*
X156929762Y-161856844D01*
X156836740Y-161717626D01*
X156779733Y-161580000D01*
X156772664Y-161562935D01*
X156740000Y-161398719D01*
X156740000Y-161231281D01*
X156772664Y-161067065D01*
X156836739Y-160912376D01*
X156898835Y-160819442D01*
X156929762Y-160773156D01*
X157048156Y-160654762D01*
X157187374Y-160561740D01*
X157187376Y-160561739D01*
X157342065Y-160497664D01*
X157506281Y-160465000D01*
X157673719Y-160465000D01*
X157837935Y-160497664D01*
G37*
G36*
X147677935Y-160497664D02*
G01*
X147832624Y-160561739D01*
X147832626Y-160561740D01*
X147971844Y-160654762D01*
X148090238Y-160773156D01*
X148121165Y-160819442D01*
X148183261Y-160912376D01*
X148247336Y-161067065D01*
X148280000Y-161231281D01*
X148280000Y-161398719D01*
X148247336Y-161562935D01*
X148240267Y-161580000D01*
X148183260Y-161717626D01*
X148090238Y-161856844D01*
X147971844Y-161975238D01*
X147832626Y-162068260D01*
X147832625Y-162068261D01*
X147832624Y-162068261D01*
X147677935Y-162132336D01*
X147513719Y-162165000D01*
X147346281Y-162165000D01*
X147182065Y-162132336D01*
X147027376Y-162068261D01*
X147027375Y-162068261D01*
X147027374Y-162068260D01*
X146888156Y-161975238D01*
X146769762Y-161856844D01*
X146676740Y-161717626D01*
X146619733Y-161580000D01*
X146612664Y-161562935D01*
X146580000Y-161398719D01*
X146580000Y-161231281D01*
X146612664Y-161067065D01*
X146676739Y-160912376D01*
X146738835Y-160819442D01*
X146769762Y-160773156D01*
X146888156Y-160654762D01*
X147027374Y-160561740D01*
X147027376Y-160561739D01*
X147182065Y-160497664D01*
X147346281Y-160465000D01*
X147513719Y-160465000D01*
X147677935Y-160497664D01*
G37*
G36*
X107070000Y-162039500D02*
G01*
X103970000Y-162039500D01*
X103970000Y-158939500D01*
X107070000Y-158939500D01*
X107070000Y-162039500D01*
G37*
G36*
X161560920Y-159865386D02*
G01*
X161602066Y-159882429D01*
X161724710Y-159933230D01*
X161872117Y-160031724D01*
X161997476Y-160157083D01*
X162075408Y-160273717D01*
X162095971Y-160304492D01*
X162163814Y-160468280D01*
X162190015Y-160600000D01*
X162198400Y-160642158D01*
X162198400Y-160819442D01*
X162163814Y-160993320D01*
X162095970Y-161157110D01*
X161997476Y-161304517D01*
X161872117Y-161429876D01*
X161724710Y-161528370D01*
X161724709Y-161528371D01*
X161724708Y-161528371D01*
X161560920Y-161596214D01*
X161387044Y-161630800D01*
X161209756Y-161630800D01*
X161035880Y-161596214D01*
X160872092Y-161528371D01*
X160872091Y-161528371D01*
X160872090Y-161528370D01*
X160724683Y-161429876D01*
X160599324Y-161304517D01*
X160500830Y-161157110D01*
X160432986Y-160993320D01*
X160398400Y-160819442D01*
X160398400Y-160642158D01*
X160406786Y-160600000D01*
X160432986Y-160468280D01*
X160500829Y-160304492D01*
X160521392Y-160273717D01*
X160599324Y-160157083D01*
X160724683Y-160031724D01*
X160872090Y-159933230D01*
X160994735Y-159882429D01*
X161035880Y-159865386D01*
X161209756Y-159830800D01*
X161387044Y-159830800D01*
X161560920Y-159865386D01*
G37*
G36*
X141342520Y-159814586D02*
G01*
X141506310Y-159882430D01*
X141653717Y-159980924D01*
X141779076Y-160106283D01*
X141813019Y-160157083D01*
X141877571Y-160253692D01*
X141945414Y-160417480D01*
X141980000Y-160591356D01*
X141980000Y-160768644D01*
X141969895Y-160819444D01*
X141945414Y-160942520D01*
X141877570Y-161106310D01*
X141779076Y-161253717D01*
X141653717Y-161379076D01*
X141506310Y-161477570D01*
X141506309Y-161477571D01*
X141506308Y-161477571D01*
X141342520Y-161545414D01*
X141168644Y-161580000D01*
X140991356Y-161580000D01*
X140817480Y-161545414D01*
X140653692Y-161477571D01*
X140653691Y-161477571D01*
X140653690Y-161477570D01*
X140506283Y-161379076D01*
X140380924Y-161253717D01*
X140282430Y-161106310D01*
X140214586Y-160942520D01*
X140190105Y-160819444D01*
X140180000Y-160768644D01*
X140180000Y-160591356D01*
X140214586Y-160417480D01*
X140282429Y-160253692D01*
X140346981Y-160157083D01*
X140380924Y-160106283D01*
X140506283Y-159980924D01*
X140653690Y-159882430D01*
X140817480Y-159814586D01*
X140991356Y-159780000D01*
X141168644Y-159780000D01*
X141342520Y-159814586D01*
G37*
G36*
X138802520Y-159814586D02*
G01*
X138966310Y-159882430D01*
X139113717Y-159980924D01*
X139239076Y-160106283D01*
X139273019Y-160157083D01*
X139337571Y-160253692D01*
X139405414Y-160417480D01*
X139440000Y-160591356D01*
X139440000Y-160768644D01*
X139429895Y-160819444D01*
X139405414Y-160942520D01*
X139337570Y-161106310D01*
X139239076Y-161253717D01*
X139113717Y-161379076D01*
X138966310Y-161477570D01*
X138966309Y-161477571D01*
X138966308Y-161477571D01*
X138802520Y-161545414D01*
X138628644Y-161580000D01*
X138451356Y-161580000D01*
X138277480Y-161545414D01*
X138113692Y-161477571D01*
X138113691Y-161477571D01*
X138113690Y-161477570D01*
X137966283Y-161379076D01*
X137840924Y-161253717D01*
X137742430Y-161106310D01*
X137674586Y-160942520D01*
X137650105Y-160819444D01*
X137640000Y-160768644D01*
X137640000Y-160591356D01*
X137674586Y-160417480D01*
X137742429Y-160253692D01*
X137806981Y-160157083D01*
X137840924Y-160106283D01*
X137966283Y-159980924D01*
X138113690Y-159882430D01*
X138277480Y-159814586D01*
X138451356Y-159780000D01*
X138628644Y-159780000D01*
X138802520Y-159814586D01*
G37*
G36*
X133722520Y-159814586D02*
G01*
X133886310Y-159882430D01*
X134033717Y-159980924D01*
X134159076Y-160106283D01*
X134193019Y-160157083D01*
X134257571Y-160253692D01*
X134325414Y-160417480D01*
X134360000Y-160591356D01*
X134360000Y-160768644D01*
X134349895Y-160819444D01*
X134325414Y-160942520D01*
X134257570Y-161106310D01*
X134159076Y-161253717D01*
X134033717Y-161379076D01*
X133886310Y-161477570D01*
X133886309Y-161477571D01*
X133886308Y-161477571D01*
X133722520Y-161545414D01*
X133548644Y-161580000D01*
X133371356Y-161580000D01*
X133197480Y-161545414D01*
X133033692Y-161477571D01*
X133033691Y-161477571D01*
X133033690Y-161477570D01*
X132886283Y-161379076D01*
X132760924Y-161253717D01*
X132662430Y-161106310D01*
X132594586Y-160942520D01*
X132570105Y-160819444D01*
X132560000Y-160768644D01*
X132560000Y-160591356D01*
X132594586Y-160417480D01*
X132662429Y-160253692D01*
X132726981Y-160157083D01*
X132760924Y-160106283D01*
X132886283Y-159980924D01*
X133033690Y-159882430D01*
X133197480Y-159814586D01*
X133371356Y-159780000D01*
X133548644Y-159780000D01*
X133722520Y-159814586D01*
G37*
G36*
X128642520Y-159814586D02*
G01*
X128806310Y-159882430D01*
X128953717Y-159980924D01*
X129079076Y-160106283D01*
X129113019Y-160157083D01*
X129177571Y-160253692D01*
X129245414Y-160417480D01*
X129280000Y-160591356D01*
X129280000Y-160768644D01*
X129269895Y-160819444D01*
X129245414Y-160942520D01*
X129177570Y-161106310D01*
X129079076Y-161253717D01*
X128953717Y-161379076D01*
X128806310Y-161477570D01*
X128806309Y-161477571D01*
X128806308Y-161477571D01*
X128642520Y-161545414D01*
X128468644Y-161580000D01*
X128291356Y-161580000D01*
X128117480Y-161545414D01*
X127953692Y-161477571D01*
X127953691Y-161477571D01*
X127953690Y-161477570D01*
X127806283Y-161379076D01*
X127680924Y-161253717D01*
X127582430Y-161106310D01*
X127514586Y-160942520D01*
X127490105Y-160819444D01*
X127480000Y-160768644D01*
X127480000Y-160591356D01*
X127514586Y-160417480D01*
X127582429Y-160253692D01*
X127646981Y-160157083D01*
X127680924Y-160106283D01*
X127806283Y-159980924D01*
X127953690Y-159882430D01*
X128117480Y-159814586D01*
X128291356Y-159780000D01*
X128468644Y-159780000D01*
X128642520Y-159814586D01*
G37*
G36*
X144520000Y-161580000D02*
G01*
X142720000Y-161580000D01*
X142720000Y-159780000D01*
X144520000Y-159780000D01*
X144520000Y-161580000D01*
G37*
G36*
X167512520Y-158834586D02*
G01*
X167676310Y-158902430D01*
X167823717Y-159000924D01*
X167949076Y-159126283D01*
X168020338Y-159232935D01*
X168047571Y-159273692D01*
X168115414Y-159437480D01*
X168150000Y-159611356D01*
X168150000Y-159788644D01*
X168115414Y-159962520D01*
X168055866Y-160106283D01*
X168047570Y-160126310D01*
X167949076Y-160273717D01*
X167823717Y-160399076D01*
X167676310Y-160497570D01*
X167676309Y-160497571D01*
X167676308Y-160497571D01*
X167512520Y-160565414D01*
X167338644Y-160600000D01*
X167161356Y-160600000D01*
X166987480Y-160565414D01*
X166823692Y-160497571D01*
X166823691Y-160497571D01*
X166823690Y-160497570D01*
X166676283Y-160399076D01*
X166550924Y-160273717D01*
X166452430Y-160126310D01*
X166444135Y-160106283D01*
X166384586Y-159962520D01*
X166350000Y-159788644D01*
X166350000Y-159611356D01*
X166384586Y-159437480D01*
X166452429Y-159273692D01*
X166479662Y-159232935D01*
X166550924Y-159126283D01*
X166676283Y-159000924D01*
X166823690Y-158902430D01*
X166987480Y-158834586D01*
X167161356Y-158800000D01*
X167338644Y-158800000D01*
X167512520Y-158834586D01*
G37*
G36*
X157431535Y-157598264D02*
G01*
X157586224Y-157662339D01*
X157586226Y-157662340D01*
X157725444Y-157755362D01*
X157843838Y-157873756D01*
X157899840Y-157957570D01*
X157936861Y-158012976D01*
X158000936Y-158167665D01*
X158033600Y-158331881D01*
X158033600Y-158499319D01*
X158000936Y-158663535D01*
X157936861Y-158818224D01*
X157936860Y-158818226D01*
X157843838Y-158957444D01*
X157725444Y-159075838D01*
X157586226Y-159168860D01*
X157586225Y-159168861D01*
X157586224Y-159168861D01*
X157431535Y-159232936D01*
X157267319Y-159265600D01*
X157099881Y-159265600D01*
X156935665Y-159232936D01*
X156780976Y-159168861D01*
X156780975Y-159168861D01*
X156780974Y-159168860D01*
X156641756Y-159075838D01*
X156523362Y-158957444D01*
X156430340Y-158818226D01*
X156430339Y-158818224D01*
X156366264Y-158663535D01*
X156333600Y-158499319D01*
X156333600Y-158331881D01*
X156366264Y-158167665D01*
X156430339Y-158012976D01*
X156467360Y-157957570D01*
X156523362Y-157873756D01*
X156641756Y-157755362D01*
X156780974Y-157662340D01*
X156780976Y-157662339D01*
X156935665Y-157598264D01*
X157099881Y-157565600D01*
X157267319Y-157565600D01*
X157431535Y-157598264D01*
G37*
G36*
X161560920Y-157325386D02*
G01*
X161602066Y-157342429D01*
X161724710Y-157393230D01*
X161872117Y-157491724D01*
X161997476Y-157617083D01*
X162075408Y-157733717D01*
X162095971Y-157764492D01*
X162163814Y-157928280D01*
X162198400Y-158102156D01*
X162198400Y-158279444D01*
X162187969Y-158331882D01*
X162163814Y-158453320D01*
X162095970Y-158617110D01*
X161997476Y-158764517D01*
X161872117Y-158889876D01*
X161724710Y-158988370D01*
X161724709Y-158988371D01*
X161724708Y-158988371D01*
X161560920Y-159056214D01*
X161387044Y-159090800D01*
X161209756Y-159090800D01*
X161035880Y-159056214D01*
X160872092Y-158988371D01*
X160872091Y-158988371D01*
X160872090Y-158988370D01*
X160724683Y-158889876D01*
X160599324Y-158764517D01*
X160500830Y-158617110D01*
X160432986Y-158453320D01*
X160408831Y-158331882D01*
X160398400Y-158279444D01*
X160398400Y-158102156D01*
X160432986Y-157928280D01*
X160500829Y-157764492D01*
X160521392Y-157733717D01*
X160599324Y-157617083D01*
X160724683Y-157491724D01*
X160872090Y-157393230D01*
X160994735Y-157342429D01*
X161035880Y-157325386D01*
X161209756Y-157290800D01*
X161387044Y-157290800D01*
X161560920Y-157325386D01*
G37*
G36*
X133722520Y-157274586D02*
G01*
X133886310Y-157342430D01*
X134033717Y-157440924D01*
X134159076Y-157566283D01*
X134223258Y-157662339D01*
X134257571Y-157713692D01*
X134325414Y-157877480D01*
X134360000Y-158051356D01*
X134360000Y-158228644D01*
X134349895Y-158279444D01*
X134325414Y-158402520D01*
X134257570Y-158566310D01*
X134159076Y-158713717D01*
X134033717Y-158839076D01*
X133886310Y-158937570D01*
X133886309Y-158937571D01*
X133886308Y-158937571D01*
X133722520Y-159005414D01*
X133548644Y-159040000D01*
X133371356Y-159040000D01*
X133197480Y-159005414D01*
X133033692Y-158937571D01*
X133033691Y-158937571D01*
X133033690Y-158937570D01*
X132886283Y-158839076D01*
X132760924Y-158713717D01*
X132662430Y-158566310D01*
X132594586Y-158402520D01*
X132570105Y-158279444D01*
X132560000Y-158228644D01*
X132560000Y-158051356D01*
X132594586Y-157877480D01*
X132662429Y-157713692D01*
X132696742Y-157662339D01*
X132760924Y-157566283D01*
X132886283Y-157440924D01*
X133033690Y-157342430D01*
X133197480Y-157274586D01*
X133371356Y-157240000D01*
X133548644Y-157240000D01*
X133722520Y-157274586D01*
G37*
G36*
X128642520Y-157274586D02*
G01*
X128806310Y-157342430D01*
X128953717Y-157440924D01*
X129079076Y-157566283D01*
X129143258Y-157662339D01*
X129177571Y-157713692D01*
X129245414Y-157877480D01*
X129280000Y-158051356D01*
X129280000Y-158228644D01*
X129269895Y-158279444D01*
X129245414Y-158402520D01*
X129177570Y-158566310D01*
X129079076Y-158713717D01*
X128953717Y-158839076D01*
X128806310Y-158937570D01*
X128806309Y-158937571D01*
X128806308Y-158937571D01*
X128642520Y-159005414D01*
X128468644Y-159040000D01*
X128291356Y-159040000D01*
X128117480Y-159005414D01*
X127953692Y-158937571D01*
X127953691Y-158937571D01*
X127953690Y-158937570D01*
X127806283Y-158839076D01*
X127680924Y-158713717D01*
X127582430Y-158566310D01*
X127514586Y-158402520D01*
X127490105Y-158279444D01*
X127480000Y-158228644D01*
X127480000Y-158051356D01*
X127514586Y-157877480D01*
X127582429Y-157713692D01*
X127616742Y-157662339D01*
X127680924Y-157566283D01*
X127806283Y-157440924D01*
X127953690Y-157342430D01*
X128117480Y-157274586D01*
X128291356Y-157240000D01*
X128468644Y-157240000D01*
X128642520Y-157274586D01*
G37*
G36*
X167480194Y-156288156D02*
G01*
X167512520Y-156294586D01*
X167676310Y-156362430D01*
X167823717Y-156460924D01*
X167949076Y-156586283D01*
X168047570Y-156733690D01*
X168047571Y-156733692D01*
X168115414Y-156897480D01*
X168150000Y-157071356D01*
X168150000Y-157248644D01*
X168115414Y-157422520D01*
X168048834Y-157583260D01*
X168047570Y-157586310D01*
X167949076Y-157733717D01*
X167823717Y-157859076D01*
X167676310Y-157957570D01*
X167676309Y-157957571D01*
X167676308Y-157957571D01*
X167512520Y-158025414D01*
X167338644Y-158060000D01*
X167161356Y-158060000D01*
X166987480Y-158025414D01*
X166823692Y-157957571D01*
X166823691Y-157957571D01*
X166823690Y-157957570D01*
X166676283Y-157859076D01*
X166550924Y-157733717D01*
X166452430Y-157586310D01*
X166451167Y-157583260D01*
X166384586Y-157422520D01*
X166350000Y-157248644D01*
X166350000Y-157071356D01*
X166384586Y-156897480D01*
X166452429Y-156733692D01*
X166452430Y-156733690D01*
X166550924Y-156586283D01*
X166676283Y-156460924D01*
X166823690Y-156362430D01*
X166987480Y-156294586D01*
X167019806Y-156288156D01*
X167161356Y-156260000D01*
X167338644Y-156260000D01*
X167480194Y-156288156D01*
G37*
G36*
X152757935Y-156012664D02*
G01*
X152912624Y-156076739D01*
X152912626Y-156076740D01*
X153051844Y-156169762D01*
X153170238Y-156288156D01*
X153243344Y-156397568D01*
X153263261Y-156427376D01*
X153327336Y-156582065D01*
X153360000Y-156746281D01*
X153360000Y-156913719D01*
X153327336Y-157077935D01*
X153263261Y-157232624D01*
X153263260Y-157232626D01*
X153170238Y-157371844D01*
X153051844Y-157490238D01*
X152912626Y-157583260D01*
X152912625Y-157583261D01*
X152912624Y-157583261D01*
X152757935Y-157647336D01*
X152593719Y-157680000D01*
X152426281Y-157680000D01*
X152262065Y-157647336D01*
X152107376Y-157583261D01*
X152107375Y-157583261D01*
X152107374Y-157583260D01*
X151968156Y-157490238D01*
X151849762Y-157371844D01*
X151756740Y-157232626D01*
X151756739Y-157232624D01*
X151692664Y-157077935D01*
X151660000Y-156913719D01*
X151660000Y-156746281D01*
X151692664Y-156582065D01*
X151756739Y-156427376D01*
X151776656Y-156397568D01*
X151849762Y-156288156D01*
X151968156Y-156169762D01*
X152107374Y-156076740D01*
X152107376Y-156076739D01*
X152262065Y-156012664D01*
X152426281Y-155980000D01*
X152593719Y-155980000D01*
X152757935Y-156012664D01*
G37*
G36*
X105822390Y-153889282D02*
G01*
X105972118Y-153919065D01*
X105992182Y-153927376D01*
X106254199Y-154035907D01*
X106269729Y-154046284D01*
X106508068Y-154205536D01*
X106723964Y-154421432D01*
X106828535Y-154577935D01*
X106893593Y-154675301D01*
X107010435Y-154957383D01*
X107070000Y-155256837D01*
X107070000Y-155562163D01*
X107010435Y-155861617D01*
X106893593Y-156143699D01*
X106893592Y-156143700D01*
X106723964Y-156397568D01*
X106508068Y-156613464D01*
X106338439Y-156726806D01*
X106254199Y-156783093D01*
X106088960Y-156851537D01*
X105972118Y-156899935D01*
X105822390Y-156929717D01*
X105672663Y-156959500D01*
X105367337Y-156959500D01*
X105217610Y-156929717D01*
X105067882Y-156899935D01*
X104951040Y-156851537D01*
X104785801Y-156783093D01*
X104701561Y-156726806D01*
X104531932Y-156613464D01*
X104316036Y-156397568D01*
X104146408Y-156143700D01*
X104146407Y-156143699D01*
X104029565Y-155861617D01*
X103970000Y-155562163D01*
X103970000Y-155256837D01*
X104029565Y-154957383D01*
X104146407Y-154675301D01*
X104211465Y-154577935D01*
X104316036Y-154421432D01*
X104531932Y-154205536D01*
X104770271Y-154046284D01*
X104785801Y-154035907D01*
X105047818Y-153927376D01*
X105067882Y-153919065D01*
X105217610Y-153889282D01*
X105367337Y-153859500D01*
X105672663Y-153859500D01*
X105822390Y-153889282D01*
G37*
G36*
X162198400Y-156550800D02*
G01*
X160398400Y-156550800D01*
X160398400Y-154750800D01*
X162198400Y-154750800D01*
X162198400Y-156550800D01*
G37*
G36*
X134360000Y-156500000D02*
G01*
X132560000Y-156500000D01*
X132560000Y-154700000D01*
X134360000Y-154700000D01*
X134360000Y-156500000D01*
G37*
G36*
X129280000Y-156500000D02*
G01*
X127480000Y-156500000D01*
X127480000Y-154700000D01*
X129280000Y-154700000D01*
X129280000Y-156500000D01*
G37*
G36*
X167512520Y-153754586D02*
G01*
X167676310Y-153822430D01*
X167823717Y-153920924D01*
X167949076Y-154046283D01*
X168047570Y-154193690D01*
X168047571Y-154193692D01*
X168115414Y-154357480D01*
X168150000Y-154531356D01*
X168150000Y-154708644D01*
X168117538Y-154871843D01*
X168115414Y-154882520D01*
X168047570Y-155046310D01*
X167949076Y-155193717D01*
X167823717Y-155319076D01*
X167676310Y-155417570D01*
X167676309Y-155417571D01*
X167676308Y-155417571D01*
X167512520Y-155485414D01*
X167338644Y-155520000D01*
X167161356Y-155520000D01*
X166987480Y-155485414D01*
X166823692Y-155417571D01*
X166823691Y-155417571D01*
X166823690Y-155417570D01*
X166676283Y-155319076D01*
X166550924Y-155193717D01*
X166452430Y-155046310D01*
X166384586Y-154882520D01*
X166382462Y-154871843D01*
X166350000Y-154708644D01*
X166350000Y-154531356D01*
X166384586Y-154357480D01*
X166452429Y-154193692D01*
X166452430Y-154193690D01*
X166550924Y-154046283D01*
X166676283Y-153920924D01*
X166823690Y-153822430D01*
X166987480Y-153754586D01*
X167161356Y-153720000D01*
X167338644Y-153720000D01*
X167512520Y-153754586D01*
G37*
G36*
X123547935Y-153512664D02*
G01*
X123702624Y-153576739D01*
X123702626Y-153576740D01*
X123841844Y-153669762D01*
X123960238Y-153788156D01*
X124007908Y-153859500D01*
X124053261Y-153927376D01*
X124117336Y-154082065D01*
X124150000Y-154246281D01*
X124150000Y-154413719D01*
X124117336Y-154577935D01*
X124077005Y-154675301D01*
X124053260Y-154732626D01*
X123960238Y-154871844D01*
X123841844Y-154990238D01*
X123702626Y-155083260D01*
X123702625Y-155083261D01*
X123702624Y-155083261D01*
X123547935Y-155147336D01*
X123383719Y-155180000D01*
X123216281Y-155180000D01*
X123052065Y-155147336D01*
X122897376Y-155083261D01*
X122897375Y-155083261D01*
X122897374Y-155083260D01*
X122758156Y-154990238D01*
X122639762Y-154871844D01*
X122546740Y-154732626D01*
X122522995Y-154675301D01*
X122482664Y-154577935D01*
X122450000Y-154413719D01*
X122450000Y-154246281D01*
X122482664Y-154082065D01*
X122546739Y-153927376D01*
X122592092Y-153859500D01*
X122639762Y-153788156D01*
X122758156Y-153669762D01*
X122897374Y-153576740D01*
X122897376Y-153576739D01*
X123052065Y-153512664D01*
X123216281Y-153480000D01*
X123383719Y-153480000D01*
X123547935Y-153512664D01*
G37*
G36*
X153360000Y-155180000D02*
G01*
X151660000Y-155180000D01*
X151660000Y-153480000D01*
X153360000Y-153480000D01*
X153360000Y-155180000D01*
G37*
G36*
X157431535Y-152598264D02*
G01*
X157586224Y-152662339D01*
X157586226Y-152662340D01*
X157725444Y-152755362D01*
X157843838Y-152873756D01*
X157936860Y-153012974D01*
X157936861Y-153012976D01*
X158000936Y-153167665D01*
X158033600Y-153331881D01*
X158033600Y-153499319D01*
X158000936Y-153663535D01*
X157949315Y-153788157D01*
X157936860Y-153818226D01*
X157843838Y-153957444D01*
X157725444Y-154075838D01*
X157586226Y-154168860D01*
X157586225Y-154168861D01*
X157586224Y-154168861D01*
X157431535Y-154232936D01*
X157267319Y-154265600D01*
X157099881Y-154265600D01*
X156935665Y-154232936D01*
X156780976Y-154168861D01*
X156780975Y-154168861D01*
X156780974Y-154168860D01*
X156641756Y-154075838D01*
X156523362Y-153957444D01*
X156430340Y-153818226D01*
X156417885Y-153788157D01*
X156366264Y-153663535D01*
X156333600Y-153499319D01*
X156333600Y-153331881D01*
X156366264Y-153167665D01*
X156430339Y-153012976D01*
X156430340Y-153012974D01*
X156523362Y-152873756D01*
X156641756Y-152755362D01*
X156780974Y-152662340D01*
X156780976Y-152662339D01*
X156935665Y-152598264D01*
X157099881Y-152565600D01*
X157267319Y-152565600D01*
X157431535Y-152598264D01*
G37*
G36*
X167512520Y-151214586D02*
G01*
X167584341Y-151244335D01*
X167676310Y-151282430D01*
X167823717Y-151380924D01*
X167949076Y-151506283D01*
X168028400Y-151625000D01*
X168047571Y-151653692D01*
X168115414Y-151817480D01*
X168150000Y-151991356D01*
X168150000Y-152168644D01*
X168135580Y-152241136D01*
X168115414Y-152342520D01*
X168047570Y-152506310D01*
X167949076Y-152653717D01*
X167823717Y-152779076D01*
X167676310Y-152877570D01*
X167676309Y-152877571D01*
X167676308Y-152877571D01*
X167512520Y-152945414D01*
X167338644Y-152980000D01*
X167161356Y-152980000D01*
X166987480Y-152945414D01*
X166823692Y-152877571D01*
X166823691Y-152877571D01*
X166823690Y-152877570D01*
X166676283Y-152779076D01*
X166550924Y-152653717D01*
X166452430Y-152506310D01*
X166384586Y-152342520D01*
X166364420Y-152241136D01*
X166350000Y-152168644D01*
X166350000Y-151991356D01*
X166384586Y-151817480D01*
X166452429Y-151653692D01*
X166471600Y-151625000D01*
X166550924Y-151506283D01*
X166676283Y-151380924D01*
X166823690Y-151282430D01*
X166915660Y-151244335D01*
X166987480Y-151214586D01*
X167161356Y-151180000D01*
X167338644Y-151180000D01*
X167512520Y-151214586D01*
G37*
G36*
X161851135Y-151175864D02*
G01*
X162005824Y-151239939D01*
X162005826Y-151239940D01*
X162145044Y-151332962D01*
X162263438Y-151451356D01*
X162356460Y-151590574D01*
X162356461Y-151590576D01*
X162420536Y-151745265D01*
X162453200Y-151909481D01*
X162453200Y-152076919D01*
X162420536Y-152241135D01*
X162378540Y-152342520D01*
X162356460Y-152395826D01*
X162263438Y-152535044D01*
X162145044Y-152653438D01*
X162005826Y-152746460D01*
X162005825Y-152746461D01*
X162005824Y-152746461D01*
X161851135Y-152810536D01*
X161686919Y-152843200D01*
X161519481Y-152843200D01*
X161355265Y-152810536D01*
X161200576Y-152746461D01*
X161200575Y-152746461D01*
X161200574Y-152746460D01*
X161061356Y-152653438D01*
X160942962Y-152535044D01*
X160849940Y-152395826D01*
X160827860Y-152342520D01*
X160785864Y-152241135D01*
X160753200Y-152076919D01*
X160753200Y-151909481D01*
X160785864Y-151745265D01*
X160849939Y-151590576D01*
X160849940Y-151590574D01*
X160942962Y-151451356D01*
X161061356Y-151332962D01*
X161200574Y-151239940D01*
X161200576Y-151239939D01*
X161355265Y-151175864D01*
X161519481Y-151143200D01*
X161686919Y-151143200D01*
X161851135Y-151175864D01*
G37*
G36*
X151368687Y-149530027D02*
G01*
X151546274Y-149565350D01*
X151737362Y-149644502D01*
X151909336Y-149759411D01*
X152055589Y-149905664D01*
X152170498Y-150077638D01*
X152249650Y-150268726D01*
X152290000Y-150471584D01*
X152290000Y-150678416D01*
X152249650Y-150881274D01*
X152170498Y-151072362D01*
X152055589Y-151244336D01*
X151909336Y-151390589D01*
X151737362Y-151505498D01*
X151546274Y-151584650D01*
X151368687Y-151619973D01*
X151343417Y-151625000D01*
X151136583Y-151625000D01*
X151111313Y-151619973D01*
X150933726Y-151584650D01*
X150742638Y-151505498D01*
X150570664Y-151390589D01*
X150424411Y-151244336D01*
X150309502Y-151072362D01*
X150230350Y-150881274D01*
X150190000Y-150678416D01*
X150190000Y-150471584D01*
X150230350Y-150268726D01*
X150309502Y-150077638D01*
X150424411Y-149905664D01*
X150570664Y-149759411D01*
X150742638Y-149644502D01*
X150933726Y-149565350D01*
X151111313Y-149530027D01*
X151136583Y-149525000D01*
X151343417Y-149525000D01*
X151368687Y-149530027D01*
G37*
G36*
X157868687Y-149530027D02*
G01*
X158046274Y-149565350D01*
X158237362Y-149644502D01*
X158409336Y-149759411D01*
X158555589Y-149905664D01*
X158670498Y-150077638D01*
X158749650Y-150268726D01*
X158790000Y-150471584D01*
X158790000Y-150678416D01*
X158749650Y-150881274D01*
X158670498Y-151072362D01*
X158555589Y-151244336D01*
X158409336Y-151390589D01*
X158237362Y-151505498D01*
X158046274Y-151584650D01*
X157868687Y-151619973D01*
X157843417Y-151625000D01*
X157636583Y-151625000D01*
X157611313Y-151619973D01*
X157433726Y-151584650D01*
X157242638Y-151505498D01*
X157070664Y-151390589D01*
X156924411Y-151244336D01*
X156809502Y-151072362D01*
X156730350Y-150881274D01*
X156690000Y-150678416D01*
X156690000Y-150471584D01*
X156730350Y-150268726D01*
X156809502Y-150077638D01*
X156924411Y-149905664D01*
X157070664Y-149759411D01*
X157242638Y-149644502D01*
X157433726Y-149565350D01*
X157611313Y-149530027D01*
X157636583Y-149525000D01*
X157843417Y-149525000D01*
X157868687Y-149530027D01*
G37*
G36*
X135045000Y-151470000D02*
G01*
X133145000Y-151470000D01*
X133145000Y-149570000D01*
X135045000Y-149570000D01*
X135045000Y-151470000D01*
G37*
G36*
X136820336Y-149588254D02*
G01*
X136912105Y-149606508D01*
X137084994Y-149678121D01*
X137240590Y-149782087D01*
X137372913Y-149914410D01*
X137476879Y-150070006D01*
X137548492Y-150242895D01*
X137585000Y-150426433D01*
X137585000Y-150613567D01*
X137548492Y-150797105D01*
X137476879Y-150969994D01*
X137372913Y-151125590D01*
X137240590Y-151257913D01*
X137084994Y-151361879D01*
X136912105Y-151433492D01*
X136822297Y-151451356D01*
X136728568Y-151470000D01*
X136541432Y-151470000D01*
X136447703Y-151451356D01*
X136357895Y-151433492D01*
X136185006Y-151361879D01*
X136029410Y-151257913D01*
X135897087Y-151125590D01*
X135793121Y-150969994D01*
X135721508Y-150797105D01*
X135685000Y-150613567D01*
X135685000Y-150426433D01*
X135721508Y-150242895D01*
X135793121Y-150070006D01*
X135897087Y-149914410D01*
X136029410Y-149782087D01*
X136185006Y-149678121D01*
X136357895Y-149606508D01*
X136449664Y-149588254D01*
X136541432Y-149570000D01*
X136728568Y-149570000D01*
X136820336Y-149588254D01*
G37*
G36*
X107070000Y-150800000D02*
G01*
X103970000Y-150800000D01*
X103970000Y-147700000D01*
X107070000Y-147700000D01*
X107070000Y-150800000D01*
G37*
G36*
X167512520Y-148674586D02*
G01*
X167676310Y-148742430D01*
X167823717Y-148840924D01*
X167949076Y-148966283D01*
X168047570Y-149113690D01*
X168047571Y-149113692D01*
X168115414Y-149277480D01*
X168150000Y-149451356D01*
X168150000Y-149628644D01*
X168140158Y-149678121D01*
X168115414Y-149802520D01*
X168047570Y-149966310D01*
X167949076Y-150113717D01*
X167823717Y-150239076D01*
X167676310Y-150337570D01*
X167676309Y-150337571D01*
X167676308Y-150337571D01*
X167512520Y-150405414D01*
X167338644Y-150440000D01*
X167161356Y-150440000D01*
X166987480Y-150405414D01*
X166823692Y-150337571D01*
X166823691Y-150337571D01*
X166823690Y-150337570D01*
X166676283Y-150239076D01*
X166550924Y-150113717D01*
X166452430Y-149966310D01*
X166384586Y-149802520D01*
X166359842Y-149678121D01*
X166350000Y-149628644D01*
X166350000Y-149451356D01*
X166384586Y-149277480D01*
X166452429Y-149113692D01*
X166452430Y-149113690D01*
X166550924Y-148966283D01*
X166676283Y-148840924D01*
X166823690Y-148742430D01*
X166987480Y-148674586D01*
X167161356Y-148640000D01*
X167338644Y-148640000D01*
X167512520Y-148674586D01*
G37*
G36*
X116730000Y-150252500D02*
G01*
X114630000Y-150252500D01*
X114630000Y-148247500D01*
X116730000Y-148247500D01*
X116730000Y-150252500D01*
G37*
G36*
X168150000Y-147900000D02*
G01*
X166350000Y-147900000D01*
X166350000Y-146100000D01*
X168150000Y-146100000D01*
X168150000Y-147900000D01*
G37*
G36*
X115924022Y-145722005D02*
G01*
X116112999Y-145779331D01*
X116287153Y-145872418D01*
X116439804Y-145997696D01*
X116565082Y-146150347D01*
X116658169Y-146324501D01*
X116715495Y-146513478D01*
X116734850Y-146710000D01*
X116715495Y-146906522D01*
X116658169Y-147095499D01*
X116565082Y-147269653D01*
X116439804Y-147422304D01*
X116287153Y-147547582D01*
X116112999Y-147640669D01*
X115924022Y-147697995D01*
X115776746Y-147712500D01*
X115583254Y-147712500D01*
X115435978Y-147697995D01*
X115247001Y-147640669D01*
X115072847Y-147547582D01*
X114920196Y-147422304D01*
X114794918Y-147269653D01*
X114701831Y-147095499D01*
X114644505Y-146906522D01*
X114625150Y-146710000D01*
X114644505Y-146513478D01*
X114701831Y-146324501D01*
X114794918Y-146150347D01*
X114920196Y-145997696D01*
X115072847Y-145872418D01*
X115247001Y-145779331D01*
X115435978Y-145722005D01*
X115583254Y-145707500D01*
X115776746Y-145707500D01*
X115924022Y-145722005D01*
G37*
G36*
X151368687Y-145030027D02*
G01*
X151546274Y-145065350D01*
X151737362Y-145144502D01*
X151909336Y-145259411D01*
X152055589Y-145405664D01*
X152170498Y-145577638D01*
X152249650Y-145768726D01*
X152290000Y-145971584D01*
X152290000Y-146178416D01*
X152249650Y-146381274D01*
X152170498Y-146572362D01*
X152055589Y-146744336D01*
X151909336Y-146890589D01*
X151737362Y-147005498D01*
X151546274Y-147084650D01*
X151368687Y-147119973D01*
X151343417Y-147125000D01*
X151136583Y-147125000D01*
X151111313Y-147119973D01*
X150933726Y-147084650D01*
X150742638Y-147005498D01*
X150570664Y-146890589D01*
X150424411Y-146744336D01*
X150309502Y-146572362D01*
X150230350Y-146381274D01*
X150190000Y-146178416D01*
X150190000Y-145971584D01*
X150230350Y-145768726D01*
X150309502Y-145577638D01*
X150424411Y-145405664D01*
X150570664Y-145259411D01*
X150742638Y-145144502D01*
X150933726Y-145065350D01*
X151111313Y-145030027D01*
X151136583Y-145025000D01*
X151343417Y-145025000D01*
X151368687Y-145030027D01*
G37*
G36*
X157868687Y-145030027D02*
G01*
X158046274Y-145065350D01*
X158237362Y-145144502D01*
X158409336Y-145259411D01*
X158555589Y-145405664D01*
X158670498Y-145577638D01*
X158749650Y-145768726D01*
X158790000Y-145971584D01*
X158790000Y-146178416D01*
X158749650Y-146381274D01*
X158670498Y-146572362D01*
X158555589Y-146744336D01*
X158409336Y-146890589D01*
X158237362Y-147005498D01*
X158046274Y-147084650D01*
X157868687Y-147119973D01*
X157843417Y-147125000D01*
X157636583Y-147125000D01*
X157611313Y-147119973D01*
X157433726Y-147084650D01*
X157242638Y-147005498D01*
X157070664Y-146890589D01*
X156924411Y-146744336D01*
X156809502Y-146572362D01*
X156730350Y-146381274D01*
X156690000Y-146178416D01*
X156690000Y-145971584D01*
X156730350Y-145768726D01*
X156809502Y-145577638D01*
X156924411Y-145405664D01*
X157070664Y-145259411D01*
X157242638Y-145144502D01*
X157433726Y-145065350D01*
X157611313Y-145030027D01*
X157636583Y-145025000D01*
X157843417Y-145025000D01*
X157868687Y-145030027D01*
G37*
G36*
X131157935Y-144932664D02*
G01*
X131312624Y-144996739D01*
X131312626Y-144996740D01*
X131451844Y-145089762D01*
X131570238Y-145208156D01*
X131663260Y-145347374D01*
X131663261Y-145347376D01*
X131727336Y-145502065D01*
X131760000Y-145666281D01*
X131760000Y-145833719D01*
X131727336Y-145997935D01*
X131664204Y-146150347D01*
X131663260Y-146152626D01*
X131570238Y-146291844D01*
X131451844Y-146410238D01*
X131312626Y-146503260D01*
X131312625Y-146503261D01*
X131312624Y-146503261D01*
X131157935Y-146567336D01*
X130993719Y-146600000D01*
X130826281Y-146600000D01*
X130662065Y-146567336D01*
X130507376Y-146503261D01*
X130507375Y-146503261D01*
X130507374Y-146503260D01*
X130368156Y-146410238D01*
X130249762Y-146291844D01*
X130156740Y-146152626D01*
X130155796Y-146150347D01*
X130092664Y-145997935D01*
X130060000Y-145833719D01*
X130060000Y-145666281D01*
X130092664Y-145502065D01*
X130156739Y-145347376D01*
X130156740Y-145347374D01*
X130249762Y-145208156D01*
X130368156Y-145089762D01*
X130507374Y-144996740D01*
X130507376Y-144996739D01*
X130662065Y-144932664D01*
X130826281Y-144900000D01*
X130993719Y-144900000D01*
X131157935Y-144932664D01*
G37*
G36*
X120997935Y-144932664D02*
G01*
X121152624Y-144996739D01*
X121152626Y-144996740D01*
X121291844Y-145089762D01*
X121410238Y-145208156D01*
X121503260Y-145347374D01*
X121503261Y-145347376D01*
X121567336Y-145502065D01*
X121600000Y-145666281D01*
X121600000Y-145833719D01*
X121567336Y-145997935D01*
X121504204Y-146150347D01*
X121503260Y-146152626D01*
X121410238Y-146291844D01*
X121291844Y-146410238D01*
X121152626Y-146503260D01*
X121152625Y-146503261D01*
X121152624Y-146503261D01*
X120997935Y-146567336D01*
X120833719Y-146600000D01*
X120666281Y-146600000D01*
X120502065Y-146567336D01*
X120347376Y-146503261D01*
X120347375Y-146503261D01*
X120347374Y-146503260D01*
X120208156Y-146410238D01*
X120089762Y-146291844D01*
X119996740Y-146152626D01*
X119995796Y-146150347D01*
X119932664Y-145997935D01*
X119900000Y-145833719D01*
X119900000Y-145666281D01*
X119932664Y-145502065D01*
X119996739Y-145347376D01*
X119996740Y-145347374D01*
X120089762Y-145208156D01*
X120208156Y-145089762D01*
X120347374Y-144996740D01*
X120347376Y-144996739D01*
X120502065Y-144932664D01*
X120666281Y-144900000D01*
X120833719Y-144900000D01*
X120997935Y-144932664D01*
G37*
G36*
X105760541Y-142637480D02*
G01*
X105972118Y-142679565D01*
X106088960Y-142727963D01*
X106254199Y-142796407D01*
X106283944Y-142816282D01*
X106508068Y-142966036D01*
X106723964Y-143181932D01*
X106836263Y-143350000D01*
X106893593Y-143435801D01*
X106909298Y-143473717D01*
X107010435Y-143717882D01*
X107023686Y-143784501D01*
X107070000Y-144017337D01*
X107070000Y-144322663D01*
X107010435Y-144622117D01*
X106893593Y-144904199D01*
X106837306Y-144988439D01*
X106723964Y-145158068D01*
X106508068Y-145373964D01*
X106338439Y-145487306D01*
X106254199Y-145543593D01*
X106088960Y-145612037D01*
X105972118Y-145660435D01*
X105822390Y-145690217D01*
X105672663Y-145720000D01*
X105367337Y-145720000D01*
X105217610Y-145690217D01*
X105067882Y-145660435D01*
X104951040Y-145612037D01*
X104785801Y-145543593D01*
X104701561Y-145487306D01*
X104531932Y-145373964D01*
X104316036Y-145158068D01*
X104202694Y-144988439D01*
X104146407Y-144904199D01*
X104029565Y-144622117D01*
X103970000Y-144322663D01*
X103970000Y-144017337D01*
X104016314Y-143784501D01*
X104029565Y-143717882D01*
X104130702Y-143473717D01*
X104146407Y-143435801D01*
X104203737Y-143350000D01*
X104316036Y-143181932D01*
X104531932Y-142966036D01*
X104756056Y-142816282D01*
X104785801Y-142796407D01*
X104951040Y-142727963D01*
X105067882Y-142679565D01*
X105279459Y-142637480D01*
X105367337Y-142620000D01*
X105672663Y-142620000D01*
X105760541Y-142637480D01*
G37*
G36*
X115924022Y-143182005D02*
G01*
X116112999Y-143239331D01*
X116287153Y-143332418D01*
X116439804Y-143457696D01*
X116565082Y-143610347D01*
X116658169Y-143784501D01*
X116715495Y-143973478D01*
X116734850Y-144170000D01*
X116715495Y-144366522D01*
X116658169Y-144555499D01*
X116565082Y-144729653D01*
X116439804Y-144882304D01*
X116287153Y-145007582D01*
X116112999Y-145100669D01*
X115924022Y-145157995D01*
X115776746Y-145172500D01*
X115583254Y-145172500D01*
X115435978Y-145157995D01*
X115247001Y-145100669D01*
X115072847Y-145007582D01*
X114920196Y-144882304D01*
X114794918Y-144729653D01*
X114701831Y-144555499D01*
X114644505Y-144366522D01*
X114625150Y-144170000D01*
X114644505Y-143973478D01*
X114701831Y-143784501D01*
X114794918Y-143610347D01*
X114920196Y-143457696D01*
X115072847Y-143332418D01*
X115247001Y-143239331D01*
X115435978Y-143182005D01*
X115583254Y-143167500D01*
X115776746Y-143167500D01*
X115924022Y-143182005D01*
G37*
G36*
X136820336Y-142603254D02*
G01*
X136912105Y-142621508D01*
X137084994Y-142693121D01*
X137240590Y-142797087D01*
X137372913Y-142929410D01*
X137476879Y-143085006D01*
X137548492Y-143257895D01*
X137585000Y-143441433D01*
X137585000Y-143628567D01*
X137548492Y-143812105D01*
X137476879Y-143984994D01*
X137372913Y-144140590D01*
X137240590Y-144272913D01*
X137084994Y-144376879D01*
X136912105Y-144448492D01*
X136820336Y-144466746D01*
X136728568Y-144485000D01*
X136541432Y-144485000D01*
X136449664Y-144466746D01*
X136357895Y-144448492D01*
X136185006Y-144376879D01*
X136029410Y-144272913D01*
X135897087Y-144140590D01*
X135793121Y-143984994D01*
X135721508Y-143812105D01*
X135685000Y-143628567D01*
X135685000Y-143441433D01*
X135721508Y-143257895D01*
X135793121Y-143085006D01*
X135897087Y-142929410D01*
X136029410Y-142797087D01*
X136185006Y-142693121D01*
X136357895Y-142621508D01*
X136449664Y-142603254D01*
X136541432Y-142585000D01*
X136728568Y-142585000D01*
X136820336Y-142603254D01*
G37*
G36*
X135045000Y-144485000D02*
G01*
X133145000Y-144485000D01*
X133145000Y-142585000D01*
X135045000Y-142585000D01*
X135045000Y-144485000D01*
G37*
G36*
X146422520Y-142034586D02*
G01*
X146534900Y-142081135D01*
X146586310Y-142102430D01*
X146733717Y-142200924D01*
X146859076Y-142326283D01*
X146919211Y-142416282D01*
X146957571Y-142473692D01*
X147025414Y-142637480D01*
X147060000Y-142811356D01*
X147060000Y-142988644D01*
X147025414Y-143162520D01*
X146985909Y-143257895D01*
X146957570Y-143326310D01*
X146859076Y-143473717D01*
X146733717Y-143599076D01*
X146586310Y-143697570D01*
X146586309Y-143697571D01*
X146586308Y-143697571D01*
X146422520Y-143765414D01*
X146248644Y-143800000D01*
X146071356Y-143800000D01*
X145897480Y-143765414D01*
X145733692Y-143697571D01*
X145733691Y-143697571D01*
X145733690Y-143697570D01*
X145586283Y-143599076D01*
X145460924Y-143473717D01*
X145362430Y-143326310D01*
X145334092Y-143257895D01*
X145294586Y-143162520D01*
X145260000Y-142988644D01*
X145260000Y-142811356D01*
X145294586Y-142637480D01*
X145362429Y-142473692D01*
X145400789Y-142416282D01*
X145460924Y-142326283D01*
X145586283Y-142200924D01*
X145733690Y-142102430D01*
X145785101Y-142081135D01*
X145897480Y-142034586D01*
X146071356Y-142000000D01*
X146248644Y-142000000D01*
X146422520Y-142034586D01*
G37*
G36*
X143882520Y-142034586D02*
G01*
X143994900Y-142081135D01*
X144046310Y-142102430D01*
X144193717Y-142200924D01*
X144319076Y-142326283D01*
X144379211Y-142416282D01*
X144417571Y-142473692D01*
X144485414Y-142637480D01*
X144520000Y-142811356D01*
X144520000Y-142988644D01*
X144485414Y-143162520D01*
X144445909Y-143257895D01*
X144417570Y-143326310D01*
X144319076Y-143473717D01*
X144193717Y-143599076D01*
X144046310Y-143697570D01*
X144046309Y-143697571D01*
X144046308Y-143697571D01*
X143882520Y-143765414D01*
X143708644Y-143800000D01*
X143531356Y-143800000D01*
X143357480Y-143765414D01*
X143193692Y-143697571D01*
X143193691Y-143697571D01*
X143193690Y-143697570D01*
X143046283Y-143599076D01*
X142920924Y-143473717D01*
X142822430Y-143326310D01*
X142794092Y-143257895D01*
X142754586Y-143162520D01*
X142720000Y-142988644D01*
X142720000Y-142811356D01*
X142754586Y-142637480D01*
X142822429Y-142473692D01*
X142860789Y-142416282D01*
X142920924Y-142326283D01*
X143046283Y-142200924D01*
X143193690Y-142102430D01*
X143245101Y-142081135D01*
X143357480Y-142034586D01*
X143531356Y-142000000D01*
X143708644Y-142000000D01*
X143882520Y-142034586D01*
G37*
G36*
X141980000Y-143800000D02*
G01*
X140180000Y-143800000D01*
X140180000Y-142000000D01*
X141980000Y-142000000D01*
X141980000Y-143800000D01*
G37*
G36*
X155217935Y-142082664D02*
G01*
X155372624Y-142146739D01*
X155372626Y-142146740D01*
X155511844Y-142239762D01*
X155630238Y-142358156D01*
X155669076Y-142416282D01*
X155723261Y-142497376D01*
X155787336Y-142652065D01*
X155820000Y-142816281D01*
X155820000Y-142983719D01*
X155787336Y-143147935D01*
X155741788Y-143257896D01*
X155723260Y-143302626D01*
X155630238Y-143441844D01*
X155511844Y-143560238D01*
X155372626Y-143653260D01*
X155372625Y-143653261D01*
X155372624Y-143653261D01*
X155217935Y-143717336D01*
X155053719Y-143750000D01*
X154886281Y-143750000D01*
X154722065Y-143717336D01*
X154567376Y-143653261D01*
X154567375Y-143653261D01*
X154567374Y-143653260D01*
X154428156Y-143560238D01*
X154309762Y-143441844D01*
X154216740Y-143302626D01*
X154198212Y-143257896D01*
X154152664Y-143147935D01*
X154120000Y-142983719D01*
X154120000Y-142816281D01*
X154152664Y-142652065D01*
X154216739Y-142497376D01*
X154270924Y-142416282D01*
X154309762Y-142358156D01*
X154428156Y-142239762D01*
X154567374Y-142146740D01*
X154567376Y-142146739D01*
X154722065Y-142082664D01*
X154886281Y-142050000D01*
X155053719Y-142050000D01*
X155217935Y-142082664D01*
G37*
G36*
X150217935Y-142082664D02*
G01*
X150372624Y-142146739D01*
X150372626Y-142146740D01*
X150511844Y-142239762D01*
X150630238Y-142358156D01*
X150669076Y-142416282D01*
X150723261Y-142497376D01*
X150787336Y-142652065D01*
X150820000Y-142816281D01*
X150820000Y-142983719D01*
X150787336Y-143147935D01*
X150741788Y-143257896D01*
X150723260Y-143302626D01*
X150630238Y-143441844D01*
X150511844Y-143560238D01*
X150372626Y-143653260D01*
X150372625Y-143653261D01*
X150372624Y-143653261D01*
X150217935Y-143717336D01*
X150053719Y-143750000D01*
X149886281Y-143750000D01*
X149722065Y-143717336D01*
X149567376Y-143653261D01*
X149567375Y-143653261D01*
X149567374Y-143653260D01*
X149428156Y-143560238D01*
X149309762Y-143441844D01*
X149216740Y-143302626D01*
X149198212Y-143257896D01*
X149152664Y-143147935D01*
X149120000Y-142983719D01*
X149120000Y-142816281D01*
X149152664Y-142652065D01*
X149216739Y-142497376D01*
X149270924Y-142416282D01*
X149309762Y-142358156D01*
X149428156Y-142239762D01*
X149567374Y-142146740D01*
X149567376Y-142146739D01*
X149722065Y-142082664D01*
X149886281Y-142050000D01*
X150053719Y-142050000D01*
X150217935Y-142082664D01*
G37*
G36*
X131157935Y-141682664D02*
G01*
X131312624Y-141746739D01*
X131312626Y-141746740D01*
X131451844Y-141839762D01*
X131570238Y-141958156D01*
X131663260Y-142097374D01*
X131663261Y-142097376D01*
X131727336Y-142252065D01*
X131760000Y-142416281D01*
X131760000Y-142583719D01*
X131727336Y-142747935D01*
X131699025Y-142816282D01*
X131663260Y-142902626D01*
X131570238Y-143041844D01*
X131451844Y-143160238D01*
X131312626Y-143253260D01*
X131312625Y-143253261D01*
X131312624Y-143253261D01*
X131157935Y-143317336D01*
X130993719Y-143350000D01*
X130826281Y-143350000D01*
X130662065Y-143317336D01*
X130507376Y-143253261D01*
X130507375Y-143253261D01*
X130507374Y-143253260D01*
X130368156Y-143160238D01*
X130249762Y-143041844D01*
X130156740Y-142902626D01*
X130120975Y-142816282D01*
X130092664Y-142747935D01*
X130060000Y-142583719D01*
X130060000Y-142416281D01*
X130092664Y-142252065D01*
X130156739Y-142097376D01*
X130156740Y-142097374D01*
X130249762Y-141958156D01*
X130368156Y-141839762D01*
X130507374Y-141746740D01*
X130507376Y-141746739D01*
X130662065Y-141682664D01*
X130826281Y-141650000D01*
X130993719Y-141650000D01*
X131157935Y-141682664D01*
G37*
G36*
X120997935Y-141682664D02*
G01*
X121152624Y-141746739D01*
X121152626Y-141746740D01*
X121291844Y-141839762D01*
X121410238Y-141958156D01*
X121503260Y-142097374D01*
X121503261Y-142097376D01*
X121567336Y-142252065D01*
X121600000Y-142416281D01*
X121600000Y-142583719D01*
X121567336Y-142747935D01*
X121539025Y-142816282D01*
X121503260Y-142902626D01*
X121410238Y-143041844D01*
X121291844Y-143160238D01*
X121152626Y-143253260D01*
X121152625Y-143253261D01*
X121152624Y-143253261D01*
X120997935Y-143317336D01*
X120833719Y-143350000D01*
X120666281Y-143350000D01*
X120502065Y-143317336D01*
X120347376Y-143253261D01*
X120347375Y-143253261D01*
X120347374Y-143253260D01*
X120208156Y-143160238D01*
X120089762Y-143041844D01*
X119996740Y-142902626D01*
X119960975Y-142816282D01*
X119932664Y-142747935D01*
X119900000Y-142583719D01*
X119900000Y-142416281D01*
X119932664Y-142252065D01*
X119996739Y-142097376D01*
X119996740Y-142097374D01*
X120089762Y-141958156D01*
X120208156Y-141839762D01*
X120347374Y-141746740D01*
X120347376Y-141746739D01*
X120502065Y-141682664D01*
X120666281Y-141650000D01*
X120833719Y-141650000D01*
X120997935Y-141682664D01*
G37*
G36*
X161851135Y-141015864D02*
G01*
X162005824Y-141079939D01*
X162005826Y-141079940D01*
X162145044Y-141172962D01*
X162263438Y-141291356D01*
X162356460Y-141430574D01*
X162356461Y-141430576D01*
X162420536Y-141585265D01*
X162453200Y-141749481D01*
X162453200Y-141916919D01*
X162420536Y-142081135D01*
X162393361Y-142146740D01*
X162356460Y-142235826D01*
X162263438Y-142375044D01*
X162145044Y-142493438D01*
X162005826Y-142586460D01*
X162005825Y-142586461D01*
X162005824Y-142586461D01*
X161851135Y-142650536D01*
X161686919Y-142683200D01*
X161519481Y-142683200D01*
X161355265Y-142650536D01*
X161200576Y-142586461D01*
X161200575Y-142586461D01*
X161200574Y-142586460D01*
X161061356Y-142493438D01*
X160942962Y-142375044D01*
X160849940Y-142235826D01*
X160813039Y-142146740D01*
X160785864Y-142081135D01*
X160753200Y-141916919D01*
X160753200Y-141749481D01*
X160785864Y-141585265D01*
X160849939Y-141430576D01*
X160849940Y-141430574D01*
X160942962Y-141291356D01*
X161061356Y-141172962D01*
X161200574Y-141079940D01*
X161200576Y-141079939D01*
X161355265Y-141015864D01*
X161519481Y-140983200D01*
X161686919Y-140983200D01*
X161851135Y-141015864D01*
G37*
G36*
X171207874Y-136359023D02*
G01*
X171481287Y-136413408D01*
X171781568Y-136537789D01*
X172051814Y-136718361D01*
X172281639Y-136948186D01*
X172462211Y-137218432D01*
X172586592Y-137518713D01*
X172650000Y-137837489D01*
X172650000Y-138162511D01*
X172586592Y-138481287D01*
X172462211Y-138781568D01*
X172281639Y-139051814D01*
X172051814Y-139281639D01*
X171781568Y-139462211D01*
X171481287Y-139586592D01*
X171207874Y-139640977D01*
X171162512Y-139650000D01*
X170837488Y-139650000D01*
X170792126Y-139640977D01*
X170518713Y-139586592D01*
X170218432Y-139462211D01*
X169948186Y-139281639D01*
X169718361Y-139051814D01*
X169537789Y-138781568D01*
X169413408Y-138481287D01*
X169350000Y-138162511D01*
X169350000Y-137837489D01*
X169413408Y-137518713D01*
X169537789Y-137218432D01*
X169718361Y-136948186D01*
X169948186Y-136718361D01*
X170218432Y-136537789D01*
X170518713Y-136413408D01*
X170792126Y-136359023D01*
X170837488Y-136350000D01*
X171162512Y-136350000D01*
X171207874Y-136359023D01*
G37*
G36*
X96707874Y-136359023D02*
G01*
X96981287Y-136413408D01*
X97281568Y-136537789D01*
X97551814Y-136718361D01*
X97781639Y-136948186D01*
X97962211Y-137218432D01*
X98086592Y-137518713D01*
X98150000Y-137837489D01*
X98150000Y-138162511D01*
X98086592Y-138481287D01*
X97962211Y-138781568D01*
X97781639Y-139051814D01*
X97551814Y-139281639D01*
X97281568Y-139462211D01*
X96981287Y-139586592D01*
X96707874Y-139640977D01*
X96662512Y-139650000D01*
X96337488Y-139650000D01*
X96292126Y-139640977D01*
X96018713Y-139586592D01*
X95718432Y-139462211D01*
X95448186Y-139281639D01*
X95218361Y-139051814D01*
X95037789Y-138781568D01*
X94913408Y-138481287D01*
X94850000Y-138162511D01*
X94850000Y-137837489D01*
X94913408Y-137518713D01*
X95037789Y-137218432D01*
X95218361Y-136948186D01*
X95448186Y-136718361D01*
X95718432Y-136537789D01*
X96018713Y-136413408D01*
X96292126Y-136359023D01*
X96337488Y-136350000D01*
X96662512Y-136350000D01*
X96707874Y-136359023D01*
G37*
M02*
