%TF.GenerationSoftware,KiCad,Pcbnew,5.1.6+dfsg1-1~bpo10+1*%
%TF.CreationDate,2020-11-22T17:09:41+10:30*%
%TF.ProjectId,robotcontrol,726f626f-7463-46f6-9e74-726f6c2e6b69,rev?*%
%TF.SameCoordinates,Original*%
%TF.FileFunction,Copper,L2,Bot*%
%TF.FilePolarity,Positive*%
%FSLAX46Y46*%
G04 Gerber Fmt 4.6, Leading zero omitted, Abs format (unit mm)*
G04 Created by KiCad (PCBNEW 5.1.6+dfsg1-1~bpo10+1) date 2020-11-22 17:09:41*
%MOMM*%
%LPD*%
G01*
G04 APERTURE LIST*
%TA.AperFunction,ComponentPad*%
%ADD10C,3.000000*%
%TD*%
%TA.AperFunction,ComponentPad*%
%ADD11R,3.000000X3.000000*%
%TD*%
%TA.AperFunction,ComponentPad*%
%ADD12O,1.700000X1.700000*%
%TD*%
%TA.AperFunction,ComponentPad*%
%ADD13R,1.700000X1.700000*%
%TD*%
%TA.AperFunction,ComponentPad*%
%ADD14O,2.000000X1.905000*%
%TD*%
%TA.AperFunction,ComponentPad*%
%ADD15R,2.000000X1.905000*%
%TD*%
%TA.AperFunction,ComponentPad*%
%ADD16C,2.000000*%
%TD*%
%TA.AperFunction,ComponentPad*%
%ADD17O,1.600000X1.600000*%
%TD*%
%TA.AperFunction,ComponentPad*%
%ADD18C,1.600000*%
%TD*%
%TA.AperFunction,ComponentPad*%
%ADD19C,1.800000*%
%TD*%
%TA.AperFunction,ComponentPad*%
%ADD20R,1.800000X1.800000*%
%TD*%
%TA.AperFunction,ComponentPad*%
%ADD21R,1.600000X1.600000*%
%TD*%
%TA.AperFunction,ViaPad*%
%ADD22C,0.800000*%
%TD*%
%TA.AperFunction,Conductor*%
%ADD23C,0.600000*%
%TD*%
%TA.AperFunction,Conductor*%
%ADD24C,0.250000*%
%TD*%
%TA.AperFunction,Conductor*%
%ADD25C,0.254000*%
%TD*%
G04 APERTURE END LIST*
D10*
%TO.P,BT1,1*%
%TO.N,VCCIN*%
X105520000Y-155409500D03*
D11*
%TO.P,BT1,2*%
%TO.N,GND*%
X105520000Y-160489500D03*
%TD*%
D12*
%TO.P,J6,6*%
%TO.N,GND*%
X138540000Y-163220000D03*
%TO.P,J6,5*%
%TO.N,Net-(J6-Pad5)*%
X138540000Y-160680000D03*
%TO.P,J6,4*%
%TO.N,Net-(J6-Pad4)*%
X141080000Y-163220000D03*
%TO.P,J6,3*%
%TO.N,Net-(J6-Pad3)*%
X141080000Y-160680000D03*
%TO.P,J6,2*%
%TO.N,VCC*%
X143620000Y-163220000D03*
D13*
%TO.P,J6,1*%
%TO.N,Net-(J6-Pad1)*%
X143620000Y-160680000D03*
%TD*%
D14*
%TO.P,U2,3*%
%TO.N,VCC*%
X115680000Y-144170000D03*
%TO.P,U2,2*%
%TO.N,GND*%
X115680000Y-146710000D03*
D15*
%TO.P,U2,1*%
%TO.N,Net-(C1-Pad1)*%
X115680000Y-149250000D03*
%TD*%
D16*
%TO.P,SW2,1*%
%TO.N,Net-(J6-Pad5)*%
X157740000Y-146075000D03*
%TO.P,SW2,2*%
%TO.N,GND*%
X157740000Y-150575000D03*
%TO.P,SW2,1*%
%TO.N,Net-(J6-Pad5)*%
X151240000Y-146075000D03*
%TO.P,SW2,2*%
%TO.N,GND*%
X151240000Y-150575000D03*
%TD*%
D12*
%TO.P,SW1,3*%
%TO.N,Net-(SW1-Pad3)*%
X146160000Y-142900000D03*
%TO.P,SW1,2*%
%TO.N,VCCIN*%
X143620000Y-142900000D03*
D13*
%TO.P,SW1,1*%
%TO.N,VCC*%
X141080000Y-142900000D03*
%TD*%
D17*
%TO.P,R4,2*%
%TO.N,Net-(J6-Pad5)*%
X157590000Y-161315000D03*
D18*
%TO.P,R4,1*%
%TO.N,VCC*%
X147430000Y-161315000D03*
%TD*%
D17*
%TO.P,R3,2*%
%TO.N,Net-(D5-Pad2)*%
X161603200Y-151993200D03*
D18*
%TO.P,R3,1*%
%TO.N,Net-(R3-Pad1)*%
X161603200Y-141833200D03*
%TD*%
D17*
%TO.P,R2,2*%
%TO.N,GND*%
X123300000Y-154330000D03*
D18*
%TO.P,R2,1*%
%TO.N,Net-(R2-Pad1)*%
X123300000Y-164490000D03*
%TD*%
D17*
%TO.P,R1,2*%
%TO.N,Net-(D2-Pad2)*%
X157590000Y-164490000D03*
D18*
%TO.P,R1,1*%
%TO.N,VCCIN*%
X147430000Y-164490000D03*
%TD*%
D12*
%TO.P,J5,4*%
%TO.N,Net-(J5-Pad4)*%
X161298400Y-163270800D03*
%TO.P,J5,3*%
%TO.N,Net-(J5-Pad3)*%
X161298400Y-160730800D03*
%TO.P,J5,2*%
%TO.N,GND*%
X161298400Y-158190800D03*
D13*
%TO.P,J5,1*%
%TO.N,VCC*%
X161298400Y-155650800D03*
%TD*%
D12*
%TO.P,J4,4*%
%TO.N,VCC*%
X128380000Y-163220000D03*
%TO.P,J4,3*%
%TO.N,Net-(J4-Pad3)*%
X128380000Y-160680000D03*
%TO.P,J4,2*%
%TO.N,Net-(J4-Pad2)*%
X128380000Y-158140000D03*
D13*
%TO.P,J4,1*%
%TO.N,GND*%
X128380000Y-155600000D03*
%TD*%
D12*
%TO.P,J3,4*%
%TO.N,VCC*%
X133460000Y-163220000D03*
%TO.P,J3,3*%
%TO.N,Net-(J3-Pad3)*%
X133460000Y-160680000D03*
%TO.P,J3,2*%
%TO.N,Net-(J3-Pad2)*%
X133460000Y-158140000D03*
D13*
%TO.P,J3,1*%
%TO.N,GND*%
X133460000Y-155600000D03*
%TD*%
D10*
%TO.P,J2,2*%
%TO.N,GND*%
X105520000Y-144170000D03*
D11*
%TO.P,J2,1*%
%TO.N,Net-(C1-Pad1)*%
X105520000Y-149250000D03*
%TD*%
D19*
%TO.P,D5,2*%
%TO.N,Net-(D5-Pad2)*%
X136635000Y-150520000D03*
D20*
%TO.P,D5,1*%
%TO.N,GND*%
X134095000Y-150520000D03*
%TD*%
D19*
%TO.P,D2,2*%
%TO.N,Net-(D2-Pad2)*%
X136635000Y-143535000D03*
D20*
%TO.P,D2,1*%
%TO.N,GND*%
X134095000Y-143535000D03*
%TD*%
D18*
%TO.P,C3,2*%
%TO.N,GND*%
X152510000Y-156830000D03*
D21*
%TO.P,C3,1*%
%TO.N,VCC*%
X152510000Y-154330000D03*
%TD*%
D18*
%TO.P,C2,2*%
%TO.N,GND*%
X157183600Y-158415600D03*
%TO.P,C2,1*%
%TO.N,VCC*%
X157183600Y-153415600D03*
%TD*%
%TO.P,C1,2*%
%TO.N,GND*%
X154970000Y-142900000D03*
%TO.P,C1,1*%
%TO.N,Net-(C1-Pad1)*%
X149970000Y-142900000D03*
%TD*%
D17*
%TO.P,R5,2*%
%TO.N,Net-(J7-Pad1)*%
X130910000Y-145750000D03*
D18*
%TO.P,R5,1*%
%TO.N,VCC*%
X120750000Y-145750000D03*
%TD*%
%TO.P,R6,1*%
%TO.N,Net-(J7-Pad1)*%
X120750000Y-142500000D03*
D17*
%TO.P,R6,2*%
%TO.N,GND*%
X130910000Y-142500000D03*
%TD*%
D13*
%TO.P,J7,1*%
%TO.N,Net-(J7-Pad1)*%
X167250000Y-147000000D03*
D12*
%TO.P,J7,2*%
%TO.N,GND*%
X167250000Y-149540000D03*
%TO.P,J7,3*%
%TO.N,Net-(J7-Pad3)*%
X167250000Y-152080000D03*
%TO.P,J7,4*%
%TO.N,Net-(J6-Pad4)*%
X167250000Y-154620000D03*
%TO.P,J7,5*%
%TO.N,Net-(J7-Pad5)*%
X167250000Y-157160000D03*
%TO.P,J7,6*%
%TO.N,Net-(J6-Pad3)*%
X167250000Y-159700000D03*
%TO.P,J7,7*%
%TO.N,Net-(J7-Pad7)*%
X167250000Y-162240000D03*
%TD*%
D22*
%TO.N,Net-(C1-Pad1)*%
X118320000Y-143170000D03*
X148580000Y-140599990D03*
%TO.N,VCC*%
X144839200Y-153364800D03*
X119045500Y-147535500D03*
%TO.N,VCCIN*%
X112073200Y-155600000D03*
X118145490Y-151218500D03*
X121634998Y-154330000D03*
X118220000Y-156870000D03*
X114410000Y-158140000D03*
X137475000Y-146450000D03*
%TO.N,Net-(D2-Pad2)*%
X158034500Y-156044500D03*
%TO.N,Net-(D5-Pad2)*%
X134560000Y-153120000D03*
X135810000Y-158330000D03*
X137700000Y-158330000D03*
X145570000Y-161690000D03*
X149820000Y-160640000D03*
X140830000Y-157830000D03*
%TO.N,Net-(J3-Pad3)*%
X145270000Y-150940000D03*
%TO.N,Net-(J3-Pad2)*%
X143683500Y-150710500D03*
%TO.N,Net-(J4-Pad3)*%
X146220000Y-150950000D03*
%TO.N,Net-(J4-Pad2)*%
X145940000Y-150050000D03*
%TO.N,Net-(J5-Pad4)*%
X145900000Y-145630000D03*
X151110000Y-148580000D03*
X155060000Y-153030000D03*
%TO.N,Net-(J5-Pad3)*%
X147100000Y-145620000D03*
%TO.N,Net-(R2-Pad1)*%
X108875000Y-166087500D03*
%TO.N,Net-(R3-Pad1)*%
X144262496Y-144905490D03*
%TO.N,Net-(J6-Pad5)*%
X161019000Y-148488000D03*
X161019000Y-148488000D03*
X142540500Y-150647000D03*
%TO.N,Net-(J6-Pad4)*%
X152000000Y-164500000D03*
X145500000Y-164500000D03*
%TO.N,Net-(J6-Pad3)*%
X150500000Y-164890001D03*
X146971312Y-163167272D03*
%TO.N,Net-(J6-Pad1)*%
X145072249Y-158902431D03*
%TO.N,Net-(J1-Pad1)*%
X117712000Y-158203500D03*
X114854500Y-159473500D03*
%TO.N,Net-(J7-Pad5)*%
X146000000Y-167320841D03*
X148750000Y-160000000D03*
X143250000Y-158250000D03*
X146152346Y-159902346D03*
%TO.N,Net-(J7-Pad3)*%
X154000000Y-161250000D03*
X144500000Y-154500000D03*
X148736990Y-159000000D03*
X149000000Y-156000000D03*
%TO.N,Net-(J7-Pad7)*%
X135500000Y-160000000D03*
X137754267Y-159328529D03*
%TD*%
D23*
%TO.N,Net-(C1-Pad1)*%
X105520000Y-149250000D02*
X115680000Y-149250000D01*
D24*
X115103339Y-142892490D02*
X118042490Y-142892490D01*
X115680000Y-149250000D02*
X114354990Y-147924990D01*
X114354990Y-143640839D02*
X115103339Y-142892490D01*
X114354990Y-147924990D02*
X114354990Y-143640839D01*
X118042490Y-142892490D02*
X118320000Y-143170000D01*
X149970000Y-141989990D02*
X149970000Y-142900000D01*
X148580000Y-140599990D02*
X149970000Y-141989990D01*
D23*
%TO.N,VCC*%
X128380000Y-163220000D02*
X133460000Y-163220000D01*
X145525000Y-163220000D02*
X147430000Y-161315000D01*
X143620000Y-163220000D02*
X145525000Y-163220000D01*
X147430000Y-155955600D02*
X144839200Y-153364800D01*
X144839200Y-153364800D02*
X144839200Y-153364800D01*
X147430000Y-155955600D02*
X148598400Y-157124000D01*
X149716000Y-157124000D02*
X152510000Y-154330000D01*
X148598400Y-157124000D02*
X149716000Y-157124000D01*
X156269200Y-154330000D02*
X157183600Y-153415600D01*
X152510000Y-154330000D02*
X156269200Y-154330000D01*
X159063200Y-153415600D02*
X161298400Y-155650800D01*
X157183600Y-153415600D02*
X159063200Y-153415600D01*
X142096000Y-164744000D02*
X143620000Y-163220000D01*
X133460000Y-163220000D02*
X134984000Y-164744000D01*
X134984000Y-164744000D02*
X142096000Y-164744000D01*
X119045500Y-153885500D02*
X128380000Y-163220000D01*
X119045500Y-147535500D02*
X119045500Y-153885500D01*
X115680000Y-144170000D02*
X119045500Y-147535500D01*
X141080000Y-144350000D02*
X141080000Y-142900000D01*
X152510000Y-154330000D02*
X145906000Y-147726000D01*
X144456000Y-147726000D02*
X141080000Y-144350000D01*
X145906000Y-147726000D02*
X144456000Y-147726000D01*
X147836988Y-156362588D02*
X147430000Y-155955600D01*
X147836988Y-160908012D02*
X147836988Y-156362588D01*
X147430000Y-161315000D02*
X147836988Y-160908012D01*
%TO.N,VCCIN*%
X112073200Y-155600000D02*
X112073200Y-155600000D01*
X112073200Y-155600000D02*
X113763990Y-155600000D01*
X113763990Y-155600000D02*
X118145490Y-151218500D01*
X105710500Y-155600000D02*
X105520000Y-155409500D01*
X112073200Y-155600000D02*
X105710500Y-155600000D01*
D24*
X121634998Y-154330000D02*
X121634998Y-154330000D01*
D23*
X118220000Y-156870000D02*
X115680000Y-156870000D01*
X115680000Y-156870000D02*
X114410000Y-158140000D01*
D24*
X114410000Y-158140000D02*
X114410000Y-158140000D01*
X122174999Y-154026502D02*
X121634998Y-154026502D01*
X122174999Y-153789999D02*
X122174999Y-154026502D01*
X122759999Y-153204999D02*
X122174999Y-153789999D01*
X135300000Y-146450000D02*
X127723498Y-154026502D01*
X137475000Y-146450000D02*
X135300000Y-146450000D01*
X127723498Y-154026502D02*
X124425001Y-154026502D01*
X124425001Y-153789999D02*
X123840001Y-153204999D01*
X124425001Y-154026502D02*
X124425001Y-153789999D01*
X123840001Y-153204999D02*
X122759999Y-153204999D01*
%TO.N,Net-(D2-Pad2)*%
X158389999Y-163690001D02*
X157590000Y-164490000D01*
X158715001Y-163364999D02*
X158389999Y-163690001D01*
X158715001Y-157290686D02*
X158715001Y-163364999D01*
X158034500Y-156610185D02*
X158715001Y-157290686D01*
X158034500Y-156044500D02*
X158034500Y-156610185D01*
%TO.N,Net-(D5-Pad2)*%
X134560000Y-152595000D02*
X134560000Y-153120000D01*
X136635000Y-150520000D02*
X134560000Y-152595000D01*
X135810000Y-158330000D02*
X137700000Y-158330000D01*
X137700000Y-158330000D02*
X137700000Y-158330000D01*
X162923411Y-153313411D02*
X161603200Y-151993200D01*
X160774199Y-161905801D02*
X161862401Y-161905801D01*
X156865001Y-165615001D02*
X158130001Y-165615001D01*
X162923411Y-160844791D02*
X162923411Y-153313411D01*
X151890000Y-160640000D02*
X156865001Y-165615001D01*
X149820000Y-160640000D02*
X151890000Y-160640000D01*
X160123399Y-163621603D02*
X160123399Y-162556601D01*
X161862401Y-161905801D02*
X162923411Y-160844791D01*
X158130001Y-165615001D02*
X160123399Y-163621603D01*
X160123399Y-162556601D02*
X160774199Y-161905801D01*
X141229999Y-157430001D02*
X140830000Y-157830000D01*
X145561621Y-157430001D02*
X141229999Y-157430001D01*
X146304999Y-160955001D02*
X146304999Y-160774999D01*
X147211978Y-160189999D02*
X147211978Y-159080358D01*
X145570000Y-161690000D02*
X146304999Y-160955001D01*
X147211978Y-159080358D02*
X145561621Y-157430001D01*
X146304999Y-160774999D02*
X146889999Y-160189999D01*
X146889999Y-160189999D02*
X147211978Y-160189999D01*
%TO.N,Net-(J3-Pad3)*%
X142750000Y-153500000D02*
X145270000Y-150980000D01*
X134635001Y-161855001D02*
X139104001Y-161855001D01*
X133460000Y-160680000D02*
X134635001Y-161855001D01*
X145270000Y-150980000D02*
X145270000Y-150940000D01*
X142750000Y-154836998D02*
X142750000Y-153500000D01*
X139104001Y-161855001D02*
X139715001Y-161244001D01*
X139715001Y-161244001D02*
X139715001Y-157871997D01*
X139715001Y-157871997D02*
X142750000Y-154836998D01*
%TO.N,Net-(J3-Pad2)*%
X134309999Y-157290001D02*
X137103999Y-157290001D01*
X133460000Y-158140000D02*
X134309999Y-157290001D01*
X137103999Y-157290001D02*
X143683500Y-150710500D01*
X143683500Y-150710500D02*
X143683500Y-150710500D01*
%TO.N,Net-(J4-Pad3)*%
X134570001Y-154424999D02*
X139909521Y-149085479D01*
X146813999Y-149973997D02*
X146813999Y-150362991D01*
X127204999Y-157575999D02*
X127815999Y-156964999D01*
X129809999Y-156964999D02*
X132349999Y-154424999D01*
X127815999Y-156964999D02*
X129809999Y-156964999D01*
X146813999Y-150362991D02*
X146414000Y-150762990D01*
X139909521Y-149085479D02*
X145925481Y-149085479D01*
X145925481Y-149085479D02*
X146813999Y-149973997D01*
X128380000Y-160680000D02*
X127204999Y-159504999D01*
X127204999Y-159504999D02*
X127204999Y-157575999D01*
X132349999Y-154424999D02*
X134570001Y-154424999D01*
%TO.N,Net-(J4-Pad2)*%
X145425489Y-149535489D02*
X145940000Y-150050000D01*
X135274507Y-156839991D02*
X142579009Y-149535489D01*
X129229999Y-158989999D02*
X131999001Y-158989999D01*
X132284999Y-157575999D02*
X133021007Y-156839991D01*
X142579009Y-149535489D02*
X145425489Y-149535489D01*
X128380000Y-158140000D02*
X129229999Y-158989999D01*
X131999001Y-158989999D02*
X132284999Y-158704001D01*
X132284999Y-158704001D02*
X132284999Y-157575999D01*
X133021007Y-156839991D02*
X135274507Y-156839991D01*
%TO.N,Net-(J5-Pad4)*%
X145900000Y-145630000D02*
X146690000Y-146420000D01*
X146690000Y-146420000D02*
X148950000Y-146420000D01*
X148950000Y-146420000D02*
X151110000Y-148580000D01*
X151110000Y-148580000D02*
X151110000Y-148580000D01*
X151206002Y-148580000D02*
X155060000Y-152433998D01*
X151110000Y-148580000D02*
X151206002Y-148580000D01*
X155060000Y-152433998D02*
X155060000Y-153030000D01*
%TO.N,Net-(J5-Pad3)*%
X147089500Y-145630500D02*
X147100000Y-145620000D01*
X146481025Y-145001025D02*
X147100000Y-145620000D01*
X162728201Y-147851801D02*
X162728201Y-141293199D01*
X158680001Y-151900001D02*
X162728201Y-147851801D01*
X162473401Y-159555799D02*
X162473401Y-154540799D01*
X161298400Y-160730800D02*
X162473401Y-159555799D01*
X162728201Y-141293199D02*
X162143201Y-140708199D01*
X162143201Y-140708199D02*
X161063199Y-140708199D01*
X143993978Y-144101006D02*
X143537495Y-144557489D01*
X144829500Y-145630500D02*
X145458975Y-145001025D01*
X161063199Y-140708199D02*
X157670392Y-144101006D01*
X159832603Y-151900001D02*
X158680001Y-151900001D01*
X143537495Y-145253491D02*
X143914504Y-145630500D01*
X162473401Y-154540799D02*
X159832603Y-151900001D01*
X157670392Y-144101006D02*
X143993978Y-144101006D01*
X143914504Y-145630500D02*
X144829500Y-145630500D01*
X143537495Y-144557489D02*
X143537495Y-145253491D01*
X145458975Y-145001025D02*
X146481025Y-145001025D01*
%TO.N,Net-(R2-Pad1)*%
X110472500Y-164490000D02*
X123300000Y-164490000D01*
X108875000Y-166087500D02*
X110472500Y-164490000D01*
%TO.N,Net-(R3-Pad1)*%
X144616971Y-144551015D02*
X144262496Y-144905490D01*
X161603200Y-141833200D02*
X158885385Y-144551015D01*
X158885385Y-144551015D02*
X144616971Y-144551015D01*
%TO.N,Net-(J6-Pad5)*%
X158606000Y-146075000D02*
X157740000Y-146075000D01*
X161019000Y-148488000D02*
X158606000Y-146075000D01*
X142540500Y-150647000D02*
X142540500Y-150647000D01*
X151240000Y-146075000D02*
X157740000Y-146075000D01*
X144031501Y-149985499D02*
X143202001Y-149985499D01*
X144408501Y-150362499D02*
X144031501Y-149985499D01*
X143202001Y-149985499D02*
X142540500Y-150647000D01*
X144408501Y-151205089D02*
X144408501Y-150362499D01*
X138540000Y-157073589D02*
X144408501Y-151205089D01*
X138540000Y-160680000D02*
X138540000Y-157073589D01*
%TO.N,Net-(J6-Pad4)*%
X146615001Y-165615001D02*
X145500000Y-164500000D01*
X152000000Y-164500000D02*
X150884999Y-165615001D01*
X150884999Y-165615001D02*
X146615001Y-165615001D01*
%TO.N,Net-(J6-Pad3)*%
X150500000Y-164890001D02*
X148777271Y-163167272D01*
X148777271Y-163167272D02*
X146971312Y-163167272D01*
%TO.N,Net-(J6-Pad1)*%
X143620000Y-160680000D02*
X143620000Y-160354680D01*
X143620000Y-160354680D02*
X145072249Y-158902431D01*
D23*
%TO.N,Net-(J1-Pad1)*%
X116442000Y-159473500D02*
X117712000Y-158203500D01*
X114918000Y-159473500D02*
X116442000Y-159473500D01*
D24*
%TO.N,Net-(J7-Pad5)*%
X148750000Y-160873000D02*
X148750000Y-160000000D01*
X150252161Y-167320841D02*
X152725001Y-164848001D01*
X146000000Y-167320841D02*
X150252161Y-167320841D01*
X152725001Y-164848001D02*
X152725001Y-164151999D01*
X152725001Y-164151999D02*
X152348001Y-163774999D01*
X152348001Y-163774999D02*
X151651999Y-163774999D01*
X151651999Y-163774999D02*
X148750000Y-160873000D01*
X146152346Y-158909526D02*
X146152346Y-159902346D01*
X145420250Y-158177430D02*
X146152346Y-158909526D01*
X143250000Y-158250000D02*
X143322570Y-158177430D01*
X143322570Y-158177430D02*
X145420250Y-158177430D01*
%TO.N,Net-(J7-Pad3)*%
X154000000Y-161250000D02*
X151750000Y-159000000D01*
X151750000Y-159000000D02*
X148736990Y-159000000D01*
X144100001Y-153030997D02*
X144100001Y-154100001D01*
X144100001Y-154100001D02*
X144500000Y-154500000D01*
X144491199Y-152639799D02*
X144100001Y-153030997D01*
X145639799Y-152639799D02*
X144491199Y-152639799D01*
X149000000Y-156000000D02*
X145639799Y-152639799D01*
%TO.N,Net-(J7-Pad7)*%
X135500000Y-160000000D02*
X137082796Y-160000000D01*
X137082796Y-160000000D02*
X137754267Y-159328529D01*
%TD*%
D25*
%TO.N,GND*%
G36*
X169575271Y-136263962D02*
G01*
X169263962Y-136575271D01*
X169019369Y-136941331D01*
X168850890Y-137348075D01*
X168765000Y-137779872D01*
X168765000Y-138220128D01*
X168850890Y-138651925D01*
X169019369Y-139058669D01*
X169263962Y-139424729D01*
X169575271Y-139736038D01*
X169941331Y-139980631D01*
X170348075Y-140149110D01*
X170779872Y-140235000D01*
X171220128Y-140235000D01*
X171651925Y-140149110D01*
X172058669Y-139980631D01*
X172424729Y-139736038D01*
X172736038Y-139424729D01*
X172980631Y-139058669D01*
X173065000Y-138854984D01*
X173065001Y-167693448D01*
X172986038Y-167575271D01*
X172674729Y-167263962D01*
X172308669Y-167019369D01*
X171901925Y-166850890D01*
X171470128Y-166765000D01*
X171029872Y-166765000D01*
X170598075Y-166850890D01*
X170191331Y-167019369D01*
X169825271Y-167263962D01*
X169513962Y-167575271D01*
X169269369Y-167941331D01*
X169100890Y-168348075D01*
X169015000Y-168779872D01*
X169015000Y-169220128D01*
X169100890Y-169651925D01*
X169269369Y-170058669D01*
X169513962Y-170424729D01*
X169825271Y-170736038D01*
X169943446Y-170815000D01*
X97556554Y-170815000D01*
X97674729Y-170736038D01*
X97986038Y-170424729D01*
X98230631Y-170058669D01*
X98399110Y-169651925D01*
X98485000Y-169220128D01*
X98485000Y-168779872D01*
X98399110Y-168348075D01*
X98230631Y-167941331D01*
X97986038Y-167575271D01*
X97674729Y-167263962D01*
X97308669Y-167019369D01*
X96901925Y-166850890D01*
X96470128Y-166765000D01*
X96029872Y-166765000D01*
X95598075Y-166850890D01*
X95191331Y-167019369D01*
X94825271Y-167263962D01*
X94513962Y-167575271D01*
X94435000Y-167693446D01*
X94435000Y-165985561D01*
X107840000Y-165985561D01*
X107840000Y-166189439D01*
X107879774Y-166389398D01*
X107957795Y-166577756D01*
X108071063Y-166747274D01*
X108215226Y-166891437D01*
X108384744Y-167004705D01*
X108573102Y-167082726D01*
X108773061Y-167122500D01*
X108976939Y-167122500D01*
X109176898Y-167082726D01*
X109365256Y-167004705D01*
X109534774Y-166891437D01*
X109678937Y-166747274D01*
X109792205Y-166577756D01*
X109870226Y-166389398D01*
X109910000Y-166189439D01*
X109910000Y-166127301D01*
X110787302Y-165250000D01*
X122081957Y-165250000D01*
X122185363Y-165404759D01*
X122385241Y-165604637D01*
X122620273Y-165761680D01*
X122881426Y-165869853D01*
X123158665Y-165925000D01*
X123441335Y-165925000D01*
X123718574Y-165869853D01*
X123979727Y-165761680D01*
X124214759Y-165604637D01*
X124414637Y-165404759D01*
X124571680Y-165169727D01*
X124679853Y-164908574D01*
X124735000Y-164631335D01*
X124735000Y-164348665D01*
X124679853Y-164071426D01*
X124571680Y-163810273D01*
X124414637Y-163575241D01*
X124214759Y-163375363D01*
X123979727Y-163218320D01*
X123718574Y-163110147D01*
X123441335Y-163055000D01*
X123158665Y-163055000D01*
X122881426Y-163110147D01*
X122620273Y-163218320D01*
X122385241Y-163375363D01*
X122185363Y-163575241D01*
X122081957Y-163730000D01*
X110509822Y-163730000D01*
X110472499Y-163726324D01*
X110435176Y-163730000D01*
X110435167Y-163730000D01*
X110323514Y-163740997D01*
X110180253Y-163784454D01*
X110048224Y-163855026D01*
X109932499Y-163949999D01*
X109908701Y-163978997D01*
X108835199Y-165052500D01*
X108773061Y-165052500D01*
X108573102Y-165092274D01*
X108384744Y-165170295D01*
X108215226Y-165283563D01*
X108071063Y-165427726D01*
X107957795Y-165597244D01*
X107879774Y-165785602D01*
X107840000Y-165985561D01*
X94435000Y-165985561D01*
X94435000Y-161989500D01*
X103381928Y-161989500D01*
X103394188Y-162113982D01*
X103430498Y-162233680D01*
X103489463Y-162343994D01*
X103568815Y-162440685D01*
X103665506Y-162520037D01*
X103775820Y-162579002D01*
X103895518Y-162615312D01*
X104020000Y-162627572D01*
X105234250Y-162624500D01*
X105393000Y-162465750D01*
X105393000Y-160616500D01*
X105647000Y-160616500D01*
X105647000Y-162465750D01*
X105805750Y-162624500D01*
X107020000Y-162627572D01*
X107144482Y-162615312D01*
X107264180Y-162579002D01*
X107374494Y-162520037D01*
X107471185Y-162440685D01*
X107550537Y-162343994D01*
X107609502Y-162233680D01*
X107645812Y-162113982D01*
X107658072Y-161989500D01*
X107655000Y-160775250D01*
X107496250Y-160616500D01*
X105647000Y-160616500D01*
X105393000Y-160616500D01*
X103543750Y-160616500D01*
X103385000Y-160775250D01*
X103381928Y-161989500D01*
X94435000Y-161989500D01*
X94435000Y-158989500D01*
X103381928Y-158989500D01*
X103385000Y-160203750D01*
X103543750Y-160362500D01*
X105393000Y-160362500D01*
X105393000Y-158513250D01*
X105647000Y-158513250D01*
X105647000Y-160362500D01*
X107496250Y-160362500D01*
X107655000Y-160203750D01*
X107658072Y-158989500D01*
X107645812Y-158865018D01*
X107609502Y-158745320D01*
X107550537Y-158635006D01*
X107471185Y-158538315D01*
X107374494Y-158458963D01*
X107264180Y-158399998D01*
X107144482Y-158363688D01*
X107020000Y-158351428D01*
X105805750Y-158354500D01*
X105647000Y-158513250D01*
X105393000Y-158513250D01*
X105234250Y-158354500D01*
X104020000Y-158351428D01*
X103895518Y-158363688D01*
X103775820Y-158399998D01*
X103665506Y-158458963D01*
X103568815Y-158538315D01*
X103489463Y-158635006D01*
X103430498Y-158745320D01*
X103394188Y-158865018D01*
X103381928Y-158989500D01*
X94435000Y-158989500D01*
X94435000Y-158038061D01*
X113375000Y-158038061D01*
X113375000Y-158241939D01*
X113414774Y-158441898D01*
X113492795Y-158630256D01*
X113606063Y-158799774D01*
X113750226Y-158943937D01*
X113909496Y-159050357D01*
X113859274Y-159171602D01*
X113819500Y-159371561D01*
X113819500Y-159575439D01*
X113859274Y-159775398D01*
X113937295Y-159963756D01*
X114050563Y-160133274D01*
X114194726Y-160277437D01*
X114364244Y-160390705D01*
X114552602Y-160468726D01*
X114752561Y-160508500D01*
X114956439Y-160508500D01*
X115156398Y-160468726D01*
X115301795Y-160408500D01*
X116396068Y-160408500D01*
X116442000Y-160413024D01*
X116487932Y-160408500D01*
X116625292Y-160394971D01*
X116801540Y-160341507D01*
X116963972Y-160254686D01*
X117106344Y-160137844D01*
X117135630Y-160102159D01*
X118056859Y-159180931D01*
X118202256Y-159120705D01*
X118371774Y-159007437D01*
X118515937Y-158863274D01*
X118629205Y-158693756D01*
X118707226Y-158505398D01*
X118747000Y-158305439D01*
X118747000Y-158101561D01*
X118707226Y-157901602D01*
X118667224Y-157805030D01*
X118710256Y-157787205D01*
X118879774Y-157673937D01*
X119023937Y-157529774D01*
X119137205Y-157360256D01*
X119215226Y-157171898D01*
X119255000Y-156971939D01*
X119255000Y-156768061D01*
X119215226Y-156568102D01*
X119137205Y-156379744D01*
X119023937Y-156210226D01*
X118879774Y-156066063D01*
X118710256Y-155952795D01*
X118521898Y-155874774D01*
X118321939Y-155835000D01*
X118118061Y-155835000D01*
X117918102Y-155874774D01*
X117772705Y-155935000D01*
X115725931Y-155935000D01*
X115679999Y-155930476D01*
X115496707Y-155948529D01*
X115460409Y-155959540D01*
X115320460Y-156001993D01*
X115158028Y-156088814D01*
X115015656Y-156205656D01*
X114986374Y-156241336D01*
X114065142Y-157162569D01*
X113919744Y-157222795D01*
X113750226Y-157336063D01*
X113606063Y-157480226D01*
X113492795Y-157649744D01*
X113414774Y-157838102D01*
X113375000Y-158038061D01*
X94435000Y-158038061D01*
X94435000Y-147750000D01*
X103381928Y-147750000D01*
X103381928Y-150750000D01*
X103394188Y-150874482D01*
X103430498Y-150994180D01*
X103489463Y-151104494D01*
X103568815Y-151201185D01*
X103665506Y-151280537D01*
X103775820Y-151339502D01*
X103895518Y-151375812D01*
X104020000Y-151388072D01*
X107020000Y-151388072D01*
X107144482Y-151375812D01*
X107264180Y-151339502D01*
X107374494Y-151280537D01*
X107471185Y-151201185D01*
X107550537Y-151104494D01*
X107609502Y-150994180D01*
X107645812Y-150874482D01*
X107658072Y-150750000D01*
X107658072Y-150185000D01*
X114041928Y-150185000D01*
X114041928Y-150202500D01*
X114054188Y-150326982D01*
X114090498Y-150446680D01*
X114149463Y-150556994D01*
X114228815Y-150653685D01*
X114325506Y-150733037D01*
X114435820Y-150792002D01*
X114555518Y-150828312D01*
X114680000Y-150840572D01*
X116680000Y-150840572D01*
X116804482Y-150828312D01*
X116924180Y-150792002D01*
X117034494Y-150733037D01*
X117131185Y-150653685D01*
X117210537Y-150556994D01*
X117269502Y-150446680D01*
X117305812Y-150326982D01*
X117318072Y-150202500D01*
X117318072Y-148297500D01*
X117305812Y-148173018D01*
X117269502Y-148053320D01*
X117210537Y-147943006D01*
X117131185Y-147846315D01*
X117034494Y-147766963D01*
X116942781Y-147717941D01*
X117055969Y-147576923D01*
X117199571Y-147301094D01*
X117270563Y-147082980D01*
X117270441Y-147082730D01*
X118068069Y-147880358D01*
X118110500Y-147982796D01*
X118110500Y-150183500D01*
X118043551Y-150183500D01*
X117843592Y-150223274D01*
X117655234Y-150301295D01*
X117485716Y-150414563D01*
X117341553Y-150558726D01*
X117228285Y-150728244D01*
X117168059Y-150873642D01*
X113376701Y-154665000D01*
X112520495Y-154665000D01*
X112375098Y-154604774D01*
X112175139Y-154565000D01*
X111971261Y-154565000D01*
X111771302Y-154604774D01*
X111625905Y-154665000D01*
X107522525Y-154665000D01*
X107412012Y-154398198D01*
X107178363Y-154048517D01*
X106880983Y-153751137D01*
X106531302Y-153517488D01*
X106142756Y-153356547D01*
X105730279Y-153274500D01*
X105309721Y-153274500D01*
X104897244Y-153356547D01*
X104508698Y-153517488D01*
X104159017Y-153751137D01*
X103861637Y-154048517D01*
X103627988Y-154398198D01*
X103467047Y-154786744D01*
X103385000Y-155199221D01*
X103385000Y-155619779D01*
X103467047Y-156032256D01*
X103627988Y-156420802D01*
X103861637Y-156770483D01*
X104159017Y-157067863D01*
X104508698Y-157301512D01*
X104897244Y-157462453D01*
X105309721Y-157544500D01*
X105730279Y-157544500D01*
X106142756Y-157462453D01*
X106531302Y-157301512D01*
X106880983Y-157067863D01*
X107178363Y-156770483D01*
X107335707Y-156535000D01*
X111625905Y-156535000D01*
X111771302Y-156595226D01*
X111971261Y-156635000D01*
X112175139Y-156635000D01*
X112375098Y-156595226D01*
X112520495Y-156535000D01*
X113718058Y-156535000D01*
X113763990Y-156539524D01*
X113809922Y-156535000D01*
X113947282Y-156521471D01*
X114123530Y-156468007D01*
X114285962Y-156381186D01*
X114428334Y-156264344D01*
X114457620Y-156228659D01*
X118110501Y-152575778D01*
X118110501Y-153839558D01*
X118105976Y-153885500D01*
X118124029Y-154068791D01*
X118173783Y-154232807D01*
X118177494Y-154245040D01*
X118264315Y-154407472D01*
X118381157Y-154549844D01*
X118416836Y-154579125D01*
X126897729Y-163060019D01*
X126895000Y-163073740D01*
X126895000Y-163366260D01*
X126952068Y-163653158D01*
X127064010Y-163923411D01*
X127226525Y-164166632D01*
X127433368Y-164373475D01*
X127676589Y-164535990D01*
X127946842Y-164647932D01*
X128233740Y-164705000D01*
X128526260Y-164705000D01*
X128813158Y-164647932D01*
X129083411Y-164535990D01*
X129326632Y-164373475D01*
X129533475Y-164166632D01*
X129541247Y-164155000D01*
X132298753Y-164155000D01*
X132306525Y-164166632D01*
X132513368Y-164373475D01*
X132756589Y-164535990D01*
X133026842Y-164647932D01*
X133313740Y-164705000D01*
X133606260Y-164705000D01*
X133619981Y-164702271D01*
X134290374Y-165372664D01*
X134319656Y-165408344D01*
X134462028Y-165525186D01*
X134624460Y-165612007D01*
X134713458Y-165639004D01*
X134800707Y-165665471D01*
X134819110Y-165667283D01*
X134938068Y-165679000D01*
X134938074Y-165679000D01*
X134983999Y-165683523D01*
X135029924Y-165679000D01*
X142050068Y-165679000D01*
X142096000Y-165683524D01*
X142141932Y-165679000D01*
X142279292Y-165665471D01*
X142455540Y-165612007D01*
X142617972Y-165525186D01*
X142760344Y-165408344D01*
X142789630Y-165372659D01*
X143460019Y-164702271D01*
X143473740Y-164705000D01*
X143766260Y-164705000D01*
X144053158Y-164647932D01*
X144323411Y-164535990D01*
X144465000Y-164441383D01*
X144465000Y-164601939D01*
X144504774Y-164801898D01*
X144582795Y-164990256D01*
X144696063Y-165159774D01*
X144840226Y-165303937D01*
X145009744Y-165417205D01*
X145198102Y-165495226D01*
X145398061Y-165535000D01*
X145460199Y-165535000D01*
X146051202Y-166126004D01*
X146075000Y-166155002D01*
X146103998Y-166178800D01*
X146190725Y-166249975D01*
X146322754Y-166320547D01*
X146466015Y-166364004D01*
X146615001Y-166378678D01*
X146652334Y-166375001D01*
X150123200Y-166375001D01*
X149937360Y-166560841D01*
X146703711Y-166560841D01*
X146659774Y-166516904D01*
X146490256Y-166403636D01*
X146301898Y-166325615D01*
X146101939Y-166285841D01*
X145898061Y-166285841D01*
X145698102Y-166325615D01*
X145509744Y-166403636D01*
X145340226Y-166516904D01*
X145196063Y-166661067D01*
X145082795Y-166830585D01*
X145004774Y-167018943D01*
X144965000Y-167218902D01*
X144965000Y-167422780D01*
X145004774Y-167622739D01*
X145082795Y-167811097D01*
X145196063Y-167980615D01*
X145340226Y-168124778D01*
X145509744Y-168238046D01*
X145698102Y-168316067D01*
X145898061Y-168355841D01*
X146101939Y-168355841D01*
X146301898Y-168316067D01*
X146490256Y-168238046D01*
X146659774Y-168124778D01*
X146703711Y-168080841D01*
X150214839Y-168080841D01*
X150252161Y-168084517D01*
X150289483Y-168080841D01*
X150289494Y-168080841D01*
X150401147Y-168069844D01*
X150544408Y-168026387D01*
X150676437Y-167955815D01*
X150792162Y-167860842D01*
X150815965Y-167831838D01*
X153236005Y-165411799D01*
X153265002Y-165388002D01*
X153359975Y-165272277D01*
X153430547Y-165140248D01*
X153474004Y-164996987D01*
X153485001Y-164885334D01*
X153485001Y-164885324D01*
X153488677Y-164848001D01*
X153485001Y-164810678D01*
X153485001Y-164189332D01*
X153488678Y-164151999D01*
X153474004Y-164003013D01*
X153430547Y-163859752D01*
X153428021Y-163855026D01*
X153359975Y-163727723D01*
X153265002Y-163611998D01*
X153235998Y-163588195D01*
X152911805Y-163264002D01*
X152888002Y-163234998D01*
X152772277Y-163140025D01*
X152640248Y-163069453D01*
X152496987Y-163025996D01*
X152385334Y-163014999D01*
X152385323Y-163014999D01*
X152348001Y-163011323D01*
X152310679Y-163014999D01*
X151966801Y-163014999D01*
X150429398Y-161477597D01*
X150479774Y-161443937D01*
X150523711Y-161400000D01*
X151575199Y-161400000D01*
X156301202Y-166126004D01*
X156325000Y-166155002D01*
X156353998Y-166178800D01*
X156440724Y-166249975D01*
X156572754Y-166320547D01*
X156716015Y-166364004D01*
X156827668Y-166375001D01*
X156827678Y-166375001D01*
X156865001Y-166378677D01*
X156902324Y-166375001D01*
X158092679Y-166375001D01*
X158130001Y-166378677D01*
X158167323Y-166375001D01*
X158167334Y-166375001D01*
X158278987Y-166364004D01*
X158422248Y-166320547D01*
X158554277Y-166249975D01*
X158670002Y-166155002D01*
X158693805Y-166125999D01*
X160378001Y-164441803D01*
X160594989Y-164586790D01*
X160865242Y-164698732D01*
X161152140Y-164755800D01*
X161444660Y-164755800D01*
X161731558Y-164698732D01*
X162001811Y-164586790D01*
X162245032Y-164424275D01*
X162451875Y-164217432D01*
X162614390Y-163974211D01*
X162726332Y-163703958D01*
X162783400Y-163417060D01*
X162783400Y-163124540D01*
X162726332Y-162837642D01*
X162614390Y-162567389D01*
X162478695Y-162364308D01*
X163434415Y-161408589D01*
X163463412Y-161384792D01*
X163558385Y-161269067D01*
X163628957Y-161137038D01*
X163672414Y-160993777D01*
X163683411Y-160882124D01*
X163683411Y-160882116D01*
X163687087Y-160844791D01*
X163683411Y-160807466D01*
X163683411Y-153350733D01*
X163687087Y-153313410D01*
X163683411Y-153276087D01*
X163683411Y-153276078D01*
X163672414Y-153164425D01*
X163628957Y-153021164D01*
X163558385Y-152889135D01*
X163463412Y-152773410D01*
X163434414Y-152749612D01*
X163001888Y-152317086D01*
X163038200Y-152134535D01*
X163038200Y-151933740D01*
X165765000Y-151933740D01*
X165765000Y-152226260D01*
X165822068Y-152513158D01*
X165934010Y-152783411D01*
X166096525Y-153026632D01*
X166303368Y-153233475D01*
X166477760Y-153350000D01*
X166303368Y-153466525D01*
X166096525Y-153673368D01*
X165934010Y-153916589D01*
X165822068Y-154186842D01*
X165765000Y-154473740D01*
X165765000Y-154766260D01*
X165822068Y-155053158D01*
X165934010Y-155323411D01*
X166096525Y-155566632D01*
X166303368Y-155773475D01*
X166477760Y-155890000D01*
X166303368Y-156006525D01*
X166096525Y-156213368D01*
X165934010Y-156456589D01*
X165822068Y-156726842D01*
X165765000Y-157013740D01*
X165765000Y-157306260D01*
X165822068Y-157593158D01*
X165934010Y-157863411D01*
X166096525Y-158106632D01*
X166303368Y-158313475D01*
X166477760Y-158430000D01*
X166303368Y-158546525D01*
X166096525Y-158753368D01*
X165934010Y-158996589D01*
X165822068Y-159266842D01*
X165765000Y-159553740D01*
X165765000Y-159846260D01*
X165822068Y-160133158D01*
X165934010Y-160403411D01*
X166096525Y-160646632D01*
X166303368Y-160853475D01*
X166477760Y-160970000D01*
X166303368Y-161086525D01*
X166096525Y-161293368D01*
X165934010Y-161536589D01*
X165822068Y-161806842D01*
X165765000Y-162093740D01*
X165765000Y-162386260D01*
X165822068Y-162673158D01*
X165934010Y-162943411D01*
X166096525Y-163186632D01*
X166303368Y-163393475D01*
X166546589Y-163555990D01*
X166816842Y-163667932D01*
X167103740Y-163725000D01*
X167396260Y-163725000D01*
X167683158Y-163667932D01*
X167953411Y-163555990D01*
X168196632Y-163393475D01*
X168403475Y-163186632D01*
X168565990Y-162943411D01*
X168677932Y-162673158D01*
X168735000Y-162386260D01*
X168735000Y-162093740D01*
X168677932Y-161806842D01*
X168565990Y-161536589D01*
X168403475Y-161293368D01*
X168196632Y-161086525D01*
X168022240Y-160970000D01*
X168196632Y-160853475D01*
X168403475Y-160646632D01*
X168565990Y-160403411D01*
X168677932Y-160133158D01*
X168735000Y-159846260D01*
X168735000Y-159553740D01*
X168677932Y-159266842D01*
X168565990Y-158996589D01*
X168403475Y-158753368D01*
X168196632Y-158546525D01*
X168022240Y-158430000D01*
X168196632Y-158313475D01*
X168403475Y-158106632D01*
X168565990Y-157863411D01*
X168677932Y-157593158D01*
X168735000Y-157306260D01*
X168735000Y-157013740D01*
X168677932Y-156726842D01*
X168565990Y-156456589D01*
X168403475Y-156213368D01*
X168196632Y-156006525D01*
X168022240Y-155890000D01*
X168196632Y-155773475D01*
X168403475Y-155566632D01*
X168565990Y-155323411D01*
X168677932Y-155053158D01*
X168735000Y-154766260D01*
X168735000Y-154473740D01*
X168677932Y-154186842D01*
X168565990Y-153916589D01*
X168403475Y-153673368D01*
X168196632Y-153466525D01*
X168022240Y-153350000D01*
X168196632Y-153233475D01*
X168403475Y-153026632D01*
X168565990Y-152783411D01*
X168677932Y-152513158D01*
X168735000Y-152226260D01*
X168735000Y-151933740D01*
X168677932Y-151646842D01*
X168565990Y-151376589D01*
X168403475Y-151133368D01*
X168196632Y-150926525D01*
X168014466Y-150804805D01*
X168131355Y-150735178D01*
X168347588Y-150540269D01*
X168521641Y-150306920D01*
X168646825Y-150044099D01*
X168691476Y-149896890D01*
X168570155Y-149667000D01*
X167377000Y-149667000D01*
X167377000Y-149687000D01*
X167123000Y-149687000D01*
X167123000Y-149667000D01*
X165929845Y-149667000D01*
X165808524Y-149896890D01*
X165853175Y-150044099D01*
X165978359Y-150306920D01*
X166152412Y-150540269D01*
X166368645Y-150735178D01*
X166485534Y-150804805D01*
X166303368Y-150926525D01*
X166096525Y-151133368D01*
X165934010Y-151376589D01*
X165822068Y-151646842D01*
X165765000Y-151933740D01*
X163038200Y-151933740D01*
X163038200Y-151851865D01*
X162983053Y-151574626D01*
X162874880Y-151313473D01*
X162717837Y-151078441D01*
X162517959Y-150878563D01*
X162282927Y-150721520D01*
X162021774Y-150613347D01*
X161744535Y-150558200D01*
X161461865Y-150558200D01*
X161184626Y-150613347D01*
X160940220Y-150714583D01*
X163239205Y-148415599D01*
X163268202Y-148391802D01*
X163363175Y-148276077D01*
X163433747Y-148144048D01*
X163477204Y-148000787D01*
X163488201Y-147889134D01*
X163488201Y-147889125D01*
X163491877Y-147851802D01*
X163488201Y-147814479D01*
X163488201Y-146150000D01*
X165761928Y-146150000D01*
X165761928Y-147850000D01*
X165774188Y-147974482D01*
X165810498Y-148094180D01*
X165869463Y-148204494D01*
X165948815Y-148301185D01*
X166045506Y-148380537D01*
X166155820Y-148439502D01*
X166236466Y-148463966D01*
X166152412Y-148539731D01*
X165978359Y-148773080D01*
X165853175Y-149035901D01*
X165808524Y-149183110D01*
X165929845Y-149413000D01*
X167123000Y-149413000D01*
X167123000Y-149393000D01*
X167377000Y-149393000D01*
X167377000Y-149413000D01*
X168570155Y-149413000D01*
X168691476Y-149183110D01*
X168646825Y-149035901D01*
X168521641Y-148773080D01*
X168347588Y-148539731D01*
X168263534Y-148463966D01*
X168344180Y-148439502D01*
X168454494Y-148380537D01*
X168551185Y-148301185D01*
X168630537Y-148204494D01*
X168689502Y-148094180D01*
X168725812Y-147974482D01*
X168738072Y-147850000D01*
X168738072Y-146150000D01*
X168725812Y-146025518D01*
X168689502Y-145905820D01*
X168630537Y-145795506D01*
X168551185Y-145698815D01*
X168454494Y-145619463D01*
X168344180Y-145560498D01*
X168224482Y-145524188D01*
X168100000Y-145511928D01*
X166400000Y-145511928D01*
X166275518Y-145524188D01*
X166155820Y-145560498D01*
X166045506Y-145619463D01*
X165948815Y-145698815D01*
X165869463Y-145795506D01*
X165810498Y-145905820D01*
X165774188Y-146025518D01*
X165761928Y-146150000D01*
X163488201Y-146150000D01*
X163488201Y-141330522D01*
X163491877Y-141293199D01*
X163488201Y-141255876D01*
X163488201Y-141255866D01*
X163477204Y-141144213D01*
X163433747Y-141000952D01*
X163433476Y-141000445D01*
X163363175Y-140868922D01*
X163292000Y-140782196D01*
X163268202Y-140753198D01*
X163239203Y-140729399D01*
X162707004Y-140197201D01*
X162683202Y-140168198D01*
X162567477Y-140073225D01*
X162435448Y-140002653D01*
X162292187Y-139959196D01*
X162180534Y-139948199D01*
X162180523Y-139948199D01*
X162143201Y-139944523D01*
X162105879Y-139948199D01*
X161100524Y-139948199D01*
X161063199Y-139944523D01*
X161025874Y-139948199D01*
X161025866Y-139948199D01*
X160914213Y-139959196D01*
X160770952Y-140002653D01*
X160638923Y-140073225D01*
X160523198Y-140168198D01*
X160499400Y-140197196D01*
X157355591Y-143341006D01*
X156338850Y-143341006D01*
X156396300Y-143111816D01*
X156410217Y-142829488D01*
X156368787Y-142549870D01*
X156273603Y-142283708D01*
X156206671Y-142158486D01*
X155962702Y-142086903D01*
X155149605Y-142900000D01*
X155163748Y-142914143D01*
X154984143Y-143093748D01*
X154970000Y-143079605D01*
X154955858Y-143093748D01*
X154776253Y-142914143D01*
X154790395Y-142900000D01*
X153977298Y-142086903D01*
X153733329Y-142158486D01*
X153612429Y-142413996D01*
X153543700Y-142688184D01*
X153529783Y-142970512D01*
X153571213Y-143250130D01*
X153603712Y-143341006D01*
X151340561Y-143341006D01*
X151349853Y-143318574D01*
X151405000Y-143041335D01*
X151405000Y-142758665D01*
X151349853Y-142481426D01*
X151241680Y-142220273D01*
X151084637Y-141985241D01*
X151006694Y-141907298D01*
X154156903Y-141907298D01*
X154970000Y-142720395D01*
X155783097Y-141907298D01*
X155711514Y-141663329D01*
X155456004Y-141542429D01*
X155181816Y-141473700D01*
X154899488Y-141459783D01*
X154619870Y-141501213D01*
X154353708Y-141596397D01*
X154228486Y-141663329D01*
X154156903Y-141907298D01*
X151006694Y-141907298D01*
X150884759Y-141785363D01*
X150649727Y-141628320D01*
X150635228Y-141622314D01*
X150604974Y-141565714D01*
X150510001Y-141449989D01*
X150481004Y-141426192D01*
X149615000Y-140560189D01*
X149615000Y-140498051D01*
X149575226Y-140298092D01*
X149497205Y-140109734D01*
X149383937Y-139940216D01*
X149239774Y-139796053D01*
X149070256Y-139682785D01*
X148881898Y-139604764D01*
X148681939Y-139564990D01*
X148478061Y-139564990D01*
X148278102Y-139604764D01*
X148089744Y-139682785D01*
X147920226Y-139796053D01*
X147776063Y-139940216D01*
X147662795Y-140109734D01*
X147584774Y-140298092D01*
X147545000Y-140498051D01*
X147545000Y-140701929D01*
X147584774Y-140901888D01*
X147662795Y-141090246D01*
X147776063Y-141259764D01*
X147920226Y-141403927D01*
X148089744Y-141517195D01*
X148278102Y-141595216D01*
X148478061Y-141634990D01*
X148540199Y-141634990D01*
X148872906Y-141967698D01*
X148855363Y-141985241D01*
X148698320Y-142220273D01*
X148590147Y-142481426D01*
X148535000Y-142758665D01*
X148535000Y-143041335D01*
X148590147Y-143318574D01*
X148599439Y-143341006D01*
X147584681Y-143341006D01*
X147587932Y-143333158D01*
X147645000Y-143046260D01*
X147645000Y-142753740D01*
X147587932Y-142466842D01*
X147475990Y-142196589D01*
X147313475Y-141953368D01*
X147106632Y-141746525D01*
X146863411Y-141584010D01*
X146593158Y-141472068D01*
X146306260Y-141415000D01*
X146013740Y-141415000D01*
X145726842Y-141472068D01*
X145456589Y-141584010D01*
X145213368Y-141746525D01*
X145006525Y-141953368D01*
X144890000Y-142127760D01*
X144773475Y-141953368D01*
X144566632Y-141746525D01*
X144323411Y-141584010D01*
X144053158Y-141472068D01*
X143766260Y-141415000D01*
X143473740Y-141415000D01*
X143186842Y-141472068D01*
X142916589Y-141584010D01*
X142673368Y-141746525D01*
X142541513Y-141878380D01*
X142519502Y-141805820D01*
X142460537Y-141695506D01*
X142381185Y-141598815D01*
X142284494Y-141519463D01*
X142174180Y-141460498D01*
X142054482Y-141424188D01*
X141930000Y-141411928D01*
X140230000Y-141411928D01*
X140105518Y-141424188D01*
X139985820Y-141460498D01*
X139875506Y-141519463D01*
X139778815Y-141598815D01*
X139699463Y-141695506D01*
X139640498Y-141805820D01*
X139604188Y-141925518D01*
X139591928Y-142050000D01*
X139591928Y-143750000D01*
X139604188Y-143874482D01*
X139640498Y-143994180D01*
X139699463Y-144104494D01*
X139778815Y-144201185D01*
X139875506Y-144280537D01*
X139985820Y-144339502D01*
X140105518Y-144375812D01*
X140143386Y-144379542D01*
X140145000Y-144395931D01*
X140158529Y-144533291D01*
X140211993Y-144709539D01*
X140298814Y-144871971D01*
X140415656Y-145014344D01*
X140451341Y-145043630D01*
X143733189Y-148325479D01*
X139946854Y-148325479D01*
X139909521Y-148321802D01*
X139872188Y-148325479D01*
X139760535Y-148336476D01*
X139617274Y-148379933D01*
X139485245Y-148450505D01*
X139369520Y-148545478D01*
X139345722Y-148574476D01*
X138033959Y-149886239D01*
X137995299Y-149792905D01*
X137827312Y-149541495D01*
X137613505Y-149327688D01*
X137362095Y-149159701D01*
X137082743Y-149043989D01*
X136786184Y-148985000D01*
X136483816Y-148985000D01*
X136187257Y-149043989D01*
X135907905Y-149159701D01*
X135656495Y-149327688D01*
X135590056Y-149394127D01*
X135584502Y-149375820D01*
X135525537Y-149265506D01*
X135446185Y-149168815D01*
X135349494Y-149089463D01*
X135239180Y-149030498D01*
X135119482Y-148994188D01*
X134995000Y-148981928D01*
X134380750Y-148985000D01*
X134222000Y-149143750D01*
X134222000Y-150393000D01*
X134242000Y-150393000D01*
X134242000Y-150647000D01*
X134222000Y-150647000D01*
X134222000Y-150667000D01*
X133968000Y-150667000D01*
X133968000Y-150647000D01*
X132718750Y-150647000D01*
X132560000Y-150805750D01*
X132556928Y-151420000D01*
X132569188Y-151544482D01*
X132605498Y-151664180D01*
X132664463Y-151774494D01*
X132743815Y-151871185D01*
X132840506Y-151950537D01*
X132950820Y-152009502D01*
X133070518Y-152045812D01*
X133195000Y-152058072D01*
X133809250Y-152055000D01*
X133967998Y-151896252D01*
X133967998Y-152055000D01*
X134019998Y-152055000D01*
X133970180Y-152115704D01*
X133925026Y-152170724D01*
X133895341Y-152226260D01*
X133854454Y-152302754D01*
X133828729Y-152387560D01*
X133756063Y-152460226D01*
X133642795Y-152629744D01*
X133564774Y-152818102D01*
X133525000Y-153018061D01*
X133525000Y-153221939D01*
X133564774Y-153421898D01*
X133642795Y-153610256D01*
X133679373Y-153664999D01*
X132387321Y-153664999D01*
X132349998Y-153661323D01*
X132312675Y-153664999D01*
X132312666Y-153664999D01*
X132201013Y-153675996D01*
X132057752Y-153719453D01*
X131925723Y-153790025D01*
X131909684Y-153803188D01*
X131838995Y-153861200D01*
X131838991Y-153861204D01*
X131809998Y-153884998D01*
X131786204Y-153913991D01*
X129839723Y-155860473D01*
X129706250Y-155727000D01*
X128507000Y-155727000D01*
X128507000Y-155747000D01*
X128253000Y-155747000D01*
X128253000Y-155727000D01*
X127053750Y-155727000D01*
X126895000Y-155885750D01*
X126891928Y-156450000D01*
X126904188Y-156574482D01*
X126940498Y-156694180D01*
X126965410Y-156740786D01*
X126693996Y-157012201D01*
X126664999Y-157035998D01*
X126641201Y-157064996D01*
X126641200Y-157064997D01*
X126570025Y-157151723D01*
X126499453Y-157283753D01*
X126483586Y-157336063D01*
X126455997Y-157427013D01*
X126445972Y-157528798D01*
X126441323Y-157575999D01*
X126445000Y-157613331D01*
X126444999Y-159467676D01*
X126441323Y-159504999D01*
X126444999Y-159542321D01*
X126444999Y-159542331D01*
X126455996Y-159653984D01*
X126492826Y-159775398D01*
X126499453Y-159797245D01*
X126570025Y-159929275D01*
X126598323Y-159963756D01*
X126664998Y-160045000D01*
X126694002Y-160068803D01*
X126938791Y-160313592D01*
X126915080Y-160432790D01*
X121828981Y-155346692D01*
X121936896Y-155325226D01*
X122125254Y-155247205D01*
X122174230Y-155214481D01*
X122336586Y-155393519D01*
X122562580Y-155561037D01*
X122816913Y-155681246D01*
X122950961Y-155721904D01*
X123173000Y-155599915D01*
X123173000Y-154457000D01*
X123153000Y-154457000D01*
X123153000Y-154203000D01*
X123173000Y-154203000D01*
X123173000Y-154183000D01*
X123427000Y-154183000D01*
X123427000Y-154203000D01*
X123447000Y-154203000D01*
X123447000Y-154457000D01*
X123427000Y-154457000D01*
X123427000Y-155599915D01*
X123649039Y-155721904D01*
X123783087Y-155681246D01*
X124037420Y-155561037D01*
X124263414Y-155393519D01*
X124452385Y-155185131D01*
X124597070Y-154943881D01*
X124653427Y-154786502D01*
X126892127Y-154786502D01*
X126895000Y-155314250D01*
X127053750Y-155473000D01*
X128253000Y-155473000D01*
X128253000Y-155453000D01*
X128507000Y-155453000D01*
X128507000Y-155473000D01*
X129706250Y-155473000D01*
X129865000Y-155314250D01*
X129868072Y-154750000D01*
X129855812Y-154625518D01*
X129819502Y-154505820D01*
X129760537Y-154395506D01*
X129681185Y-154298815D01*
X129584494Y-154219463D01*
X129474180Y-154160498D01*
X129354482Y-154124188D01*
X129230000Y-154111928D01*
X128710042Y-154114759D01*
X132575276Y-150249526D01*
X132718750Y-150393000D01*
X133968000Y-150393000D01*
X133968000Y-149143750D01*
X133824526Y-149000276D01*
X135614802Y-147210000D01*
X136771289Y-147210000D01*
X136815226Y-147253937D01*
X136984744Y-147367205D01*
X137173102Y-147445226D01*
X137373061Y-147485000D01*
X137576939Y-147485000D01*
X137776898Y-147445226D01*
X137965256Y-147367205D01*
X138134774Y-147253937D01*
X138278937Y-147109774D01*
X138392205Y-146940256D01*
X138470226Y-146751898D01*
X138510000Y-146551939D01*
X138510000Y-146348061D01*
X138470226Y-146148102D01*
X138392205Y-145959744D01*
X138278937Y-145790226D01*
X138134774Y-145646063D01*
X137965256Y-145532795D01*
X137776898Y-145454774D01*
X137576939Y-145415000D01*
X137373061Y-145415000D01*
X137173102Y-145454774D01*
X136984744Y-145532795D01*
X136815226Y-145646063D01*
X136771289Y-145690000D01*
X135337323Y-145690000D01*
X135300000Y-145686324D01*
X135262677Y-145690000D01*
X135262667Y-145690000D01*
X135151014Y-145700997D01*
X135040469Y-145734530D01*
X135007753Y-145744454D01*
X134875723Y-145815026D01*
X134825552Y-145856201D01*
X134759999Y-145909999D01*
X134736201Y-145938997D01*
X127408697Y-153266502D01*
X124978546Y-153266502D01*
X124965002Y-153249998D01*
X124936003Y-153226199D01*
X124403804Y-152694001D01*
X124380002Y-152664998D01*
X124264277Y-152570025D01*
X124132248Y-152499453D01*
X123988987Y-152455996D01*
X123877334Y-152444999D01*
X123877323Y-152444999D01*
X123840001Y-152441323D01*
X123802679Y-152444999D01*
X122797322Y-152444999D01*
X122759999Y-152441323D01*
X122722676Y-152444999D01*
X122722666Y-152444999D01*
X122611013Y-152455996D01*
X122476521Y-152496793D01*
X122467752Y-152499453D01*
X122335722Y-152570025D01*
X122252082Y-152638667D01*
X122219998Y-152664998D01*
X122196199Y-152693997D01*
X121664001Y-153226196D01*
X121634998Y-153249998D01*
X121621454Y-153266502D01*
X121597665Y-153266502D01*
X121486012Y-153277499D01*
X121342751Y-153320956D01*
X121261120Y-153364589D01*
X121144742Y-153412795D01*
X120975224Y-153526063D01*
X120831061Y-153670226D01*
X120717793Y-153839744D01*
X120639772Y-154028102D01*
X120618306Y-154136017D01*
X119980500Y-153498211D01*
X119980500Y-147982795D01*
X120040726Y-147837398D01*
X120080500Y-147637439D01*
X120080500Y-147433561D01*
X120040726Y-147233602D01*
X119962705Y-147045244D01*
X119849437Y-146875726D01*
X119844604Y-146870893D01*
X120070273Y-147021680D01*
X120331426Y-147129853D01*
X120608665Y-147185000D01*
X120891335Y-147185000D01*
X121168574Y-147129853D01*
X121429727Y-147021680D01*
X121664759Y-146864637D01*
X121864637Y-146664759D01*
X122021680Y-146429727D01*
X122129853Y-146168574D01*
X122185000Y-145891335D01*
X122185000Y-145608665D01*
X129475000Y-145608665D01*
X129475000Y-145891335D01*
X129530147Y-146168574D01*
X129638320Y-146429727D01*
X129795363Y-146664759D01*
X129995241Y-146864637D01*
X130230273Y-147021680D01*
X130491426Y-147129853D01*
X130768665Y-147185000D01*
X131051335Y-147185000D01*
X131328574Y-147129853D01*
X131589727Y-147021680D01*
X131824759Y-146864637D01*
X132024637Y-146664759D01*
X132181680Y-146429727D01*
X132289853Y-146168574D01*
X132345000Y-145891335D01*
X132345000Y-145608665D01*
X132289853Y-145331426D01*
X132181680Y-145070273D01*
X132024637Y-144835241D01*
X131824759Y-144635363D01*
X131589727Y-144478320D01*
X131485144Y-144435000D01*
X132556928Y-144435000D01*
X132569188Y-144559482D01*
X132605498Y-144679180D01*
X132664463Y-144789494D01*
X132743815Y-144886185D01*
X132840506Y-144965537D01*
X132950820Y-145024502D01*
X133070518Y-145060812D01*
X133195000Y-145073072D01*
X133809250Y-145070000D01*
X133968000Y-144911250D01*
X133968000Y-143662000D01*
X132718750Y-143662000D01*
X132560000Y-143820750D01*
X132556928Y-144435000D01*
X131485144Y-144435000D01*
X131328574Y-144370147D01*
X131051335Y-144315000D01*
X130768665Y-144315000D01*
X130491426Y-144370147D01*
X130230273Y-144478320D01*
X129995241Y-144635363D01*
X129795363Y-144835241D01*
X129638320Y-145070273D01*
X129530147Y-145331426D01*
X129475000Y-145608665D01*
X122185000Y-145608665D01*
X122129853Y-145331426D01*
X122021680Y-145070273D01*
X121864637Y-144835241D01*
X121664759Y-144635363D01*
X121429727Y-144478320D01*
X121168574Y-144370147D01*
X120891335Y-144315000D01*
X120608665Y-144315000D01*
X120331426Y-144370147D01*
X120070273Y-144478320D01*
X119835241Y-144635363D01*
X119635363Y-144835241D01*
X119478320Y-145070273D01*
X119370147Y-145331426D01*
X119315000Y-145608665D01*
X119315000Y-145891335D01*
X119370147Y-146168574D01*
X119478320Y-146429727D01*
X119635363Y-146664759D01*
X119695911Y-146725307D01*
X119535756Y-146618295D01*
X119390358Y-146558069D01*
X117293954Y-144461665D01*
X117322681Y-144170000D01*
X117292030Y-143858796D01*
X117229448Y-143652490D01*
X117399578Y-143652490D01*
X117402795Y-143660256D01*
X117516063Y-143829774D01*
X117660226Y-143973937D01*
X117829744Y-144087205D01*
X118018102Y-144165226D01*
X118218061Y-144205000D01*
X118421939Y-144205000D01*
X118621898Y-144165226D01*
X118810256Y-144087205D01*
X118979774Y-143973937D01*
X119123937Y-143829774D01*
X119237205Y-143660256D01*
X119315226Y-143471898D01*
X119355000Y-143271939D01*
X119355000Y-143068061D01*
X119315226Y-142868102D01*
X119237205Y-142679744D01*
X119123937Y-142510226D01*
X118979774Y-142366063D01*
X118968703Y-142358665D01*
X119315000Y-142358665D01*
X119315000Y-142641335D01*
X119370147Y-142918574D01*
X119478320Y-143179727D01*
X119635363Y-143414759D01*
X119835241Y-143614637D01*
X120070273Y-143771680D01*
X120331426Y-143879853D01*
X120608665Y-143935000D01*
X120891335Y-143935000D01*
X121168574Y-143879853D01*
X121429727Y-143771680D01*
X121664759Y-143614637D01*
X121864637Y-143414759D01*
X122021680Y-143179727D01*
X122129853Y-142918574D01*
X122143684Y-142849039D01*
X129518096Y-142849039D01*
X129558754Y-142983087D01*
X129678963Y-143237420D01*
X129846481Y-143463414D01*
X130054869Y-143652385D01*
X130296119Y-143797070D01*
X130560960Y-143891909D01*
X130783000Y-143770624D01*
X130783000Y-142627000D01*
X131037000Y-142627000D01*
X131037000Y-143770624D01*
X131259040Y-143891909D01*
X131523881Y-143797070D01*
X131765131Y-143652385D01*
X131973519Y-143463414D01*
X132141037Y-143237420D01*
X132261246Y-142983087D01*
X132301904Y-142849039D01*
X132184311Y-142635000D01*
X132556928Y-142635000D01*
X132560000Y-143249250D01*
X132718750Y-143408000D01*
X133968000Y-143408000D01*
X133968000Y-142158750D01*
X134222000Y-142158750D01*
X134222000Y-143408000D01*
X134242000Y-143408000D01*
X134242000Y-143662000D01*
X134222000Y-143662000D01*
X134222000Y-144911250D01*
X134380750Y-145070000D01*
X134995000Y-145073072D01*
X135119482Y-145060812D01*
X135239180Y-145024502D01*
X135349494Y-144965537D01*
X135446185Y-144886185D01*
X135525537Y-144789494D01*
X135584502Y-144679180D01*
X135590056Y-144660873D01*
X135656495Y-144727312D01*
X135907905Y-144895299D01*
X136187257Y-145011011D01*
X136483816Y-145070000D01*
X136786184Y-145070000D01*
X137082743Y-145011011D01*
X137362095Y-144895299D01*
X137613505Y-144727312D01*
X137827312Y-144513505D01*
X137995299Y-144262095D01*
X138111011Y-143982743D01*
X138170000Y-143686184D01*
X138170000Y-143383816D01*
X138111011Y-143087257D01*
X137995299Y-142807905D01*
X137827312Y-142556495D01*
X137613505Y-142342688D01*
X137362095Y-142174701D01*
X137082743Y-142058989D01*
X136786184Y-142000000D01*
X136483816Y-142000000D01*
X136187257Y-142058989D01*
X135907905Y-142174701D01*
X135656495Y-142342688D01*
X135590056Y-142409127D01*
X135584502Y-142390820D01*
X135525537Y-142280506D01*
X135446185Y-142183815D01*
X135349494Y-142104463D01*
X135239180Y-142045498D01*
X135119482Y-142009188D01*
X134995000Y-141996928D01*
X134380750Y-142000000D01*
X134222000Y-142158750D01*
X133968000Y-142158750D01*
X133809250Y-142000000D01*
X133195000Y-141996928D01*
X133070518Y-142009188D01*
X132950820Y-142045498D01*
X132840506Y-142104463D01*
X132743815Y-142183815D01*
X132664463Y-142280506D01*
X132605498Y-142390820D01*
X132569188Y-142510518D01*
X132556928Y-142635000D01*
X132184311Y-142635000D01*
X132179915Y-142627000D01*
X131037000Y-142627000D01*
X130783000Y-142627000D01*
X129640085Y-142627000D01*
X129518096Y-142849039D01*
X122143684Y-142849039D01*
X122185000Y-142641335D01*
X122185000Y-142358665D01*
X122143685Y-142150961D01*
X129518096Y-142150961D01*
X129640085Y-142373000D01*
X130783000Y-142373000D01*
X130783000Y-141229376D01*
X131037000Y-141229376D01*
X131037000Y-142373000D01*
X132179915Y-142373000D01*
X132301904Y-142150961D01*
X132261246Y-142016913D01*
X132141037Y-141762580D01*
X131973519Y-141536586D01*
X131765131Y-141347615D01*
X131523881Y-141202930D01*
X131259040Y-141108091D01*
X131037000Y-141229376D01*
X130783000Y-141229376D01*
X130560960Y-141108091D01*
X130296119Y-141202930D01*
X130054869Y-141347615D01*
X129846481Y-141536586D01*
X129678963Y-141762580D01*
X129558754Y-142016913D01*
X129518096Y-142150961D01*
X122143685Y-142150961D01*
X122129853Y-142081426D01*
X122021680Y-141820273D01*
X121864637Y-141585241D01*
X121664759Y-141385363D01*
X121429727Y-141228320D01*
X121168574Y-141120147D01*
X120891335Y-141065000D01*
X120608665Y-141065000D01*
X120331426Y-141120147D01*
X120070273Y-141228320D01*
X119835241Y-141385363D01*
X119635363Y-141585241D01*
X119478320Y-141820273D01*
X119370147Y-142081426D01*
X119315000Y-142358665D01*
X118968703Y-142358665D01*
X118810256Y-142252795D01*
X118621898Y-142174774D01*
X118421939Y-142135000D01*
X118218061Y-142135000D01*
X118180720Y-142142428D01*
X118079823Y-142132490D01*
X118079812Y-142132490D01*
X118042490Y-142128814D01*
X118005168Y-142132490D01*
X115140661Y-142132490D01*
X115103338Y-142128814D01*
X115066015Y-142132490D01*
X115066006Y-142132490D01*
X114954353Y-142143487D01*
X114811092Y-142186944D01*
X114679063Y-142257516D01*
X114563338Y-142352489D01*
X114539540Y-142381488D01*
X113843988Y-143077040D01*
X113814990Y-143100838D01*
X113791192Y-143129836D01*
X113791191Y-143129837D01*
X113720016Y-143216563D01*
X113649444Y-143348593D01*
X113605988Y-143491854D01*
X113591314Y-143640839D01*
X113594991Y-143678171D01*
X113594990Y-147887667D01*
X113591314Y-147924990D01*
X113594990Y-147962312D01*
X113594990Y-147962322D01*
X113605987Y-148073975D01*
X113636031Y-148173018D01*
X113649444Y-148217236D01*
X113701700Y-148315000D01*
X107658072Y-148315000D01*
X107658072Y-147750000D01*
X107645812Y-147625518D01*
X107609502Y-147505820D01*
X107550537Y-147395506D01*
X107471185Y-147298815D01*
X107374494Y-147219463D01*
X107264180Y-147160498D01*
X107144482Y-147124188D01*
X107020000Y-147111928D01*
X104020000Y-147111928D01*
X103895518Y-147124188D01*
X103775820Y-147160498D01*
X103665506Y-147219463D01*
X103568815Y-147298815D01*
X103489463Y-147395506D01*
X103430498Y-147505820D01*
X103394188Y-147625518D01*
X103381928Y-147750000D01*
X94435000Y-147750000D01*
X94435000Y-145661653D01*
X104207952Y-145661653D01*
X104363962Y-145977214D01*
X104738745Y-146168020D01*
X105143551Y-146282044D01*
X105562824Y-146314902D01*
X105980451Y-146265334D01*
X106380383Y-146135243D01*
X106676038Y-145977214D01*
X106832048Y-145661653D01*
X105520000Y-144349605D01*
X104207952Y-145661653D01*
X94435000Y-145661653D01*
X94435000Y-144212824D01*
X103375098Y-144212824D01*
X103424666Y-144630451D01*
X103554757Y-145030383D01*
X103712786Y-145326038D01*
X104028347Y-145482048D01*
X105340395Y-144170000D01*
X105699605Y-144170000D01*
X107011653Y-145482048D01*
X107327214Y-145326038D01*
X107518020Y-144951255D01*
X107632044Y-144546449D01*
X107664902Y-144127176D01*
X107615334Y-143709549D01*
X107485243Y-143309617D01*
X107327214Y-143013962D01*
X107011653Y-142857952D01*
X105699605Y-144170000D01*
X105340395Y-144170000D01*
X104028347Y-142857952D01*
X103712786Y-143013962D01*
X103521980Y-143388745D01*
X103407956Y-143793551D01*
X103375098Y-144212824D01*
X94435000Y-144212824D01*
X94435000Y-142678347D01*
X104207952Y-142678347D01*
X105520000Y-143990395D01*
X106832048Y-142678347D01*
X106676038Y-142362786D01*
X106301255Y-142171980D01*
X105896449Y-142057956D01*
X105477176Y-142025098D01*
X105059549Y-142074666D01*
X104659617Y-142204757D01*
X104363962Y-142362786D01*
X104207952Y-142678347D01*
X94435000Y-142678347D01*
X94435000Y-138854984D01*
X94519369Y-139058669D01*
X94763962Y-139424729D01*
X95075271Y-139736038D01*
X95441331Y-139980631D01*
X95848075Y-140149110D01*
X96279872Y-140235000D01*
X96720128Y-140235000D01*
X97151925Y-140149110D01*
X97558669Y-139980631D01*
X97924729Y-139736038D01*
X98236038Y-139424729D01*
X98480631Y-139058669D01*
X98649110Y-138651925D01*
X98735000Y-138220128D01*
X98735000Y-137779872D01*
X98649110Y-137348075D01*
X98480631Y-136941331D01*
X98236038Y-136575271D01*
X97924729Y-136263962D01*
X97806554Y-136185000D01*
X169693446Y-136185000D01*
X169575271Y-136263962D01*
G37*
X169575271Y-136263962D02*
X169263962Y-136575271D01*
X169019369Y-136941331D01*
X168850890Y-137348075D01*
X168765000Y-137779872D01*
X168765000Y-138220128D01*
X168850890Y-138651925D01*
X169019369Y-139058669D01*
X169263962Y-139424729D01*
X169575271Y-139736038D01*
X169941331Y-139980631D01*
X170348075Y-140149110D01*
X170779872Y-140235000D01*
X171220128Y-140235000D01*
X171651925Y-140149110D01*
X172058669Y-139980631D01*
X172424729Y-139736038D01*
X172736038Y-139424729D01*
X172980631Y-139058669D01*
X173065000Y-138854984D01*
X173065001Y-167693448D01*
X172986038Y-167575271D01*
X172674729Y-167263962D01*
X172308669Y-167019369D01*
X171901925Y-166850890D01*
X171470128Y-166765000D01*
X171029872Y-166765000D01*
X170598075Y-166850890D01*
X170191331Y-167019369D01*
X169825271Y-167263962D01*
X169513962Y-167575271D01*
X169269369Y-167941331D01*
X169100890Y-168348075D01*
X169015000Y-168779872D01*
X169015000Y-169220128D01*
X169100890Y-169651925D01*
X169269369Y-170058669D01*
X169513962Y-170424729D01*
X169825271Y-170736038D01*
X169943446Y-170815000D01*
X97556554Y-170815000D01*
X97674729Y-170736038D01*
X97986038Y-170424729D01*
X98230631Y-170058669D01*
X98399110Y-169651925D01*
X98485000Y-169220128D01*
X98485000Y-168779872D01*
X98399110Y-168348075D01*
X98230631Y-167941331D01*
X97986038Y-167575271D01*
X97674729Y-167263962D01*
X97308669Y-167019369D01*
X96901925Y-166850890D01*
X96470128Y-166765000D01*
X96029872Y-166765000D01*
X95598075Y-166850890D01*
X95191331Y-167019369D01*
X94825271Y-167263962D01*
X94513962Y-167575271D01*
X94435000Y-167693446D01*
X94435000Y-165985561D01*
X107840000Y-165985561D01*
X107840000Y-166189439D01*
X107879774Y-166389398D01*
X107957795Y-166577756D01*
X108071063Y-166747274D01*
X108215226Y-166891437D01*
X108384744Y-167004705D01*
X108573102Y-167082726D01*
X108773061Y-167122500D01*
X108976939Y-167122500D01*
X109176898Y-167082726D01*
X109365256Y-167004705D01*
X109534774Y-166891437D01*
X109678937Y-166747274D01*
X109792205Y-166577756D01*
X109870226Y-166389398D01*
X109910000Y-166189439D01*
X109910000Y-166127301D01*
X110787302Y-165250000D01*
X122081957Y-165250000D01*
X122185363Y-165404759D01*
X122385241Y-165604637D01*
X122620273Y-165761680D01*
X122881426Y-165869853D01*
X123158665Y-165925000D01*
X123441335Y-165925000D01*
X123718574Y-165869853D01*
X123979727Y-165761680D01*
X124214759Y-165604637D01*
X124414637Y-165404759D01*
X124571680Y-165169727D01*
X124679853Y-164908574D01*
X124735000Y-164631335D01*
X124735000Y-164348665D01*
X124679853Y-164071426D01*
X124571680Y-163810273D01*
X124414637Y-163575241D01*
X124214759Y-163375363D01*
X123979727Y-163218320D01*
X123718574Y-163110147D01*
X123441335Y-163055000D01*
X123158665Y-163055000D01*
X122881426Y-163110147D01*
X122620273Y-163218320D01*
X122385241Y-163375363D01*
X122185363Y-163575241D01*
X122081957Y-163730000D01*
X110509822Y-163730000D01*
X110472499Y-163726324D01*
X110435176Y-163730000D01*
X110435167Y-163730000D01*
X110323514Y-163740997D01*
X110180253Y-163784454D01*
X110048224Y-163855026D01*
X109932499Y-163949999D01*
X109908701Y-163978997D01*
X108835199Y-165052500D01*
X108773061Y-165052500D01*
X108573102Y-165092274D01*
X108384744Y-165170295D01*
X108215226Y-165283563D01*
X108071063Y-165427726D01*
X107957795Y-165597244D01*
X107879774Y-165785602D01*
X107840000Y-165985561D01*
X94435000Y-165985561D01*
X94435000Y-161989500D01*
X103381928Y-161989500D01*
X103394188Y-162113982D01*
X103430498Y-162233680D01*
X103489463Y-162343994D01*
X103568815Y-162440685D01*
X103665506Y-162520037D01*
X103775820Y-162579002D01*
X103895518Y-162615312D01*
X104020000Y-162627572D01*
X105234250Y-162624500D01*
X105393000Y-162465750D01*
X105393000Y-160616500D01*
X105647000Y-160616500D01*
X105647000Y-162465750D01*
X105805750Y-162624500D01*
X107020000Y-162627572D01*
X107144482Y-162615312D01*
X107264180Y-162579002D01*
X107374494Y-162520037D01*
X107471185Y-162440685D01*
X107550537Y-162343994D01*
X107609502Y-162233680D01*
X107645812Y-162113982D01*
X107658072Y-161989500D01*
X107655000Y-160775250D01*
X107496250Y-160616500D01*
X105647000Y-160616500D01*
X105393000Y-160616500D01*
X103543750Y-160616500D01*
X103385000Y-160775250D01*
X103381928Y-161989500D01*
X94435000Y-161989500D01*
X94435000Y-158989500D01*
X103381928Y-158989500D01*
X103385000Y-160203750D01*
X103543750Y-160362500D01*
X105393000Y-160362500D01*
X105393000Y-158513250D01*
X105647000Y-158513250D01*
X105647000Y-160362500D01*
X107496250Y-160362500D01*
X107655000Y-160203750D01*
X107658072Y-158989500D01*
X107645812Y-158865018D01*
X107609502Y-158745320D01*
X107550537Y-158635006D01*
X107471185Y-158538315D01*
X107374494Y-158458963D01*
X107264180Y-158399998D01*
X107144482Y-158363688D01*
X107020000Y-158351428D01*
X105805750Y-158354500D01*
X105647000Y-158513250D01*
X105393000Y-158513250D01*
X105234250Y-158354500D01*
X104020000Y-158351428D01*
X103895518Y-158363688D01*
X103775820Y-158399998D01*
X103665506Y-158458963D01*
X103568815Y-158538315D01*
X103489463Y-158635006D01*
X103430498Y-158745320D01*
X103394188Y-158865018D01*
X103381928Y-158989500D01*
X94435000Y-158989500D01*
X94435000Y-158038061D01*
X113375000Y-158038061D01*
X113375000Y-158241939D01*
X113414774Y-158441898D01*
X113492795Y-158630256D01*
X113606063Y-158799774D01*
X113750226Y-158943937D01*
X113909496Y-159050357D01*
X113859274Y-159171602D01*
X113819500Y-159371561D01*
X113819500Y-159575439D01*
X113859274Y-159775398D01*
X113937295Y-159963756D01*
X114050563Y-160133274D01*
X114194726Y-160277437D01*
X114364244Y-160390705D01*
X114552602Y-160468726D01*
X114752561Y-160508500D01*
X114956439Y-160508500D01*
X115156398Y-160468726D01*
X115301795Y-160408500D01*
X116396068Y-160408500D01*
X116442000Y-160413024D01*
X116487932Y-160408500D01*
X116625292Y-160394971D01*
X116801540Y-160341507D01*
X116963972Y-160254686D01*
X117106344Y-160137844D01*
X117135630Y-160102159D01*
X118056859Y-159180931D01*
X118202256Y-159120705D01*
X118371774Y-159007437D01*
X118515937Y-158863274D01*
X118629205Y-158693756D01*
X118707226Y-158505398D01*
X118747000Y-158305439D01*
X118747000Y-158101561D01*
X118707226Y-157901602D01*
X118667224Y-157805030D01*
X118710256Y-157787205D01*
X118879774Y-157673937D01*
X119023937Y-157529774D01*
X119137205Y-157360256D01*
X119215226Y-157171898D01*
X119255000Y-156971939D01*
X119255000Y-156768061D01*
X119215226Y-156568102D01*
X119137205Y-156379744D01*
X119023937Y-156210226D01*
X118879774Y-156066063D01*
X118710256Y-155952795D01*
X118521898Y-155874774D01*
X118321939Y-155835000D01*
X118118061Y-155835000D01*
X117918102Y-155874774D01*
X117772705Y-155935000D01*
X115725931Y-155935000D01*
X115679999Y-155930476D01*
X115496707Y-155948529D01*
X115460409Y-155959540D01*
X115320460Y-156001993D01*
X115158028Y-156088814D01*
X115015656Y-156205656D01*
X114986374Y-156241336D01*
X114065142Y-157162569D01*
X113919744Y-157222795D01*
X113750226Y-157336063D01*
X113606063Y-157480226D01*
X113492795Y-157649744D01*
X113414774Y-157838102D01*
X113375000Y-158038061D01*
X94435000Y-158038061D01*
X94435000Y-147750000D01*
X103381928Y-147750000D01*
X103381928Y-150750000D01*
X103394188Y-150874482D01*
X103430498Y-150994180D01*
X103489463Y-151104494D01*
X103568815Y-151201185D01*
X103665506Y-151280537D01*
X103775820Y-151339502D01*
X103895518Y-151375812D01*
X104020000Y-151388072D01*
X107020000Y-151388072D01*
X107144482Y-151375812D01*
X107264180Y-151339502D01*
X107374494Y-151280537D01*
X107471185Y-151201185D01*
X107550537Y-151104494D01*
X107609502Y-150994180D01*
X107645812Y-150874482D01*
X107658072Y-150750000D01*
X107658072Y-150185000D01*
X114041928Y-150185000D01*
X114041928Y-150202500D01*
X114054188Y-150326982D01*
X114090498Y-150446680D01*
X114149463Y-150556994D01*
X114228815Y-150653685D01*
X114325506Y-150733037D01*
X114435820Y-150792002D01*
X114555518Y-150828312D01*
X114680000Y-150840572D01*
X116680000Y-150840572D01*
X116804482Y-150828312D01*
X116924180Y-150792002D01*
X117034494Y-150733037D01*
X117131185Y-150653685D01*
X117210537Y-150556994D01*
X117269502Y-150446680D01*
X117305812Y-150326982D01*
X117318072Y-150202500D01*
X117318072Y-148297500D01*
X117305812Y-148173018D01*
X117269502Y-148053320D01*
X117210537Y-147943006D01*
X117131185Y-147846315D01*
X117034494Y-147766963D01*
X116942781Y-147717941D01*
X117055969Y-147576923D01*
X117199571Y-147301094D01*
X117270563Y-147082980D01*
X117270441Y-147082730D01*
X118068069Y-147880358D01*
X118110500Y-147982796D01*
X118110500Y-150183500D01*
X118043551Y-150183500D01*
X117843592Y-150223274D01*
X117655234Y-150301295D01*
X117485716Y-150414563D01*
X117341553Y-150558726D01*
X117228285Y-150728244D01*
X117168059Y-150873642D01*
X113376701Y-154665000D01*
X112520495Y-154665000D01*
X112375098Y-154604774D01*
X112175139Y-154565000D01*
X111971261Y-154565000D01*
X111771302Y-154604774D01*
X111625905Y-154665000D01*
X107522525Y-154665000D01*
X107412012Y-154398198D01*
X107178363Y-154048517D01*
X106880983Y-153751137D01*
X106531302Y-153517488D01*
X106142756Y-153356547D01*
X105730279Y-153274500D01*
X105309721Y-153274500D01*
X104897244Y-153356547D01*
X104508698Y-153517488D01*
X104159017Y-153751137D01*
X103861637Y-154048517D01*
X103627988Y-154398198D01*
X103467047Y-154786744D01*
X103385000Y-155199221D01*
X103385000Y-155619779D01*
X103467047Y-156032256D01*
X103627988Y-156420802D01*
X103861637Y-156770483D01*
X104159017Y-157067863D01*
X104508698Y-157301512D01*
X104897244Y-157462453D01*
X105309721Y-157544500D01*
X105730279Y-157544500D01*
X106142756Y-157462453D01*
X106531302Y-157301512D01*
X106880983Y-157067863D01*
X107178363Y-156770483D01*
X107335707Y-156535000D01*
X111625905Y-156535000D01*
X111771302Y-156595226D01*
X111971261Y-156635000D01*
X112175139Y-156635000D01*
X112375098Y-156595226D01*
X112520495Y-156535000D01*
X113718058Y-156535000D01*
X113763990Y-156539524D01*
X113809922Y-156535000D01*
X113947282Y-156521471D01*
X114123530Y-156468007D01*
X114285962Y-156381186D01*
X114428334Y-156264344D01*
X114457620Y-156228659D01*
X118110501Y-152575778D01*
X118110501Y-153839558D01*
X118105976Y-153885500D01*
X118124029Y-154068791D01*
X118173783Y-154232807D01*
X118177494Y-154245040D01*
X118264315Y-154407472D01*
X118381157Y-154549844D01*
X118416836Y-154579125D01*
X126897729Y-163060019D01*
X126895000Y-163073740D01*
X126895000Y-163366260D01*
X126952068Y-163653158D01*
X127064010Y-163923411D01*
X127226525Y-164166632D01*
X127433368Y-164373475D01*
X127676589Y-164535990D01*
X127946842Y-164647932D01*
X128233740Y-164705000D01*
X128526260Y-164705000D01*
X128813158Y-164647932D01*
X129083411Y-164535990D01*
X129326632Y-164373475D01*
X129533475Y-164166632D01*
X129541247Y-164155000D01*
X132298753Y-164155000D01*
X132306525Y-164166632D01*
X132513368Y-164373475D01*
X132756589Y-164535990D01*
X133026842Y-164647932D01*
X133313740Y-164705000D01*
X133606260Y-164705000D01*
X133619981Y-164702271D01*
X134290374Y-165372664D01*
X134319656Y-165408344D01*
X134462028Y-165525186D01*
X134624460Y-165612007D01*
X134713458Y-165639004D01*
X134800707Y-165665471D01*
X134819110Y-165667283D01*
X134938068Y-165679000D01*
X134938074Y-165679000D01*
X134983999Y-165683523D01*
X135029924Y-165679000D01*
X142050068Y-165679000D01*
X142096000Y-165683524D01*
X142141932Y-165679000D01*
X142279292Y-165665471D01*
X142455540Y-165612007D01*
X142617972Y-165525186D01*
X142760344Y-165408344D01*
X142789630Y-165372659D01*
X143460019Y-164702271D01*
X143473740Y-164705000D01*
X143766260Y-164705000D01*
X144053158Y-164647932D01*
X144323411Y-164535990D01*
X144465000Y-164441383D01*
X144465000Y-164601939D01*
X144504774Y-164801898D01*
X144582795Y-164990256D01*
X144696063Y-165159774D01*
X144840226Y-165303937D01*
X145009744Y-165417205D01*
X145198102Y-165495226D01*
X145398061Y-165535000D01*
X145460199Y-165535000D01*
X146051202Y-166126004D01*
X146075000Y-166155002D01*
X146103998Y-166178800D01*
X146190725Y-166249975D01*
X146322754Y-166320547D01*
X146466015Y-166364004D01*
X146615001Y-166378678D01*
X146652334Y-166375001D01*
X150123200Y-166375001D01*
X149937360Y-166560841D01*
X146703711Y-166560841D01*
X146659774Y-166516904D01*
X146490256Y-166403636D01*
X146301898Y-166325615D01*
X146101939Y-166285841D01*
X145898061Y-166285841D01*
X145698102Y-166325615D01*
X145509744Y-166403636D01*
X145340226Y-166516904D01*
X145196063Y-166661067D01*
X145082795Y-166830585D01*
X145004774Y-167018943D01*
X144965000Y-167218902D01*
X144965000Y-167422780D01*
X145004774Y-167622739D01*
X145082795Y-167811097D01*
X145196063Y-167980615D01*
X145340226Y-168124778D01*
X145509744Y-168238046D01*
X145698102Y-168316067D01*
X145898061Y-168355841D01*
X146101939Y-168355841D01*
X146301898Y-168316067D01*
X146490256Y-168238046D01*
X146659774Y-168124778D01*
X146703711Y-168080841D01*
X150214839Y-168080841D01*
X150252161Y-168084517D01*
X150289483Y-168080841D01*
X150289494Y-168080841D01*
X150401147Y-168069844D01*
X150544408Y-168026387D01*
X150676437Y-167955815D01*
X150792162Y-167860842D01*
X150815965Y-167831838D01*
X153236005Y-165411799D01*
X153265002Y-165388002D01*
X153359975Y-165272277D01*
X153430547Y-165140248D01*
X153474004Y-164996987D01*
X153485001Y-164885334D01*
X153485001Y-164885324D01*
X153488677Y-164848001D01*
X153485001Y-164810678D01*
X153485001Y-164189332D01*
X153488678Y-164151999D01*
X153474004Y-164003013D01*
X153430547Y-163859752D01*
X153428021Y-163855026D01*
X153359975Y-163727723D01*
X153265002Y-163611998D01*
X153235998Y-163588195D01*
X152911805Y-163264002D01*
X152888002Y-163234998D01*
X152772277Y-163140025D01*
X152640248Y-163069453D01*
X152496987Y-163025996D01*
X152385334Y-163014999D01*
X152385323Y-163014999D01*
X152348001Y-163011323D01*
X152310679Y-163014999D01*
X151966801Y-163014999D01*
X150429398Y-161477597D01*
X150479774Y-161443937D01*
X150523711Y-161400000D01*
X151575199Y-161400000D01*
X156301202Y-166126004D01*
X156325000Y-166155002D01*
X156353998Y-166178800D01*
X156440724Y-166249975D01*
X156572754Y-166320547D01*
X156716015Y-166364004D01*
X156827668Y-166375001D01*
X156827678Y-166375001D01*
X156865001Y-166378677D01*
X156902324Y-166375001D01*
X158092679Y-166375001D01*
X158130001Y-166378677D01*
X158167323Y-166375001D01*
X158167334Y-166375001D01*
X158278987Y-166364004D01*
X158422248Y-166320547D01*
X158554277Y-166249975D01*
X158670002Y-166155002D01*
X158693805Y-166125999D01*
X160378001Y-164441803D01*
X160594989Y-164586790D01*
X160865242Y-164698732D01*
X161152140Y-164755800D01*
X161444660Y-164755800D01*
X161731558Y-164698732D01*
X162001811Y-164586790D01*
X162245032Y-164424275D01*
X162451875Y-164217432D01*
X162614390Y-163974211D01*
X162726332Y-163703958D01*
X162783400Y-163417060D01*
X162783400Y-163124540D01*
X162726332Y-162837642D01*
X162614390Y-162567389D01*
X162478695Y-162364308D01*
X163434415Y-161408589D01*
X163463412Y-161384792D01*
X163558385Y-161269067D01*
X163628957Y-161137038D01*
X163672414Y-160993777D01*
X163683411Y-160882124D01*
X163683411Y-160882116D01*
X163687087Y-160844791D01*
X163683411Y-160807466D01*
X163683411Y-153350733D01*
X163687087Y-153313410D01*
X163683411Y-153276087D01*
X163683411Y-153276078D01*
X163672414Y-153164425D01*
X163628957Y-153021164D01*
X163558385Y-152889135D01*
X163463412Y-152773410D01*
X163434414Y-152749612D01*
X163001888Y-152317086D01*
X163038200Y-152134535D01*
X163038200Y-151933740D01*
X165765000Y-151933740D01*
X165765000Y-152226260D01*
X165822068Y-152513158D01*
X165934010Y-152783411D01*
X166096525Y-153026632D01*
X166303368Y-153233475D01*
X166477760Y-153350000D01*
X166303368Y-153466525D01*
X166096525Y-153673368D01*
X165934010Y-153916589D01*
X165822068Y-154186842D01*
X165765000Y-154473740D01*
X165765000Y-154766260D01*
X165822068Y-155053158D01*
X165934010Y-155323411D01*
X166096525Y-155566632D01*
X166303368Y-155773475D01*
X166477760Y-155890000D01*
X166303368Y-156006525D01*
X166096525Y-156213368D01*
X165934010Y-156456589D01*
X165822068Y-156726842D01*
X165765000Y-157013740D01*
X165765000Y-157306260D01*
X165822068Y-157593158D01*
X165934010Y-157863411D01*
X166096525Y-158106632D01*
X166303368Y-158313475D01*
X166477760Y-158430000D01*
X166303368Y-158546525D01*
X166096525Y-158753368D01*
X165934010Y-158996589D01*
X165822068Y-159266842D01*
X165765000Y-159553740D01*
X165765000Y-159846260D01*
X165822068Y-160133158D01*
X165934010Y-160403411D01*
X166096525Y-160646632D01*
X166303368Y-160853475D01*
X166477760Y-160970000D01*
X166303368Y-161086525D01*
X166096525Y-161293368D01*
X165934010Y-161536589D01*
X165822068Y-161806842D01*
X165765000Y-162093740D01*
X165765000Y-162386260D01*
X165822068Y-162673158D01*
X165934010Y-162943411D01*
X166096525Y-163186632D01*
X166303368Y-163393475D01*
X166546589Y-163555990D01*
X166816842Y-163667932D01*
X167103740Y-163725000D01*
X167396260Y-163725000D01*
X167683158Y-163667932D01*
X167953411Y-163555990D01*
X168196632Y-163393475D01*
X168403475Y-163186632D01*
X168565990Y-162943411D01*
X168677932Y-162673158D01*
X168735000Y-162386260D01*
X168735000Y-162093740D01*
X168677932Y-161806842D01*
X168565990Y-161536589D01*
X168403475Y-161293368D01*
X168196632Y-161086525D01*
X168022240Y-160970000D01*
X168196632Y-160853475D01*
X168403475Y-160646632D01*
X168565990Y-160403411D01*
X168677932Y-160133158D01*
X168735000Y-159846260D01*
X168735000Y-159553740D01*
X168677932Y-159266842D01*
X168565990Y-158996589D01*
X168403475Y-158753368D01*
X168196632Y-158546525D01*
X168022240Y-158430000D01*
X168196632Y-158313475D01*
X168403475Y-158106632D01*
X168565990Y-157863411D01*
X168677932Y-157593158D01*
X168735000Y-157306260D01*
X168735000Y-157013740D01*
X168677932Y-156726842D01*
X168565990Y-156456589D01*
X168403475Y-156213368D01*
X168196632Y-156006525D01*
X168022240Y-155890000D01*
X168196632Y-155773475D01*
X168403475Y-155566632D01*
X168565990Y-155323411D01*
X168677932Y-155053158D01*
X168735000Y-154766260D01*
X168735000Y-154473740D01*
X168677932Y-154186842D01*
X168565990Y-153916589D01*
X168403475Y-153673368D01*
X168196632Y-153466525D01*
X168022240Y-153350000D01*
X168196632Y-153233475D01*
X168403475Y-153026632D01*
X168565990Y-152783411D01*
X168677932Y-152513158D01*
X168735000Y-152226260D01*
X168735000Y-151933740D01*
X168677932Y-151646842D01*
X168565990Y-151376589D01*
X168403475Y-151133368D01*
X168196632Y-150926525D01*
X168014466Y-150804805D01*
X168131355Y-150735178D01*
X168347588Y-150540269D01*
X168521641Y-150306920D01*
X168646825Y-150044099D01*
X168691476Y-149896890D01*
X168570155Y-149667000D01*
X167377000Y-149667000D01*
X167377000Y-149687000D01*
X167123000Y-149687000D01*
X167123000Y-149667000D01*
X165929845Y-149667000D01*
X165808524Y-149896890D01*
X165853175Y-150044099D01*
X165978359Y-150306920D01*
X166152412Y-150540269D01*
X166368645Y-150735178D01*
X166485534Y-150804805D01*
X166303368Y-150926525D01*
X166096525Y-151133368D01*
X165934010Y-151376589D01*
X165822068Y-151646842D01*
X165765000Y-151933740D01*
X163038200Y-151933740D01*
X163038200Y-151851865D01*
X162983053Y-151574626D01*
X162874880Y-151313473D01*
X162717837Y-151078441D01*
X162517959Y-150878563D01*
X162282927Y-150721520D01*
X162021774Y-150613347D01*
X161744535Y-150558200D01*
X161461865Y-150558200D01*
X161184626Y-150613347D01*
X160940220Y-150714583D01*
X163239205Y-148415599D01*
X163268202Y-148391802D01*
X163363175Y-148276077D01*
X163433747Y-148144048D01*
X163477204Y-148000787D01*
X163488201Y-147889134D01*
X163488201Y-147889125D01*
X163491877Y-147851802D01*
X163488201Y-147814479D01*
X163488201Y-146150000D01*
X165761928Y-146150000D01*
X165761928Y-147850000D01*
X165774188Y-147974482D01*
X165810498Y-148094180D01*
X165869463Y-148204494D01*
X165948815Y-148301185D01*
X166045506Y-148380537D01*
X166155820Y-148439502D01*
X166236466Y-148463966D01*
X166152412Y-148539731D01*
X165978359Y-148773080D01*
X165853175Y-149035901D01*
X165808524Y-149183110D01*
X165929845Y-149413000D01*
X167123000Y-149413000D01*
X167123000Y-149393000D01*
X167377000Y-149393000D01*
X167377000Y-149413000D01*
X168570155Y-149413000D01*
X168691476Y-149183110D01*
X168646825Y-149035901D01*
X168521641Y-148773080D01*
X168347588Y-148539731D01*
X168263534Y-148463966D01*
X168344180Y-148439502D01*
X168454494Y-148380537D01*
X168551185Y-148301185D01*
X168630537Y-148204494D01*
X168689502Y-148094180D01*
X168725812Y-147974482D01*
X168738072Y-147850000D01*
X168738072Y-146150000D01*
X168725812Y-146025518D01*
X168689502Y-145905820D01*
X168630537Y-145795506D01*
X168551185Y-145698815D01*
X168454494Y-145619463D01*
X168344180Y-145560498D01*
X168224482Y-145524188D01*
X168100000Y-145511928D01*
X166400000Y-145511928D01*
X166275518Y-145524188D01*
X166155820Y-145560498D01*
X166045506Y-145619463D01*
X165948815Y-145698815D01*
X165869463Y-145795506D01*
X165810498Y-145905820D01*
X165774188Y-146025518D01*
X165761928Y-146150000D01*
X163488201Y-146150000D01*
X163488201Y-141330522D01*
X163491877Y-141293199D01*
X163488201Y-141255876D01*
X163488201Y-141255866D01*
X163477204Y-141144213D01*
X163433747Y-141000952D01*
X163433476Y-141000445D01*
X163363175Y-140868922D01*
X163292000Y-140782196D01*
X163268202Y-140753198D01*
X163239203Y-140729399D01*
X162707004Y-140197201D01*
X162683202Y-140168198D01*
X162567477Y-140073225D01*
X162435448Y-140002653D01*
X162292187Y-139959196D01*
X162180534Y-139948199D01*
X162180523Y-139948199D01*
X162143201Y-139944523D01*
X162105879Y-139948199D01*
X161100524Y-139948199D01*
X161063199Y-139944523D01*
X161025874Y-139948199D01*
X161025866Y-139948199D01*
X160914213Y-139959196D01*
X160770952Y-140002653D01*
X160638923Y-140073225D01*
X160523198Y-140168198D01*
X160499400Y-140197196D01*
X157355591Y-143341006D01*
X156338850Y-143341006D01*
X156396300Y-143111816D01*
X156410217Y-142829488D01*
X156368787Y-142549870D01*
X156273603Y-142283708D01*
X156206671Y-142158486D01*
X155962702Y-142086903D01*
X155149605Y-142900000D01*
X155163748Y-142914143D01*
X154984143Y-143093748D01*
X154970000Y-143079605D01*
X154955858Y-143093748D01*
X154776253Y-142914143D01*
X154790395Y-142900000D01*
X153977298Y-142086903D01*
X153733329Y-142158486D01*
X153612429Y-142413996D01*
X153543700Y-142688184D01*
X153529783Y-142970512D01*
X153571213Y-143250130D01*
X153603712Y-143341006D01*
X151340561Y-143341006D01*
X151349853Y-143318574D01*
X151405000Y-143041335D01*
X151405000Y-142758665D01*
X151349853Y-142481426D01*
X151241680Y-142220273D01*
X151084637Y-141985241D01*
X151006694Y-141907298D01*
X154156903Y-141907298D01*
X154970000Y-142720395D01*
X155783097Y-141907298D01*
X155711514Y-141663329D01*
X155456004Y-141542429D01*
X155181816Y-141473700D01*
X154899488Y-141459783D01*
X154619870Y-141501213D01*
X154353708Y-141596397D01*
X154228486Y-141663329D01*
X154156903Y-141907298D01*
X151006694Y-141907298D01*
X150884759Y-141785363D01*
X150649727Y-141628320D01*
X150635228Y-141622314D01*
X150604974Y-141565714D01*
X150510001Y-141449989D01*
X150481004Y-141426192D01*
X149615000Y-140560189D01*
X149615000Y-140498051D01*
X149575226Y-140298092D01*
X149497205Y-140109734D01*
X149383937Y-139940216D01*
X149239774Y-139796053D01*
X149070256Y-139682785D01*
X148881898Y-139604764D01*
X148681939Y-139564990D01*
X148478061Y-139564990D01*
X148278102Y-139604764D01*
X148089744Y-139682785D01*
X147920226Y-139796053D01*
X147776063Y-139940216D01*
X147662795Y-140109734D01*
X147584774Y-140298092D01*
X147545000Y-140498051D01*
X147545000Y-140701929D01*
X147584774Y-140901888D01*
X147662795Y-141090246D01*
X147776063Y-141259764D01*
X147920226Y-141403927D01*
X148089744Y-141517195D01*
X148278102Y-141595216D01*
X148478061Y-141634990D01*
X148540199Y-141634990D01*
X148872906Y-141967698D01*
X148855363Y-141985241D01*
X148698320Y-142220273D01*
X148590147Y-142481426D01*
X148535000Y-142758665D01*
X148535000Y-143041335D01*
X148590147Y-143318574D01*
X148599439Y-143341006D01*
X147584681Y-143341006D01*
X147587932Y-143333158D01*
X147645000Y-143046260D01*
X147645000Y-142753740D01*
X147587932Y-142466842D01*
X147475990Y-142196589D01*
X147313475Y-141953368D01*
X147106632Y-141746525D01*
X146863411Y-141584010D01*
X146593158Y-141472068D01*
X146306260Y-141415000D01*
X146013740Y-141415000D01*
X145726842Y-141472068D01*
X145456589Y-141584010D01*
X145213368Y-141746525D01*
X145006525Y-141953368D01*
X144890000Y-142127760D01*
X144773475Y-141953368D01*
X144566632Y-141746525D01*
X144323411Y-141584010D01*
X144053158Y-141472068D01*
X143766260Y-141415000D01*
X143473740Y-141415000D01*
X143186842Y-141472068D01*
X142916589Y-141584010D01*
X142673368Y-141746525D01*
X142541513Y-141878380D01*
X142519502Y-141805820D01*
X142460537Y-141695506D01*
X142381185Y-141598815D01*
X142284494Y-141519463D01*
X142174180Y-141460498D01*
X142054482Y-141424188D01*
X141930000Y-141411928D01*
X140230000Y-141411928D01*
X140105518Y-141424188D01*
X139985820Y-141460498D01*
X139875506Y-141519463D01*
X139778815Y-141598815D01*
X139699463Y-141695506D01*
X139640498Y-141805820D01*
X139604188Y-141925518D01*
X139591928Y-142050000D01*
X139591928Y-143750000D01*
X139604188Y-143874482D01*
X139640498Y-143994180D01*
X139699463Y-144104494D01*
X139778815Y-144201185D01*
X139875506Y-144280537D01*
X139985820Y-144339502D01*
X140105518Y-144375812D01*
X140143386Y-144379542D01*
X140145000Y-144395931D01*
X140158529Y-144533291D01*
X140211993Y-144709539D01*
X140298814Y-144871971D01*
X140415656Y-145014344D01*
X140451341Y-145043630D01*
X143733189Y-148325479D01*
X139946854Y-148325479D01*
X139909521Y-148321802D01*
X139872188Y-148325479D01*
X139760535Y-148336476D01*
X139617274Y-148379933D01*
X139485245Y-148450505D01*
X139369520Y-148545478D01*
X139345722Y-148574476D01*
X138033959Y-149886239D01*
X137995299Y-149792905D01*
X137827312Y-149541495D01*
X137613505Y-149327688D01*
X137362095Y-149159701D01*
X137082743Y-149043989D01*
X136786184Y-148985000D01*
X136483816Y-148985000D01*
X136187257Y-149043989D01*
X135907905Y-149159701D01*
X135656495Y-149327688D01*
X135590056Y-149394127D01*
X135584502Y-149375820D01*
X135525537Y-149265506D01*
X135446185Y-149168815D01*
X135349494Y-149089463D01*
X135239180Y-149030498D01*
X135119482Y-148994188D01*
X134995000Y-148981928D01*
X134380750Y-148985000D01*
X134222000Y-149143750D01*
X134222000Y-150393000D01*
X134242000Y-150393000D01*
X134242000Y-150647000D01*
X134222000Y-150647000D01*
X134222000Y-150667000D01*
X133968000Y-150667000D01*
X133968000Y-150647000D01*
X132718750Y-150647000D01*
X132560000Y-150805750D01*
X132556928Y-151420000D01*
X132569188Y-151544482D01*
X132605498Y-151664180D01*
X132664463Y-151774494D01*
X132743815Y-151871185D01*
X132840506Y-151950537D01*
X132950820Y-152009502D01*
X133070518Y-152045812D01*
X133195000Y-152058072D01*
X133809250Y-152055000D01*
X133967998Y-151896252D01*
X133967998Y-152055000D01*
X134019998Y-152055000D01*
X133970180Y-152115704D01*
X133925026Y-152170724D01*
X133895341Y-152226260D01*
X133854454Y-152302754D01*
X133828729Y-152387560D01*
X133756063Y-152460226D01*
X133642795Y-152629744D01*
X133564774Y-152818102D01*
X133525000Y-153018061D01*
X133525000Y-153221939D01*
X133564774Y-153421898D01*
X133642795Y-153610256D01*
X133679373Y-153664999D01*
X132387321Y-153664999D01*
X132349998Y-153661323D01*
X132312675Y-153664999D01*
X132312666Y-153664999D01*
X132201013Y-153675996D01*
X132057752Y-153719453D01*
X131925723Y-153790025D01*
X131909684Y-153803188D01*
X131838995Y-153861200D01*
X131838991Y-153861204D01*
X131809998Y-153884998D01*
X131786204Y-153913991D01*
X129839723Y-155860473D01*
X129706250Y-155727000D01*
X128507000Y-155727000D01*
X128507000Y-155747000D01*
X128253000Y-155747000D01*
X128253000Y-155727000D01*
X127053750Y-155727000D01*
X126895000Y-155885750D01*
X126891928Y-156450000D01*
X126904188Y-156574482D01*
X126940498Y-156694180D01*
X126965410Y-156740786D01*
X126693996Y-157012201D01*
X126664999Y-157035998D01*
X126641201Y-157064996D01*
X126641200Y-157064997D01*
X126570025Y-157151723D01*
X126499453Y-157283753D01*
X126483586Y-157336063D01*
X126455997Y-157427013D01*
X126445972Y-157528798D01*
X126441323Y-157575999D01*
X126445000Y-157613331D01*
X126444999Y-159467676D01*
X126441323Y-159504999D01*
X126444999Y-159542321D01*
X126444999Y-159542331D01*
X126455996Y-159653984D01*
X126492826Y-159775398D01*
X126499453Y-159797245D01*
X126570025Y-159929275D01*
X126598323Y-159963756D01*
X126664998Y-160045000D01*
X126694002Y-160068803D01*
X126938791Y-160313592D01*
X126915080Y-160432790D01*
X121828981Y-155346692D01*
X121936896Y-155325226D01*
X122125254Y-155247205D01*
X122174230Y-155214481D01*
X122336586Y-155393519D01*
X122562580Y-155561037D01*
X122816913Y-155681246D01*
X122950961Y-155721904D01*
X123173000Y-155599915D01*
X123173000Y-154457000D01*
X123153000Y-154457000D01*
X123153000Y-154203000D01*
X123173000Y-154203000D01*
X123173000Y-154183000D01*
X123427000Y-154183000D01*
X123427000Y-154203000D01*
X123447000Y-154203000D01*
X123447000Y-154457000D01*
X123427000Y-154457000D01*
X123427000Y-155599915D01*
X123649039Y-155721904D01*
X123783087Y-155681246D01*
X124037420Y-155561037D01*
X124263414Y-155393519D01*
X124452385Y-155185131D01*
X124597070Y-154943881D01*
X124653427Y-154786502D01*
X126892127Y-154786502D01*
X126895000Y-155314250D01*
X127053750Y-155473000D01*
X128253000Y-155473000D01*
X128253000Y-155453000D01*
X128507000Y-155453000D01*
X128507000Y-155473000D01*
X129706250Y-155473000D01*
X129865000Y-155314250D01*
X129868072Y-154750000D01*
X129855812Y-154625518D01*
X129819502Y-154505820D01*
X129760537Y-154395506D01*
X129681185Y-154298815D01*
X129584494Y-154219463D01*
X129474180Y-154160498D01*
X129354482Y-154124188D01*
X129230000Y-154111928D01*
X128710042Y-154114759D01*
X132575276Y-150249526D01*
X132718750Y-150393000D01*
X133968000Y-150393000D01*
X133968000Y-149143750D01*
X133824526Y-149000276D01*
X135614802Y-147210000D01*
X136771289Y-147210000D01*
X136815226Y-147253937D01*
X136984744Y-147367205D01*
X137173102Y-147445226D01*
X137373061Y-147485000D01*
X137576939Y-147485000D01*
X137776898Y-147445226D01*
X137965256Y-147367205D01*
X138134774Y-147253937D01*
X138278937Y-147109774D01*
X138392205Y-146940256D01*
X138470226Y-146751898D01*
X138510000Y-146551939D01*
X138510000Y-146348061D01*
X138470226Y-146148102D01*
X138392205Y-145959744D01*
X138278937Y-145790226D01*
X138134774Y-145646063D01*
X137965256Y-145532795D01*
X137776898Y-145454774D01*
X137576939Y-145415000D01*
X137373061Y-145415000D01*
X137173102Y-145454774D01*
X136984744Y-145532795D01*
X136815226Y-145646063D01*
X136771289Y-145690000D01*
X135337323Y-145690000D01*
X135300000Y-145686324D01*
X135262677Y-145690000D01*
X135262667Y-145690000D01*
X135151014Y-145700997D01*
X135040469Y-145734530D01*
X135007753Y-145744454D01*
X134875723Y-145815026D01*
X134825552Y-145856201D01*
X134759999Y-145909999D01*
X134736201Y-145938997D01*
X127408697Y-153266502D01*
X124978546Y-153266502D01*
X124965002Y-153249998D01*
X124936003Y-153226199D01*
X124403804Y-152694001D01*
X124380002Y-152664998D01*
X124264277Y-152570025D01*
X124132248Y-152499453D01*
X123988987Y-152455996D01*
X123877334Y-152444999D01*
X123877323Y-152444999D01*
X123840001Y-152441323D01*
X123802679Y-152444999D01*
X122797322Y-152444999D01*
X122759999Y-152441323D01*
X122722676Y-152444999D01*
X122722666Y-152444999D01*
X122611013Y-152455996D01*
X122476521Y-152496793D01*
X122467752Y-152499453D01*
X122335722Y-152570025D01*
X122252082Y-152638667D01*
X122219998Y-152664998D01*
X122196199Y-152693997D01*
X121664001Y-153226196D01*
X121634998Y-153249998D01*
X121621454Y-153266502D01*
X121597665Y-153266502D01*
X121486012Y-153277499D01*
X121342751Y-153320956D01*
X121261120Y-153364589D01*
X121144742Y-153412795D01*
X120975224Y-153526063D01*
X120831061Y-153670226D01*
X120717793Y-153839744D01*
X120639772Y-154028102D01*
X120618306Y-154136017D01*
X119980500Y-153498211D01*
X119980500Y-147982795D01*
X120040726Y-147837398D01*
X120080500Y-147637439D01*
X120080500Y-147433561D01*
X120040726Y-147233602D01*
X119962705Y-147045244D01*
X119849437Y-146875726D01*
X119844604Y-146870893D01*
X120070273Y-147021680D01*
X120331426Y-147129853D01*
X120608665Y-147185000D01*
X120891335Y-147185000D01*
X121168574Y-147129853D01*
X121429727Y-147021680D01*
X121664759Y-146864637D01*
X121864637Y-146664759D01*
X122021680Y-146429727D01*
X122129853Y-146168574D01*
X122185000Y-145891335D01*
X122185000Y-145608665D01*
X129475000Y-145608665D01*
X129475000Y-145891335D01*
X129530147Y-146168574D01*
X129638320Y-146429727D01*
X129795363Y-146664759D01*
X129995241Y-146864637D01*
X130230273Y-147021680D01*
X130491426Y-147129853D01*
X130768665Y-147185000D01*
X131051335Y-147185000D01*
X131328574Y-147129853D01*
X131589727Y-147021680D01*
X131824759Y-146864637D01*
X132024637Y-146664759D01*
X132181680Y-146429727D01*
X132289853Y-146168574D01*
X132345000Y-145891335D01*
X132345000Y-145608665D01*
X132289853Y-145331426D01*
X132181680Y-145070273D01*
X132024637Y-144835241D01*
X131824759Y-144635363D01*
X131589727Y-144478320D01*
X131485144Y-144435000D01*
X132556928Y-144435000D01*
X132569188Y-144559482D01*
X132605498Y-144679180D01*
X132664463Y-144789494D01*
X132743815Y-144886185D01*
X132840506Y-144965537D01*
X132950820Y-145024502D01*
X133070518Y-145060812D01*
X133195000Y-145073072D01*
X133809250Y-145070000D01*
X133968000Y-144911250D01*
X133968000Y-143662000D01*
X132718750Y-143662000D01*
X132560000Y-143820750D01*
X132556928Y-144435000D01*
X131485144Y-144435000D01*
X131328574Y-144370147D01*
X131051335Y-144315000D01*
X130768665Y-144315000D01*
X130491426Y-144370147D01*
X130230273Y-144478320D01*
X129995241Y-144635363D01*
X129795363Y-144835241D01*
X129638320Y-145070273D01*
X129530147Y-145331426D01*
X129475000Y-145608665D01*
X122185000Y-145608665D01*
X122129853Y-145331426D01*
X122021680Y-145070273D01*
X121864637Y-144835241D01*
X121664759Y-144635363D01*
X121429727Y-144478320D01*
X121168574Y-144370147D01*
X120891335Y-144315000D01*
X120608665Y-144315000D01*
X120331426Y-144370147D01*
X120070273Y-144478320D01*
X119835241Y-144635363D01*
X119635363Y-144835241D01*
X119478320Y-145070273D01*
X119370147Y-145331426D01*
X119315000Y-145608665D01*
X119315000Y-145891335D01*
X119370147Y-146168574D01*
X119478320Y-146429727D01*
X119635363Y-146664759D01*
X119695911Y-146725307D01*
X119535756Y-146618295D01*
X119390358Y-146558069D01*
X117293954Y-144461665D01*
X117322681Y-144170000D01*
X117292030Y-143858796D01*
X117229448Y-143652490D01*
X117399578Y-143652490D01*
X117402795Y-143660256D01*
X117516063Y-143829774D01*
X117660226Y-143973937D01*
X117829744Y-144087205D01*
X118018102Y-144165226D01*
X118218061Y-144205000D01*
X118421939Y-144205000D01*
X118621898Y-144165226D01*
X118810256Y-144087205D01*
X118979774Y-143973937D01*
X119123937Y-143829774D01*
X119237205Y-143660256D01*
X119315226Y-143471898D01*
X119355000Y-143271939D01*
X119355000Y-143068061D01*
X119315226Y-142868102D01*
X119237205Y-142679744D01*
X119123937Y-142510226D01*
X118979774Y-142366063D01*
X118968703Y-142358665D01*
X119315000Y-142358665D01*
X119315000Y-142641335D01*
X119370147Y-142918574D01*
X119478320Y-143179727D01*
X119635363Y-143414759D01*
X119835241Y-143614637D01*
X120070273Y-143771680D01*
X120331426Y-143879853D01*
X120608665Y-143935000D01*
X120891335Y-143935000D01*
X121168574Y-143879853D01*
X121429727Y-143771680D01*
X121664759Y-143614637D01*
X121864637Y-143414759D01*
X122021680Y-143179727D01*
X122129853Y-142918574D01*
X122143684Y-142849039D01*
X129518096Y-142849039D01*
X129558754Y-142983087D01*
X129678963Y-143237420D01*
X129846481Y-143463414D01*
X130054869Y-143652385D01*
X130296119Y-143797070D01*
X130560960Y-143891909D01*
X130783000Y-143770624D01*
X130783000Y-142627000D01*
X131037000Y-142627000D01*
X131037000Y-143770624D01*
X131259040Y-143891909D01*
X131523881Y-143797070D01*
X131765131Y-143652385D01*
X131973519Y-143463414D01*
X132141037Y-143237420D01*
X132261246Y-142983087D01*
X132301904Y-142849039D01*
X132184311Y-142635000D01*
X132556928Y-142635000D01*
X132560000Y-143249250D01*
X132718750Y-143408000D01*
X133968000Y-143408000D01*
X133968000Y-142158750D01*
X134222000Y-142158750D01*
X134222000Y-143408000D01*
X134242000Y-143408000D01*
X134242000Y-143662000D01*
X134222000Y-143662000D01*
X134222000Y-144911250D01*
X134380750Y-145070000D01*
X134995000Y-145073072D01*
X135119482Y-145060812D01*
X135239180Y-145024502D01*
X135349494Y-144965537D01*
X135446185Y-144886185D01*
X135525537Y-144789494D01*
X135584502Y-144679180D01*
X135590056Y-144660873D01*
X135656495Y-144727312D01*
X135907905Y-144895299D01*
X136187257Y-145011011D01*
X136483816Y-145070000D01*
X136786184Y-145070000D01*
X137082743Y-145011011D01*
X137362095Y-144895299D01*
X137613505Y-144727312D01*
X137827312Y-144513505D01*
X137995299Y-144262095D01*
X138111011Y-143982743D01*
X138170000Y-143686184D01*
X138170000Y-143383816D01*
X138111011Y-143087257D01*
X137995299Y-142807905D01*
X137827312Y-142556495D01*
X137613505Y-142342688D01*
X137362095Y-142174701D01*
X137082743Y-142058989D01*
X136786184Y-142000000D01*
X136483816Y-142000000D01*
X136187257Y-142058989D01*
X135907905Y-142174701D01*
X135656495Y-142342688D01*
X135590056Y-142409127D01*
X135584502Y-142390820D01*
X135525537Y-142280506D01*
X135446185Y-142183815D01*
X135349494Y-142104463D01*
X135239180Y-142045498D01*
X135119482Y-142009188D01*
X134995000Y-141996928D01*
X134380750Y-142000000D01*
X134222000Y-142158750D01*
X133968000Y-142158750D01*
X133809250Y-142000000D01*
X133195000Y-141996928D01*
X133070518Y-142009188D01*
X132950820Y-142045498D01*
X132840506Y-142104463D01*
X132743815Y-142183815D01*
X132664463Y-142280506D01*
X132605498Y-142390820D01*
X132569188Y-142510518D01*
X132556928Y-142635000D01*
X132184311Y-142635000D01*
X132179915Y-142627000D01*
X131037000Y-142627000D01*
X130783000Y-142627000D01*
X129640085Y-142627000D01*
X129518096Y-142849039D01*
X122143684Y-142849039D01*
X122185000Y-142641335D01*
X122185000Y-142358665D01*
X122143685Y-142150961D01*
X129518096Y-142150961D01*
X129640085Y-142373000D01*
X130783000Y-142373000D01*
X130783000Y-141229376D01*
X131037000Y-141229376D01*
X131037000Y-142373000D01*
X132179915Y-142373000D01*
X132301904Y-142150961D01*
X132261246Y-142016913D01*
X132141037Y-141762580D01*
X131973519Y-141536586D01*
X131765131Y-141347615D01*
X131523881Y-141202930D01*
X131259040Y-141108091D01*
X131037000Y-141229376D01*
X130783000Y-141229376D01*
X130560960Y-141108091D01*
X130296119Y-141202930D01*
X130054869Y-141347615D01*
X129846481Y-141536586D01*
X129678963Y-141762580D01*
X129558754Y-142016913D01*
X129518096Y-142150961D01*
X122143685Y-142150961D01*
X122129853Y-142081426D01*
X122021680Y-141820273D01*
X121864637Y-141585241D01*
X121664759Y-141385363D01*
X121429727Y-141228320D01*
X121168574Y-141120147D01*
X120891335Y-141065000D01*
X120608665Y-141065000D01*
X120331426Y-141120147D01*
X120070273Y-141228320D01*
X119835241Y-141385363D01*
X119635363Y-141585241D01*
X119478320Y-141820273D01*
X119370147Y-142081426D01*
X119315000Y-142358665D01*
X118968703Y-142358665D01*
X118810256Y-142252795D01*
X118621898Y-142174774D01*
X118421939Y-142135000D01*
X118218061Y-142135000D01*
X118180720Y-142142428D01*
X118079823Y-142132490D01*
X118079812Y-142132490D01*
X118042490Y-142128814D01*
X118005168Y-142132490D01*
X115140661Y-142132490D01*
X115103338Y-142128814D01*
X115066015Y-142132490D01*
X115066006Y-142132490D01*
X114954353Y-142143487D01*
X114811092Y-142186944D01*
X114679063Y-142257516D01*
X114563338Y-142352489D01*
X114539540Y-142381488D01*
X113843988Y-143077040D01*
X113814990Y-143100838D01*
X113791192Y-143129836D01*
X113791191Y-143129837D01*
X113720016Y-143216563D01*
X113649444Y-143348593D01*
X113605988Y-143491854D01*
X113591314Y-143640839D01*
X113594991Y-143678171D01*
X113594990Y-147887667D01*
X113591314Y-147924990D01*
X113594990Y-147962312D01*
X113594990Y-147962322D01*
X113605987Y-148073975D01*
X113636031Y-148173018D01*
X113649444Y-148217236D01*
X113701700Y-148315000D01*
X107658072Y-148315000D01*
X107658072Y-147750000D01*
X107645812Y-147625518D01*
X107609502Y-147505820D01*
X107550537Y-147395506D01*
X107471185Y-147298815D01*
X107374494Y-147219463D01*
X107264180Y-147160498D01*
X107144482Y-147124188D01*
X107020000Y-147111928D01*
X104020000Y-147111928D01*
X103895518Y-147124188D01*
X103775820Y-147160498D01*
X103665506Y-147219463D01*
X103568815Y-147298815D01*
X103489463Y-147395506D01*
X103430498Y-147505820D01*
X103394188Y-147625518D01*
X103381928Y-147750000D01*
X94435000Y-147750000D01*
X94435000Y-145661653D01*
X104207952Y-145661653D01*
X104363962Y-145977214D01*
X104738745Y-146168020D01*
X105143551Y-146282044D01*
X105562824Y-146314902D01*
X105980451Y-146265334D01*
X106380383Y-146135243D01*
X106676038Y-145977214D01*
X106832048Y-145661653D01*
X105520000Y-144349605D01*
X104207952Y-145661653D01*
X94435000Y-145661653D01*
X94435000Y-144212824D01*
X103375098Y-144212824D01*
X103424666Y-144630451D01*
X103554757Y-145030383D01*
X103712786Y-145326038D01*
X104028347Y-145482048D01*
X105340395Y-144170000D01*
X105699605Y-144170000D01*
X107011653Y-145482048D01*
X107327214Y-145326038D01*
X107518020Y-144951255D01*
X107632044Y-144546449D01*
X107664902Y-144127176D01*
X107615334Y-143709549D01*
X107485243Y-143309617D01*
X107327214Y-143013962D01*
X107011653Y-142857952D01*
X105699605Y-144170000D01*
X105340395Y-144170000D01*
X104028347Y-142857952D01*
X103712786Y-143013962D01*
X103521980Y-143388745D01*
X103407956Y-143793551D01*
X103375098Y-144212824D01*
X94435000Y-144212824D01*
X94435000Y-142678347D01*
X104207952Y-142678347D01*
X105520000Y-143990395D01*
X106832048Y-142678347D01*
X106676038Y-142362786D01*
X106301255Y-142171980D01*
X105896449Y-142057956D01*
X105477176Y-142025098D01*
X105059549Y-142074666D01*
X104659617Y-142204757D01*
X104363962Y-142362786D01*
X104207952Y-142678347D01*
X94435000Y-142678347D01*
X94435000Y-138854984D01*
X94519369Y-139058669D01*
X94763962Y-139424729D01*
X95075271Y-139736038D01*
X95441331Y-139980631D01*
X95848075Y-140149110D01*
X96279872Y-140235000D01*
X96720128Y-140235000D01*
X97151925Y-140149110D01*
X97558669Y-139980631D01*
X97924729Y-139736038D01*
X98236038Y-139424729D01*
X98480631Y-139058669D01*
X98649110Y-138651925D01*
X98735000Y-138220128D01*
X98735000Y-137779872D01*
X98649110Y-137348075D01*
X98480631Y-136941331D01*
X98236038Y-136575271D01*
X97924729Y-136263962D01*
X97806554Y-136185000D01*
X169693446Y-136185000D01*
X169575271Y-136263962D01*
G36*
X159810328Y-155485018D02*
G01*
X159810328Y-156500800D01*
X159822588Y-156625282D01*
X159858898Y-156744980D01*
X159917863Y-156855294D01*
X159997215Y-156951985D01*
X160093906Y-157031337D01*
X160204220Y-157090302D01*
X160284866Y-157114766D01*
X160200812Y-157190531D01*
X160026759Y-157423880D01*
X159901575Y-157686701D01*
X159856924Y-157833910D01*
X159978245Y-158063800D01*
X161171400Y-158063800D01*
X161171400Y-158043800D01*
X161425400Y-158043800D01*
X161425400Y-158063800D01*
X161445400Y-158063800D01*
X161445400Y-158317800D01*
X161425400Y-158317800D01*
X161425400Y-158337800D01*
X161171400Y-158337800D01*
X161171400Y-158317800D01*
X159978245Y-158317800D01*
X159856924Y-158547690D01*
X159901575Y-158694899D01*
X160026759Y-158957720D01*
X160200812Y-159191069D01*
X160417045Y-159385978D01*
X160533934Y-159455605D01*
X160351768Y-159577325D01*
X160144925Y-159784168D01*
X159982410Y-160027389D01*
X159870468Y-160297642D01*
X159813400Y-160584540D01*
X159813400Y-160877060D01*
X159870468Y-161163958D01*
X159982410Y-161434211D01*
X160057943Y-161547255D01*
X159612397Y-161992802D01*
X159583399Y-162016600D01*
X159559601Y-162045598D01*
X159559600Y-162045599D01*
X159488425Y-162132325D01*
X159475001Y-162157439D01*
X159475001Y-157328011D01*
X159478677Y-157290686D01*
X159475001Y-157253361D01*
X159475001Y-157253353D01*
X159464004Y-157141700D01*
X159420547Y-156998439D01*
X159349975Y-156866410D01*
X159255002Y-156750685D01*
X159226005Y-156726888D01*
X158975771Y-156476655D01*
X159029726Y-156346398D01*
X159069500Y-156146439D01*
X159069500Y-155942561D01*
X159029726Y-155742602D01*
X158951705Y-155554244D01*
X158838437Y-155384726D01*
X158694274Y-155240563D01*
X158524756Y-155127295D01*
X158336398Y-155049274D01*
X158136439Y-155009500D01*
X157932561Y-155009500D01*
X157732602Y-155049274D01*
X157544244Y-155127295D01*
X157374726Y-155240563D01*
X157230563Y-155384726D01*
X157117295Y-155554244D01*
X157039274Y-155742602D01*
X156999500Y-155942561D01*
X156999500Y-156146439D01*
X157039274Y-156346398D01*
X157117295Y-156534756D01*
X157230563Y-156704274D01*
X157285513Y-156759224D01*
X157328954Y-156902432D01*
X157349413Y-156940707D01*
X157374845Y-156988286D01*
X157113088Y-156975383D01*
X156833470Y-157016813D01*
X156567308Y-157111997D01*
X156442086Y-157178929D01*
X156370503Y-157422898D01*
X157183600Y-158235995D01*
X157197743Y-158221853D01*
X157377348Y-158401458D01*
X157363205Y-158415600D01*
X157377348Y-158429743D01*
X157197743Y-158609348D01*
X157183600Y-158595205D01*
X156370503Y-159408302D01*
X156442086Y-159652271D01*
X156697596Y-159773171D01*
X156971784Y-159841900D01*
X157254112Y-159855817D01*
X157533730Y-159814387D01*
X157799892Y-159719203D01*
X157925114Y-159652271D01*
X157955001Y-159550409D01*
X157955001Y-159924491D01*
X157731335Y-159880000D01*
X157448665Y-159880000D01*
X157171426Y-159935147D01*
X156910273Y-160043320D01*
X156675241Y-160200363D01*
X156475363Y-160400241D01*
X156318320Y-160635273D01*
X156210147Y-160896426D01*
X156155000Y-161173665D01*
X156155000Y-161456335D01*
X156210147Y-161733574D01*
X156318320Y-161994727D01*
X156475363Y-162229759D01*
X156675241Y-162429637D01*
X156910273Y-162586680D01*
X157171426Y-162694853D01*
X157448665Y-162750000D01*
X157731335Y-162750000D01*
X157955002Y-162705509D01*
X157955002Y-163050197D01*
X157913887Y-163091312D01*
X157731335Y-163055000D01*
X157448665Y-163055000D01*
X157171426Y-163110147D01*
X156910273Y-163218320D01*
X156675241Y-163375363D01*
X156475363Y-163575241D01*
X156318320Y-163810273D01*
X156264649Y-163939847D01*
X154491305Y-162166504D01*
X154659774Y-162053937D01*
X154803937Y-161909774D01*
X154917205Y-161740256D01*
X154995226Y-161551898D01*
X155035000Y-161351939D01*
X155035000Y-161148061D01*
X154995226Y-160948102D01*
X154917205Y-160759744D01*
X154803937Y-160590226D01*
X154659774Y-160446063D01*
X154490256Y-160332795D01*
X154301898Y-160254774D01*
X154101939Y-160215000D01*
X154039802Y-160215000D01*
X152313804Y-158489003D01*
X152311432Y-158486112D01*
X155743383Y-158486112D01*
X155784813Y-158765730D01*
X155879997Y-159031892D01*
X155946929Y-159157114D01*
X156190898Y-159228697D01*
X157003995Y-158415600D01*
X156190898Y-157602503D01*
X155946929Y-157674086D01*
X155826029Y-157929596D01*
X155757300Y-158203784D01*
X155743383Y-158486112D01*
X152311432Y-158486112D01*
X152290001Y-158459999D01*
X152174276Y-158365026D01*
X152042247Y-158294454D01*
X151898986Y-158250997D01*
X151787333Y-158240000D01*
X151787322Y-158240000D01*
X151750000Y-158236324D01*
X151712678Y-158240000D01*
X149440701Y-158240000D01*
X149396764Y-158196063D01*
X149227246Y-158082795D01*
X149169800Y-158059000D01*
X149670068Y-158059000D01*
X149716000Y-158063524D01*
X149761932Y-158059000D01*
X149899292Y-158045471D01*
X150075540Y-157992007D01*
X150237972Y-157905186D01*
X150338478Y-157822702D01*
X151696903Y-157822702D01*
X151768486Y-158066671D01*
X152023996Y-158187571D01*
X152298184Y-158256300D01*
X152580512Y-158270217D01*
X152860130Y-158228787D01*
X153126292Y-158133603D01*
X153251514Y-158066671D01*
X153323097Y-157822702D01*
X152510000Y-157009605D01*
X151696903Y-157822702D01*
X150338478Y-157822702D01*
X150380344Y-157788344D01*
X150409630Y-157752659D01*
X151094559Y-157067730D01*
X151111213Y-157180130D01*
X151206397Y-157446292D01*
X151273329Y-157571514D01*
X151517298Y-157643097D01*
X152330395Y-156830000D01*
X152689605Y-156830000D01*
X153502702Y-157643097D01*
X153746671Y-157571514D01*
X153867571Y-157316004D01*
X153936300Y-157041816D01*
X153950217Y-156759488D01*
X153908787Y-156479870D01*
X153813603Y-156213708D01*
X153746671Y-156088486D01*
X153502702Y-156016903D01*
X152689605Y-156830000D01*
X152330395Y-156830000D01*
X152316253Y-156815858D01*
X152495858Y-156636253D01*
X152510000Y-156650395D01*
X153323097Y-155837298D01*
X153302785Y-155768072D01*
X153310000Y-155768072D01*
X153434482Y-155755812D01*
X153554180Y-155719502D01*
X153664494Y-155660537D01*
X153761185Y-155581185D01*
X153840537Y-155484494D01*
X153899502Y-155374180D01*
X153932621Y-155265000D01*
X156223268Y-155265000D01*
X156269200Y-155269524D01*
X156315132Y-155265000D01*
X156452492Y-155251471D01*
X156628740Y-155198007D01*
X156791172Y-155111186D01*
X156933544Y-154994344D01*
X156962830Y-154958659D01*
X157070889Y-154850600D01*
X157324935Y-154850600D01*
X157602174Y-154795453D01*
X157863327Y-154687280D01*
X158098359Y-154530237D01*
X158277996Y-154350600D01*
X158675911Y-154350600D01*
X159810328Y-155485018D01*
G37*
X159810328Y-155485018D02*
X159810328Y-156500800D01*
X159822588Y-156625282D01*
X159858898Y-156744980D01*
X159917863Y-156855294D01*
X159997215Y-156951985D01*
X160093906Y-157031337D01*
X160204220Y-157090302D01*
X160284866Y-157114766D01*
X160200812Y-157190531D01*
X160026759Y-157423880D01*
X159901575Y-157686701D01*
X159856924Y-157833910D01*
X159978245Y-158063800D01*
X161171400Y-158063800D01*
X161171400Y-158043800D01*
X161425400Y-158043800D01*
X161425400Y-158063800D01*
X161445400Y-158063800D01*
X161445400Y-158317800D01*
X161425400Y-158317800D01*
X161425400Y-158337800D01*
X161171400Y-158337800D01*
X161171400Y-158317800D01*
X159978245Y-158317800D01*
X159856924Y-158547690D01*
X159901575Y-158694899D01*
X160026759Y-158957720D01*
X160200812Y-159191069D01*
X160417045Y-159385978D01*
X160533934Y-159455605D01*
X160351768Y-159577325D01*
X160144925Y-159784168D01*
X159982410Y-160027389D01*
X159870468Y-160297642D01*
X159813400Y-160584540D01*
X159813400Y-160877060D01*
X159870468Y-161163958D01*
X159982410Y-161434211D01*
X160057943Y-161547255D01*
X159612397Y-161992802D01*
X159583399Y-162016600D01*
X159559601Y-162045598D01*
X159559600Y-162045599D01*
X159488425Y-162132325D01*
X159475001Y-162157439D01*
X159475001Y-157328011D01*
X159478677Y-157290686D01*
X159475001Y-157253361D01*
X159475001Y-157253353D01*
X159464004Y-157141700D01*
X159420547Y-156998439D01*
X159349975Y-156866410D01*
X159255002Y-156750685D01*
X159226005Y-156726888D01*
X158975771Y-156476655D01*
X159029726Y-156346398D01*
X159069500Y-156146439D01*
X159069500Y-155942561D01*
X159029726Y-155742602D01*
X158951705Y-155554244D01*
X158838437Y-155384726D01*
X158694274Y-155240563D01*
X158524756Y-155127295D01*
X158336398Y-155049274D01*
X158136439Y-155009500D01*
X157932561Y-155009500D01*
X157732602Y-155049274D01*
X157544244Y-155127295D01*
X157374726Y-155240563D01*
X157230563Y-155384726D01*
X157117295Y-155554244D01*
X157039274Y-155742602D01*
X156999500Y-155942561D01*
X156999500Y-156146439D01*
X157039274Y-156346398D01*
X157117295Y-156534756D01*
X157230563Y-156704274D01*
X157285513Y-156759224D01*
X157328954Y-156902432D01*
X157349413Y-156940707D01*
X157374845Y-156988286D01*
X157113088Y-156975383D01*
X156833470Y-157016813D01*
X156567308Y-157111997D01*
X156442086Y-157178929D01*
X156370503Y-157422898D01*
X157183600Y-158235995D01*
X157197743Y-158221853D01*
X157377348Y-158401458D01*
X157363205Y-158415600D01*
X157377348Y-158429743D01*
X157197743Y-158609348D01*
X157183600Y-158595205D01*
X156370503Y-159408302D01*
X156442086Y-159652271D01*
X156697596Y-159773171D01*
X156971784Y-159841900D01*
X157254112Y-159855817D01*
X157533730Y-159814387D01*
X157799892Y-159719203D01*
X157925114Y-159652271D01*
X157955001Y-159550409D01*
X157955001Y-159924491D01*
X157731335Y-159880000D01*
X157448665Y-159880000D01*
X157171426Y-159935147D01*
X156910273Y-160043320D01*
X156675241Y-160200363D01*
X156475363Y-160400241D01*
X156318320Y-160635273D01*
X156210147Y-160896426D01*
X156155000Y-161173665D01*
X156155000Y-161456335D01*
X156210147Y-161733574D01*
X156318320Y-161994727D01*
X156475363Y-162229759D01*
X156675241Y-162429637D01*
X156910273Y-162586680D01*
X157171426Y-162694853D01*
X157448665Y-162750000D01*
X157731335Y-162750000D01*
X157955002Y-162705509D01*
X157955002Y-163050197D01*
X157913887Y-163091312D01*
X157731335Y-163055000D01*
X157448665Y-163055000D01*
X157171426Y-163110147D01*
X156910273Y-163218320D01*
X156675241Y-163375363D01*
X156475363Y-163575241D01*
X156318320Y-163810273D01*
X156264649Y-163939847D01*
X154491305Y-162166504D01*
X154659774Y-162053937D01*
X154803937Y-161909774D01*
X154917205Y-161740256D01*
X154995226Y-161551898D01*
X155035000Y-161351939D01*
X155035000Y-161148061D01*
X154995226Y-160948102D01*
X154917205Y-160759744D01*
X154803937Y-160590226D01*
X154659774Y-160446063D01*
X154490256Y-160332795D01*
X154301898Y-160254774D01*
X154101939Y-160215000D01*
X154039802Y-160215000D01*
X152313804Y-158489003D01*
X152311432Y-158486112D01*
X155743383Y-158486112D01*
X155784813Y-158765730D01*
X155879997Y-159031892D01*
X155946929Y-159157114D01*
X156190898Y-159228697D01*
X157003995Y-158415600D01*
X156190898Y-157602503D01*
X155946929Y-157674086D01*
X155826029Y-157929596D01*
X155757300Y-158203784D01*
X155743383Y-158486112D01*
X152311432Y-158486112D01*
X152290001Y-158459999D01*
X152174276Y-158365026D01*
X152042247Y-158294454D01*
X151898986Y-158250997D01*
X151787333Y-158240000D01*
X151787322Y-158240000D01*
X151750000Y-158236324D01*
X151712678Y-158240000D01*
X149440701Y-158240000D01*
X149396764Y-158196063D01*
X149227246Y-158082795D01*
X149169800Y-158059000D01*
X149670068Y-158059000D01*
X149716000Y-158063524D01*
X149761932Y-158059000D01*
X149899292Y-158045471D01*
X150075540Y-157992007D01*
X150237972Y-157905186D01*
X150338478Y-157822702D01*
X151696903Y-157822702D01*
X151768486Y-158066671D01*
X152023996Y-158187571D01*
X152298184Y-158256300D01*
X152580512Y-158270217D01*
X152860130Y-158228787D01*
X153126292Y-158133603D01*
X153251514Y-158066671D01*
X153323097Y-157822702D01*
X152510000Y-157009605D01*
X151696903Y-157822702D01*
X150338478Y-157822702D01*
X150380344Y-157788344D01*
X150409630Y-157752659D01*
X151094559Y-157067730D01*
X151111213Y-157180130D01*
X151206397Y-157446292D01*
X151273329Y-157571514D01*
X151517298Y-157643097D01*
X152330395Y-156830000D01*
X152689605Y-156830000D01*
X153502702Y-157643097D01*
X153746671Y-157571514D01*
X153867571Y-157316004D01*
X153936300Y-157041816D01*
X153950217Y-156759488D01*
X153908787Y-156479870D01*
X153813603Y-156213708D01*
X153746671Y-156088486D01*
X153502702Y-156016903D01*
X152689605Y-156830000D01*
X152330395Y-156830000D01*
X152316253Y-156815858D01*
X152495858Y-156636253D01*
X152510000Y-156650395D01*
X153323097Y-155837298D01*
X153302785Y-155768072D01*
X153310000Y-155768072D01*
X153434482Y-155755812D01*
X153554180Y-155719502D01*
X153664494Y-155660537D01*
X153761185Y-155581185D01*
X153840537Y-155484494D01*
X153899502Y-155374180D01*
X153932621Y-155265000D01*
X156223268Y-155265000D01*
X156269200Y-155269524D01*
X156315132Y-155265000D01*
X156452492Y-155251471D01*
X156628740Y-155198007D01*
X156791172Y-155111186D01*
X156933544Y-154994344D01*
X156962830Y-154958659D01*
X157070889Y-154850600D01*
X157324935Y-154850600D01*
X157602174Y-154795453D01*
X157863327Y-154687280D01*
X158098359Y-154530237D01*
X158277996Y-154350600D01*
X158675911Y-154350600D01*
X159810328Y-155485018D01*
G36*
X137098519Y-162863109D02*
G01*
X137219186Y-163093000D01*
X138413000Y-163093000D01*
X138413000Y-163073000D01*
X138667000Y-163073000D01*
X138667000Y-163093000D01*
X138687000Y-163093000D01*
X138687000Y-163347000D01*
X138667000Y-163347000D01*
X138667000Y-163367000D01*
X138413000Y-163367000D01*
X138413000Y-163347000D01*
X137219186Y-163347000D01*
X137098519Y-163576891D01*
X137180855Y-163809000D01*
X135371290Y-163809000D01*
X134942271Y-163379981D01*
X134945000Y-163366260D01*
X134945000Y-163073740D01*
X134887932Y-162786842D01*
X134816753Y-162615001D01*
X137186530Y-162615001D01*
X137098519Y-162863109D01*
G37*
X137098519Y-162863109D02*
X137219186Y-163093000D01*
X138413000Y-163093000D01*
X138413000Y-163073000D01*
X138667000Y-163073000D01*
X138667000Y-163093000D01*
X138687000Y-163093000D01*
X138687000Y-163347000D01*
X138667000Y-163347000D01*
X138667000Y-163367000D01*
X138413000Y-163367000D01*
X138413000Y-163347000D01*
X137219186Y-163347000D01*
X137098519Y-163576891D01*
X137180855Y-163809000D01*
X135371290Y-163809000D01*
X134942271Y-163379981D01*
X134945000Y-163366260D01*
X134945000Y-163073740D01*
X134887932Y-162786842D01*
X134816753Y-162615001D01*
X137186530Y-162615001D01*
X137098519Y-162863109D01*
G36*
X134959706Y-156079991D02*
G01*
X134946058Y-156079991D01*
X134945000Y-155885750D01*
X134786250Y-155727000D01*
X133587000Y-155727000D01*
X133587000Y-155747000D01*
X133333000Y-155747000D01*
X133333000Y-155727000D01*
X133313000Y-155727000D01*
X133313000Y-155473000D01*
X133333000Y-155473000D01*
X133333000Y-155453000D01*
X133587000Y-155453000D01*
X133587000Y-155473000D01*
X134786250Y-155473000D01*
X134945000Y-155314250D01*
X134946245Y-155085647D01*
X134994277Y-155059973D01*
X135110002Y-154965000D01*
X135133805Y-154935996D01*
X140224323Y-149845479D01*
X141194217Y-149845479D01*
X134959706Y-156079991D01*
G37*
X134959706Y-156079991D02*
X134946058Y-156079991D01*
X134945000Y-155885750D01*
X134786250Y-155727000D01*
X133587000Y-155727000D01*
X133587000Y-155747000D01*
X133333000Y-155747000D01*
X133333000Y-155727000D01*
X133313000Y-155727000D01*
X133313000Y-155473000D01*
X133333000Y-155473000D01*
X133333000Y-155453000D01*
X133587000Y-155453000D01*
X133587000Y-155473000D01*
X134786250Y-155473000D01*
X134945000Y-155314250D01*
X134946245Y-155085647D01*
X134994277Y-155059973D01*
X135110002Y-154965000D01*
X135133805Y-154935996D01*
X140224323Y-149845479D01*
X141194217Y-149845479D01*
X134959706Y-156079991D01*
G36*
X150075000Y-148619802D02*
G01*
X150075000Y-148681939D01*
X150114774Y-148881898D01*
X150192795Y-149070256D01*
X150306063Y-149239774D01*
X150343135Y-149276846D01*
X150284192Y-149439587D01*
X151240000Y-150395395D01*
X151254143Y-150381253D01*
X151433748Y-150560858D01*
X151419605Y-150575000D01*
X152375413Y-151530808D01*
X152639814Y-151435044D01*
X152753189Y-151201989D01*
X154127608Y-152576408D01*
X154064774Y-152728102D01*
X154025000Y-152928061D01*
X154025000Y-153131939D01*
X154064774Y-153331898D01*
X154090912Y-153395000D01*
X153932621Y-153395000D01*
X153899502Y-153285820D01*
X153840537Y-153175506D01*
X153761185Y-153078815D01*
X153664494Y-152999463D01*
X153554180Y-152940498D01*
X153434482Y-152904188D01*
X153310000Y-152891928D01*
X152394218Y-152891928D01*
X151661494Y-152159205D01*
X151926088Y-152067795D01*
X152100044Y-151974814D01*
X152195808Y-151710413D01*
X151240000Y-150754605D01*
X151225858Y-150768748D01*
X151046253Y-150589143D01*
X151060395Y-150575000D01*
X150104587Y-149619192D01*
X149840186Y-149714956D01*
X149699296Y-150004571D01*
X149659323Y-150157033D01*
X146685524Y-147183235D01*
X146690000Y-147183676D01*
X146727325Y-147180000D01*
X148635199Y-147180000D01*
X150075000Y-148619802D01*
G37*
X150075000Y-148619802D02*
X150075000Y-148681939D01*
X150114774Y-148881898D01*
X150192795Y-149070256D01*
X150306063Y-149239774D01*
X150343135Y-149276846D01*
X150284192Y-149439587D01*
X151240000Y-150395395D01*
X151254143Y-150381253D01*
X151433748Y-150560858D01*
X151419605Y-150575000D01*
X152375413Y-151530808D01*
X152639814Y-151435044D01*
X152753189Y-151201989D01*
X154127608Y-152576408D01*
X154064774Y-152728102D01*
X154025000Y-152928061D01*
X154025000Y-153131939D01*
X154064774Y-153331898D01*
X154090912Y-153395000D01*
X153932621Y-153395000D01*
X153899502Y-153285820D01*
X153840537Y-153175506D01*
X153761185Y-153078815D01*
X153664494Y-152999463D01*
X153554180Y-152940498D01*
X153434482Y-152904188D01*
X153310000Y-152891928D01*
X152394218Y-152891928D01*
X151661494Y-152159205D01*
X151926088Y-152067795D01*
X152100044Y-151974814D01*
X152195808Y-151710413D01*
X151240000Y-150754605D01*
X151225858Y-150768748D01*
X151046253Y-150589143D01*
X151060395Y-150575000D01*
X150104587Y-149619192D01*
X149840186Y-149714956D01*
X149699296Y-150004571D01*
X149659323Y-150157033D01*
X146685524Y-147183235D01*
X146690000Y-147183676D01*
X146727325Y-147180000D01*
X148635199Y-147180000D01*
X150075000Y-148619802D01*
G36*
X156291082Y-146849463D02*
G01*
X156470013Y-147117252D01*
X156697748Y-147344987D01*
X156965537Y-147523918D01*
X157263088Y-147647168D01*
X157578967Y-147710000D01*
X157901033Y-147710000D01*
X158216912Y-147647168D01*
X158514463Y-147523918D01*
X158782252Y-147344987D01*
X158791719Y-147335520D01*
X159984000Y-148527802D01*
X159984000Y-148589939D01*
X160023774Y-148789898D01*
X160101795Y-148978256D01*
X160215063Y-149147774D01*
X160286245Y-149218956D01*
X159331263Y-150173938D01*
X159232795Y-149888912D01*
X159139814Y-149714956D01*
X158875413Y-149619192D01*
X157919605Y-150575000D01*
X157933748Y-150589143D01*
X157754143Y-150768748D01*
X157740000Y-150754605D01*
X156784192Y-151710413D01*
X156879956Y-151974814D01*
X156935504Y-152001836D01*
X156765026Y-152035747D01*
X156503873Y-152143920D01*
X156268841Y-152300963D01*
X156068963Y-152500841D01*
X156002372Y-152600502D01*
X155977205Y-152539744D01*
X155863937Y-152370226D01*
X155812311Y-152318600D01*
X155809003Y-152285012D01*
X155765546Y-152141751D01*
X155694974Y-152009722D01*
X155600001Y-151893997D01*
X155571004Y-151870200D01*
X154338399Y-150637595D01*
X156098282Y-150637595D01*
X156142039Y-150956675D01*
X156247205Y-151261088D01*
X156340186Y-151435044D01*
X156604587Y-151530808D01*
X157560395Y-150575000D01*
X156604587Y-149619192D01*
X156340186Y-149714956D01*
X156199296Y-150004571D01*
X156117616Y-150316108D01*
X156098282Y-150637595D01*
X154338399Y-150637595D01*
X153140391Y-149439587D01*
X156784192Y-149439587D01*
X157740000Y-150395395D01*
X158695808Y-149439587D01*
X158600044Y-149175186D01*
X158310429Y-149034296D01*
X157998892Y-148952616D01*
X157677405Y-148933282D01*
X157358325Y-148977039D01*
X157053912Y-149082205D01*
X156879956Y-149175186D01*
X156784192Y-149439587D01*
X153140391Y-149439587D01*
X152136592Y-148435788D01*
X152105226Y-148278102D01*
X152027205Y-148089744D01*
X151913937Y-147920226D01*
X151769774Y-147776063D01*
X151608995Y-147668634D01*
X151716912Y-147647168D01*
X152014463Y-147523918D01*
X152282252Y-147344987D01*
X152509987Y-147117252D01*
X152688918Y-146849463D01*
X152694909Y-146835000D01*
X156285091Y-146835000D01*
X156291082Y-146849463D01*
G37*
X156291082Y-146849463D02*
X156470013Y-147117252D01*
X156697748Y-147344987D01*
X156965537Y-147523918D01*
X157263088Y-147647168D01*
X157578967Y-147710000D01*
X157901033Y-147710000D01*
X158216912Y-147647168D01*
X158514463Y-147523918D01*
X158782252Y-147344987D01*
X158791719Y-147335520D01*
X159984000Y-148527802D01*
X159984000Y-148589939D01*
X160023774Y-148789898D01*
X160101795Y-148978256D01*
X160215063Y-149147774D01*
X160286245Y-149218956D01*
X159331263Y-150173938D01*
X159232795Y-149888912D01*
X159139814Y-149714956D01*
X158875413Y-149619192D01*
X157919605Y-150575000D01*
X157933748Y-150589143D01*
X157754143Y-150768748D01*
X157740000Y-150754605D01*
X156784192Y-151710413D01*
X156879956Y-151974814D01*
X156935504Y-152001836D01*
X156765026Y-152035747D01*
X156503873Y-152143920D01*
X156268841Y-152300963D01*
X156068963Y-152500841D01*
X156002372Y-152600502D01*
X155977205Y-152539744D01*
X155863937Y-152370226D01*
X155812311Y-152318600D01*
X155809003Y-152285012D01*
X155765546Y-152141751D01*
X155694974Y-152009722D01*
X155600001Y-151893997D01*
X155571004Y-151870200D01*
X154338399Y-150637595D01*
X156098282Y-150637595D01*
X156142039Y-150956675D01*
X156247205Y-151261088D01*
X156340186Y-151435044D01*
X156604587Y-151530808D01*
X157560395Y-150575000D01*
X156604587Y-149619192D01*
X156340186Y-149714956D01*
X156199296Y-150004571D01*
X156117616Y-150316108D01*
X156098282Y-150637595D01*
X154338399Y-150637595D01*
X153140391Y-149439587D01*
X156784192Y-149439587D01*
X157740000Y-150395395D01*
X158695808Y-149439587D01*
X158600044Y-149175186D01*
X158310429Y-149034296D01*
X157998892Y-148952616D01*
X157677405Y-148933282D01*
X157358325Y-148977039D01*
X157053912Y-149082205D01*
X156879956Y-149175186D01*
X156784192Y-149439587D01*
X153140391Y-149439587D01*
X152136592Y-148435788D01*
X152105226Y-148278102D01*
X152027205Y-148089744D01*
X151913937Y-147920226D01*
X151769774Y-147776063D01*
X151608995Y-147668634D01*
X151716912Y-147647168D01*
X152014463Y-147523918D01*
X152282252Y-147344987D01*
X152509987Y-147117252D01*
X152688918Y-146849463D01*
X152694909Y-146835000D01*
X156285091Y-146835000D01*
X156291082Y-146849463D01*
G36*
X115807000Y-146583000D02*
G01*
X115827000Y-146583000D01*
X115827000Y-146837000D01*
X115807000Y-146837000D01*
X115807000Y-146857000D01*
X115553000Y-146857000D01*
X115553000Y-146837000D01*
X115533000Y-146837000D01*
X115533000Y-146583000D01*
X115553000Y-146583000D01*
X115553000Y-146563000D01*
X115807000Y-146563000D01*
X115807000Y-146583000D01*
G37*
X115807000Y-146583000D02*
X115827000Y-146583000D01*
X115827000Y-146837000D01*
X115807000Y-146837000D01*
X115807000Y-146857000D01*
X115553000Y-146857000D01*
X115553000Y-146837000D01*
X115533000Y-146837000D01*
X115533000Y-146583000D01*
X115553000Y-146583000D01*
X115553000Y-146563000D01*
X115807000Y-146563000D01*
X115807000Y-146583000D01*
%TD*%
M02*
