%TF.GenerationSoftware,KiCad,Pcbnew,5.1.6+dfsg1-1~bpo10+1*%
%TF.CreationDate,2020-11-22T17:09:41+10:30*%
%TF.ProjectId,robotcontrol,726f626f-7463-46f6-9e74-726f6c2e6b69,rev?*%
%TF.SameCoordinates,Original*%
%TF.FileFunction,Paste,Top*%
%TF.FilePolarity,Positive*%
%FSLAX46Y46*%
G04 Gerber Fmt 4.6, Leading zero omitted, Abs format (unit mm)*
G04 Created by KiCad (PCBNEW 5.1.6+dfsg1-1~bpo10+1) date 2020-11-22 17:09:41*
%MOMM*%
%LPD*%
G01*
G04 APERTURE LIST*
%ADD10R,1.175000X1.900000*%
%ADD11R,2.375000X1.900000*%
%ADD12R,1.475000X2.100000*%
%ADD13R,0.450000X1.380000*%
%ADD14R,0.550000X1.600000*%
%ADD15R,1.600000X0.550000*%
%ADD16R,1.060000X0.650000*%
G04 APERTURE END LIST*
D10*
%TO.C,J1*%
X116315000Y-165250000D03*
X114635000Y-165250000D03*
D11*
X118385000Y-165250000D03*
X112565000Y-165250000D03*
D12*
X117937500Y-162950000D03*
X113012500Y-162950000D03*
D13*
X116775000Y-162590000D03*
X116125000Y-162590000D03*
X115475000Y-162590000D03*
X114825000Y-162590000D03*
X114175000Y-162590000D03*
%TD*%
D14*
%TO.C,U3*%
X140870800Y-147794000D03*
X141670800Y-147794000D03*
X142470800Y-147794000D03*
X143270800Y-147794000D03*
X144070800Y-147794000D03*
X144870800Y-147794000D03*
X145670800Y-147794000D03*
X146470800Y-147794000D03*
D15*
X147920800Y-149244000D03*
X147920800Y-150044000D03*
X147920800Y-150844000D03*
X147920800Y-151644000D03*
X147920800Y-152444000D03*
X147920800Y-153244000D03*
X147920800Y-154044000D03*
X147920800Y-154844000D03*
D14*
X146470800Y-156294000D03*
X145670800Y-156294000D03*
X144870800Y-156294000D03*
X144070800Y-156294000D03*
X143270800Y-156294000D03*
X142470800Y-156294000D03*
X141670800Y-156294000D03*
X140870800Y-156294000D03*
D15*
X139420800Y-154844000D03*
X139420800Y-154044000D03*
X139420800Y-153244000D03*
X139420800Y-152444000D03*
X139420800Y-151644000D03*
X139420800Y-150844000D03*
X139420800Y-150044000D03*
X139420800Y-149244000D03*
%TD*%
D16*
%TO.C,U1*%
X116780000Y-153380000D03*
X116780000Y-155280000D03*
X114580000Y-155280000D03*
X114580000Y-154330000D03*
X114580000Y-153380000D03*
%TD*%
M02*
