%TF.GenerationSoftware,KiCad,Pcbnew,5.1.6+dfsg1-1~bpo10+1*%
%TF.CreationDate,2020-11-22T17:09:41+10:30*%
%TF.ProjectId,robotcontrol,726f626f-7463-46f6-9e74-726f6c2e6b69,rev?*%
%TF.SameCoordinates,Original*%
%TF.FileFunction,Legend,Bot*%
%TF.FilePolarity,Positive*%
%FSLAX46Y46*%
G04 Gerber Fmt 4.6, Leading zero omitted, Abs format (unit mm)*
G04 Created by KiCad (PCBNEW 5.1.6+dfsg1-1~bpo10+1) date 2020-11-22 17:09:41*
%MOMM*%
%LPD*%
G01*
G04 APERTURE LIST*
%ADD10C,0.200000*%
%ADD11C,0.150000*%
%ADD12C,0.010000*%
G04 APERTURE END LIST*
D10*
X99995571Y-147606071D02*
X100052714Y-147548928D01*
X100109857Y-147377500D01*
X100109857Y-147263214D01*
X100052714Y-147091785D01*
X99938428Y-146977500D01*
X99824142Y-146920357D01*
X99595571Y-146863214D01*
X99424142Y-146863214D01*
X99195571Y-146920357D01*
X99081285Y-146977500D01*
X98967000Y-147091785D01*
X98909857Y-147263214D01*
X98909857Y-147377500D01*
X98967000Y-147548928D01*
X99024142Y-147606071D01*
X98967000Y-148748928D02*
X98909857Y-148634642D01*
X98909857Y-148463214D01*
X98967000Y-148291785D01*
X99081285Y-148177500D01*
X99195571Y-148120357D01*
X99424142Y-148063214D01*
X99595571Y-148063214D01*
X99824142Y-148120357D01*
X99938428Y-148177500D01*
X100052714Y-148291785D01*
X100109857Y-148463214D01*
X100109857Y-148577500D01*
X100052714Y-148748928D01*
X99995571Y-148806071D01*
X99595571Y-148806071D01*
X99595571Y-148577500D01*
X100052714Y-150177500D02*
X100109857Y-150348928D01*
X100109857Y-150634642D01*
X100052714Y-150748928D01*
X99995571Y-150806071D01*
X99881285Y-150863214D01*
X99767000Y-150863214D01*
X99652714Y-150806071D01*
X99595571Y-150748928D01*
X99538428Y-150634642D01*
X99481285Y-150406071D01*
X99424142Y-150291785D01*
X99367000Y-150234642D01*
X99252714Y-150177500D01*
X99138428Y-150177500D01*
X99024142Y-150234642D01*
X98967000Y-150291785D01*
X98909857Y-150406071D01*
X98909857Y-150691785D01*
X98967000Y-150863214D01*
X100052714Y-151891785D02*
X100109857Y-151777500D01*
X100109857Y-151548928D01*
X100052714Y-151434642D01*
X99995571Y-151377500D01*
X99881285Y-151320357D01*
X99538428Y-151320357D01*
X99424142Y-151377500D01*
X99367000Y-151434642D01*
X99309857Y-151548928D01*
X99309857Y-151777500D01*
X99367000Y-151891785D01*
X100109857Y-152920357D02*
X99481285Y-152920357D01*
X99367000Y-152863214D01*
X99309857Y-152748928D01*
X99309857Y-152520357D01*
X99367000Y-152406071D01*
X100052714Y-152920357D02*
X100109857Y-152806071D01*
X100109857Y-152520357D01*
X100052714Y-152406071D01*
X99938428Y-152348928D01*
X99824142Y-152348928D01*
X99709857Y-152406071D01*
X99652714Y-152520357D01*
X99652714Y-152806071D01*
X99595571Y-152920357D01*
X100109857Y-153663214D02*
X100052714Y-153548928D01*
X99938428Y-153491785D01*
X98909857Y-153491785D01*
X100052714Y-154577500D02*
X100109857Y-154463214D01*
X100109857Y-154234642D01*
X100052714Y-154120357D01*
X99938428Y-154063214D01*
X99481285Y-154063214D01*
X99367000Y-154120357D01*
X99309857Y-154234642D01*
X99309857Y-154463214D01*
X99367000Y-154577500D01*
X99481285Y-154634642D01*
X99595571Y-154634642D01*
X99709857Y-154063214D01*
X100109857Y-156063214D02*
X99309857Y-156063214D01*
X99424142Y-156063214D02*
X99367000Y-156120357D01*
X99309857Y-156234642D01*
X99309857Y-156406071D01*
X99367000Y-156520357D01*
X99481285Y-156577500D01*
X100109857Y-156577500D01*
X99481285Y-156577500D02*
X99367000Y-156634642D01*
X99309857Y-156748928D01*
X99309857Y-156920357D01*
X99367000Y-157034642D01*
X99481285Y-157091785D01*
X100109857Y-157091785D01*
X100109857Y-158177500D02*
X99481285Y-158177500D01*
X99367000Y-158120357D01*
X99309857Y-158006071D01*
X99309857Y-157777500D01*
X99367000Y-157663214D01*
X100052714Y-158177500D02*
X100109857Y-158063214D01*
X100109857Y-157777500D01*
X100052714Y-157663214D01*
X99938428Y-157606071D01*
X99824142Y-157606071D01*
X99709857Y-157663214D01*
X99652714Y-157777500D01*
X99652714Y-158063214D01*
X99595571Y-158177500D01*
X100109857Y-158748928D02*
X99309857Y-158748928D01*
X98909857Y-158748928D02*
X98967000Y-158691785D01*
X99024142Y-158748928D01*
X98967000Y-158806071D01*
X98909857Y-158748928D01*
X99024142Y-158748928D01*
X99309857Y-159320357D02*
X100109857Y-159320357D01*
X99424142Y-159320357D02*
X99367000Y-159377500D01*
X99309857Y-159491785D01*
X99309857Y-159663214D01*
X99367000Y-159777500D01*
X99481285Y-159834642D01*
X100109857Y-159834642D01*
X102052714Y-146806071D02*
X102109857Y-146691785D01*
X102109857Y-146463214D01*
X102052714Y-146348928D01*
X101995571Y-146291785D01*
X101881285Y-146234642D01*
X101538428Y-146234642D01*
X101424142Y-146291785D01*
X101367000Y-146348928D01*
X101309857Y-146463214D01*
X101309857Y-146691785D01*
X101367000Y-146806071D01*
X102109857Y-147491785D02*
X102052714Y-147377500D01*
X101995571Y-147320357D01*
X101881285Y-147263214D01*
X101538428Y-147263214D01*
X101424142Y-147320357D01*
X101367000Y-147377500D01*
X101309857Y-147491785D01*
X101309857Y-147663214D01*
X101367000Y-147777500D01*
X101424142Y-147834642D01*
X101538428Y-147891785D01*
X101881285Y-147891785D01*
X101995571Y-147834642D01*
X102052714Y-147777500D01*
X102109857Y-147663214D01*
X102109857Y-147491785D01*
X101309857Y-148406071D02*
X102109857Y-148406071D01*
X101424142Y-148406071D02*
X101367000Y-148463214D01*
X101309857Y-148577500D01*
X101309857Y-148748928D01*
X101367000Y-148863214D01*
X101481285Y-148920357D01*
X102109857Y-148920357D01*
X101309857Y-149320357D02*
X101309857Y-149777500D01*
X100909857Y-149491785D02*
X101938428Y-149491785D01*
X102052714Y-149548928D01*
X102109857Y-149663214D01*
X102109857Y-149777500D01*
X102109857Y-150177500D02*
X101309857Y-150177500D01*
X101538428Y-150177500D02*
X101424142Y-150234642D01*
X101367000Y-150291785D01*
X101309857Y-150406071D01*
X101309857Y-150520357D01*
X102109857Y-151091785D02*
X102052714Y-150977500D01*
X101995571Y-150920357D01*
X101881285Y-150863214D01*
X101538428Y-150863214D01*
X101424142Y-150920357D01*
X101367000Y-150977500D01*
X101309857Y-151091785D01*
X101309857Y-151263214D01*
X101367000Y-151377500D01*
X101424142Y-151434642D01*
X101538428Y-151491785D01*
X101881285Y-151491785D01*
X101995571Y-151434642D01*
X102052714Y-151377500D01*
X102109857Y-151263214D01*
X102109857Y-151091785D01*
X102109857Y-152177500D02*
X102052714Y-152063214D01*
X101938428Y-152006071D01*
X100909857Y-152006071D01*
X102109857Y-152806071D02*
X102052714Y-152691785D01*
X101938428Y-152634642D01*
X100909857Y-152634642D01*
X102052714Y-153720357D02*
X102109857Y-153606071D01*
X102109857Y-153377500D01*
X102052714Y-153263214D01*
X101938428Y-153206071D01*
X101481285Y-153206071D01*
X101367000Y-153263214D01*
X101309857Y-153377500D01*
X101309857Y-153606071D01*
X101367000Y-153720357D01*
X101481285Y-153777500D01*
X101595571Y-153777500D01*
X101709857Y-153206071D01*
X102109857Y-154291785D02*
X101309857Y-154291785D01*
X101538428Y-154291785D02*
X101424142Y-154348928D01*
X101367000Y-154406071D01*
X101309857Y-154520357D01*
X101309857Y-154634642D01*
X102109857Y-155948928D02*
X100909857Y-155948928D01*
X101367000Y-155948928D02*
X101309857Y-156063214D01*
X101309857Y-156291785D01*
X101367000Y-156406071D01*
X101424142Y-156463214D01*
X101538428Y-156520357D01*
X101881285Y-156520357D01*
X101995571Y-156463214D01*
X102052714Y-156406071D01*
X102109857Y-156291785D01*
X102109857Y-156063214D01*
X102052714Y-155948928D01*
X102109857Y-157206071D02*
X102052714Y-157091785D01*
X101995571Y-157034642D01*
X101881285Y-156977500D01*
X101538428Y-156977500D01*
X101424142Y-157034642D01*
X101367000Y-157091785D01*
X101309857Y-157206071D01*
X101309857Y-157377500D01*
X101367000Y-157491785D01*
X101424142Y-157548928D01*
X101538428Y-157606071D01*
X101881285Y-157606071D01*
X101995571Y-157548928D01*
X102052714Y-157491785D01*
X102109857Y-157377500D01*
X102109857Y-157206071D01*
X102109857Y-158634642D02*
X101481285Y-158634642D01*
X101367000Y-158577500D01*
X101309857Y-158463214D01*
X101309857Y-158234642D01*
X101367000Y-158120357D01*
X102052714Y-158634642D02*
X102109857Y-158520357D01*
X102109857Y-158234642D01*
X102052714Y-158120357D01*
X101938428Y-158063214D01*
X101824142Y-158063214D01*
X101709857Y-158120357D01*
X101652714Y-158234642D01*
X101652714Y-158520357D01*
X101595571Y-158634642D01*
X102109857Y-159206071D02*
X101309857Y-159206071D01*
X101538428Y-159206071D02*
X101424142Y-159263214D01*
X101367000Y-159320357D01*
X101309857Y-159434642D01*
X101309857Y-159548928D01*
X102109857Y-160463214D02*
X100909857Y-160463214D01*
X102052714Y-160463214D02*
X102109857Y-160348928D01*
X102109857Y-160120357D01*
X102052714Y-160006071D01*
X101995571Y-159948928D01*
X101881285Y-159891785D01*
X101538428Y-159891785D01*
X101424142Y-159948928D01*
X101367000Y-160006071D01*
X101309857Y-160120357D01*
X101309857Y-160348928D01*
X101367000Y-160463214D01*
D11*
X142500833Y-158774595D02*
X142500833Y-158298404D01*
X142215119Y-158869833D02*
X143215119Y-158536500D01*
X142215119Y-158203166D01*
X142215119Y-157869833D02*
X142881785Y-157869833D01*
X142691309Y-157869833D02*
X142786547Y-157822214D01*
X142834166Y-157774595D01*
X142881785Y-157679357D01*
X142881785Y-157584119D01*
X142881785Y-157393642D02*
X142881785Y-157012690D01*
X143215119Y-157250785D02*
X142357976Y-157250785D01*
X142262738Y-157203166D01*
X142215119Y-157107928D01*
X142215119Y-157012690D01*
X142215119Y-156679357D02*
X142881785Y-156679357D01*
X143215119Y-156679357D02*
X143167500Y-156726976D01*
X143119880Y-156679357D01*
X143167500Y-156631738D01*
X143215119Y-156679357D01*
X143119880Y-156679357D01*
X142262738Y-155774595D02*
X142215119Y-155869833D01*
X142215119Y-156060309D01*
X142262738Y-156155547D01*
X142310357Y-156203166D01*
X142405595Y-156250785D01*
X142691309Y-156250785D01*
X142786547Y-156203166D01*
X142834166Y-156155547D01*
X142881785Y-156060309D01*
X142881785Y-155869833D01*
X142834166Y-155774595D01*
X142215119Y-155346023D02*
X143215119Y-155346023D01*
X142215119Y-154917452D02*
X142738928Y-154917452D01*
X142834166Y-154965071D01*
X142881785Y-155060309D01*
X142881785Y-155203166D01*
X142834166Y-155298404D01*
X142786547Y-155346023D01*
X142215119Y-154298404D02*
X142262738Y-154393642D01*
X142310357Y-154441261D01*
X142405595Y-154488880D01*
X142691309Y-154488880D01*
X142786547Y-154441261D01*
X142834166Y-154393642D01*
X142881785Y-154298404D01*
X142881785Y-154155547D01*
X142834166Y-154060309D01*
X142786547Y-154012690D01*
X142691309Y-153965071D01*
X142405595Y-153965071D01*
X142310357Y-154012690D01*
X142262738Y-154060309D01*
X142215119Y-154155547D01*
X142215119Y-154298404D01*
X142215119Y-153536500D02*
X143215119Y-153536500D01*
X142596071Y-153441261D02*
X142215119Y-153155547D01*
X142881785Y-153155547D02*
X142500833Y-153536500D01*
X142262738Y-152346023D02*
X142215119Y-152441261D01*
X142215119Y-152631738D01*
X142262738Y-152726976D01*
X142357976Y-152774595D01*
X142738928Y-152774595D01*
X142834166Y-152726976D01*
X142881785Y-152631738D01*
X142881785Y-152441261D01*
X142834166Y-152346023D01*
X142738928Y-152298404D01*
X142643690Y-152298404D01*
X142548452Y-152774595D01*
D12*
%TO.C,G\u002A\u002A\u002A*%
G36*
X139072396Y-152124664D02*
G01*
X139252014Y-152281610D01*
X139467406Y-152503689D01*
X139494607Y-152533948D01*
X139912424Y-153002729D01*
X140181440Y-152851448D01*
X140364258Y-152757800D01*
X140472930Y-152758182D01*
X140580341Y-152862628D01*
X140620074Y-152911833D01*
X140760184Y-153113602D01*
X140923748Y-153386077D01*
X140999772Y-153525667D01*
X141132160Y-153750318D01*
X141247036Y-153896290D01*
X141297413Y-153927833D01*
X141400801Y-154005098D01*
X141498989Y-154207734D01*
X141578053Y-154492004D01*
X141624068Y-154814170D01*
X141630333Y-154973572D01*
X141639988Y-155246965D01*
X141678873Y-155395821D01*
X141761869Y-155464328D01*
X141799667Y-155476365D01*
X141922645Y-155567864D01*
X141965603Y-155766155D01*
X141928435Y-156084769D01*
X141811037Y-156537237D01*
X141790960Y-156603087D01*
X141571304Y-157126477D01*
X141284693Y-157503872D01*
X140938518Y-157730515D01*
X140540173Y-157801645D01*
X140097049Y-157712503D01*
X140078684Y-157705608D01*
X139849903Y-157622951D01*
X139690902Y-157574125D01*
X139659003Y-157568500D01*
X139630580Y-157646406D01*
X139609288Y-157853153D01*
X139598825Y-158148284D01*
X139598333Y-158232711D01*
X139590394Y-158592245D01*
X139561340Y-158823767D01*
X139503318Y-158968080D01*
X139443500Y-159037044D01*
X139224014Y-159144988D01*
X138938264Y-159176873D01*
X138660183Y-159133815D01*
X138468455Y-159022333D01*
X138385009Y-158869246D01*
X138340544Y-158618378D01*
X138328333Y-158265330D01*
X138318781Y-157962520D01*
X138303521Y-157822500D01*
X138582333Y-157822500D01*
X138582333Y-158274055D01*
X138592869Y-158538485D01*
X138619893Y-158729315D01*
X138642807Y-158786085D01*
X138760469Y-158820018D01*
X138969357Y-158823767D01*
X139002640Y-158821363D01*
X139302000Y-158796167D01*
X139327392Y-158309333D01*
X139352784Y-157822500D01*
X138582333Y-157822500D01*
X138303521Y-157822500D01*
X138293646Y-157731895D01*
X138258207Y-157620280D01*
X138255348Y-157618052D01*
X138138263Y-157618915D01*
X137930360Y-157674500D01*
X137837907Y-157708251D01*
X137400818Y-157804905D01*
X137004192Y-157741696D01*
X136655504Y-157524845D01*
X136362231Y-157160578D01*
X136131849Y-156655120D01*
X136003532Y-156180919D01*
X135956368Y-155859341D01*
X136240002Y-155859341D01*
X136243710Y-155936754D01*
X136244274Y-155938667D01*
X136295452Y-156129517D01*
X136346660Y-156340833D01*
X136464531Y-156696752D01*
X136636623Y-157031661D01*
X136829331Y-157284929D01*
X136906705Y-157351238D01*
X137174089Y-157456318D01*
X137500517Y-157477729D01*
X137795420Y-157411104D01*
X137826976Y-157395612D01*
X137939105Y-157301968D01*
X137917329Y-157170469D01*
X137895589Y-157127582D01*
X137844327Y-156923789D01*
X137834188Y-156621566D01*
X138075128Y-156621566D01*
X138145845Y-156958555D01*
X138335665Y-157226764D01*
X138606645Y-157409490D01*
X138920838Y-157490030D01*
X139240301Y-157451681D01*
X139518077Y-157283206D01*
X139982697Y-157283206D01*
X140069543Y-157383039D01*
X140084607Y-157392072D01*
X140363092Y-157473763D01*
X140692699Y-157461808D01*
X140988117Y-157362860D01*
X141058755Y-157316085D01*
X141269547Y-157065727D01*
X141457866Y-156676705D01*
X141609286Y-156179494D01*
X141621239Y-156127690D01*
X141697000Y-155790500D01*
X141092167Y-155798939D01*
X140756585Y-155811522D01*
X140462191Y-155836322D01*
X140275667Y-155867338D01*
X140159444Y-155912072D01*
X140099446Y-155991331D01*
X140081614Y-156149342D01*
X140091890Y-156430333D01*
X140092602Y-156443238D01*
X140093255Y-156749883D01*
X140065328Y-157008818D01*
X140028543Y-157132318D01*
X139982697Y-157283206D01*
X139518077Y-157283206D01*
X139527090Y-157277740D01*
X139539083Y-157265992D01*
X139752591Y-156951987D01*
X139806168Y-156595071D01*
X139699396Y-156192888D01*
X139431862Y-155743078D01*
X139225299Y-155485202D01*
X138966395Y-155185768D01*
X139408878Y-155185768D01*
X139594038Y-155445801D01*
X139743573Y-155632706D01*
X139872181Y-155694403D01*
X140046790Y-155650444D01*
X140145899Y-155607022D01*
X140277303Y-155520415D01*
X140317799Y-155397611D01*
X140266853Y-155202627D01*
X140135766Y-154922667D01*
X140082008Y-154834437D01*
X140471439Y-154834437D01*
X140517619Y-155038657D01*
X140534799Y-155096910D01*
X140612509Y-155318592D01*
X140704801Y-155421315D01*
X140866750Y-155450539D01*
X140964788Y-155451833D01*
X141185572Y-155434208D01*
X141295585Y-155360025D01*
X141341705Y-155239610D01*
X141358735Y-155026110D01*
X141339147Y-154746812D01*
X141292382Y-154483511D01*
X141236842Y-154330955D01*
X141142353Y-154323118D01*
X140956408Y-154395566D01*
X140723840Y-154528092D01*
X140584897Y-154624791D01*
X140491739Y-154716521D01*
X140471439Y-154834437D01*
X140082008Y-154834437D01*
X140031129Y-154750934D01*
X139929969Y-154707605D01*
X139791965Y-154793929D01*
X139646446Y-154937801D01*
X139408878Y-155185768D01*
X138966395Y-155185768D01*
X138940223Y-155155500D01*
X138758844Y-155367167D01*
X138555921Y-155635776D01*
X138360298Y-155947717D01*
X138198380Y-156254547D01*
X138096569Y-156507822D01*
X138075128Y-156621566D01*
X137834188Y-156621566D01*
X137833952Y-156614556D01*
X137843669Y-156459120D01*
X137864487Y-156183543D01*
X137851310Y-156028530D01*
X137786406Y-155946093D01*
X137652043Y-155888244D01*
X137629855Y-155880482D01*
X137410633Y-155833837D01*
X137094588Y-155801315D01*
X136785993Y-155790500D01*
X136478417Y-155795165D01*
X136307329Y-155815128D01*
X136240002Y-155859341D01*
X135956368Y-155859341D01*
X135948945Y-155808731D01*
X135973223Y-155574394D01*
X136059773Y-155484647D01*
X137589141Y-155484647D01*
X137682272Y-155585534D01*
X137747808Y-155615189D01*
X137972617Y-155686455D01*
X138123792Y-155658341D01*
X138270714Y-155510117D01*
X138320741Y-155443994D01*
X138514327Y-155182155D01*
X138278490Y-154935994D01*
X138114097Y-154780255D01*
X137994778Y-154695191D01*
X137975778Y-154689833D01*
X137874112Y-154761309D01*
X137753578Y-154939273D01*
X137647211Y-155169032D01*
X137605375Y-155303056D01*
X137589141Y-155484647D01*
X136059773Y-155484647D01*
X136079284Y-155464416D01*
X136161259Y-155451833D01*
X136224340Y-155371712D01*
X136260139Y-155146684D01*
X136265947Y-155002466D01*
X136268466Y-154969192D01*
X136553993Y-154969192D01*
X136557946Y-155215891D01*
X136593772Y-155377187D01*
X136606778Y-155395389D01*
X136721980Y-155432970D01*
X136930880Y-155451441D01*
X136967060Y-155451833D01*
X137170846Y-155434925D01*
X137282679Y-155352144D01*
X137363626Y-155155405D01*
X137370268Y-155134354D01*
X137412798Y-154869061D01*
X137336288Y-154661786D01*
X137121664Y-154478253D01*
X137067983Y-154447898D01*
X138223545Y-154447898D01*
X138455613Y-154690125D01*
X138623985Y-154842361D01*
X138746580Y-154876722D01*
X138839799Y-154837353D01*
X139004763Y-154786901D01*
X139111434Y-154841545D01*
X139217271Y-154882320D01*
X139346301Y-154811671D01*
X139456043Y-154705792D01*
X139597364Y-154544920D01*
X139630626Y-154433747D01*
X139569118Y-154303867D01*
X139542083Y-154262840D01*
X139384898Y-154052577D01*
X139196035Y-153830200D01*
X139188570Y-153822064D01*
X139154730Y-153785335D01*
X139601150Y-153785335D01*
X139667485Y-153934198D01*
X139825524Y-154122219D01*
X140023308Y-154298925D01*
X140208875Y-154413841D01*
X140265673Y-154430854D01*
X140351274Y-154394482D01*
X140527330Y-154297298D01*
X140604340Y-154251797D01*
X140800678Y-154132815D01*
X140925013Y-154055549D01*
X140941704Y-154044370D01*
X140914890Y-153970202D01*
X140825858Y-153798957D01*
X140701506Y-153577548D01*
X140568732Y-153352883D01*
X140454434Y-153171875D01*
X140394691Y-153090372D01*
X140315476Y-153115140D01*
X140159762Y-153225034D01*
X139969036Y-153383720D01*
X139784787Y-153554865D01*
X139648503Y-153702133D01*
X139601150Y-153785335D01*
X139154730Y-153785335D01*
X138974109Y-153589296D01*
X138769944Y-153779731D01*
X138567968Y-153993018D01*
X138394661Y-154209032D01*
X138223545Y-154447898D01*
X137067983Y-154447898D01*
X136951639Y-154382109D01*
X136784584Y-154309311D01*
X136698230Y-154341800D01*
X136633939Y-154480956D01*
X136579971Y-154702433D01*
X136553993Y-154969192D01*
X136268466Y-154969192D01*
X136292526Y-154651450D01*
X136354227Y-154330887D01*
X136439293Y-154081240D01*
X136531707Y-153949061D01*
X137015894Y-153949061D01*
X137017090Y-154056177D01*
X137070674Y-154104232D01*
X137227319Y-154207121D01*
X137354667Y-154300344D01*
X137529563Y-154406135D01*
X137683387Y-154407701D01*
X137861928Y-154293933D01*
X138029178Y-154136678D01*
X138202060Y-153949361D01*
X138310106Y-153804517D01*
X138328333Y-153759556D01*
X138266028Y-153669897D01*
X138104829Y-153518504D01*
X137937153Y-153382902D01*
X137755332Y-153244071D01*
X138309463Y-153244071D01*
X138370744Y-153335108D01*
X138382638Y-153348394D01*
X138534200Y-153482158D01*
X138652014Y-153474813D01*
X138751667Y-153377500D01*
X138904490Y-153262570D01*
X139071457Y-153299281D01*
X139187912Y-153389185D01*
X139327986Y-153478912D01*
X139449458Y-153437299D01*
X139469745Y-153421151D01*
X139573033Y-153298022D01*
X139574522Y-153157608D01*
X139464948Y-152967163D01*
X139277453Y-152741357D01*
X138956572Y-152379770D01*
X138598968Y-152786030D01*
X138408149Y-153009636D01*
X138316789Y-153148948D01*
X138309463Y-153244071D01*
X137755332Y-153244071D01*
X137545973Y-153084214D01*
X137398791Y-153273190D01*
X137257678Y-153481188D01*
X137113544Y-153731429D01*
X137103812Y-153750195D01*
X137015894Y-153949061D01*
X136531707Y-153949061D01*
X136535966Y-153942970D01*
X136578211Y-153927833D01*
X136672991Y-153859093D01*
X136801543Y-153684435D01*
X136868766Y-153568000D01*
X137034350Y-153285234D01*
X137214379Y-153018582D01*
X137263683Y-152954167D01*
X137467456Y-152700167D01*
X137992084Y-153007501D01*
X138422704Y-152536334D01*
X138644457Y-152308976D01*
X138834097Y-152141823D01*
X138955142Y-152066569D01*
X138965057Y-152065167D01*
X139072396Y-152124664D01*
G37*
X139072396Y-152124664D02*
X139252014Y-152281610D01*
X139467406Y-152503689D01*
X139494607Y-152533948D01*
X139912424Y-153002729D01*
X140181440Y-152851448D01*
X140364258Y-152757800D01*
X140472930Y-152758182D01*
X140580341Y-152862628D01*
X140620074Y-152911833D01*
X140760184Y-153113602D01*
X140923748Y-153386077D01*
X140999772Y-153525667D01*
X141132160Y-153750318D01*
X141247036Y-153896290D01*
X141297413Y-153927833D01*
X141400801Y-154005098D01*
X141498989Y-154207734D01*
X141578053Y-154492004D01*
X141624068Y-154814170D01*
X141630333Y-154973572D01*
X141639988Y-155246965D01*
X141678873Y-155395821D01*
X141761869Y-155464328D01*
X141799667Y-155476365D01*
X141922645Y-155567864D01*
X141965603Y-155766155D01*
X141928435Y-156084769D01*
X141811037Y-156537237D01*
X141790960Y-156603087D01*
X141571304Y-157126477D01*
X141284693Y-157503872D01*
X140938518Y-157730515D01*
X140540173Y-157801645D01*
X140097049Y-157712503D01*
X140078684Y-157705608D01*
X139849903Y-157622951D01*
X139690902Y-157574125D01*
X139659003Y-157568500D01*
X139630580Y-157646406D01*
X139609288Y-157853153D01*
X139598825Y-158148284D01*
X139598333Y-158232711D01*
X139590394Y-158592245D01*
X139561340Y-158823767D01*
X139503318Y-158968080D01*
X139443500Y-159037044D01*
X139224014Y-159144988D01*
X138938264Y-159176873D01*
X138660183Y-159133815D01*
X138468455Y-159022333D01*
X138385009Y-158869246D01*
X138340544Y-158618378D01*
X138328333Y-158265330D01*
X138318781Y-157962520D01*
X138303521Y-157822500D01*
X138582333Y-157822500D01*
X138582333Y-158274055D01*
X138592869Y-158538485D01*
X138619893Y-158729315D01*
X138642807Y-158786085D01*
X138760469Y-158820018D01*
X138969357Y-158823767D01*
X139002640Y-158821363D01*
X139302000Y-158796167D01*
X139327392Y-158309333D01*
X139352784Y-157822500D01*
X138582333Y-157822500D01*
X138303521Y-157822500D01*
X138293646Y-157731895D01*
X138258207Y-157620280D01*
X138255348Y-157618052D01*
X138138263Y-157618915D01*
X137930360Y-157674500D01*
X137837907Y-157708251D01*
X137400818Y-157804905D01*
X137004192Y-157741696D01*
X136655504Y-157524845D01*
X136362231Y-157160578D01*
X136131849Y-156655120D01*
X136003532Y-156180919D01*
X135956368Y-155859341D01*
X136240002Y-155859341D01*
X136243710Y-155936754D01*
X136244274Y-155938667D01*
X136295452Y-156129517D01*
X136346660Y-156340833D01*
X136464531Y-156696752D01*
X136636623Y-157031661D01*
X136829331Y-157284929D01*
X136906705Y-157351238D01*
X137174089Y-157456318D01*
X137500517Y-157477729D01*
X137795420Y-157411104D01*
X137826976Y-157395612D01*
X137939105Y-157301968D01*
X137917329Y-157170469D01*
X137895589Y-157127582D01*
X137844327Y-156923789D01*
X137834188Y-156621566D01*
X138075128Y-156621566D01*
X138145845Y-156958555D01*
X138335665Y-157226764D01*
X138606645Y-157409490D01*
X138920838Y-157490030D01*
X139240301Y-157451681D01*
X139518077Y-157283206D01*
X139982697Y-157283206D01*
X140069543Y-157383039D01*
X140084607Y-157392072D01*
X140363092Y-157473763D01*
X140692699Y-157461808D01*
X140988117Y-157362860D01*
X141058755Y-157316085D01*
X141269547Y-157065727D01*
X141457866Y-156676705D01*
X141609286Y-156179494D01*
X141621239Y-156127690D01*
X141697000Y-155790500D01*
X141092167Y-155798939D01*
X140756585Y-155811522D01*
X140462191Y-155836322D01*
X140275667Y-155867338D01*
X140159444Y-155912072D01*
X140099446Y-155991331D01*
X140081614Y-156149342D01*
X140091890Y-156430333D01*
X140092602Y-156443238D01*
X140093255Y-156749883D01*
X140065328Y-157008818D01*
X140028543Y-157132318D01*
X139982697Y-157283206D01*
X139518077Y-157283206D01*
X139527090Y-157277740D01*
X139539083Y-157265992D01*
X139752591Y-156951987D01*
X139806168Y-156595071D01*
X139699396Y-156192888D01*
X139431862Y-155743078D01*
X139225299Y-155485202D01*
X138966395Y-155185768D01*
X139408878Y-155185768D01*
X139594038Y-155445801D01*
X139743573Y-155632706D01*
X139872181Y-155694403D01*
X140046790Y-155650444D01*
X140145899Y-155607022D01*
X140277303Y-155520415D01*
X140317799Y-155397611D01*
X140266853Y-155202627D01*
X140135766Y-154922667D01*
X140082008Y-154834437D01*
X140471439Y-154834437D01*
X140517619Y-155038657D01*
X140534799Y-155096910D01*
X140612509Y-155318592D01*
X140704801Y-155421315D01*
X140866750Y-155450539D01*
X140964788Y-155451833D01*
X141185572Y-155434208D01*
X141295585Y-155360025D01*
X141341705Y-155239610D01*
X141358735Y-155026110D01*
X141339147Y-154746812D01*
X141292382Y-154483511D01*
X141236842Y-154330955D01*
X141142353Y-154323118D01*
X140956408Y-154395566D01*
X140723840Y-154528092D01*
X140584897Y-154624791D01*
X140491739Y-154716521D01*
X140471439Y-154834437D01*
X140082008Y-154834437D01*
X140031129Y-154750934D01*
X139929969Y-154707605D01*
X139791965Y-154793929D01*
X139646446Y-154937801D01*
X139408878Y-155185768D01*
X138966395Y-155185768D01*
X138940223Y-155155500D01*
X138758844Y-155367167D01*
X138555921Y-155635776D01*
X138360298Y-155947717D01*
X138198380Y-156254547D01*
X138096569Y-156507822D01*
X138075128Y-156621566D01*
X137834188Y-156621566D01*
X137833952Y-156614556D01*
X137843669Y-156459120D01*
X137864487Y-156183543D01*
X137851310Y-156028530D01*
X137786406Y-155946093D01*
X137652043Y-155888244D01*
X137629855Y-155880482D01*
X137410633Y-155833837D01*
X137094588Y-155801315D01*
X136785993Y-155790500D01*
X136478417Y-155795165D01*
X136307329Y-155815128D01*
X136240002Y-155859341D01*
X135956368Y-155859341D01*
X135948945Y-155808731D01*
X135973223Y-155574394D01*
X136059773Y-155484647D01*
X137589141Y-155484647D01*
X137682272Y-155585534D01*
X137747808Y-155615189D01*
X137972617Y-155686455D01*
X138123792Y-155658341D01*
X138270714Y-155510117D01*
X138320741Y-155443994D01*
X138514327Y-155182155D01*
X138278490Y-154935994D01*
X138114097Y-154780255D01*
X137994778Y-154695191D01*
X137975778Y-154689833D01*
X137874112Y-154761309D01*
X137753578Y-154939273D01*
X137647211Y-155169032D01*
X137605375Y-155303056D01*
X137589141Y-155484647D01*
X136059773Y-155484647D01*
X136079284Y-155464416D01*
X136161259Y-155451833D01*
X136224340Y-155371712D01*
X136260139Y-155146684D01*
X136265947Y-155002466D01*
X136268466Y-154969192D01*
X136553993Y-154969192D01*
X136557946Y-155215891D01*
X136593772Y-155377187D01*
X136606778Y-155395389D01*
X136721980Y-155432970D01*
X136930880Y-155451441D01*
X136967060Y-155451833D01*
X137170846Y-155434925D01*
X137282679Y-155352144D01*
X137363626Y-155155405D01*
X137370268Y-155134354D01*
X137412798Y-154869061D01*
X137336288Y-154661786D01*
X137121664Y-154478253D01*
X137067983Y-154447898D01*
X138223545Y-154447898D01*
X138455613Y-154690125D01*
X138623985Y-154842361D01*
X138746580Y-154876722D01*
X138839799Y-154837353D01*
X139004763Y-154786901D01*
X139111434Y-154841545D01*
X139217271Y-154882320D01*
X139346301Y-154811671D01*
X139456043Y-154705792D01*
X139597364Y-154544920D01*
X139630626Y-154433747D01*
X139569118Y-154303867D01*
X139542083Y-154262840D01*
X139384898Y-154052577D01*
X139196035Y-153830200D01*
X139188570Y-153822064D01*
X139154730Y-153785335D01*
X139601150Y-153785335D01*
X139667485Y-153934198D01*
X139825524Y-154122219D01*
X140023308Y-154298925D01*
X140208875Y-154413841D01*
X140265673Y-154430854D01*
X140351274Y-154394482D01*
X140527330Y-154297298D01*
X140604340Y-154251797D01*
X140800678Y-154132815D01*
X140925013Y-154055549D01*
X140941704Y-154044370D01*
X140914890Y-153970202D01*
X140825858Y-153798957D01*
X140701506Y-153577548D01*
X140568732Y-153352883D01*
X140454434Y-153171875D01*
X140394691Y-153090372D01*
X140315476Y-153115140D01*
X140159762Y-153225034D01*
X139969036Y-153383720D01*
X139784787Y-153554865D01*
X139648503Y-153702133D01*
X139601150Y-153785335D01*
X139154730Y-153785335D01*
X138974109Y-153589296D01*
X138769944Y-153779731D01*
X138567968Y-153993018D01*
X138394661Y-154209032D01*
X138223545Y-154447898D01*
X137067983Y-154447898D01*
X136951639Y-154382109D01*
X136784584Y-154309311D01*
X136698230Y-154341800D01*
X136633939Y-154480956D01*
X136579971Y-154702433D01*
X136553993Y-154969192D01*
X136268466Y-154969192D01*
X136292526Y-154651450D01*
X136354227Y-154330887D01*
X136439293Y-154081240D01*
X136531707Y-153949061D01*
X137015894Y-153949061D01*
X137017090Y-154056177D01*
X137070674Y-154104232D01*
X137227319Y-154207121D01*
X137354667Y-154300344D01*
X137529563Y-154406135D01*
X137683387Y-154407701D01*
X137861928Y-154293933D01*
X138029178Y-154136678D01*
X138202060Y-153949361D01*
X138310106Y-153804517D01*
X138328333Y-153759556D01*
X138266028Y-153669897D01*
X138104829Y-153518504D01*
X137937153Y-153382902D01*
X137755332Y-153244071D01*
X138309463Y-153244071D01*
X138370744Y-153335108D01*
X138382638Y-153348394D01*
X138534200Y-153482158D01*
X138652014Y-153474813D01*
X138751667Y-153377500D01*
X138904490Y-153262570D01*
X139071457Y-153299281D01*
X139187912Y-153389185D01*
X139327986Y-153478912D01*
X139449458Y-153437299D01*
X139469745Y-153421151D01*
X139573033Y-153298022D01*
X139574522Y-153157608D01*
X139464948Y-152967163D01*
X139277453Y-152741357D01*
X138956572Y-152379770D01*
X138598968Y-152786030D01*
X138408149Y-153009636D01*
X138316789Y-153148948D01*
X138309463Y-153244071D01*
X137755332Y-153244071D01*
X137545973Y-153084214D01*
X137398791Y-153273190D01*
X137257678Y-153481188D01*
X137113544Y-153731429D01*
X137103812Y-153750195D01*
X137015894Y-153949061D01*
X136531707Y-153949061D01*
X136535966Y-153942970D01*
X136578211Y-153927833D01*
X136672991Y-153859093D01*
X136801543Y-153684435D01*
X136868766Y-153568000D01*
X137034350Y-153285234D01*
X137214379Y-153018582D01*
X137263683Y-152954167D01*
X137467456Y-152700167D01*
X137992084Y-153007501D01*
X138422704Y-152536334D01*
X138644457Y-152308976D01*
X138834097Y-152141823D01*
X138955142Y-152066569D01*
X138965057Y-152065167D01*
X139072396Y-152124664D01*
%TD*%
M02*
