%TF.GenerationSoftware,KiCad,Pcbnew,5.1.6+dfsg1-1~bpo10+1*%
%TF.CreationDate,2020-11-22T17:09:41+10:30*%
%TF.ProjectId,robotcontrol,726f626f-7463-46f6-9e74-726f6c2e6b69,rev?*%
%TF.SameCoordinates,Original*%
%TF.FileFunction,Copper,L1,Top*%
%TF.FilePolarity,Positive*%
%FSLAX46Y46*%
G04 Gerber Fmt 4.6, Leading zero omitted, Abs format (unit mm)*
G04 Created by KiCad (PCBNEW 5.1.6+dfsg1-1~bpo10+1) date 2020-11-22 17:09:41*
%MOMM*%
%LPD*%
G01*
G04 APERTURE LIST*
%TA.AperFunction,SMDPad,CuDef*%
%ADD10R,1.175000X1.900000*%
%TD*%
%TA.AperFunction,SMDPad,CuDef*%
%ADD11R,2.375000X1.900000*%
%TD*%
%TA.AperFunction,SMDPad,CuDef*%
%ADD12R,1.475000X2.100000*%
%TD*%
%TA.AperFunction,SMDPad,CuDef*%
%ADD13R,0.450000X1.380000*%
%TD*%
%TA.AperFunction,ComponentPad*%
%ADD14C,3.000000*%
%TD*%
%TA.AperFunction,ComponentPad*%
%ADD15R,3.000000X3.000000*%
%TD*%
%TA.AperFunction,SMDPad,CuDef*%
%ADD16R,0.550000X1.600000*%
%TD*%
%TA.AperFunction,SMDPad,CuDef*%
%ADD17R,1.600000X0.550000*%
%TD*%
%TA.AperFunction,ComponentPad*%
%ADD18O,1.700000X1.700000*%
%TD*%
%TA.AperFunction,ComponentPad*%
%ADD19R,1.700000X1.700000*%
%TD*%
%TA.AperFunction,ComponentPad*%
%ADD20O,2.000000X1.905000*%
%TD*%
%TA.AperFunction,ComponentPad*%
%ADD21R,2.000000X1.905000*%
%TD*%
%TA.AperFunction,SMDPad,CuDef*%
%ADD22R,1.060000X0.650000*%
%TD*%
%TA.AperFunction,ComponentPad*%
%ADD23C,2.000000*%
%TD*%
%TA.AperFunction,ComponentPad*%
%ADD24O,1.600000X1.600000*%
%TD*%
%TA.AperFunction,ComponentPad*%
%ADD25C,1.600000*%
%TD*%
%TA.AperFunction,ComponentPad*%
%ADD26C,1.800000*%
%TD*%
%TA.AperFunction,ComponentPad*%
%ADD27R,1.800000X1.800000*%
%TD*%
%TA.AperFunction,ComponentPad*%
%ADD28R,1.600000X1.600000*%
%TD*%
%TA.AperFunction,ViaPad*%
%ADD29C,0.800000*%
%TD*%
%TA.AperFunction,Conductor*%
%ADD30C,0.600000*%
%TD*%
%TA.AperFunction,Conductor*%
%ADD31C,0.250000*%
%TD*%
%TA.AperFunction,Conductor*%
%ADD32C,0.254000*%
%TD*%
G04 APERTURE END LIST*
D10*
%TO.P,J1,6*%
%TO.N,GND*%
X116315000Y-165250000D03*
X114635000Y-165250000D03*
D11*
X118385000Y-165250000D03*
X112565000Y-165250000D03*
D12*
X117937500Y-162950000D03*
X113012500Y-162950000D03*
D13*
%TO.P,J1,5*%
X116775000Y-162590000D03*
%TO.P,J1,4*%
%TO.N,Net-(J1-Pad4)*%
X116125000Y-162590000D03*
%TO.P,J1,3*%
%TO.N,Net-(J1-Pad3)*%
X115475000Y-162590000D03*
%TO.P,J1,2*%
%TO.N,Net-(J1-Pad2)*%
X114825000Y-162590000D03*
%TO.P,J1,1*%
%TO.N,Net-(J1-Pad1)*%
X114175000Y-162590000D03*
%TD*%
D14*
%TO.P,BT1,1*%
%TO.N,VCCIN*%
X105520000Y-155409500D03*
D15*
%TO.P,BT1,2*%
%TO.N,GND*%
X105520000Y-160489500D03*
%TD*%
D16*
%TO.P,U3,32*%
%TO.N,Net-(U3-Pad32)*%
X140870800Y-147794000D03*
%TO.P,U3,31*%
%TO.N,Net-(U3-Pad31)*%
X141670800Y-147794000D03*
%TO.P,U3,30*%
%TO.N,Net-(U3-Pad30)*%
X142470800Y-147794000D03*
%TO.P,U3,29*%
%TO.N,Net-(J6-Pad5)*%
X143270800Y-147794000D03*
%TO.P,U3,28*%
%TO.N,Net-(J5-Pad4)*%
X144070800Y-147794000D03*
%TO.P,U3,27*%
%TO.N,Net-(J5-Pad3)*%
X144870800Y-147794000D03*
%TO.P,U3,26*%
%TO.N,Net-(J3-Pad2)*%
X145670800Y-147794000D03*
%TO.P,U3,25*%
%TO.N,Net-(J3-Pad3)*%
X146470800Y-147794000D03*
D17*
%TO.P,U3,24*%
%TO.N,Net-(J4-Pad2)*%
X147920800Y-149244000D03*
%TO.P,U3,23*%
%TO.N,Net-(J4-Pad3)*%
X147920800Y-150044000D03*
%TO.P,U3,22*%
%TO.N,Net-(U3-Pad22)*%
X147920800Y-150844000D03*
%TO.P,U3,21*%
%TO.N,GND*%
X147920800Y-151644000D03*
%TO.P,U3,20*%
%TO.N,Net-(U3-Pad20)*%
X147920800Y-152444000D03*
%TO.P,U3,19*%
%TO.N,VCCIN*%
X147920800Y-153244000D03*
%TO.P,U3,18*%
%TO.N,VCC*%
X147920800Y-154044000D03*
%TO.P,U3,17*%
%TO.N,Net-(J6-Pad3)*%
X147920800Y-154844000D03*
D16*
%TO.P,U3,16*%
%TO.N,Net-(J6-Pad1)*%
X146470800Y-156294000D03*
%TO.P,U3,15*%
%TO.N,Net-(J6-Pad4)*%
X145670800Y-156294000D03*
%TO.P,U3,14*%
%TO.N,Net-(J7-Pad5)*%
X144870800Y-156294000D03*
%TO.P,U3,13*%
%TO.N,Net-(J7-Pad3)*%
X144070800Y-156294000D03*
%TO.P,U3,12*%
%TO.N,Net-(U3-Pad12)*%
X143270800Y-156294000D03*
%TO.P,U3,11*%
%TO.N,Net-(J7-Pad7)*%
X142470800Y-156294000D03*
%TO.P,U3,10*%
%TO.N,Net-(U3-Pad10)*%
X141670800Y-156294000D03*
%TO.P,U3,9*%
%TO.N,Net-(U3-Pad9)*%
X140870800Y-156294000D03*
D17*
%TO.P,U3,8*%
%TO.N,Net-(U3-Pad8)*%
X139420800Y-154844000D03*
%TO.P,U3,7*%
%TO.N,Net-(U3-Pad7)*%
X139420800Y-154044000D03*
%TO.P,U3,6*%
%TO.N,VCC*%
X139420800Y-153244000D03*
%TO.P,U3,5*%
%TO.N,GND*%
X139420800Y-152444000D03*
%TO.P,U3,4*%
%TO.N,VCC*%
X139420800Y-151644000D03*
%TO.P,U3,3*%
%TO.N,GND*%
X139420800Y-150844000D03*
%TO.P,U3,2*%
%TO.N,Net-(U3-Pad2)*%
X139420800Y-150044000D03*
%TO.P,U3,1*%
%TO.N,Net-(R3-Pad1)*%
X139420800Y-149244000D03*
%TD*%
D18*
%TO.P,J6,6*%
%TO.N,GND*%
X138540000Y-163220000D03*
%TO.P,J6,5*%
%TO.N,Net-(J6-Pad5)*%
X138540000Y-160680000D03*
%TO.P,J6,4*%
%TO.N,Net-(J6-Pad4)*%
X141080000Y-163220000D03*
%TO.P,J6,3*%
%TO.N,Net-(J6-Pad3)*%
X141080000Y-160680000D03*
%TO.P,J6,2*%
%TO.N,VCC*%
X143620000Y-163220000D03*
D19*
%TO.P,J6,1*%
%TO.N,Net-(J6-Pad1)*%
X143620000Y-160680000D03*
%TD*%
D20*
%TO.P,U2,3*%
%TO.N,VCC*%
X115680000Y-144170000D03*
%TO.P,U2,2*%
%TO.N,GND*%
X115680000Y-146710000D03*
D21*
%TO.P,U2,1*%
%TO.N,Net-(C1-Pad1)*%
X115680000Y-149250000D03*
%TD*%
D22*
%TO.P,U1,5*%
%TO.N,Net-(R2-Pad1)*%
X116780000Y-153380000D03*
%TO.P,U1,4*%
%TO.N,Net-(J1-Pad1)*%
X116780000Y-155280000D03*
%TO.P,U1,3*%
%TO.N,VCCIN*%
X114580000Y-155280000D03*
%TO.P,U1,2*%
%TO.N,GND*%
X114580000Y-154330000D03*
%TO.P,U1,1*%
%TO.N,VCCIN*%
X114580000Y-153380000D03*
%TD*%
D23*
%TO.P,SW2,1*%
%TO.N,Net-(J6-Pad5)*%
X157740000Y-146075000D03*
%TO.P,SW2,2*%
%TO.N,GND*%
X157740000Y-150575000D03*
%TO.P,SW2,1*%
%TO.N,Net-(J6-Pad5)*%
X151240000Y-146075000D03*
%TO.P,SW2,2*%
%TO.N,GND*%
X151240000Y-150575000D03*
%TD*%
D18*
%TO.P,SW1,3*%
%TO.N,Net-(SW1-Pad3)*%
X146160000Y-142900000D03*
%TO.P,SW1,2*%
%TO.N,VCCIN*%
X143620000Y-142900000D03*
D19*
%TO.P,SW1,1*%
%TO.N,VCC*%
X141080000Y-142900000D03*
%TD*%
D24*
%TO.P,R4,2*%
%TO.N,Net-(J6-Pad5)*%
X157590000Y-161315000D03*
D25*
%TO.P,R4,1*%
%TO.N,VCC*%
X147430000Y-161315000D03*
%TD*%
D24*
%TO.P,R3,2*%
%TO.N,Net-(D5-Pad2)*%
X161603200Y-151993200D03*
D25*
%TO.P,R3,1*%
%TO.N,Net-(R3-Pad1)*%
X161603200Y-141833200D03*
%TD*%
D24*
%TO.P,R2,2*%
%TO.N,GND*%
X123300000Y-154330000D03*
D25*
%TO.P,R2,1*%
%TO.N,Net-(R2-Pad1)*%
X123300000Y-164490000D03*
%TD*%
D24*
%TO.P,R1,2*%
%TO.N,Net-(D2-Pad2)*%
X157590000Y-164490000D03*
D25*
%TO.P,R1,1*%
%TO.N,VCCIN*%
X147430000Y-164490000D03*
%TD*%
D18*
%TO.P,J5,4*%
%TO.N,Net-(J5-Pad4)*%
X161298400Y-163270800D03*
%TO.P,J5,3*%
%TO.N,Net-(J5-Pad3)*%
X161298400Y-160730800D03*
%TO.P,J5,2*%
%TO.N,GND*%
X161298400Y-158190800D03*
D19*
%TO.P,J5,1*%
%TO.N,VCC*%
X161298400Y-155650800D03*
%TD*%
D18*
%TO.P,J4,4*%
%TO.N,VCC*%
X128380000Y-163220000D03*
%TO.P,J4,3*%
%TO.N,Net-(J4-Pad3)*%
X128380000Y-160680000D03*
%TO.P,J4,2*%
%TO.N,Net-(J4-Pad2)*%
X128380000Y-158140000D03*
D19*
%TO.P,J4,1*%
%TO.N,GND*%
X128380000Y-155600000D03*
%TD*%
D18*
%TO.P,J3,4*%
%TO.N,VCC*%
X133460000Y-163220000D03*
%TO.P,J3,3*%
%TO.N,Net-(J3-Pad3)*%
X133460000Y-160680000D03*
%TO.P,J3,2*%
%TO.N,Net-(J3-Pad2)*%
X133460000Y-158140000D03*
D19*
%TO.P,J3,1*%
%TO.N,GND*%
X133460000Y-155600000D03*
%TD*%
D14*
%TO.P,J2,2*%
%TO.N,GND*%
X105520000Y-144170000D03*
D15*
%TO.P,J2,1*%
%TO.N,Net-(C1-Pad1)*%
X105520000Y-149250000D03*
%TD*%
D26*
%TO.P,D5,2*%
%TO.N,Net-(D5-Pad2)*%
X136635000Y-150520000D03*
D27*
%TO.P,D5,1*%
%TO.N,GND*%
X134095000Y-150520000D03*
%TD*%
D26*
%TO.P,D2,2*%
%TO.N,Net-(D2-Pad2)*%
X136635000Y-143535000D03*
D27*
%TO.P,D2,1*%
%TO.N,GND*%
X134095000Y-143535000D03*
%TD*%
D25*
%TO.P,C3,2*%
%TO.N,GND*%
X152510000Y-156830000D03*
D28*
%TO.P,C3,1*%
%TO.N,VCC*%
X152510000Y-154330000D03*
%TD*%
D25*
%TO.P,C2,2*%
%TO.N,GND*%
X157183600Y-158415600D03*
%TO.P,C2,1*%
%TO.N,VCC*%
X157183600Y-153415600D03*
%TD*%
%TO.P,C1,2*%
%TO.N,GND*%
X154970000Y-142900000D03*
%TO.P,C1,1*%
%TO.N,Net-(C1-Pad1)*%
X149970000Y-142900000D03*
%TD*%
D24*
%TO.P,R5,2*%
%TO.N,Net-(J7-Pad1)*%
X130910000Y-145750000D03*
D25*
%TO.P,R5,1*%
%TO.N,VCC*%
X120750000Y-145750000D03*
%TD*%
%TO.P,R6,1*%
%TO.N,Net-(J7-Pad1)*%
X120750000Y-142500000D03*
D24*
%TO.P,R6,2*%
%TO.N,GND*%
X130910000Y-142500000D03*
%TD*%
D19*
%TO.P,J7,1*%
%TO.N,Net-(J7-Pad1)*%
X167250000Y-147000000D03*
D18*
%TO.P,J7,2*%
%TO.N,GND*%
X167250000Y-149540000D03*
%TO.P,J7,3*%
%TO.N,Net-(J7-Pad3)*%
X167250000Y-152080000D03*
%TO.P,J7,4*%
%TO.N,Net-(J6-Pad4)*%
X167250000Y-154620000D03*
%TO.P,J7,5*%
%TO.N,Net-(J7-Pad5)*%
X167250000Y-157160000D03*
%TO.P,J7,6*%
%TO.N,Net-(J6-Pad3)*%
X167250000Y-159700000D03*
%TO.P,J7,7*%
%TO.N,Net-(J7-Pad7)*%
X167250000Y-162240000D03*
%TD*%
D29*
%TO.N,Net-(C1-Pad1)*%
X118320000Y-143170000D03*
X148580000Y-140599990D03*
%TO.N,VCC*%
X144839200Y-153364800D03*
X119045500Y-147535500D03*
%TO.N,VCCIN*%
X112073200Y-155600000D03*
X118145490Y-151218500D03*
X121634998Y-154330000D03*
X118220000Y-156870000D03*
X114410000Y-158140000D03*
X137475000Y-146450000D03*
%TO.N,Net-(D2-Pad2)*%
X158034500Y-156044500D03*
%TO.N,Net-(D5-Pad2)*%
X134560000Y-153120000D03*
X135810000Y-158330000D03*
X137700000Y-158330000D03*
X145570000Y-161690000D03*
X149820000Y-160640000D03*
X140830000Y-157830000D03*
%TO.N,Net-(J3-Pad3)*%
X145270000Y-150940000D03*
%TO.N,Net-(J3-Pad2)*%
X143683500Y-150710500D03*
%TO.N,Net-(J4-Pad3)*%
X146220000Y-150950000D03*
%TO.N,Net-(J4-Pad2)*%
X145940000Y-150050000D03*
%TO.N,Net-(J5-Pad4)*%
X145900000Y-145630000D03*
X151110000Y-148580000D03*
X155060000Y-153030000D03*
%TO.N,Net-(J5-Pad3)*%
X147100000Y-145620000D03*
%TO.N,Net-(R2-Pad1)*%
X108875000Y-166087500D03*
%TO.N,Net-(R3-Pad1)*%
X144262496Y-144905490D03*
%TO.N,Net-(J6-Pad5)*%
X161019000Y-148488000D03*
X161019000Y-148488000D03*
X142540500Y-150647000D03*
%TO.N,Net-(J6-Pad4)*%
X152000000Y-164500000D03*
X145500000Y-164500000D03*
%TO.N,Net-(J6-Pad3)*%
X150500000Y-164890001D03*
X146971312Y-163167272D03*
%TO.N,Net-(J6-Pad1)*%
X145072249Y-158902431D03*
%TO.N,Net-(J1-Pad1)*%
X117712000Y-158203500D03*
X114854500Y-159473500D03*
%TO.N,Net-(J7-Pad5)*%
X146000000Y-167320841D03*
X148750000Y-160000000D03*
X143250000Y-158250000D03*
X146152346Y-159902346D03*
%TO.N,Net-(J7-Pad3)*%
X154000000Y-161250000D03*
X144500000Y-154500000D03*
X148736990Y-159000000D03*
X149000000Y-156000000D03*
%TO.N,Net-(J7-Pad7)*%
X135500000Y-160000000D03*
X137754267Y-159328529D03*
%TD*%
D30*
%TO.N,GND*%
X113140000Y-144170000D02*
X115680000Y-146710000D01*
X105520000Y-144170000D02*
X113140000Y-144170000D01*
X119049400Y-158580600D02*
X123300000Y-154330000D01*
X127110000Y-154330000D02*
X128380000Y-155600000D01*
X123300000Y-154330000D02*
X127110000Y-154330000D01*
X128380000Y-155600000D02*
X133460000Y-155600000D01*
X133460000Y-151155000D02*
X134095000Y-150520000D01*
X133460000Y-155600000D02*
X133460000Y-151155000D01*
X134095000Y-150520000D02*
X134095000Y-143535000D01*
X150171000Y-151644000D02*
X151240000Y-150575000D01*
X147920800Y-151644000D02*
X150171000Y-151644000D01*
X151240000Y-150575000D02*
X157740000Y-150575000D01*
X155598000Y-156830000D02*
X157183600Y-158415600D01*
X152510000Y-156830000D02*
X155598000Y-156830000D01*
X161073600Y-158415600D02*
X161298400Y-158190800D01*
X157183600Y-158415600D02*
X161073600Y-158415600D01*
X151240000Y-150575000D02*
X154970000Y-146845000D01*
X154970000Y-142900000D02*
X154970000Y-146845000D01*
X115385002Y-154330000D02*
X115610001Y-154105001D01*
X114580000Y-154330000D02*
X115385002Y-154330000D01*
X115610001Y-155974501D02*
X115610001Y-154105001D01*
X115924999Y-156289499D02*
X115610001Y-155974501D01*
X115924999Y-157991599D02*
X115924999Y-156289499D01*
X134095000Y-150520000D02*
X135555500Y-151980500D01*
X135555500Y-151980500D02*
X137424298Y-151980500D01*
X138343000Y-150844000D02*
X139420800Y-150844000D01*
X137659797Y-151527203D02*
X138343000Y-150844000D01*
X139420800Y-152444000D02*
X138330500Y-152444000D01*
X138330500Y-152444000D02*
X137364999Y-153409501D01*
X137364999Y-153409501D02*
X136762000Y-154012500D01*
X136762000Y-161442000D02*
X138540000Y-163220000D01*
X136762000Y-154012500D02*
X136762000Y-161442000D01*
X137659797Y-151745001D02*
X137424298Y-151980500D01*
X137659797Y-151527203D02*
X137659797Y-151745001D01*
X137364999Y-152039799D02*
X137659797Y-151745001D01*
X137364999Y-153409501D02*
X137364999Y-152039799D01*
X115610001Y-152654999D02*
X115610001Y-154105001D01*
X114039999Y-151084997D02*
X115610001Y-152654999D01*
X113724999Y-151084997D02*
X114039999Y-151084997D01*
X113724999Y-148220501D02*
X113724999Y-151084997D01*
X115680000Y-146710000D02*
X115235500Y-146710000D01*
X115235500Y-146710000D02*
X113724999Y-148220501D01*
X140470800Y-150844000D02*
X139420800Y-150844000D01*
X147895801Y-151668999D02*
X146720799Y-151668999D01*
X146620799Y-151768999D02*
X146620799Y-152220000D01*
X146720799Y-151668999D02*
X146620799Y-151768999D01*
X147920800Y-151644000D02*
X147895801Y-151668999D01*
X141313352Y-150844000D02*
X140470800Y-150844000D01*
X146620799Y-152220000D02*
X142689352Y-152220000D01*
X142689352Y-152220000D02*
X141313352Y-150844000D01*
X148054001Y-165790001D02*
X141110001Y-165790001D01*
X141110001Y-165790001D02*
X138540000Y-163220000D01*
X152510000Y-161334002D02*
X148054001Y-165790001D01*
X152510000Y-156830000D02*
X152510000Y-161334002D01*
X106146500Y-161116000D02*
X105520000Y-160489500D01*
X104504000Y-160489500D02*
X105520000Y-160489500D01*
X103519999Y-159505499D02*
X104504000Y-160489500D01*
X105520000Y-144170000D02*
X103519999Y-146170001D01*
X103519999Y-146170001D02*
X103519999Y-159505499D01*
X115924999Y-157991599D02*
X117786900Y-159853500D01*
X119049400Y-158591000D02*
X117786900Y-159853500D01*
X119049400Y-158580600D02*
X119049400Y-158591000D01*
X117786900Y-162799400D02*
X117937500Y-162950000D01*
X117786900Y-159853500D02*
X117786900Y-162799400D01*
X116850001Y-162665001D02*
X116850001Y-162590000D01*
X117937500Y-162950000D02*
X117135000Y-162950000D01*
X117135000Y-162950000D02*
X116850001Y-162665001D01*
X117937500Y-164802500D02*
X118385000Y-165250000D01*
X117937500Y-162950000D02*
X117937500Y-164802500D01*
X118385000Y-165250000D02*
X116315000Y-165250000D01*
X116315000Y-165250000D02*
X114635000Y-165250000D01*
X114635000Y-165250000D02*
X112565000Y-165250000D01*
X112565000Y-163397500D02*
X113012500Y-162950000D01*
X112565000Y-165250000D02*
X112565000Y-163397500D01*
X133060000Y-142500000D02*
X134095000Y-143535000D01*
X130910000Y-142500000D02*
X133060000Y-142500000D01*
X156289999Y-159309201D02*
X157183600Y-158415600D01*
X156289999Y-161939001D02*
X156289999Y-159309201D01*
X156965999Y-162615001D02*
X156289999Y-161939001D01*
X158214001Y-162615001D02*
X156965999Y-162615001D01*
X160219801Y-164620801D02*
X158214001Y-162615001D01*
X161946401Y-164620801D02*
X160219801Y-164620801D01*
X163803220Y-162763982D02*
X161946401Y-164620801D01*
X163803220Y-152986780D02*
X163803220Y-162763982D01*
X167250000Y-149540000D02*
X163803220Y-152986780D01*
D31*
%TO.N,Net-(C1-Pad1)*%
X118320000Y-142604315D02*
X120244315Y-140680000D01*
X118320000Y-143170000D02*
X118320000Y-142604315D01*
X120244315Y-140680000D02*
X148500000Y-140680000D01*
X148500000Y-140680000D02*
X148500000Y-140679990D01*
X148500000Y-140679990D02*
X148580000Y-140599990D01*
D30*
%TO.N,VCC*%
X145518400Y-154044000D02*
X147920800Y-154044000D01*
X144839200Y-153364800D02*
X145518400Y-154044000D01*
X142191600Y-153364800D02*
X142756400Y-153364800D01*
X140470800Y-151644000D02*
X142191600Y-153364800D01*
X139420800Y-151644000D02*
X140470800Y-151644000D01*
X144839200Y-153364800D02*
X142756400Y-153364800D01*
X139395801Y-153268999D02*
X139420800Y-153244000D01*
X140620801Y-153268999D02*
X139395801Y-153268999D01*
X142756400Y-153364800D02*
X140716602Y-153364800D01*
X140716602Y-153364800D02*
X140620801Y-153268999D01*
X120750000Y-145750000D02*
X120750000Y-145831000D01*
X120750000Y-145831000D02*
X119045500Y-147535500D01*
%TO.N,VCCIN*%
X112073200Y-155600000D02*
X112073200Y-155034315D01*
D31*
X148970800Y-153244000D02*
X147920800Y-153244000D01*
X149408800Y-152806000D02*
X148970800Y-153244000D01*
X150986000Y-154383200D02*
X149408800Y-152806000D01*
X147430000Y-164490000D02*
X150986000Y-160934000D01*
X150986000Y-160934000D02*
X150986000Y-154383200D01*
D30*
X113727515Y-153380000D02*
X114580000Y-153380000D01*
X112073200Y-155034315D02*
X113727515Y-153380000D01*
X118843990Y-150520000D02*
X118145490Y-151218500D01*
D31*
X150365002Y-144170000D02*
X152175003Y-142359999D01*
X152175003Y-142359999D02*
X153844999Y-142359999D01*
X153844999Y-142359999D02*
X154429999Y-141774999D01*
X137524000Y-144995500D02*
X138349500Y-144170000D01*
X154429999Y-141774999D02*
X155510001Y-141774999D01*
X155510001Y-141774999D02*
X159065001Y-145329999D01*
X159065001Y-145329999D02*
X159065001Y-151211001D01*
X158006992Y-152269010D02*
X149945790Y-152269010D01*
X149945790Y-152269010D02*
X149408800Y-152806000D01*
X159065001Y-151211001D02*
X158006992Y-152269010D01*
X118220000Y-156870000D02*
X118220000Y-156870000D01*
X114410000Y-155450000D02*
X114580000Y-155280000D01*
D30*
X114410000Y-158140000D02*
X114410000Y-155450000D01*
X118918500Y-156171500D02*
X118220000Y-156870000D01*
X121634998Y-154330000D02*
X119793498Y-156171500D01*
X119793498Y-156171500D02*
X118918500Y-156171500D01*
X112073200Y-155803200D02*
X114410000Y-158140000D01*
X112073200Y-155600000D02*
X112073200Y-155803200D01*
D31*
X137524000Y-144995500D02*
X137524000Y-146401000D01*
X137524000Y-146401000D02*
X137475000Y-146450000D01*
D30*
X121634998Y-154071000D02*
X121634998Y-154330000D01*
X122220009Y-153485989D02*
X121634998Y-154071000D01*
X122220009Y-152698623D02*
X122220009Y-153485989D01*
X120041386Y-150520000D02*
X122220009Y-152698623D01*
X118843990Y-150520000D02*
X120041386Y-150520000D01*
D31*
X138349500Y-144170000D02*
X142905000Y-144170000D01*
D30*
X143620000Y-143455000D02*
X142905000Y-144170000D01*
X143620000Y-142900000D02*
X143620000Y-143455000D01*
D31*
X142905000Y-144170000D02*
X150365002Y-144170000D01*
%TO.N,Net-(D2-Pad2)*%
X159515011Y-145143599D02*
X159515011Y-154563989D01*
X155696402Y-141324990D02*
X159515011Y-145143599D01*
X136635000Y-143535000D02*
X138845010Y-141324990D01*
X138845010Y-141324990D02*
X155696402Y-141324990D01*
X159515011Y-154563989D02*
X158034500Y-156044500D01*
X158034500Y-156044500D02*
X158034500Y-156044500D01*
%TO.N,Net-(D5-Pad2)*%
X134560000Y-153120000D02*
X135810000Y-154370000D01*
X135810000Y-154370000D02*
X135810000Y-158330000D01*
X135810000Y-158330000D02*
X135810000Y-158330000D01*
X146320001Y-162440001D02*
X148019999Y-162440001D01*
X145570000Y-161690000D02*
X146320001Y-162440001D01*
X148019999Y-162440001D02*
X149820000Y-160640000D01*
X140330000Y-158330000D02*
X140830000Y-157830000D01*
X137700000Y-158330000D02*
X140330000Y-158330000D01*
%TO.N,Net-(J3-Pad3)*%
X145214999Y-149701999D02*
X145566998Y-149350000D01*
X145270000Y-150940000D02*
X145214999Y-150884999D01*
X145214999Y-150884999D02*
X145214999Y-149701999D01*
X145989801Y-149324999D02*
X145636213Y-149324999D01*
X146470800Y-147794000D02*
X146470800Y-148844000D01*
X146470800Y-148844000D02*
X145989801Y-149324999D01*
%TO.N,Net-(J3-Pad2)*%
X145670800Y-148629200D02*
X145670800Y-147794000D01*
X143683500Y-150710500D02*
X144083499Y-150310501D01*
X144083499Y-150310501D02*
X144083499Y-150216501D01*
X145670800Y-148654002D02*
X145670800Y-147794000D01*
X144083499Y-149666501D02*
X144080000Y-149663002D01*
X144083499Y-150310501D02*
X144083499Y-149666501D01*
X144080000Y-149663002D02*
X144080000Y-149260000D01*
X144080000Y-149260000D02*
X144420999Y-148919001D01*
X144420999Y-148919001D02*
X145405801Y-148919001D01*
X145405801Y-148919001D02*
X145670800Y-148654002D01*
%TO.N,Net-(J4-Pad3)*%
X147126000Y-150044000D02*
X146220000Y-150950000D01*
X147920800Y-150044000D02*
X147126000Y-150044000D01*
%TO.N,Net-(J4-Pad2)*%
X148120799Y-149443999D02*
X147920800Y-149244000D01*
X146860799Y-149443999D02*
X148120799Y-149443999D01*
X146838483Y-149466315D02*
X146860799Y-149443999D01*
X145940000Y-150050000D02*
X146523685Y-149466315D01*
X146523685Y-149466315D02*
X146838483Y-149466315D01*
%TO.N,Net-(J5-Pad4)*%
X145374798Y-145630000D02*
X145900000Y-145630000D01*
X144070800Y-146933998D02*
X145374798Y-145630000D01*
X144070800Y-147794000D02*
X144070800Y-146933998D01*
X163178210Y-161390990D02*
X161298400Y-163270800D01*
X163178210Y-149574208D02*
X163178210Y-161390990D01*
X161367001Y-147762999D02*
X163178210Y-149574208D01*
X160670999Y-147762999D02*
X161367001Y-147762999D01*
X160123399Y-148310599D02*
X160670999Y-147762999D01*
X160123399Y-157790590D02*
X160123399Y-148310599D01*
X155060000Y-154626998D02*
X158223592Y-157790590D01*
X158223592Y-157790590D02*
X160123399Y-157790590D01*
X155060000Y-153030000D02*
X155060000Y-154626998D01*
%TO.N,Net-(J5-Pad3)*%
X145715500Y-146392500D02*
X145007010Y-147100990D01*
X146327500Y-146392500D02*
X147100000Y-145620000D01*
X145715500Y-146392500D02*
X146327500Y-146392500D01*
%TO.N,Net-(R2-Pad1)*%
X115709170Y-142344999D02*
X104643999Y-142344999D01*
X104643999Y-142344999D02*
X101710000Y-145278998D01*
X101710000Y-163156500D02*
X104694501Y-166141001D01*
X117005010Y-153154990D02*
X117005010Y-143640839D01*
X116780000Y-153380000D02*
X117005010Y-153154990D01*
X117005010Y-143640839D02*
X115709170Y-142344999D01*
X101710000Y-145278998D02*
X101710000Y-163156500D01*
X104694501Y-166141001D02*
X108821499Y-166141001D01*
X108821499Y-166141001D02*
X108875000Y-166087500D01*
%TO.N,Net-(R3-Pad1)*%
X144318500Y-144868500D02*
X144318500Y-144868500D01*
X142099308Y-144905490D02*
X144262496Y-144905490D01*
X139420800Y-147583998D02*
X142099308Y-144905490D01*
X139420800Y-149244000D02*
X139420800Y-147583998D01*
%TO.N,Net-(J6-Pad5)*%
X162728201Y-161040001D02*
X162728201Y-150197201D01*
X161862401Y-161905801D02*
X162728201Y-161040001D01*
X159312171Y-161905801D02*
X161862401Y-161905801D01*
X157590000Y-161315000D02*
X158721370Y-161315000D01*
X158721370Y-161315000D02*
X159312171Y-161905801D01*
X162728201Y-150197201D02*
X161019000Y-148488000D01*
X161019000Y-148488000D02*
X161019000Y-148488000D01*
X161019000Y-148488000D02*
X161019000Y-148488000D01*
X143270800Y-149916700D02*
X143270800Y-147794000D01*
X142540500Y-150647000D02*
X143270800Y-149916700D01*
X149843000Y-144678000D02*
X151240000Y-146075000D01*
X145525000Y-144678000D02*
X149843000Y-144678000D01*
X143270800Y-147794000D02*
X143270800Y-146932200D01*
X143270800Y-146932200D02*
X145525000Y-144678000D01*
%TO.N,Net-(J6-Pad4)*%
X153195821Y-165695821D02*
X152000000Y-164500000D01*
X162391688Y-165695821D02*
X153195821Y-165695821D01*
X164878239Y-163209270D02*
X162391688Y-165695821D01*
X167250000Y-154620000D02*
X164878239Y-156991761D01*
X164878239Y-156991761D02*
X164878239Y-163209270D01*
X142360000Y-164500000D02*
X141080000Y-163220000D01*
X145500000Y-164500000D02*
X142360000Y-164500000D01*
X141080000Y-163220000D02*
X139904999Y-162044999D01*
X139904999Y-162044999D02*
X139904999Y-160115999D01*
X142176998Y-159000000D02*
X143901676Y-159000000D01*
X145670800Y-157230876D02*
X145670800Y-156294000D01*
X143901676Y-159000000D02*
X145670800Y-157230876D01*
X141926998Y-159250000D02*
X142176998Y-159000000D01*
X140770998Y-159250000D02*
X141926998Y-159250000D01*
X139904999Y-160115999D02*
X140770998Y-159250000D01*
%TO.N,Net-(J6-Pad3)*%
X151755830Y-166145831D02*
X150500000Y-164890001D01*
X162578088Y-166145831D02*
X151755830Y-166145831D01*
X165328248Y-163395671D02*
X162578088Y-166145831D01*
X167250000Y-159700000D02*
X165328248Y-161621752D01*
X165328248Y-161621752D02*
X165328248Y-163395671D01*
X144844999Y-160655001D02*
X144963478Y-160536522D01*
X144844999Y-162038001D02*
X144844999Y-160655001D01*
X145974270Y-163167272D02*
X144844999Y-162038001D01*
X146971312Y-163167272D02*
X145974270Y-163167272D01*
X141334998Y-160680000D02*
X142509999Y-159504999D01*
X141080000Y-160680000D02*
X141334998Y-160680000D01*
X144609242Y-159504999D02*
X144963478Y-159859235D01*
X144963478Y-159859235D02*
X144963478Y-160536522D01*
X142509999Y-159504999D02*
X144609242Y-159504999D01*
X144963478Y-160036522D02*
X147920800Y-157079200D01*
X144963478Y-160536522D02*
X144963478Y-160036522D01*
X147920800Y-157079200D02*
X147920800Y-154844000D01*
%TO.N,Net-(J6-Pad1)*%
X146470800Y-156294000D02*
X146470800Y-157503880D01*
X146470800Y-157503880D02*
X145072249Y-158902431D01*
D30*
%TO.N,Net-(J1-Pad1)*%
X117712000Y-158203500D02*
X116780000Y-157271500D01*
X116780000Y-157271500D02*
X116780000Y-155280000D01*
X114854500Y-159473500D02*
X114288815Y-159473500D01*
X114288815Y-159473500D02*
X113949399Y-159812916D01*
D31*
X114175000Y-160038517D02*
X114175000Y-162590000D01*
X113949399Y-159812916D02*
X114175000Y-160038517D01*
%TO.N,Net-(J7-Pad5)*%
X167229002Y-164000000D02*
X166126410Y-164000000D01*
X168425001Y-162804001D02*
X167229002Y-164000000D01*
X168425001Y-159135999D02*
X168425001Y-162804001D01*
X167250000Y-157160000D02*
X167250000Y-157960998D01*
X167250000Y-157960998D02*
X168425001Y-159135999D01*
X166126410Y-164000000D02*
X162805569Y-167320841D01*
X162805569Y-167320841D02*
X146000000Y-167320841D01*
X143964800Y-158250000D02*
X143250000Y-158250000D01*
X144870800Y-156294000D02*
X144870800Y-157344000D01*
X144870800Y-157344000D02*
X143964800Y-158250000D01*
X148652346Y-159902346D02*
X148750000Y-160000000D01*
X146152346Y-159902346D02*
X148652346Y-159902346D01*
%TO.N,Net-(J7-Pad3)*%
X155990011Y-163240011D02*
X154000000Y-161250000D01*
X164428230Y-154901770D02*
X164428230Y-163022869D01*
X167250000Y-152080000D02*
X164428230Y-154901770D01*
X164428230Y-163022869D02*
X162205288Y-165245811D01*
X162205288Y-165245811D02*
X159960914Y-165245811D01*
X159960914Y-165245811D02*
X157955115Y-163240011D01*
X157955115Y-163240011D02*
X155990011Y-163240011D01*
X144070800Y-156294000D02*
X144070800Y-154929200D01*
X144070800Y-154929200D02*
X144500000Y-154500000D01*
X148736990Y-159000000D02*
X148736990Y-156263010D01*
X148736990Y-156263010D02*
X149000000Y-156000000D01*
%TO.N,Net-(J7-Pad7)*%
X135500000Y-161919002D02*
X135500000Y-160000000D01*
X140176839Y-166595841D02*
X135500000Y-161919002D01*
X167250000Y-162240000D02*
X162894159Y-166595841D01*
X162894159Y-166595841D02*
X140176839Y-166595841D01*
X142470800Y-157262202D02*
X142470800Y-156294000D01*
X140933011Y-158799991D02*
X142470800Y-157262202D01*
X138282805Y-158799991D02*
X140933011Y-158799991D01*
X137754267Y-159328529D02*
X138282805Y-158799991D01*
%TO.N,Net-(J7-Pad1)*%
X127660000Y-142500000D02*
X130910000Y-145750000D01*
X120750000Y-142500000D02*
X127660000Y-142500000D01*
X119354999Y-143895001D02*
X120750000Y-142500000D01*
X117971999Y-143895001D02*
X119354999Y-143895001D01*
X117594999Y-143518001D02*
X117971999Y-143895001D01*
X120412916Y-139874989D02*
X117594999Y-142692906D01*
X117594999Y-142692906D02*
X117594999Y-143518001D01*
X161309991Y-139874989D02*
X120412916Y-139874989D01*
X167250000Y-145814998D02*
X161309991Y-139874989D01*
X167250000Y-147000000D02*
X167250000Y-145814998D01*
%TD*%
D32*
%TO.N,GND*%
G36*
X169575271Y-136263962D02*
G01*
X169263962Y-136575271D01*
X169019369Y-136941331D01*
X168850890Y-137348075D01*
X168765000Y-137779872D01*
X168765000Y-138220128D01*
X168850890Y-138651925D01*
X169019369Y-139058669D01*
X169263962Y-139424729D01*
X169575271Y-139736038D01*
X169941331Y-139980631D01*
X170348075Y-140149110D01*
X170779872Y-140235000D01*
X171220128Y-140235000D01*
X171651925Y-140149110D01*
X172058669Y-139980631D01*
X172424729Y-139736038D01*
X172736038Y-139424729D01*
X172980631Y-139058669D01*
X173065000Y-138854984D01*
X173065001Y-167693448D01*
X172986038Y-167575271D01*
X172674729Y-167263962D01*
X172308669Y-167019369D01*
X171901925Y-166850890D01*
X171470128Y-166765000D01*
X171029872Y-166765000D01*
X170598075Y-166850890D01*
X170191331Y-167019369D01*
X169825271Y-167263962D01*
X169513962Y-167575271D01*
X169269369Y-167941331D01*
X169100890Y-168348075D01*
X169015000Y-168779872D01*
X169015000Y-169220128D01*
X169100890Y-169651925D01*
X169269369Y-170058669D01*
X169513962Y-170424729D01*
X169825271Y-170736038D01*
X169943446Y-170815000D01*
X97556554Y-170815000D01*
X97674729Y-170736038D01*
X97986038Y-170424729D01*
X98230631Y-170058669D01*
X98399110Y-169651925D01*
X98485000Y-169220128D01*
X98485000Y-168779872D01*
X98399110Y-168348075D01*
X98230631Y-167941331D01*
X97986038Y-167575271D01*
X97674729Y-167263962D01*
X97308669Y-167019369D01*
X96901925Y-166850890D01*
X96470128Y-166765000D01*
X96029872Y-166765000D01*
X95598075Y-166850890D01*
X95191331Y-167019369D01*
X94825271Y-167263962D01*
X94513962Y-167575271D01*
X94435000Y-167693446D01*
X94435000Y-145278998D01*
X100946324Y-145278998D01*
X100950000Y-145316320D01*
X100950001Y-163119167D01*
X100946324Y-163156500D01*
X100950001Y-163193833D01*
X100960998Y-163305486D01*
X100973591Y-163347000D01*
X101004454Y-163448746D01*
X101075026Y-163580776D01*
X101144148Y-163665000D01*
X101170000Y-163696501D01*
X101198998Y-163720299D01*
X104130702Y-166652004D01*
X104154500Y-166681002D01*
X104270225Y-166775975D01*
X104402254Y-166846547D01*
X104545515Y-166890004D01*
X104657168Y-166901001D01*
X104657176Y-166901001D01*
X104694501Y-166904677D01*
X104731826Y-166901001D01*
X108229540Y-166901001D01*
X108384744Y-167004705D01*
X108573102Y-167082726D01*
X108773061Y-167122500D01*
X108976939Y-167122500D01*
X109176898Y-167082726D01*
X109365256Y-167004705D01*
X109534774Y-166891437D01*
X109678937Y-166747274D01*
X109792205Y-166577756D01*
X109870226Y-166389398D01*
X109907899Y-166200000D01*
X110739428Y-166200000D01*
X110751688Y-166324482D01*
X110787998Y-166444180D01*
X110846963Y-166554494D01*
X110926315Y-166651185D01*
X111023006Y-166730537D01*
X111133320Y-166789502D01*
X111253018Y-166825812D01*
X111377500Y-166838072D01*
X112279250Y-166835000D01*
X112438000Y-166676250D01*
X112438000Y-165377000D01*
X112692000Y-165377000D01*
X112692000Y-166676250D01*
X112850750Y-166835000D01*
X113752500Y-166838072D01*
X113876982Y-166825812D01*
X113900000Y-166818830D01*
X113923018Y-166825812D01*
X114047500Y-166838072D01*
X114349250Y-166835000D01*
X114508000Y-166676250D01*
X114508000Y-165377000D01*
X114762000Y-165377000D01*
X114762000Y-166676250D01*
X114920750Y-166835000D01*
X115222500Y-166838072D01*
X115346982Y-166825812D01*
X115466680Y-166789502D01*
X115475000Y-166785055D01*
X115483320Y-166789502D01*
X115603018Y-166825812D01*
X115727500Y-166838072D01*
X116029250Y-166835000D01*
X116188000Y-166676250D01*
X116188000Y-165377000D01*
X116442000Y-165377000D01*
X116442000Y-166676250D01*
X116600750Y-166835000D01*
X116902500Y-166838072D01*
X117026982Y-166825812D01*
X117050000Y-166818830D01*
X117073018Y-166825812D01*
X117197500Y-166838072D01*
X118099250Y-166835000D01*
X118258000Y-166676250D01*
X118258000Y-165377000D01*
X118512000Y-165377000D01*
X118512000Y-166676250D01*
X118670750Y-166835000D01*
X119572500Y-166838072D01*
X119696982Y-166825812D01*
X119816680Y-166789502D01*
X119926994Y-166730537D01*
X120023685Y-166651185D01*
X120103037Y-166554494D01*
X120162002Y-166444180D01*
X120198312Y-166324482D01*
X120210572Y-166200000D01*
X120207500Y-165535750D01*
X120048750Y-165377000D01*
X118512000Y-165377000D01*
X118258000Y-165377000D01*
X116442000Y-165377000D01*
X116188000Y-165377000D01*
X114762000Y-165377000D01*
X114508000Y-165377000D01*
X112692000Y-165377000D01*
X112438000Y-165377000D01*
X110901250Y-165377000D01*
X110742500Y-165535750D01*
X110739428Y-166200000D01*
X109907899Y-166200000D01*
X109910000Y-166189439D01*
X109910000Y-165985561D01*
X109870226Y-165785602D01*
X109792205Y-165597244D01*
X109678937Y-165427726D01*
X109534774Y-165283563D01*
X109365256Y-165170295D01*
X109176898Y-165092274D01*
X108976939Y-165052500D01*
X108773061Y-165052500D01*
X108573102Y-165092274D01*
X108384744Y-165170295D01*
X108215226Y-165283563D01*
X108117788Y-165381001D01*
X105009303Y-165381001D01*
X102470000Y-162841699D01*
X102470000Y-161989500D01*
X103381928Y-161989500D01*
X103394188Y-162113982D01*
X103430498Y-162233680D01*
X103489463Y-162343994D01*
X103568815Y-162440685D01*
X103665506Y-162520037D01*
X103775820Y-162579002D01*
X103895518Y-162615312D01*
X104020000Y-162627572D01*
X105234250Y-162624500D01*
X105393000Y-162465750D01*
X105393000Y-160616500D01*
X105647000Y-160616500D01*
X105647000Y-162465750D01*
X105805750Y-162624500D01*
X107020000Y-162627572D01*
X107144482Y-162615312D01*
X107264180Y-162579002D01*
X107374494Y-162520037D01*
X107471185Y-162440685D01*
X107550537Y-162343994D01*
X107609502Y-162233680D01*
X107645812Y-162113982D01*
X107658072Y-161989500D01*
X107657846Y-161900000D01*
X111636928Y-161900000D01*
X111640000Y-162664250D01*
X111798750Y-162823000D01*
X112885500Y-162823000D01*
X112885500Y-161423750D01*
X112726750Y-161265000D01*
X112275000Y-161261928D01*
X112150518Y-161274188D01*
X112030820Y-161310498D01*
X111920506Y-161369463D01*
X111823815Y-161448815D01*
X111744463Y-161545506D01*
X111685498Y-161655820D01*
X111649188Y-161775518D01*
X111636928Y-161900000D01*
X107657846Y-161900000D01*
X107655000Y-160775250D01*
X107496250Y-160616500D01*
X105647000Y-160616500D01*
X105393000Y-160616500D01*
X103543750Y-160616500D01*
X103385000Y-160775250D01*
X103381928Y-161989500D01*
X102470000Y-161989500D01*
X102470000Y-158989500D01*
X103381928Y-158989500D01*
X103385000Y-160203750D01*
X103543750Y-160362500D01*
X105393000Y-160362500D01*
X105393000Y-158513250D01*
X105647000Y-158513250D01*
X105647000Y-160362500D01*
X107496250Y-160362500D01*
X107655000Y-160203750D01*
X107658072Y-158989500D01*
X107645812Y-158865018D01*
X107609502Y-158745320D01*
X107550537Y-158635006D01*
X107471185Y-158538315D01*
X107374494Y-158458963D01*
X107264180Y-158399998D01*
X107144482Y-158363688D01*
X107020000Y-158351428D01*
X105805750Y-158354500D01*
X105647000Y-158513250D01*
X105393000Y-158513250D01*
X105234250Y-158354500D01*
X104020000Y-158351428D01*
X103895518Y-158363688D01*
X103775820Y-158399998D01*
X103665506Y-158458963D01*
X103568815Y-158538315D01*
X103489463Y-158635006D01*
X103430498Y-158745320D01*
X103394188Y-158865018D01*
X103381928Y-158989500D01*
X102470000Y-158989500D01*
X102470000Y-155199221D01*
X103385000Y-155199221D01*
X103385000Y-155619779D01*
X103467047Y-156032256D01*
X103627988Y-156420802D01*
X103861637Y-156770483D01*
X104159017Y-157067863D01*
X104508698Y-157301512D01*
X104897244Y-157462453D01*
X105309721Y-157544500D01*
X105730279Y-157544500D01*
X106142756Y-157462453D01*
X106531302Y-157301512D01*
X106880983Y-157067863D01*
X107178363Y-156770483D01*
X107412012Y-156420802D01*
X107572953Y-156032256D01*
X107655000Y-155619779D01*
X107655000Y-155199221D01*
X107572953Y-154786744D01*
X107412012Y-154398198D01*
X107178363Y-154048517D01*
X106880983Y-153751137D01*
X106531302Y-153517488D01*
X106142756Y-153356547D01*
X105730279Y-153274500D01*
X105309721Y-153274500D01*
X104897244Y-153356547D01*
X104508698Y-153517488D01*
X104159017Y-153751137D01*
X103861637Y-154048517D01*
X103627988Y-154398198D01*
X103467047Y-154786744D01*
X103385000Y-155199221D01*
X102470000Y-155199221D01*
X102470000Y-147750000D01*
X103381928Y-147750000D01*
X103381928Y-150750000D01*
X103394188Y-150874482D01*
X103430498Y-150994180D01*
X103489463Y-151104494D01*
X103568815Y-151201185D01*
X103665506Y-151280537D01*
X103775820Y-151339502D01*
X103895518Y-151375812D01*
X104020000Y-151388072D01*
X107020000Y-151388072D01*
X107144482Y-151375812D01*
X107264180Y-151339502D01*
X107374494Y-151280537D01*
X107471185Y-151201185D01*
X107550537Y-151104494D01*
X107609502Y-150994180D01*
X107645812Y-150874482D01*
X107658072Y-150750000D01*
X107658072Y-147750000D01*
X107645812Y-147625518D01*
X107609502Y-147505820D01*
X107550537Y-147395506D01*
X107471185Y-147298815D01*
X107374494Y-147219463D01*
X107264180Y-147160498D01*
X107144482Y-147124188D01*
X107020000Y-147111928D01*
X104020000Y-147111928D01*
X103895518Y-147124188D01*
X103775820Y-147160498D01*
X103665506Y-147219463D01*
X103568815Y-147298815D01*
X103489463Y-147395506D01*
X103430498Y-147505820D01*
X103394188Y-147625518D01*
X103381928Y-147750000D01*
X102470000Y-147750000D01*
X102470000Y-145661653D01*
X104207952Y-145661653D01*
X104363962Y-145977214D01*
X104738745Y-146168020D01*
X105143551Y-146282044D01*
X105562824Y-146314902D01*
X105980451Y-146265334D01*
X106380383Y-146135243D01*
X106676038Y-145977214D01*
X106832048Y-145661653D01*
X105520000Y-144349605D01*
X104207952Y-145661653D01*
X102470000Y-145661653D01*
X102470000Y-145593799D01*
X103426797Y-144637002D01*
X103554757Y-145030383D01*
X103712786Y-145326038D01*
X104028347Y-145482048D01*
X105340395Y-144170000D01*
X105326253Y-144155858D01*
X105505858Y-143976253D01*
X105520000Y-143990395D01*
X105534143Y-143976253D01*
X105713748Y-144155858D01*
X105699605Y-144170000D01*
X107011653Y-145482048D01*
X107327214Y-145326038D01*
X107518020Y-144951255D01*
X107632044Y-144546449D01*
X107664902Y-144127176D01*
X107615334Y-143709549D01*
X107485243Y-143309617D01*
X107375874Y-143104999D01*
X114452865Y-143104999D01*
X114306155Y-143283765D01*
X114158745Y-143559551D01*
X114067970Y-143858796D01*
X114037319Y-144170000D01*
X114067970Y-144481204D01*
X114158745Y-144780449D01*
X114306155Y-145056235D01*
X114504537Y-145297963D01*
X114683899Y-145445163D01*
X114498685Y-145600563D01*
X114304031Y-145843077D01*
X114160429Y-146118906D01*
X114089437Y-146337020D01*
X114209406Y-146583000D01*
X115553000Y-146583000D01*
X115553000Y-146563000D01*
X115807000Y-146563000D01*
X115807000Y-146583000D01*
X115827000Y-146583000D01*
X115827000Y-146837000D01*
X115807000Y-146837000D01*
X115807000Y-146857000D01*
X115553000Y-146857000D01*
X115553000Y-146837000D01*
X114209406Y-146837000D01*
X114089437Y-147082980D01*
X114160429Y-147301094D01*
X114304031Y-147576923D01*
X114417219Y-147717941D01*
X114325506Y-147766963D01*
X114228815Y-147846315D01*
X114149463Y-147943006D01*
X114090498Y-148053320D01*
X114054188Y-148173018D01*
X114041928Y-148297500D01*
X114041928Y-150202500D01*
X114054188Y-150326982D01*
X114090498Y-150446680D01*
X114149463Y-150556994D01*
X114228815Y-150653685D01*
X114325506Y-150733037D01*
X114435820Y-150792002D01*
X114555518Y-150828312D01*
X114680000Y-150840572D01*
X116245010Y-150840572D01*
X116245010Y-152417419D01*
X116125518Y-152429188D01*
X116005820Y-152465498D01*
X115895506Y-152524463D01*
X115798815Y-152603815D01*
X115719463Y-152700506D01*
X115680000Y-152774335D01*
X115640537Y-152700506D01*
X115561185Y-152603815D01*
X115464494Y-152524463D01*
X115354180Y-152465498D01*
X115234482Y-152429188D01*
X115110000Y-152416928D01*
X114050000Y-152416928D01*
X113925518Y-152429188D01*
X113873393Y-152445000D01*
X113773450Y-152445000D01*
X113727515Y-152440476D01*
X113544223Y-152458528D01*
X113367974Y-152511993D01*
X113316056Y-152539744D01*
X113205543Y-152598814D01*
X113063171Y-152715656D01*
X113033885Y-152751341D01*
X111444536Y-154340690D01*
X111408857Y-154369971D01*
X111292015Y-154512343D01*
X111205193Y-154674775D01*
X111151729Y-154851023D01*
X111151729Y-154851024D01*
X111133676Y-155034315D01*
X111138200Y-155080247D01*
X111138200Y-155152705D01*
X111077974Y-155298102D01*
X111038200Y-155498061D01*
X111038200Y-155701939D01*
X111077974Y-155901898D01*
X111155995Y-156090256D01*
X111208255Y-156168470D01*
X111292014Y-156325172D01*
X111408856Y-156467544D01*
X111444540Y-156496829D01*
X113432569Y-158484859D01*
X113492795Y-158630256D01*
X113606063Y-158799774D01*
X113620402Y-158814113D01*
X113595181Y-158844846D01*
X113255776Y-159184250D01*
X113168214Y-159290945D01*
X113081393Y-159453376D01*
X113027928Y-159629625D01*
X113009875Y-159812916D01*
X113027928Y-159996207D01*
X113081393Y-160172456D01*
X113168214Y-160334887D01*
X113285056Y-160477259D01*
X113415000Y-160583902D01*
X113415000Y-161264206D01*
X113298250Y-161265000D01*
X113139500Y-161423750D01*
X113139500Y-162823000D01*
X113159500Y-162823000D01*
X113159500Y-163077000D01*
X113139500Y-163077000D01*
X113139500Y-163097000D01*
X112885500Y-163097000D01*
X112885500Y-163077000D01*
X111798750Y-163077000D01*
X111640000Y-163235750D01*
X111638283Y-163662816D01*
X111377500Y-163661928D01*
X111253018Y-163674188D01*
X111133320Y-163710498D01*
X111023006Y-163769463D01*
X110926315Y-163848815D01*
X110846963Y-163945506D01*
X110787998Y-164055820D01*
X110751688Y-164175518D01*
X110739428Y-164300000D01*
X110742500Y-164964250D01*
X110901250Y-165123000D01*
X112438000Y-165123000D01*
X112438000Y-165103000D01*
X112692000Y-165103000D01*
X112692000Y-165123000D01*
X114508000Y-165123000D01*
X114508000Y-165103000D01*
X114762000Y-165103000D01*
X114762000Y-165123000D01*
X116188000Y-165123000D01*
X116188000Y-165103000D01*
X116442000Y-165103000D01*
X116442000Y-165123000D01*
X118258000Y-165123000D01*
X118258000Y-165103000D01*
X118512000Y-165103000D01*
X118512000Y-165123000D01*
X120048750Y-165123000D01*
X120207500Y-164964250D01*
X120210346Y-164348665D01*
X121865000Y-164348665D01*
X121865000Y-164631335D01*
X121920147Y-164908574D01*
X122028320Y-165169727D01*
X122185363Y-165404759D01*
X122385241Y-165604637D01*
X122620273Y-165761680D01*
X122881426Y-165869853D01*
X123158665Y-165925000D01*
X123441335Y-165925000D01*
X123718574Y-165869853D01*
X123979727Y-165761680D01*
X124214759Y-165604637D01*
X124414637Y-165404759D01*
X124571680Y-165169727D01*
X124679853Y-164908574D01*
X124735000Y-164631335D01*
X124735000Y-164348665D01*
X124679853Y-164071426D01*
X124571680Y-163810273D01*
X124414637Y-163575241D01*
X124214759Y-163375363D01*
X123979727Y-163218320D01*
X123718574Y-163110147D01*
X123441335Y-163055000D01*
X123158665Y-163055000D01*
X122881426Y-163110147D01*
X122620273Y-163218320D01*
X122385241Y-163375363D01*
X122185363Y-163575241D01*
X122028320Y-163810273D01*
X121920147Y-164071426D01*
X121865000Y-164348665D01*
X120210346Y-164348665D01*
X120210572Y-164300000D01*
X120198312Y-164175518D01*
X120162002Y-164055820D01*
X120103037Y-163945506D01*
X120023685Y-163848815D01*
X119926994Y-163769463D01*
X119816680Y-163710498D01*
X119696982Y-163674188D01*
X119572500Y-163661928D01*
X119311717Y-163662816D01*
X119310000Y-163235750D01*
X119151250Y-163077000D01*
X118064500Y-163077000D01*
X118064500Y-163097000D01*
X117810500Y-163097000D01*
X117810500Y-163077000D01*
X117790500Y-163077000D01*
X117790500Y-162823000D01*
X117810500Y-162823000D01*
X117810500Y-161423750D01*
X118064500Y-161423750D01*
X118064500Y-162823000D01*
X119151250Y-162823000D01*
X119310000Y-162664250D01*
X119313072Y-161900000D01*
X119300812Y-161775518D01*
X119264502Y-161655820D01*
X119205537Y-161545506D01*
X119126185Y-161448815D01*
X119029494Y-161369463D01*
X118919180Y-161310498D01*
X118799482Y-161274188D01*
X118675000Y-161261928D01*
X118223250Y-161265000D01*
X118064500Y-161423750D01*
X117810500Y-161423750D01*
X117651750Y-161265000D01*
X117200000Y-161261928D01*
X117096666Y-161272105D01*
X117031750Y-161265000D01*
X116999503Y-161297247D01*
X116955820Y-161310498D01*
X116845506Y-161369463D01*
X116775000Y-161427326D01*
X116704494Y-161369463D01*
X116594180Y-161310498D01*
X116550497Y-161297247D01*
X116518250Y-161265000D01*
X116453334Y-161272105D01*
X116350000Y-161261928D01*
X115900000Y-161261928D01*
X115800000Y-161271777D01*
X115700000Y-161261928D01*
X115250000Y-161261928D01*
X115150000Y-161271777D01*
X115050000Y-161261928D01*
X114935000Y-161261928D01*
X114935000Y-160508500D01*
X114956439Y-160508500D01*
X115156398Y-160468726D01*
X115344756Y-160390705D01*
X115514274Y-160277437D01*
X115658437Y-160133274D01*
X115771705Y-159963756D01*
X115849726Y-159775398D01*
X115889500Y-159575439D01*
X115889500Y-159371561D01*
X115849726Y-159171602D01*
X115771705Y-158983244D01*
X115658437Y-158813726D01*
X115514274Y-158669563D01*
X115355004Y-158563143D01*
X115405226Y-158441898D01*
X115445000Y-158241939D01*
X115445000Y-158038061D01*
X115405226Y-157838102D01*
X115345000Y-157692705D01*
X115345000Y-156197287D01*
X115354180Y-156194502D01*
X115464494Y-156135537D01*
X115561185Y-156056185D01*
X115640537Y-155959494D01*
X115680000Y-155885665D01*
X115719463Y-155959494D01*
X115798815Y-156056185D01*
X115845001Y-156094088D01*
X115845000Y-157225568D01*
X115840476Y-157271500D01*
X115854393Y-157412795D01*
X115858529Y-157454791D01*
X115911993Y-157631039D01*
X115998814Y-157793471D01*
X116115656Y-157935844D01*
X116151341Y-157965130D01*
X116734569Y-158548359D01*
X116794795Y-158693756D01*
X116908063Y-158863274D01*
X117052226Y-159007437D01*
X117221744Y-159120705D01*
X117410102Y-159198726D01*
X117610061Y-159238500D01*
X117813939Y-159238500D01*
X118013898Y-159198726D01*
X118202256Y-159120705D01*
X118371774Y-159007437D01*
X118515937Y-158863274D01*
X118629205Y-158693756D01*
X118707226Y-158505398D01*
X118747000Y-158305439D01*
X118747000Y-158101561D01*
X118707226Y-157901602D01*
X118667224Y-157805030D01*
X118710256Y-157787205D01*
X118879774Y-157673937D01*
X119023937Y-157529774D01*
X119137205Y-157360256D01*
X119197431Y-157214858D01*
X119305790Y-157106500D01*
X119747566Y-157106500D01*
X119793498Y-157111024D01*
X119839430Y-157106500D01*
X119976790Y-157092971D01*
X120153038Y-157039507D01*
X120315470Y-156952686D01*
X120457842Y-156835844D01*
X120487128Y-156800159D01*
X120837287Y-156450000D01*
X126891928Y-156450000D01*
X126904188Y-156574482D01*
X126940498Y-156694180D01*
X126999463Y-156804494D01*
X127078815Y-156901185D01*
X127175506Y-156980537D01*
X127285820Y-157039502D01*
X127358380Y-157061513D01*
X127226525Y-157193368D01*
X127064010Y-157436589D01*
X126952068Y-157706842D01*
X126895000Y-157993740D01*
X126895000Y-158286260D01*
X126952068Y-158573158D01*
X127064010Y-158843411D01*
X127226525Y-159086632D01*
X127433368Y-159293475D01*
X127607760Y-159410000D01*
X127433368Y-159526525D01*
X127226525Y-159733368D01*
X127064010Y-159976589D01*
X126952068Y-160246842D01*
X126895000Y-160533740D01*
X126895000Y-160826260D01*
X126952068Y-161113158D01*
X127064010Y-161383411D01*
X127226525Y-161626632D01*
X127433368Y-161833475D01*
X127607760Y-161950000D01*
X127433368Y-162066525D01*
X127226525Y-162273368D01*
X127064010Y-162516589D01*
X126952068Y-162786842D01*
X126895000Y-163073740D01*
X126895000Y-163366260D01*
X126952068Y-163653158D01*
X127064010Y-163923411D01*
X127226525Y-164166632D01*
X127433368Y-164373475D01*
X127676589Y-164535990D01*
X127946842Y-164647932D01*
X128233740Y-164705000D01*
X128526260Y-164705000D01*
X128813158Y-164647932D01*
X129083411Y-164535990D01*
X129326632Y-164373475D01*
X129533475Y-164166632D01*
X129695990Y-163923411D01*
X129807932Y-163653158D01*
X129865000Y-163366260D01*
X129865000Y-163073740D01*
X129807932Y-162786842D01*
X129695990Y-162516589D01*
X129533475Y-162273368D01*
X129326632Y-162066525D01*
X129152240Y-161950000D01*
X129326632Y-161833475D01*
X129533475Y-161626632D01*
X129695990Y-161383411D01*
X129807932Y-161113158D01*
X129865000Y-160826260D01*
X129865000Y-160533740D01*
X129807932Y-160246842D01*
X129695990Y-159976589D01*
X129533475Y-159733368D01*
X129326632Y-159526525D01*
X129152240Y-159410000D01*
X129326632Y-159293475D01*
X129533475Y-159086632D01*
X129695990Y-158843411D01*
X129807932Y-158573158D01*
X129865000Y-158286260D01*
X129865000Y-157993740D01*
X129807932Y-157706842D01*
X129695990Y-157436589D01*
X129533475Y-157193368D01*
X129401620Y-157061513D01*
X129474180Y-157039502D01*
X129584494Y-156980537D01*
X129681185Y-156901185D01*
X129760537Y-156804494D01*
X129819502Y-156694180D01*
X129855812Y-156574482D01*
X129868072Y-156450000D01*
X129865000Y-155885750D01*
X129706250Y-155727000D01*
X128507000Y-155727000D01*
X128507000Y-155747000D01*
X128253000Y-155747000D01*
X128253000Y-155727000D01*
X127053750Y-155727000D01*
X126895000Y-155885750D01*
X126891928Y-156450000D01*
X120837287Y-156450000D01*
X121979857Y-155307431D01*
X122125254Y-155247205D01*
X122174230Y-155214481D01*
X122336586Y-155393519D01*
X122562580Y-155561037D01*
X122816913Y-155681246D01*
X122950961Y-155721904D01*
X123173000Y-155599915D01*
X123173000Y-154457000D01*
X123427000Y-154457000D01*
X123427000Y-155599915D01*
X123649039Y-155721904D01*
X123783087Y-155681246D01*
X124037420Y-155561037D01*
X124263414Y-155393519D01*
X124452385Y-155185131D01*
X124597070Y-154943881D01*
X124666498Y-154750000D01*
X126891928Y-154750000D01*
X126895000Y-155314250D01*
X127053750Y-155473000D01*
X128253000Y-155473000D01*
X128253000Y-154273750D01*
X128507000Y-154273750D01*
X128507000Y-155473000D01*
X129706250Y-155473000D01*
X129865000Y-155314250D01*
X129868072Y-154750000D01*
X131971928Y-154750000D01*
X131975000Y-155314250D01*
X132133750Y-155473000D01*
X133333000Y-155473000D01*
X133333000Y-154273750D01*
X133174250Y-154115000D01*
X132610000Y-154111928D01*
X132485518Y-154124188D01*
X132365820Y-154160498D01*
X132255506Y-154219463D01*
X132158815Y-154298815D01*
X132079463Y-154395506D01*
X132020498Y-154505820D01*
X131984188Y-154625518D01*
X131971928Y-154750000D01*
X129868072Y-154750000D01*
X129855812Y-154625518D01*
X129819502Y-154505820D01*
X129760537Y-154395506D01*
X129681185Y-154298815D01*
X129584494Y-154219463D01*
X129474180Y-154160498D01*
X129354482Y-154124188D01*
X129230000Y-154111928D01*
X128665750Y-154115000D01*
X128507000Y-154273750D01*
X128253000Y-154273750D01*
X128094250Y-154115000D01*
X127530000Y-154111928D01*
X127405518Y-154124188D01*
X127285820Y-154160498D01*
X127175506Y-154219463D01*
X127078815Y-154298815D01*
X126999463Y-154395506D01*
X126940498Y-154505820D01*
X126904188Y-154625518D01*
X126891928Y-154750000D01*
X124666498Y-154750000D01*
X124691909Y-154679040D01*
X124570624Y-154457000D01*
X123427000Y-154457000D01*
X123173000Y-154457000D01*
X123153000Y-154457000D01*
X123153000Y-154203000D01*
X123173000Y-154203000D01*
X123173000Y-153060085D01*
X123427000Y-153060085D01*
X123427000Y-154203000D01*
X124570624Y-154203000D01*
X124691909Y-153980960D01*
X124597070Y-153716119D01*
X124452385Y-153474869D01*
X124263414Y-153266481D01*
X124037420Y-153098963D01*
X123783087Y-152978754D01*
X123649039Y-152938096D01*
X123427000Y-153060085D01*
X123173000Y-153060085D01*
X123155009Y-153050201D01*
X123155009Y-152744554D01*
X123159533Y-152698622D01*
X123141480Y-152515330D01*
X123120145Y-152445000D01*
X123088016Y-152339083D01*
X123001195Y-152176651D01*
X122884353Y-152034279D01*
X122848675Y-152004999D01*
X122263676Y-151420000D01*
X132556928Y-151420000D01*
X132569188Y-151544482D01*
X132605498Y-151664180D01*
X132664463Y-151774494D01*
X132743815Y-151871185D01*
X132840506Y-151950537D01*
X132950820Y-152009502D01*
X133070518Y-152045812D01*
X133195000Y-152058072D01*
X133809250Y-152055000D01*
X133968000Y-151896250D01*
X133968000Y-150647000D01*
X132718750Y-150647000D01*
X132560000Y-150805750D01*
X132556928Y-151420000D01*
X122263676Y-151420000D01*
X120735016Y-149891341D01*
X120705730Y-149855656D01*
X120563358Y-149738814D01*
X120400926Y-149651993D01*
X120295459Y-149620000D01*
X132556928Y-149620000D01*
X132560000Y-150234250D01*
X132718750Y-150393000D01*
X133968000Y-150393000D01*
X133968000Y-149143750D01*
X133809250Y-148985000D01*
X133195000Y-148981928D01*
X133070518Y-148994188D01*
X132950820Y-149030498D01*
X132840506Y-149089463D01*
X132743815Y-149168815D01*
X132664463Y-149265506D01*
X132605498Y-149375820D01*
X132569188Y-149495518D01*
X132556928Y-149620000D01*
X120295459Y-149620000D01*
X120224678Y-149598529D01*
X120087318Y-149585000D01*
X120041386Y-149580476D01*
X119995454Y-149585000D01*
X118889921Y-149585000D01*
X118843989Y-149580476D01*
X118660697Y-149598529D01*
X118639514Y-149604955D01*
X118484450Y-149651993D01*
X118322018Y-149738814D01*
X118179646Y-149855656D01*
X118150364Y-149891336D01*
X117800632Y-150241069D01*
X117765010Y-150255824D01*
X117765010Y-147433561D01*
X118010500Y-147433561D01*
X118010500Y-147637439D01*
X118050274Y-147837398D01*
X118128295Y-148025756D01*
X118241563Y-148195274D01*
X118385726Y-148339437D01*
X118555244Y-148452705D01*
X118743602Y-148530726D01*
X118943561Y-148570500D01*
X119147439Y-148570500D01*
X119347398Y-148530726D01*
X119535756Y-148452705D01*
X119705274Y-148339437D01*
X119849437Y-148195274D01*
X119962705Y-148025756D01*
X120022931Y-147880358D01*
X120718290Y-147185000D01*
X120891335Y-147185000D01*
X121168574Y-147129853D01*
X121429727Y-147021680D01*
X121664759Y-146864637D01*
X121864637Y-146664759D01*
X122021680Y-146429727D01*
X122129853Y-146168574D01*
X122185000Y-145891335D01*
X122185000Y-145608665D01*
X122129853Y-145331426D01*
X122021680Y-145070273D01*
X121864637Y-144835241D01*
X121664759Y-144635363D01*
X121429727Y-144478320D01*
X121168574Y-144370147D01*
X120891335Y-144315000D01*
X120608665Y-144315000D01*
X120331426Y-144370147D01*
X120070273Y-144478320D01*
X119835241Y-144635363D01*
X119635363Y-144835241D01*
X119478320Y-145070273D01*
X119370147Y-145331426D01*
X119315000Y-145608665D01*
X119315000Y-145891335D01*
X119323690Y-145935021D01*
X118700642Y-146558069D01*
X118555244Y-146618295D01*
X118385726Y-146731563D01*
X118241563Y-146875726D01*
X118128295Y-147045244D01*
X118050274Y-147233602D01*
X118010500Y-147433561D01*
X117765010Y-147433561D01*
X117765010Y-144626409D01*
X117823013Y-144644004D01*
X117971999Y-144658678D01*
X118009332Y-144655001D01*
X119317677Y-144655001D01*
X119354999Y-144658677D01*
X119392321Y-144655001D01*
X119392332Y-144655001D01*
X119503985Y-144644004D01*
X119647246Y-144600547D01*
X119779275Y-144529975D01*
X119895000Y-144435002D01*
X119918803Y-144405998D01*
X120426114Y-143898688D01*
X120608665Y-143935000D01*
X120891335Y-143935000D01*
X121168574Y-143879853D01*
X121429727Y-143771680D01*
X121664759Y-143614637D01*
X121864637Y-143414759D01*
X121968043Y-143260000D01*
X127345199Y-143260000D01*
X129511312Y-145426114D01*
X129475000Y-145608665D01*
X129475000Y-145891335D01*
X129530147Y-146168574D01*
X129638320Y-146429727D01*
X129795363Y-146664759D01*
X129995241Y-146864637D01*
X130230273Y-147021680D01*
X130491426Y-147129853D01*
X130768665Y-147185000D01*
X131051335Y-147185000D01*
X131328574Y-147129853D01*
X131589727Y-147021680D01*
X131824759Y-146864637D01*
X132024637Y-146664759D01*
X132181680Y-146429727D01*
X132289853Y-146168574D01*
X132345000Y-145891335D01*
X132345000Y-145608665D01*
X132289853Y-145331426D01*
X132181680Y-145070273D01*
X132024637Y-144835241D01*
X131824759Y-144635363D01*
X131589727Y-144478320D01*
X131485144Y-144435000D01*
X132556928Y-144435000D01*
X132569188Y-144559482D01*
X132605498Y-144679180D01*
X132664463Y-144789494D01*
X132743815Y-144886185D01*
X132840506Y-144965537D01*
X132950820Y-145024502D01*
X133070518Y-145060812D01*
X133195000Y-145073072D01*
X133809250Y-145070000D01*
X133968000Y-144911250D01*
X133968000Y-143662000D01*
X132718750Y-143662000D01*
X132560000Y-143820750D01*
X132556928Y-144435000D01*
X131485144Y-144435000D01*
X131328574Y-144370147D01*
X131051335Y-144315000D01*
X130768665Y-144315000D01*
X130586114Y-144351312D01*
X129083841Y-142849039D01*
X129518096Y-142849039D01*
X129558754Y-142983087D01*
X129678963Y-143237420D01*
X129846481Y-143463414D01*
X130054869Y-143652385D01*
X130296119Y-143797070D01*
X130560960Y-143891909D01*
X130783000Y-143770624D01*
X130783000Y-142627000D01*
X131037000Y-142627000D01*
X131037000Y-143770624D01*
X131259040Y-143891909D01*
X131523881Y-143797070D01*
X131765131Y-143652385D01*
X131973519Y-143463414D01*
X132141037Y-143237420D01*
X132261246Y-142983087D01*
X132301904Y-142849039D01*
X132184311Y-142635000D01*
X132556928Y-142635000D01*
X132560000Y-143249250D01*
X132718750Y-143408000D01*
X133968000Y-143408000D01*
X133968000Y-142158750D01*
X133809250Y-142000000D01*
X133195000Y-141996928D01*
X133070518Y-142009188D01*
X132950820Y-142045498D01*
X132840506Y-142104463D01*
X132743815Y-142183815D01*
X132664463Y-142280506D01*
X132605498Y-142390820D01*
X132569188Y-142510518D01*
X132556928Y-142635000D01*
X132184311Y-142635000D01*
X132179915Y-142627000D01*
X131037000Y-142627000D01*
X130783000Y-142627000D01*
X129640085Y-142627000D01*
X129518096Y-142849039D01*
X129083841Y-142849039D01*
X128223804Y-141989003D01*
X128200001Y-141959999D01*
X128084276Y-141865026D01*
X127952247Y-141794454D01*
X127808986Y-141750997D01*
X127697333Y-141740000D01*
X127697322Y-141740000D01*
X127660000Y-141736324D01*
X127622678Y-141740000D01*
X121968043Y-141740000D01*
X121864637Y-141585241D01*
X121719396Y-141440000D01*
X129952991Y-141440000D01*
X129846481Y-141536586D01*
X129678963Y-141762580D01*
X129558754Y-142016913D01*
X129518096Y-142150961D01*
X129640085Y-142373000D01*
X130783000Y-142373000D01*
X130783000Y-142353000D01*
X131037000Y-142353000D01*
X131037000Y-142373000D01*
X132179915Y-142373000D01*
X132301904Y-142150961D01*
X132261246Y-142016913D01*
X132141037Y-141762580D01*
X131973519Y-141536586D01*
X131867009Y-141440000D01*
X137655198Y-141440000D01*
X137043930Y-142051269D01*
X136786184Y-142000000D01*
X136483816Y-142000000D01*
X136187257Y-142058989D01*
X135907905Y-142174701D01*
X135656495Y-142342688D01*
X135590056Y-142409127D01*
X135584502Y-142390820D01*
X135525537Y-142280506D01*
X135446185Y-142183815D01*
X135349494Y-142104463D01*
X135239180Y-142045498D01*
X135119482Y-142009188D01*
X134995000Y-141996928D01*
X134380750Y-142000000D01*
X134222000Y-142158750D01*
X134222000Y-143408000D01*
X134242000Y-143408000D01*
X134242000Y-143662000D01*
X134222000Y-143662000D01*
X134222000Y-144911250D01*
X134380750Y-145070000D01*
X134995000Y-145073072D01*
X135119482Y-145060812D01*
X135239180Y-145024502D01*
X135349494Y-144965537D01*
X135446185Y-144886185D01*
X135525537Y-144789494D01*
X135584502Y-144679180D01*
X135590056Y-144660873D01*
X135656495Y-144727312D01*
X135907905Y-144895299D01*
X136187257Y-145011011D01*
X136483816Y-145070000D01*
X136764000Y-145070000D01*
X136764000Y-145697289D01*
X136671063Y-145790226D01*
X136557795Y-145959744D01*
X136479774Y-146148102D01*
X136440000Y-146348061D01*
X136440000Y-146551939D01*
X136479774Y-146751898D01*
X136557795Y-146940256D01*
X136671063Y-147109774D01*
X136815226Y-147253937D01*
X136984744Y-147367205D01*
X137173102Y-147445226D01*
X137373061Y-147485000D01*
X137576939Y-147485000D01*
X137776898Y-147445226D01*
X137965256Y-147367205D01*
X138134774Y-147253937D01*
X138278937Y-147109774D01*
X138392205Y-146940256D01*
X138470226Y-146751898D01*
X138510000Y-146551939D01*
X138510000Y-146348061D01*
X138470226Y-146148102D01*
X138392205Y-145959744D01*
X138284000Y-145797803D01*
X138284000Y-145310301D01*
X138664302Y-144930000D01*
X140999996Y-144930000D01*
X138909798Y-147020199D01*
X138880800Y-147043997D01*
X138857002Y-147072995D01*
X138857001Y-147072996D01*
X138785826Y-147159722D01*
X138715254Y-147291752D01*
X138671798Y-147435013D01*
X138657124Y-147583998D01*
X138660801Y-147621330D01*
X138660801Y-148330928D01*
X138620800Y-148330928D01*
X138496318Y-148343188D01*
X138376620Y-148379498D01*
X138266306Y-148438463D01*
X138169615Y-148517815D01*
X138090263Y-148614506D01*
X138031298Y-148724820D01*
X137994988Y-148844518D01*
X137982728Y-148969000D01*
X137982728Y-149519000D01*
X137994988Y-149643482D01*
X137995145Y-149644000D01*
X137994988Y-149644518D01*
X137982728Y-149769000D01*
X137982728Y-149774091D01*
X137827312Y-149541495D01*
X137613505Y-149327688D01*
X137362095Y-149159701D01*
X137082743Y-149043989D01*
X136786184Y-148985000D01*
X136483816Y-148985000D01*
X136187257Y-149043989D01*
X135907905Y-149159701D01*
X135656495Y-149327688D01*
X135590056Y-149394127D01*
X135584502Y-149375820D01*
X135525537Y-149265506D01*
X135446185Y-149168815D01*
X135349494Y-149089463D01*
X135239180Y-149030498D01*
X135119482Y-148994188D01*
X134995000Y-148981928D01*
X134380750Y-148985000D01*
X134222000Y-149143750D01*
X134222000Y-150393000D01*
X134242000Y-150393000D01*
X134242000Y-150647000D01*
X134222000Y-150647000D01*
X134222000Y-151896250D01*
X134380750Y-152055000D01*
X134995000Y-152058072D01*
X135119482Y-152045812D01*
X135239180Y-152009502D01*
X135349494Y-151950537D01*
X135446185Y-151871185D01*
X135525537Y-151774494D01*
X135584502Y-151664180D01*
X135590056Y-151645873D01*
X135656495Y-151712312D01*
X135907905Y-151880299D01*
X136187257Y-151996011D01*
X136483816Y-152055000D01*
X136786184Y-152055000D01*
X137082743Y-151996011D01*
X137362095Y-151880299D01*
X137613505Y-151712312D01*
X137827312Y-151498505D01*
X137994637Y-151248086D01*
X137982728Y-151369000D01*
X137982728Y-151919000D01*
X137994988Y-152043482D01*
X137995333Y-152044620D01*
X137985800Y-152158250D01*
X138077883Y-152250333D01*
X138090263Y-152273494D01*
X138169615Y-152370185D01*
X138259559Y-152444000D01*
X138169615Y-152517815D01*
X138090263Y-152614506D01*
X138077883Y-152637667D01*
X137985800Y-152729750D01*
X137995333Y-152843380D01*
X137994988Y-152844518D01*
X137982728Y-152969000D01*
X137982728Y-153519000D01*
X137994988Y-153643482D01*
X137995145Y-153644000D01*
X137994988Y-153644518D01*
X137982728Y-153769000D01*
X137982728Y-154319000D01*
X137994988Y-154443482D01*
X137995145Y-154444000D01*
X137994988Y-154444518D01*
X137982728Y-154569000D01*
X137982728Y-155119000D01*
X137994988Y-155243482D01*
X138031298Y-155363180D01*
X138090263Y-155473494D01*
X138169615Y-155570185D01*
X138266306Y-155649537D01*
X138376620Y-155708502D01*
X138496318Y-155744812D01*
X138620800Y-155757072D01*
X139957728Y-155757072D01*
X139957728Y-157094000D01*
X139969988Y-157218482D01*
X139977429Y-157243012D01*
X139912795Y-157339744D01*
X139834774Y-157528102D01*
X139826440Y-157570000D01*
X138403711Y-157570000D01*
X138359774Y-157526063D01*
X138190256Y-157412795D01*
X138001898Y-157334774D01*
X137801939Y-157295000D01*
X137598061Y-157295000D01*
X137398102Y-157334774D01*
X137209744Y-157412795D01*
X137040226Y-157526063D01*
X136896063Y-157670226D01*
X136782795Y-157839744D01*
X136755000Y-157906847D01*
X136727205Y-157839744D01*
X136613937Y-157670226D01*
X136570000Y-157626289D01*
X136570000Y-154407323D01*
X136573676Y-154370000D01*
X136570000Y-154332677D01*
X136570000Y-154332667D01*
X136559003Y-154221014D01*
X136515546Y-154077753D01*
X136497638Y-154044250D01*
X136444974Y-153945723D01*
X136373799Y-153858997D01*
X136350001Y-153829999D01*
X136321004Y-153806202D01*
X135595000Y-153080199D01*
X135595000Y-153018061D01*
X135555226Y-152818102D01*
X135477205Y-152629744D01*
X135363937Y-152460226D01*
X135219774Y-152316063D01*
X135050256Y-152202795D01*
X134861898Y-152124774D01*
X134661939Y-152085000D01*
X134458061Y-152085000D01*
X134258102Y-152124774D01*
X134069744Y-152202795D01*
X133900226Y-152316063D01*
X133756063Y-152460226D01*
X133642795Y-152629744D01*
X133564774Y-152818102D01*
X133525000Y-153018061D01*
X133525000Y-153221939D01*
X133564774Y-153421898D01*
X133642795Y-153610256D01*
X133756063Y-153779774D01*
X133900226Y-153923937D01*
X134069744Y-154037205D01*
X134250917Y-154112250D01*
X133745750Y-154115000D01*
X133587000Y-154273750D01*
X133587000Y-155473000D01*
X134786250Y-155473000D01*
X134945000Y-155314250D01*
X134948072Y-154750000D01*
X134935812Y-154625518D01*
X134911905Y-154546706D01*
X135050000Y-154684802D01*
X135050001Y-157626288D01*
X135006063Y-157670226D01*
X134909419Y-157814864D01*
X134887932Y-157706842D01*
X134775990Y-157436589D01*
X134613475Y-157193368D01*
X134481620Y-157061513D01*
X134554180Y-157039502D01*
X134664494Y-156980537D01*
X134761185Y-156901185D01*
X134840537Y-156804494D01*
X134899502Y-156694180D01*
X134935812Y-156574482D01*
X134948072Y-156450000D01*
X134945000Y-155885750D01*
X134786250Y-155727000D01*
X133587000Y-155727000D01*
X133587000Y-155747000D01*
X133333000Y-155747000D01*
X133333000Y-155727000D01*
X132133750Y-155727000D01*
X131975000Y-155885750D01*
X131971928Y-156450000D01*
X131984188Y-156574482D01*
X132020498Y-156694180D01*
X132079463Y-156804494D01*
X132158815Y-156901185D01*
X132255506Y-156980537D01*
X132365820Y-157039502D01*
X132438380Y-157061513D01*
X132306525Y-157193368D01*
X132144010Y-157436589D01*
X132032068Y-157706842D01*
X131975000Y-157993740D01*
X131975000Y-158286260D01*
X132032068Y-158573158D01*
X132144010Y-158843411D01*
X132306525Y-159086632D01*
X132513368Y-159293475D01*
X132687760Y-159410000D01*
X132513368Y-159526525D01*
X132306525Y-159733368D01*
X132144010Y-159976589D01*
X132032068Y-160246842D01*
X131975000Y-160533740D01*
X131975000Y-160826260D01*
X132032068Y-161113158D01*
X132144010Y-161383411D01*
X132306525Y-161626632D01*
X132513368Y-161833475D01*
X132687760Y-161950000D01*
X132513368Y-162066525D01*
X132306525Y-162273368D01*
X132144010Y-162516589D01*
X132032068Y-162786842D01*
X131975000Y-163073740D01*
X131975000Y-163366260D01*
X132032068Y-163653158D01*
X132144010Y-163923411D01*
X132306525Y-164166632D01*
X132513368Y-164373475D01*
X132756589Y-164535990D01*
X133026842Y-164647932D01*
X133313740Y-164705000D01*
X133606260Y-164705000D01*
X133893158Y-164647932D01*
X134163411Y-164535990D01*
X134406632Y-164373475D01*
X134613475Y-164166632D01*
X134775990Y-163923411D01*
X134887932Y-163653158D01*
X134945000Y-163366260D01*
X134945000Y-163073740D01*
X134887932Y-162786842D01*
X134775990Y-162516589D01*
X134613475Y-162273368D01*
X134406632Y-162066525D01*
X134232240Y-161950000D01*
X134406632Y-161833475D01*
X134613475Y-161626632D01*
X134740000Y-161437273D01*
X134740000Y-161881679D01*
X134736324Y-161919002D01*
X134740000Y-161956324D01*
X134740000Y-161956334D01*
X134750997Y-162067987D01*
X134790450Y-162198047D01*
X134794454Y-162211248D01*
X134865026Y-162343278D01*
X134894938Y-162379725D01*
X134959999Y-162459003D01*
X134989003Y-162482806D01*
X139613040Y-167106844D01*
X139636838Y-167135842D01*
X139665836Y-167159640D01*
X139752562Y-167230815D01*
X139884592Y-167301387D01*
X140027853Y-167344844D01*
X140139506Y-167355841D01*
X140139515Y-167355841D01*
X140176838Y-167359517D01*
X140214161Y-167355841D01*
X144965000Y-167355841D01*
X144965000Y-167422780D01*
X145004774Y-167622739D01*
X145082795Y-167811097D01*
X145196063Y-167980615D01*
X145340226Y-168124778D01*
X145509744Y-168238046D01*
X145698102Y-168316067D01*
X145898061Y-168355841D01*
X146101939Y-168355841D01*
X146301898Y-168316067D01*
X146490256Y-168238046D01*
X146659774Y-168124778D01*
X146703711Y-168080841D01*
X162768247Y-168080841D01*
X162805569Y-168084517D01*
X162842891Y-168080841D01*
X162842902Y-168080841D01*
X162954555Y-168069844D01*
X163097816Y-168026387D01*
X163229845Y-167955815D01*
X163345570Y-167860842D01*
X163369373Y-167831838D01*
X166441213Y-164760000D01*
X167191680Y-164760000D01*
X167229002Y-164763676D01*
X167266324Y-164760000D01*
X167266335Y-164760000D01*
X167377988Y-164749003D01*
X167521249Y-164705546D01*
X167653278Y-164634974D01*
X167769003Y-164540001D01*
X167792806Y-164510997D01*
X168936004Y-163367800D01*
X168965002Y-163344002D01*
X169017527Y-163280000D01*
X169059975Y-163228278D01*
X169130547Y-163096248D01*
X169137000Y-163074975D01*
X169174004Y-162952987D01*
X169185001Y-162841334D01*
X169185001Y-162841324D01*
X169188677Y-162804002D01*
X169185001Y-162766679D01*
X169185001Y-159173321D01*
X169188677Y-159135998D01*
X169185001Y-159098675D01*
X169185001Y-159098666D01*
X169174004Y-158987013D01*
X169130547Y-158843752D01*
X169059975Y-158711723D01*
X168965002Y-158595998D01*
X168936005Y-158572201D01*
X168430296Y-158066492D01*
X168565990Y-157863411D01*
X168677932Y-157593158D01*
X168735000Y-157306260D01*
X168735000Y-157013740D01*
X168677932Y-156726842D01*
X168565990Y-156456589D01*
X168403475Y-156213368D01*
X168196632Y-156006525D01*
X168022240Y-155890000D01*
X168196632Y-155773475D01*
X168403475Y-155566632D01*
X168565990Y-155323411D01*
X168677932Y-155053158D01*
X168735000Y-154766260D01*
X168735000Y-154473740D01*
X168677932Y-154186842D01*
X168565990Y-153916589D01*
X168403475Y-153673368D01*
X168196632Y-153466525D01*
X168022240Y-153350000D01*
X168196632Y-153233475D01*
X168403475Y-153026632D01*
X168565990Y-152783411D01*
X168677932Y-152513158D01*
X168735000Y-152226260D01*
X168735000Y-151933740D01*
X168677932Y-151646842D01*
X168565990Y-151376589D01*
X168403475Y-151133368D01*
X168196632Y-150926525D01*
X168014466Y-150804805D01*
X168131355Y-150735178D01*
X168347588Y-150540269D01*
X168521641Y-150306920D01*
X168646825Y-150044099D01*
X168691476Y-149896890D01*
X168570155Y-149667000D01*
X167377000Y-149667000D01*
X167377000Y-149687000D01*
X167123000Y-149687000D01*
X167123000Y-149667000D01*
X165929845Y-149667000D01*
X165808524Y-149896890D01*
X165853175Y-150044099D01*
X165978359Y-150306920D01*
X166152412Y-150540269D01*
X166368645Y-150735178D01*
X166485534Y-150804805D01*
X166303368Y-150926525D01*
X166096525Y-151133368D01*
X165934010Y-151376589D01*
X165822068Y-151646842D01*
X165765000Y-151933740D01*
X165765000Y-152226260D01*
X165808790Y-152446407D01*
X163938210Y-154316989D01*
X163938210Y-149611530D01*
X163941886Y-149574207D01*
X163938210Y-149536884D01*
X163938210Y-149536875D01*
X163927213Y-149425222D01*
X163883756Y-149281961D01*
X163813184Y-149149932D01*
X163718211Y-149034207D01*
X163689214Y-149010410D01*
X161930805Y-147252002D01*
X161907002Y-147222998D01*
X161791277Y-147128025D01*
X161659248Y-147057453D01*
X161515987Y-147013996D01*
X161404334Y-147002999D01*
X161404323Y-147002999D01*
X161367001Y-146999323D01*
X161329679Y-147002999D01*
X160708321Y-147002999D01*
X160670998Y-146999323D01*
X160633675Y-147002999D01*
X160633666Y-147002999D01*
X160522013Y-147013996D01*
X160378752Y-147057453D01*
X160275011Y-147112905D01*
X160275011Y-145180924D01*
X160278687Y-145143599D01*
X160275011Y-145106274D01*
X160275011Y-145106266D01*
X160264014Y-144994613D01*
X160220557Y-144851352D01*
X160149985Y-144719323D01*
X160055012Y-144603598D01*
X160026015Y-144579801D01*
X156260206Y-140813993D01*
X156236403Y-140784989D01*
X156120678Y-140690016D01*
X156017731Y-140634989D01*
X160813519Y-140634989D01*
X160688441Y-140718563D01*
X160488563Y-140918441D01*
X160331520Y-141153473D01*
X160223347Y-141414626D01*
X160168200Y-141691865D01*
X160168200Y-141974535D01*
X160223347Y-142251774D01*
X160331520Y-142512927D01*
X160488563Y-142747959D01*
X160688441Y-142947837D01*
X160923473Y-143104880D01*
X161184626Y-143213053D01*
X161461865Y-143268200D01*
X161744535Y-143268200D01*
X162021774Y-143213053D01*
X162282927Y-143104880D01*
X162517959Y-142947837D01*
X162717837Y-142747959D01*
X162874178Y-142513977D01*
X166009342Y-145649142D01*
X165948815Y-145698815D01*
X165869463Y-145795506D01*
X165810498Y-145905820D01*
X165774188Y-146025518D01*
X165761928Y-146150000D01*
X165761928Y-147850000D01*
X165774188Y-147974482D01*
X165810498Y-148094180D01*
X165869463Y-148204494D01*
X165948815Y-148301185D01*
X166045506Y-148380537D01*
X166155820Y-148439502D01*
X166236466Y-148463966D01*
X166152412Y-148539731D01*
X165978359Y-148773080D01*
X165853175Y-149035901D01*
X165808524Y-149183110D01*
X165929845Y-149413000D01*
X167123000Y-149413000D01*
X167123000Y-149393000D01*
X167377000Y-149393000D01*
X167377000Y-149413000D01*
X168570155Y-149413000D01*
X168691476Y-149183110D01*
X168646825Y-149035901D01*
X168521641Y-148773080D01*
X168347588Y-148539731D01*
X168263534Y-148463966D01*
X168344180Y-148439502D01*
X168454494Y-148380537D01*
X168551185Y-148301185D01*
X168630537Y-148204494D01*
X168689502Y-148094180D01*
X168725812Y-147974482D01*
X168738072Y-147850000D01*
X168738072Y-146150000D01*
X168725812Y-146025518D01*
X168689502Y-145905820D01*
X168630537Y-145795506D01*
X168551185Y-145698815D01*
X168454494Y-145619463D01*
X168344180Y-145560498D01*
X168224482Y-145524188D01*
X168100000Y-145511928D01*
X167949761Y-145511928D01*
X167884974Y-145390722D01*
X167790001Y-145274997D01*
X167761003Y-145251199D01*
X161873795Y-139363992D01*
X161849992Y-139334988D01*
X161734267Y-139240015D01*
X161602238Y-139169443D01*
X161458977Y-139125986D01*
X161347324Y-139114989D01*
X161347313Y-139114989D01*
X161309991Y-139111313D01*
X161272669Y-139114989D01*
X120450238Y-139114989D01*
X120412915Y-139111313D01*
X120375592Y-139114989D01*
X120375583Y-139114989D01*
X120263930Y-139125986D01*
X120120669Y-139169443D01*
X119988640Y-139240015D01*
X119988638Y-139240016D01*
X119988639Y-139240016D01*
X119901912Y-139311190D01*
X119901908Y-139311194D01*
X119872915Y-139334988D01*
X119849121Y-139363981D01*
X117084002Y-142129102D01*
X117054998Y-142152905D01*
X117007310Y-142211014D01*
X116960025Y-142268630D01*
X116935240Y-142315000D01*
X116889453Y-142400660D01*
X116877858Y-142438885D01*
X116272974Y-141834002D01*
X116249171Y-141804998D01*
X116133446Y-141710025D01*
X116001417Y-141639453D01*
X115858156Y-141595996D01*
X115746503Y-141584999D01*
X115746492Y-141584999D01*
X115709170Y-141581323D01*
X115671848Y-141584999D01*
X104681321Y-141584999D01*
X104643998Y-141581323D01*
X104606675Y-141584999D01*
X104606666Y-141584999D01*
X104495013Y-141595996D01*
X104351752Y-141639453D01*
X104219723Y-141710025D01*
X104103998Y-141804998D01*
X104080200Y-141833996D01*
X101199003Y-144715194D01*
X101169999Y-144738997D01*
X101135981Y-144780449D01*
X101075026Y-144854722D01*
X101040667Y-144919003D01*
X101004454Y-144986752D01*
X100960997Y-145130013D01*
X100950000Y-145241666D01*
X100950000Y-145241676D01*
X100946324Y-145278998D01*
X94435000Y-145278998D01*
X94435000Y-138854984D01*
X94519369Y-139058669D01*
X94763962Y-139424729D01*
X95075271Y-139736038D01*
X95441331Y-139980631D01*
X95848075Y-140149110D01*
X96279872Y-140235000D01*
X96720128Y-140235000D01*
X97151925Y-140149110D01*
X97558669Y-139980631D01*
X97924729Y-139736038D01*
X98236038Y-139424729D01*
X98480631Y-139058669D01*
X98649110Y-138651925D01*
X98735000Y-138220128D01*
X98735000Y-137779872D01*
X98649110Y-137348075D01*
X98480631Y-136941331D01*
X98236038Y-136575271D01*
X97924729Y-136263962D01*
X97806554Y-136185000D01*
X169693446Y-136185000D01*
X169575271Y-136263962D01*
G37*
X169575271Y-136263962D02*
X169263962Y-136575271D01*
X169019369Y-136941331D01*
X168850890Y-137348075D01*
X168765000Y-137779872D01*
X168765000Y-138220128D01*
X168850890Y-138651925D01*
X169019369Y-139058669D01*
X169263962Y-139424729D01*
X169575271Y-139736038D01*
X169941331Y-139980631D01*
X170348075Y-140149110D01*
X170779872Y-140235000D01*
X171220128Y-140235000D01*
X171651925Y-140149110D01*
X172058669Y-139980631D01*
X172424729Y-139736038D01*
X172736038Y-139424729D01*
X172980631Y-139058669D01*
X173065000Y-138854984D01*
X173065001Y-167693448D01*
X172986038Y-167575271D01*
X172674729Y-167263962D01*
X172308669Y-167019369D01*
X171901925Y-166850890D01*
X171470128Y-166765000D01*
X171029872Y-166765000D01*
X170598075Y-166850890D01*
X170191331Y-167019369D01*
X169825271Y-167263962D01*
X169513962Y-167575271D01*
X169269369Y-167941331D01*
X169100890Y-168348075D01*
X169015000Y-168779872D01*
X169015000Y-169220128D01*
X169100890Y-169651925D01*
X169269369Y-170058669D01*
X169513962Y-170424729D01*
X169825271Y-170736038D01*
X169943446Y-170815000D01*
X97556554Y-170815000D01*
X97674729Y-170736038D01*
X97986038Y-170424729D01*
X98230631Y-170058669D01*
X98399110Y-169651925D01*
X98485000Y-169220128D01*
X98485000Y-168779872D01*
X98399110Y-168348075D01*
X98230631Y-167941331D01*
X97986038Y-167575271D01*
X97674729Y-167263962D01*
X97308669Y-167019369D01*
X96901925Y-166850890D01*
X96470128Y-166765000D01*
X96029872Y-166765000D01*
X95598075Y-166850890D01*
X95191331Y-167019369D01*
X94825271Y-167263962D01*
X94513962Y-167575271D01*
X94435000Y-167693446D01*
X94435000Y-145278998D01*
X100946324Y-145278998D01*
X100950000Y-145316320D01*
X100950001Y-163119167D01*
X100946324Y-163156500D01*
X100950001Y-163193833D01*
X100960998Y-163305486D01*
X100973591Y-163347000D01*
X101004454Y-163448746D01*
X101075026Y-163580776D01*
X101144148Y-163665000D01*
X101170000Y-163696501D01*
X101198998Y-163720299D01*
X104130702Y-166652004D01*
X104154500Y-166681002D01*
X104270225Y-166775975D01*
X104402254Y-166846547D01*
X104545515Y-166890004D01*
X104657168Y-166901001D01*
X104657176Y-166901001D01*
X104694501Y-166904677D01*
X104731826Y-166901001D01*
X108229540Y-166901001D01*
X108384744Y-167004705D01*
X108573102Y-167082726D01*
X108773061Y-167122500D01*
X108976939Y-167122500D01*
X109176898Y-167082726D01*
X109365256Y-167004705D01*
X109534774Y-166891437D01*
X109678937Y-166747274D01*
X109792205Y-166577756D01*
X109870226Y-166389398D01*
X109907899Y-166200000D01*
X110739428Y-166200000D01*
X110751688Y-166324482D01*
X110787998Y-166444180D01*
X110846963Y-166554494D01*
X110926315Y-166651185D01*
X111023006Y-166730537D01*
X111133320Y-166789502D01*
X111253018Y-166825812D01*
X111377500Y-166838072D01*
X112279250Y-166835000D01*
X112438000Y-166676250D01*
X112438000Y-165377000D01*
X112692000Y-165377000D01*
X112692000Y-166676250D01*
X112850750Y-166835000D01*
X113752500Y-166838072D01*
X113876982Y-166825812D01*
X113900000Y-166818830D01*
X113923018Y-166825812D01*
X114047500Y-166838072D01*
X114349250Y-166835000D01*
X114508000Y-166676250D01*
X114508000Y-165377000D01*
X114762000Y-165377000D01*
X114762000Y-166676250D01*
X114920750Y-166835000D01*
X115222500Y-166838072D01*
X115346982Y-166825812D01*
X115466680Y-166789502D01*
X115475000Y-166785055D01*
X115483320Y-166789502D01*
X115603018Y-166825812D01*
X115727500Y-166838072D01*
X116029250Y-166835000D01*
X116188000Y-166676250D01*
X116188000Y-165377000D01*
X116442000Y-165377000D01*
X116442000Y-166676250D01*
X116600750Y-166835000D01*
X116902500Y-166838072D01*
X117026982Y-166825812D01*
X117050000Y-166818830D01*
X117073018Y-166825812D01*
X117197500Y-166838072D01*
X118099250Y-166835000D01*
X118258000Y-166676250D01*
X118258000Y-165377000D01*
X118512000Y-165377000D01*
X118512000Y-166676250D01*
X118670750Y-166835000D01*
X119572500Y-166838072D01*
X119696982Y-166825812D01*
X119816680Y-166789502D01*
X119926994Y-166730537D01*
X120023685Y-166651185D01*
X120103037Y-166554494D01*
X120162002Y-166444180D01*
X120198312Y-166324482D01*
X120210572Y-166200000D01*
X120207500Y-165535750D01*
X120048750Y-165377000D01*
X118512000Y-165377000D01*
X118258000Y-165377000D01*
X116442000Y-165377000D01*
X116188000Y-165377000D01*
X114762000Y-165377000D01*
X114508000Y-165377000D01*
X112692000Y-165377000D01*
X112438000Y-165377000D01*
X110901250Y-165377000D01*
X110742500Y-165535750D01*
X110739428Y-166200000D01*
X109907899Y-166200000D01*
X109910000Y-166189439D01*
X109910000Y-165985561D01*
X109870226Y-165785602D01*
X109792205Y-165597244D01*
X109678937Y-165427726D01*
X109534774Y-165283563D01*
X109365256Y-165170295D01*
X109176898Y-165092274D01*
X108976939Y-165052500D01*
X108773061Y-165052500D01*
X108573102Y-165092274D01*
X108384744Y-165170295D01*
X108215226Y-165283563D01*
X108117788Y-165381001D01*
X105009303Y-165381001D01*
X102470000Y-162841699D01*
X102470000Y-161989500D01*
X103381928Y-161989500D01*
X103394188Y-162113982D01*
X103430498Y-162233680D01*
X103489463Y-162343994D01*
X103568815Y-162440685D01*
X103665506Y-162520037D01*
X103775820Y-162579002D01*
X103895518Y-162615312D01*
X104020000Y-162627572D01*
X105234250Y-162624500D01*
X105393000Y-162465750D01*
X105393000Y-160616500D01*
X105647000Y-160616500D01*
X105647000Y-162465750D01*
X105805750Y-162624500D01*
X107020000Y-162627572D01*
X107144482Y-162615312D01*
X107264180Y-162579002D01*
X107374494Y-162520037D01*
X107471185Y-162440685D01*
X107550537Y-162343994D01*
X107609502Y-162233680D01*
X107645812Y-162113982D01*
X107658072Y-161989500D01*
X107657846Y-161900000D01*
X111636928Y-161900000D01*
X111640000Y-162664250D01*
X111798750Y-162823000D01*
X112885500Y-162823000D01*
X112885500Y-161423750D01*
X112726750Y-161265000D01*
X112275000Y-161261928D01*
X112150518Y-161274188D01*
X112030820Y-161310498D01*
X111920506Y-161369463D01*
X111823815Y-161448815D01*
X111744463Y-161545506D01*
X111685498Y-161655820D01*
X111649188Y-161775518D01*
X111636928Y-161900000D01*
X107657846Y-161900000D01*
X107655000Y-160775250D01*
X107496250Y-160616500D01*
X105647000Y-160616500D01*
X105393000Y-160616500D01*
X103543750Y-160616500D01*
X103385000Y-160775250D01*
X103381928Y-161989500D01*
X102470000Y-161989500D01*
X102470000Y-158989500D01*
X103381928Y-158989500D01*
X103385000Y-160203750D01*
X103543750Y-160362500D01*
X105393000Y-160362500D01*
X105393000Y-158513250D01*
X105647000Y-158513250D01*
X105647000Y-160362500D01*
X107496250Y-160362500D01*
X107655000Y-160203750D01*
X107658072Y-158989500D01*
X107645812Y-158865018D01*
X107609502Y-158745320D01*
X107550537Y-158635006D01*
X107471185Y-158538315D01*
X107374494Y-158458963D01*
X107264180Y-158399998D01*
X107144482Y-158363688D01*
X107020000Y-158351428D01*
X105805750Y-158354500D01*
X105647000Y-158513250D01*
X105393000Y-158513250D01*
X105234250Y-158354500D01*
X104020000Y-158351428D01*
X103895518Y-158363688D01*
X103775820Y-158399998D01*
X103665506Y-158458963D01*
X103568815Y-158538315D01*
X103489463Y-158635006D01*
X103430498Y-158745320D01*
X103394188Y-158865018D01*
X103381928Y-158989500D01*
X102470000Y-158989500D01*
X102470000Y-155199221D01*
X103385000Y-155199221D01*
X103385000Y-155619779D01*
X103467047Y-156032256D01*
X103627988Y-156420802D01*
X103861637Y-156770483D01*
X104159017Y-157067863D01*
X104508698Y-157301512D01*
X104897244Y-157462453D01*
X105309721Y-157544500D01*
X105730279Y-157544500D01*
X106142756Y-157462453D01*
X106531302Y-157301512D01*
X106880983Y-157067863D01*
X107178363Y-156770483D01*
X107412012Y-156420802D01*
X107572953Y-156032256D01*
X107655000Y-155619779D01*
X107655000Y-155199221D01*
X107572953Y-154786744D01*
X107412012Y-154398198D01*
X107178363Y-154048517D01*
X106880983Y-153751137D01*
X106531302Y-153517488D01*
X106142756Y-153356547D01*
X105730279Y-153274500D01*
X105309721Y-153274500D01*
X104897244Y-153356547D01*
X104508698Y-153517488D01*
X104159017Y-153751137D01*
X103861637Y-154048517D01*
X103627988Y-154398198D01*
X103467047Y-154786744D01*
X103385000Y-155199221D01*
X102470000Y-155199221D01*
X102470000Y-147750000D01*
X103381928Y-147750000D01*
X103381928Y-150750000D01*
X103394188Y-150874482D01*
X103430498Y-150994180D01*
X103489463Y-151104494D01*
X103568815Y-151201185D01*
X103665506Y-151280537D01*
X103775820Y-151339502D01*
X103895518Y-151375812D01*
X104020000Y-151388072D01*
X107020000Y-151388072D01*
X107144482Y-151375812D01*
X107264180Y-151339502D01*
X107374494Y-151280537D01*
X107471185Y-151201185D01*
X107550537Y-151104494D01*
X107609502Y-150994180D01*
X107645812Y-150874482D01*
X107658072Y-150750000D01*
X107658072Y-147750000D01*
X107645812Y-147625518D01*
X107609502Y-147505820D01*
X107550537Y-147395506D01*
X107471185Y-147298815D01*
X107374494Y-147219463D01*
X107264180Y-147160498D01*
X107144482Y-147124188D01*
X107020000Y-147111928D01*
X104020000Y-147111928D01*
X103895518Y-147124188D01*
X103775820Y-147160498D01*
X103665506Y-147219463D01*
X103568815Y-147298815D01*
X103489463Y-147395506D01*
X103430498Y-147505820D01*
X103394188Y-147625518D01*
X103381928Y-147750000D01*
X102470000Y-147750000D01*
X102470000Y-145661653D01*
X104207952Y-145661653D01*
X104363962Y-145977214D01*
X104738745Y-146168020D01*
X105143551Y-146282044D01*
X105562824Y-146314902D01*
X105980451Y-146265334D01*
X106380383Y-146135243D01*
X106676038Y-145977214D01*
X106832048Y-145661653D01*
X105520000Y-144349605D01*
X104207952Y-145661653D01*
X102470000Y-145661653D01*
X102470000Y-145593799D01*
X103426797Y-144637002D01*
X103554757Y-145030383D01*
X103712786Y-145326038D01*
X104028347Y-145482048D01*
X105340395Y-144170000D01*
X105326253Y-144155858D01*
X105505858Y-143976253D01*
X105520000Y-143990395D01*
X105534143Y-143976253D01*
X105713748Y-144155858D01*
X105699605Y-144170000D01*
X107011653Y-145482048D01*
X107327214Y-145326038D01*
X107518020Y-144951255D01*
X107632044Y-144546449D01*
X107664902Y-144127176D01*
X107615334Y-143709549D01*
X107485243Y-143309617D01*
X107375874Y-143104999D01*
X114452865Y-143104999D01*
X114306155Y-143283765D01*
X114158745Y-143559551D01*
X114067970Y-143858796D01*
X114037319Y-144170000D01*
X114067970Y-144481204D01*
X114158745Y-144780449D01*
X114306155Y-145056235D01*
X114504537Y-145297963D01*
X114683899Y-145445163D01*
X114498685Y-145600563D01*
X114304031Y-145843077D01*
X114160429Y-146118906D01*
X114089437Y-146337020D01*
X114209406Y-146583000D01*
X115553000Y-146583000D01*
X115553000Y-146563000D01*
X115807000Y-146563000D01*
X115807000Y-146583000D01*
X115827000Y-146583000D01*
X115827000Y-146837000D01*
X115807000Y-146837000D01*
X115807000Y-146857000D01*
X115553000Y-146857000D01*
X115553000Y-146837000D01*
X114209406Y-146837000D01*
X114089437Y-147082980D01*
X114160429Y-147301094D01*
X114304031Y-147576923D01*
X114417219Y-147717941D01*
X114325506Y-147766963D01*
X114228815Y-147846315D01*
X114149463Y-147943006D01*
X114090498Y-148053320D01*
X114054188Y-148173018D01*
X114041928Y-148297500D01*
X114041928Y-150202500D01*
X114054188Y-150326982D01*
X114090498Y-150446680D01*
X114149463Y-150556994D01*
X114228815Y-150653685D01*
X114325506Y-150733037D01*
X114435820Y-150792002D01*
X114555518Y-150828312D01*
X114680000Y-150840572D01*
X116245010Y-150840572D01*
X116245010Y-152417419D01*
X116125518Y-152429188D01*
X116005820Y-152465498D01*
X115895506Y-152524463D01*
X115798815Y-152603815D01*
X115719463Y-152700506D01*
X115680000Y-152774335D01*
X115640537Y-152700506D01*
X115561185Y-152603815D01*
X115464494Y-152524463D01*
X115354180Y-152465498D01*
X115234482Y-152429188D01*
X115110000Y-152416928D01*
X114050000Y-152416928D01*
X113925518Y-152429188D01*
X113873393Y-152445000D01*
X113773450Y-152445000D01*
X113727515Y-152440476D01*
X113544223Y-152458528D01*
X113367974Y-152511993D01*
X113316056Y-152539744D01*
X113205543Y-152598814D01*
X113063171Y-152715656D01*
X113033885Y-152751341D01*
X111444536Y-154340690D01*
X111408857Y-154369971D01*
X111292015Y-154512343D01*
X111205193Y-154674775D01*
X111151729Y-154851023D01*
X111151729Y-154851024D01*
X111133676Y-155034315D01*
X111138200Y-155080247D01*
X111138200Y-155152705D01*
X111077974Y-155298102D01*
X111038200Y-155498061D01*
X111038200Y-155701939D01*
X111077974Y-155901898D01*
X111155995Y-156090256D01*
X111208255Y-156168470D01*
X111292014Y-156325172D01*
X111408856Y-156467544D01*
X111444540Y-156496829D01*
X113432569Y-158484859D01*
X113492795Y-158630256D01*
X113606063Y-158799774D01*
X113620402Y-158814113D01*
X113595181Y-158844846D01*
X113255776Y-159184250D01*
X113168214Y-159290945D01*
X113081393Y-159453376D01*
X113027928Y-159629625D01*
X113009875Y-159812916D01*
X113027928Y-159996207D01*
X113081393Y-160172456D01*
X113168214Y-160334887D01*
X113285056Y-160477259D01*
X113415000Y-160583902D01*
X113415000Y-161264206D01*
X113298250Y-161265000D01*
X113139500Y-161423750D01*
X113139500Y-162823000D01*
X113159500Y-162823000D01*
X113159500Y-163077000D01*
X113139500Y-163077000D01*
X113139500Y-163097000D01*
X112885500Y-163097000D01*
X112885500Y-163077000D01*
X111798750Y-163077000D01*
X111640000Y-163235750D01*
X111638283Y-163662816D01*
X111377500Y-163661928D01*
X111253018Y-163674188D01*
X111133320Y-163710498D01*
X111023006Y-163769463D01*
X110926315Y-163848815D01*
X110846963Y-163945506D01*
X110787998Y-164055820D01*
X110751688Y-164175518D01*
X110739428Y-164300000D01*
X110742500Y-164964250D01*
X110901250Y-165123000D01*
X112438000Y-165123000D01*
X112438000Y-165103000D01*
X112692000Y-165103000D01*
X112692000Y-165123000D01*
X114508000Y-165123000D01*
X114508000Y-165103000D01*
X114762000Y-165103000D01*
X114762000Y-165123000D01*
X116188000Y-165123000D01*
X116188000Y-165103000D01*
X116442000Y-165103000D01*
X116442000Y-165123000D01*
X118258000Y-165123000D01*
X118258000Y-165103000D01*
X118512000Y-165103000D01*
X118512000Y-165123000D01*
X120048750Y-165123000D01*
X120207500Y-164964250D01*
X120210346Y-164348665D01*
X121865000Y-164348665D01*
X121865000Y-164631335D01*
X121920147Y-164908574D01*
X122028320Y-165169727D01*
X122185363Y-165404759D01*
X122385241Y-165604637D01*
X122620273Y-165761680D01*
X122881426Y-165869853D01*
X123158665Y-165925000D01*
X123441335Y-165925000D01*
X123718574Y-165869853D01*
X123979727Y-165761680D01*
X124214759Y-165604637D01*
X124414637Y-165404759D01*
X124571680Y-165169727D01*
X124679853Y-164908574D01*
X124735000Y-164631335D01*
X124735000Y-164348665D01*
X124679853Y-164071426D01*
X124571680Y-163810273D01*
X124414637Y-163575241D01*
X124214759Y-163375363D01*
X123979727Y-163218320D01*
X123718574Y-163110147D01*
X123441335Y-163055000D01*
X123158665Y-163055000D01*
X122881426Y-163110147D01*
X122620273Y-163218320D01*
X122385241Y-163375363D01*
X122185363Y-163575241D01*
X122028320Y-163810273D01*
X121920147Y-164071426D01*
X121865000Y-164348665D01*
X120210346Y-164348665D01*
X120210572Y-164300000D01*
X120198312Y-164175518D01*
X120162002Y-164055820D01*
X120103037Y-163945506D01*
X120023685Y-163848815D01*
X119926994Y-163769463D01*
X119816680Y-163710498D01*
X119696982Y-163674188D01*
X119572500Y-163661928D01*
X119311717Y-163662816D01*
X119310000Y-163235750D01*
X119151250Y-163077000D01*
X118064500Y-163077000D01*
X118064500Y-163097000D01*
X117810500Y-163097000D01*
X117810500Y-163077000D01*
X117790500Y-163077000D01*
X117790500Y-162823000D01*
X117810500Y-162823000D01*
X117810500Y-161423750D01*
X118064500Y-161423750D01*
X118064500Y-162823000D01*
X119151250Y-162823000D01*
X119310000Y-162664250D01*
X119313072Y-161900000D01*
X119300812Y-161775518D01*
X119264502Y-161655820D01*
X119205537Y-161545506D01*
X119126185Y-161448815D01*
X119029494Y-161369463D01*
X118919180Y-161310498D01*
X118799482Y-161274188D01*
X118675000Y-161261928D01*
X118223250Y-161265000D01*
X118064500Y-161423750D01*
X117810500Y-161423750D01*
X117651750Y-161265000D01*
X117200000Y-161261928D01*
X117096666Y-161272105D01*
X117031750Y-161265000D01*
X116999503Y-161297247D01*
X116955820Y-161310498D01*
X116845506Y-161369463D01*
X116775000Y-161427326D01*
X116704494Y-161369463D01*
X116594180Y-161310498D01*
X116550497Y-161297247D01*
X116518250Y-161265000D01*
X116453334Y-161272105D01*
X116350000Y-161261928D01*
X115900000Y-161261928D01*
X115800000Y-161271777D01*
X115700000Y-161261928D01*
X115250000Y-161261928D01*
X115150000Y-161271777D01*
X115050000Y-161261928D01*
X114935000Y-161261928D01*
X114935000Y-160508500D01*
X114956439Y-160508500D01*
X115156398Y-160468726D01*
X115344756Y-160390705D01*
X115514274Y-160277437D01*
X115658437Y-160133274D01*
X115771705Y-159963756D01*
X115849726Y-159775398D01*
X115889500Y-159575439D01*
X115889500Y-159371561D01*
X115849726Y-159171602D01*
X115771705Y-158983244D01*
X115658437Y-158813726D01*
X115514274Y-158669563D01*
X115355004Y-158563143D01*
X115405226Y-158441898D01*
X115445000Y-158241939D01*
X115445000Y-158038061D01*
X115405226Y-157838102D01*
X115345000Y-157692705D01*
X115345000Y-156197287D01*
X115354180Y-156194502D01*
X115464494Y-156135537D01*
X115561185Y-156056185D01*
X115640537Y-155959494D01*
X115680000Y-155885665D01*
X115719463Y-155959494D01*
X115798815Y-156056185D01*
X115845001Y-156094088D01*
X115845000Y-157225568D01*
X115840476Y-157271500D01*
X115854393Y-157412795D01*
X115858529Y-157454791D01*
X115911993Y-157631039D01*
X115998814Y-157793471D01*
X116115656Y-157935844D01*
X116151341Y-157965130D01*
X116734569Y-158548359D01*
X116794795Y-158693756D01*
X116908063Y-158863274D01*
X117052226Y-159007437D01*
X117221744Y-159120705D01*
X117410102Y-159198726D01*
X117610061Y-159238500D01*
X117813939Y-159238500D01*
X118013898Y-159198726D01*
X118202256Y-159120705D01*
X118371774Y-159007437D01*
X118515937Y-158863274D01*
X118629205Y-158693756D01*
X118707226Y-158505398D01*
X118747000Y-158305439D01*
X118747000Y-158101561D01*
X118707226Y-157901602D01*
X118667224Y-157805030D01*
X118710256Y-157787205D01*
X118879774Y-157673937D01*
X119023937Y-157529774D01*
X119137205Y-157360256D01*
X119197431Y-157214858D01*
X119305790Y-157106500D01*
X119747566Y-157106500D01*
X119793498Y-157111024D01*
X119839430Y-157106500D01*
X119976790Y-157092971D01*
X120153038Y-157039507D01*
X120315470Y-156952686D01*
X120457842Y-156835844D01*
X120487128Y-156800159D01*
X120837287Y-156450000D01*
X126891928Y-156450000D01*
X126904188Y-156574482D01*
X126940498Y-156694180D01*
X126999463Y-156804494D01*
X127078815Y-156901185D01*
X127175506Y-156980537D01*
X127285820Y-157039502D01*
X127358380Y-157061513D01*
X127226525Y-157193368D01*
X127064010Y-157436589D01*
X126952068Y-157706842D01*
X126895000Y-157993740D01*
X126895000Y-158286260D01*
X126952068Y-158573158D01*
X127064010Y-158843411D01*
X127226525Y-159086632D01*
X127433368Y-159293475D01*
X127607760Y-159410000D01*
X127433368Y-159526525D01*
X127226525Y-159733368D01*
X127064010Y-159976589D01*
X126952068Y-160246842D01*
X126895000Y-160533740D01*
X126895000Y-160826260D01*
X126952068Y-161113158D01*
X127064010Y-161383411D01*
X127226525Y-161626632D01*
X127433368Y-161833475D01*
X127607760Y-161950000D01*
X127433368Y-162066525D01*
X127226525Y-162273368D01*
X127064010Y-162516589D01*
X126952068Y-162786842D01*
X126895000Y-163073740D01*
X126895000Y-163366260D01*
X126952068Y-163653158D01*
X127064010Y-163923411D01*
X127226525Y-164166632D01*
X127433368Y-164373475D01*
X127676589Y-164535990D01*
X127946842Y-164647932D01*
X128233740Y-164705000D01*
X128526260Y-164705000D01*
X128813158Y-164647932D01*
X129083411Y-164535990D01*
X129326632Y-164373475D01*
X129533475Y-164166632D01*
X129695990Y-163923411D01*
X129807932Y-163653158D01*
X129865000Y-163366260D01*
X129865000Y-163073740D01*
X129807932Y-162786842D01*
X129695990Y-162516589D01*
X129533475Y-162273368D01*
X129326632Y-162066525D01*
X129152240Y-161950000D01*
X129326632Y-161833475D01*
X129533475Y-161626632D01*
X129695990Y-161383411D01*
X129807932Y-161113158D01*
X129865000Y-160826260D01*
X129865000Y-160533740D01*
X129807932Y-160246842D01*
X129695990Y-159976589D01*
X129533475Y-159733368D01*
X129326632Y-159526525D01*
X129152240Y-159410000D01*
X129326632Y-159293475D01*
X129533475Y-159086632D01*
X129695990Y-158843411D01*
X129807932Y-158573158D01*
X129865000Y-158286260D01*
X129865000Y-157993740D01*
X129807932Y-157706842D01*
X129695990Y-157436589D01*
X129533475Y-157193368D01*
X129401620Y-157061513D01*
X129474180Y-157039502D01*
X129584494Y-156980537D01*
X129681185Y-156901185D01*
X129760537Y-156804494D01*
X129819502Y-156694180D01*
X129855812Y-156574482D01*
X129868072Y-156450000D01*
X129865000Y-155885750D01*
X129706250Y-155727000D01*
X128507000Y-155727000D01*
X128507000Y-155747000D01*
X128253000Y-155747000D01*
X128253000Y-155727000D01*
X127053750Y-155727000D01*
X126895000Y-155885750D01*
X126891928Y-156450000D01*
X120837287Y-156450000D01*
X121979857Y-155307431D01*
X122125254Y-155247205D01*
X122174230Y-155214481D01*
X122336586Y-155393519D01*
X122562580Y-155561037D01*
X122816913Y-155681246D01*
X122950961Y-155721904D01*
X123173000Y-155599915D01*
X123173000Y-154457000D01*
X123427000Y-154457000D01*
X123427000Y-155599915D01*
X123649039Y-155721904D01*
X123783087Y-155681246D01*
X124037420Y-155561037D01*
X124263414Y-155393519D01*
X124452385Y-155185131D01*
X124597070Y-154943881D01*
X124666498Y-154750000D01*
X126891928Y-154750000D01*
X126895000Y-155314250D01*
X127053750Y-155473000D01*
X128253000Y-155473000D01*
X128253000Y-154273750D01*
X128507000Y-154273750D01*
X128507000Y-155473000D01*
X129706250Y-155473000D01*
X129865000Y-155314250D01*
X129868072Y-154750000D01*
X131971928Y-154750000D01*
X131975000Y-155314250D01*
X132133750Y-155473000D01*
X133333000Y-155473000D01*
X133333000Y-154273750D01*
X133174250Y-154115000D01*
X132610000Y-154111928D01*
X132485518Y-154124188D01*
X132365820Y-154160498D01*
X132255506Y-154219463D01*
X132158815Y-154298815D01*
X132079463Y-154395506D01*
X132020498Y-154505820D01*
X131984188Y-154625518D01*
X131971928Y-154750000D01*
X129868072Y-154750000D01*
X129855812Y-154625518D01*
X129819502Y-154505820D01*
X129760537Y-154395506D01*
X129681185Y-154298815D01*
X129584494Y-154219463D01*
X129474180Y-154160498D01*
X129354482Y-154124188D01*
X129230000Y-154111928D01*
X128665750Y-154115000D01*
X128507000Y-154273750D01*
X128253000Y-154273750D01*
X128094250Y-154115000D01*
X127530000Y-154111928D01*
X127405518Y-154124188D01*
X127285820Y-154160498D01*
X127175506Y-154219463D01*
X127078815Y-154298815D01*
X126999463Y-154395506D01*
X126940498Y-154505820D01*
X126904188Y-154625518D01*
X126891928Y-154750000D01*
X124666498Y-154750000D01*
X124691909Y-154679040D01*
X124570624Y-154457000D01*
X123427000Y-154457000D01*
X123173000Y-154457000D01*
X123153000Y-154457000D01*
X123153000Y-154203000D01*
X123173000Y-154203000D01*
X123173000Y-153060085D01*
X123427000Y-153060085D01*
X123427000Y-154203000D01*
X124570624Y-154203000D01*
X124691909Y-153980960D01*
X124597070Y-153716119D01*
X124452385Y-153474869D01*
X124263414Y-153266481D01*
X124037420Y-153098963D01*
X123783087Y-152978754D01*
X123649039Y-152938096D01*
X123427000Y-153060085D01*
X123173000Y-153060085D01*
X123155009Y-153050201D01*
X123155009Y-152744554D01*
X123159533Y-152698622D01*
X123141480Y-152515330D01*
X123120145Y-152445000D01*
X123088016Y-152339083D01*
X123001195Y-152176651D01*
X122884353Y-152034279D01*
X122848675Y-152004999D01*
X122263676Y-151420000D01*
X132556928Y-151420000D01*
X132569188Y-151544482D01*
X132605498Y-151664180D01*
X132664463Y-151774494D01*
X132743815Y-151871185D01*
X132840506Y-151950537D01*
X132950820Y-152009502D01*
X133070518Y-152045812D01*
X133195000Y-152058072D01*
X133809250Y-152055000D01*
X133968000Y-151896250D01*
X133968000Y-150647000D01*
X132718750Y-150647000D01*
X132560000Y-150805750D01*
X132556928Y-151420000D01*
X122263676Y-151420000D01*
X120735016Y-149891341D01*
X120705730Y-149855656D01*
X120563358Y-149738814D01*
X120400926Y-149651993D01*
X120295459Y-149620000D01*
X132556928Y-149620000D01*
X132560000Y-150234250D01*
X132718750Y-150393000D01*
X133968000Y-150393000D01*
X133968000Y-149143750D01*
X133809250Y-148985000D01*
X133195000Y-148981928D01*
X133070518Y-148994188D01*
X132950820Y-149030498D01*
X132840506Y-149089463D01*
X132743815Y-149168815D01*
X132664463Y-149265506D01*
X132605498Y-149375820D01*
X132569188Y-149495518D01*
X132556928Y-149620000D01*
X120295459Y-149620000D01*
X120224678Y-149598529D01*
X120087318Y-149585000D01*
X120041386Y-149580476D01*
X119995454Y-149585000D01*
X118889921Y-149585000D01*
X118843989Y-149580476D01*
X118660697Y-149598529D01*
X118639514Y-149604955D01*
X118484450Y-149651993D01*
X118322018Y-149738814D01*
X118179646Y-149855656D01*
X118150364Y-149891336D01*
X117800632Y-150241069D01*
X117765010Y-150255824D01*
X117765010Y-147433561D01*
X118010500Y-147433561D01*
X118010500Y-147637439D01*
X118050274Y-147837398D01*
X118128295Y-148025756D01*
X118241563Y-148195274D01*
X118385726Y-148339437D01*
X118555244Y-148452705D01*
X118743602Y-148530726D01*
X118943561Y-148570500D01*
X119147439Y-148570500D01*
X119347398Y-148530726D01*
X119535756Y-148452705D01*
X119705274Y-148339437D01*
X119849437Y-148195274D01*
X119962705Y-148025756D01*
X120022931Y-147880358D01*
X120718290Y-147185000D01*
X120891335Y-147185000D01*
X121168574Y-147129853D01*
X121429727Y-147021680D01*
X121664759Y-146864637D01*
X121864637Y-146664759D01*
X122021680Y-146429727D01*
X122129853Y-146168574D01*
X122185000Y-145891335D01*
X122185000Y-145608665D01*
X122129853Y-145331426D01*
X122021680Y-145070273D01*
X121864637Y-144835241D01*
X121664759Y-144635363D01*
X121429727Y-144478320D01*
X121168574Y-144370147D01*
X120891335Y-144315000D01*
X120608665Y-144315000D01*
X120331426Y-144370147D01*
X120070273Y-144478320D01*
X119835241Y-144635363D01*
X119635363Y-144835241D01*
X119478320Y-145070273D01*
X119370147Y-145331426D01*
X119315000Y-145608665D01*
X119315000Y-145891335D01*
X119323690Y-145935021D01*
X118700642Y-146558069D01*
X118555244Y-146618295D01*
X118385726Y-146731563D01*
X118241563Y-146875726D01*
X118128295Y-147045244D01*
X118050274Y-147233602D01*
X118010500Y-147433561D01*
X117765010Y-147433561D01*
X117765010Y-144626409D01*
X117823013Y-144644004D01*
X117971999Y-144658678D01*
X118009332Y-144655001D01*
X119317677Y-144655001D01*
X119354999Y-144658677D01*
X119392321Y-144655001D01*
X119392332Y-144655001D01*
X119503985Y-144644004D01*
X119647246Y-144600547D01*
X119779275Y-144529975D01*
X119895000Y-144435002D01*
X119918803Y-144405998D01*
X120426114Y-143898688D01*
X120608665Y-143935000D01*
X120891335Y-143935000D01*
X121168574Y-143879853D01*
X121429727Y-143771680D01*
X121664759Y-143614637D01*
X121864637Y-143414759D01*
X121968043Y-143260000D01*
X127345199Y-143260000D01*
X129511312Y-145426114D01*
X129475000Y-145608665D01*
X129475000Y-145891335D01*
X129530147Y-146168574D01*
X129638320Y-146429727D01*
X129795363Y-146664759D01*
X129995241Y-146864637D01*
X130230273Y-147021680D01*
X130491426Y-147129853D01*
X130768665Y-147185000D01*
X131051335Y-147185000D01*
X131328574Y-147129853D01*
X131589727Y-147021680D01*
X131824759Y-146864637D01*
X132024637Y-146664759D01*
X132181680Y-146429727D01*
X132289853Y-146168574D01*
X132345000Y-145891335D01*
X132345000Y-145608665D01*
X132289853Y-145331426D01*
X132181680Y-145070273D01*
X132024637Y-144835241D01*
X131824759Y-144635363D01*
X131589727Y-144478320D01*
X131485144Y-144435000D01*
X132556928Y-144435000D01*
X132569188Y-144559482D01*
X132605498Y-144679180D01*
X132664463Y-144789494D01*
X132743815Y-144886185D01*
X132840506Y-144965537D01*
X132950820Y-145024502D01*
X133070518Y-145060812D01*
X133195000Y-145073072D01*
X133809250Y-145070000D01*
X133968000Y-144911250D01*
X133968000Y-143662000D01*
X132718750Y-143662000D01*
X132560000Y-143820750D01*
X132556928Y-144435000D01*
X131485144Y-144435000D01*
X131328574Y-144370147D01*
X131051335Y-144315000D01*
X130768665Y-144315000D01*
X130586114Y-144351312D01*
X129083841Y-142849039D01*
X129518096Y-142849039D01*
X129558754Y-142983087D01*
X129678963Y-143237420D01*
X129846481Y-143463414D01*
X130054869Y-143652385D01*
X130296119Y-143797070D01*
X130560960Y-143891909D01*
X130783000Y-143770624D01*
X130783000Y-142627000D01*
X131037000Y-142627000D01*
X131037000Y-143770624D01*
X131259040Y-143891909D01*
X131523881Y-143797070D01*
X131765131Y-143652385D01*
X131973519Y-143463414D01*
X132141037Y-143237420D01*
X132261246Y-142983087D01*
X132301904Y-142849039D01*
X132184311Y-142635000D01*
X132556928Y-142635000D01*
X132560000Y-143249250D01*
X132718750Y-143408000D01*
X133968000Y-143408000D01*
X133968000Y-142158750D01*
X133809250Y-142000000D01*
X133195000Y-141996928D01*
X133070518Y-142009188D01*
X132950820Y-142045498D01*
X132840506Y-142104463D01*
X132743815Y-142183815D01*
X132664463Y-142280506D01*
X132605498Y-142390820D01*
X132569188Y-142510518D01*
X132556928Y-142635000D01*
X132184311Y-142635000D01*
X132179915Y-142627000D01*
X131037000Y-142627000D01*
X130783000Y-142627000D01*
X129640085Y-142627000D01*
X129518096Y-142849039D01*
X129083841Y-142849039D01*
X128223804Y-141989003D01*
X128200001Y-141959999D01*
X128084276Y-141865026D01*
X127952247Y-141794454D01*
X127808986Y-141750997D01*
X127697333Y-141740000D01*
X127697322Y-141740000D01*
X127660000Y-141736324D01*
X127622678Y-141740000D01*
X121968043Y-141740000D01*
X121864637Y-141585241D01*
X121719396Y-141440000D01*
X129952991Y-141440000D01*
X129846481Y-141536586D01*
X129678963Y-141762580D01*
X129558754Y-142016913D01*
X129518096Y-142150961D01*
X129640085Y-142373000D01*
X130783000Y-142373000D01*
X130783000Y-142353000D01*
X131037000Y-142353000D01*
X131037000Y-142373000D01*
X132179915Y-142373000D01*
X132301904Y-142150961D01*
X132261246Y-142016913D01*
X132141037Y-141762580D01*
X131973519Y-141536586D01*
X131867009Y-141440000D01*
X137655198Y-141440000D01*
X137043930Y-142051269D01*
X136786184Y-142000000D01*
X136483816Y-142000000D01*
X136187257Y-142058989D01*
X135907905Y-142174701D01*
X135656495Y-142342688D01*
X135590056Y-142409127D01*
X135584502Y-142390820D01*
X135525537Y-142280506D01*
X135446185Y-142183815D01*
X135349494Y-142104463D01*
X135239180Y-142045498D01*
X135119482Y-142009188D01*
X134995000Y-141996928D01*
X134380750Y-142000000D01*
X134222000Y-142158750D01*
X134222000Y-143408000D01*
X134242000Y-143408000D01*
X134242000Y-143662000D01*
X134222000Y-143662000D01*
X134222000Y-144911250D01*
X134380750Y-145070000D01*
X134995000Y-145073072D01*
X135119482Y-145060812D01*
X135239180Y-145024502D01*
X135349494Y-144965537D01*
X135446185Y-144886185D01*
X135525537Y-144789494D01*
X135584502Y-144679180D01*
X135590056Y-144660873D01*
X135656495Y-144727312D01*
X135907905Y-144895299D01*
X136187257Y-145011011D01*
X136483816Y-145070000D01*
X136764000Y-145070000D01*
X136764000Y-145697289D01*
X136671063Y-145790226D01*
X136557795Y-145959744D01*
X136479774Y-146148102D01*
X136440000Y-146348061D01*
X136440000Y-146551939D01*
X136479774Y-146751898D01*
X136557795Y-146940256D01*
X136671063Y-147109774D01*
X136815226Y-147253937D01*
X136984744Y-147367205D01*
X137173102Y-147445226D01*
X137373061Y-147485000D01*
X137576939Y-147485000D01*
X137776898Y-147445226D01*
X137965256Y-147367205D01*
X138134774Y-147253937D01*
X138278937Y-147109774D01*
X138392205Y-146940256D01*
X138470226Y-146751898D01*
X138510000Y-146551939D01*
X138510000Y-146348061D01*
X138470226Y-146148102D01*
X138392205Y-145959744D01*
X138284000Y-145797803D01*
X138284000Y-145310301D01*
X138664302Y-144930000D01*
X140999996Y-144930000D01*
X138909798Y-147020199D01*
X138880800Y-147043997D01*
X138857002Y-147072995D01*
X138857001Y-147072996D01*
X138785826Y-147159722D01*
X138715254Y-147291752D01*
X138671798Y-147435013D01*
X138657124Y-147583998D01*
X138660801Y-147621330D01*
X138660801Y-148330928D01*
X138620800Y-148330928D01*
X138496318Y-148343188D01*
X138376620Y-148379498D01*
X138266306Y-148438463D01*
X138169615Y-148517815D01*
X138090263Y-148614506D01*
X138031298Y-148724820D01*
X137994988Y-148844518D01*
X137982728Y-148969000D01*
X137982728Y-149519000D01*
X137994988Y-149643482D01*
X137995145Y-149644000D01*
X137994988Y-149644518D01*
X137982728Y-149769000D01*
X137982728Y-149774091D01*
X137827312Y-149541495D01*
X137613505Y-149327688D01*
X137362095Y-149159701D01*
X137082743Y-149043989D01*
X136786184Y-148985000D01*
X136483816Y-148985000D01*
X136187257Y-149043989D01*
X135907905Y-149159701D01*
X135656495Y-149327688D01*
X135590056Y-149394127D01*
X135584502Y-149375820D01*
X135525537Y-149265506D01*
X135446185Y-149168815D01*
X135349494Y-149089463D01*
X135239180Y-149030498D01*
X135119482Y-148994188D01*
X134995000Y-148981928D01*
X134380750Y-148985000D01*
X134222000Y-149143750D01*
X134222000Y-150393000D01*
X134242000Y-150393000D01*
X134242000Y-150647000D01*
X134222000Y-150647000D01*
X134222000Y-151896250D01*
X134380750Y-152055000D01*
X134995000Y-152058072D01*
X135119482Y-152045812D01*
X135239180Y-152009502D01*
X135349494Y-151950537D01*
X135446185Y-151871185D01*
X135525537Y-151774494D01*
X135584502Y-151664180D01*
X135590056Y-151645873D01*
X135656495Y-151712312D01*
X135907905Y-151880299D01*
X136187257Y-151996011D01*
X136483816Y-152055000D01*
X136786184Y-152055000D01*
X137082743Y-151996011D01*
X137362095Y-151880299D01*
X137613505Y-151712312D01*
X137827312Y-151498505D01*
X137994637Y-151248086D01*
X137982728Y-151369000D01*
X137982728Y-151919000D01*
X137994988Y-152043482D01*
X137995333Y-152044620D01*
X137985800Y-152158250D01*
X138077883Y-152250333D01*
X138090263Y-152273494D01*
X138169615Y-152370185D01*
X138259559Y-152444000D01*
X138169615Y-152517815D01*
X138090263Y-152614506D01*
X138077883Y-152637667D01*
X137985800Y-152729750D01*
X137995333Y-152843380D01*
X137994988Y-152844518D01*
X137982728Y-152969000D01*
X137982728Y-153519000D01*
X137994988Y-153643482D01*
X137995145Y-153644000D01*
X137994988Y-153644518D01*
X137982728Y-153769000D01*
X137982728Y-154319000D01*
X137994988Y-154443482D01*
X137995145Y-154444000D01*
X137994988Y-154444518D01*
X137982728Y-154569000D01*
X137982728Y-155119000D01*
X137994988Y-155243482D01*
X138031298Y-155363180D01*
X138090263Y-155473494D01*
X138169615Y-155570185D01*
X138266306Y-155649537D01*
X138376620Y-155708502D01*
X138496318Y-155744812D01*
X138620800Y-155757072D01*
X139957728Y-155757072D01*
X139957728Y-157094000D01*
X139969988Y-157218482D01*
X139977429Y-157243012D01*
X139912795Y-157339744D01*
X139834774Y-157528102D01*
X139826440Y-157570000D01*
X138403711Y-157570000D01*
X138359774Y-157526063D01*
X138190256Y-157412795D01*
X138001898Y-157334774D01*
X137801939Y-157295000D01*
X137598061Y-157295000D01*
X137398102Y-157334774D01*
X137209744Y-157412795D01*
X137040226Y-157526063D01*
X136896063Y-157670226D01*
X136782795Y-157839744D01*
X136755000Y-157906847D01*
X136727205Y-157839744D01*
X136613937Y-157670226D01*
X136570000Y-157626289D01*
X136570000Y-154407323D01*
X136573676Y-154370000D01*
X136570000Y-154332677D01*
X136570000Y-154332667D01*
X136559003Y-154221014D01*
X136515546Y-154077753D01*
X136497638Y-154044250D01*
X136444974Y-153945723D01*
X136373799Y-153858997D01*
X136350001Y-153829999D01*
X136321004Y-153806202D01*
X135595000Y-153080199D01*
X135595000Y-153018061D01*
X135555226Y-152818102D01*
X135477205Y-152629744D01*
X135363937Y-152460226D01*
X135219774Y-152316063D01*
X135050256Y-152202795D01*
X134861898Y-152124774D01*
X134661939Y-152085000D01*
X134458061Y-152085000D01*
X134258102Y-152124774D01*
X134069744Y-152202795D01*
X133900226Y-152316063D01*
X133756063Y-152460226D01*
X133642795Y-152629744D01*
X133564774Y-152818102D01*
X133525000Y-153018061D01*
X133525000Y-153221939D01*
X133564774Y-153421898D01*
X133642795Y-153610256D01*
X133756063Y-153779774D01*
X133900226Y-153923937D01*
X134069744Y-154037205D01*
X134250917Y-154112250D01*
X133745750Y-154115000D01*
X133587000Y-154273750D01*
X133587000Y-155473000D01*
X134786250Y-155473000D01*
X134945000Y-155314250D01*
X134948072Y-154750000D01*
X134935812Y-154625518D01*
X134911905Y-154546706D01*
X135050000Y-154684802D01*
X135050001Y-157626288D01*
X135006063Y-157670226D01*
X134909419Y-157814864D01*
X134887932Y-157706842D01*
X134775990Y-157436589D01*
X134613475Y-157193368D01*
X134481620Y-157061513D01*
X134554180Y-157039502D01*
X134664494Y-156980537D01*
X134761185Y-156901185D01*
X134840537Y-156804494D01*
X134899502Y-156694180D01*
X134935812Y-156574482D01*
X134948072Y-156450000D01*
X134945000Y-155885750D01*
X134786250Y-155727000D01*
X133587000Y-155727000D01*
X133587000Y-155747000D01*
X133333000Y-155747000D01*
X133333000Y-155727000D01*
X132133750Y-155727000D01*
X131975000Y-155885750D01*
X131971928Y-156450000D01*
X131984188Y-156574482D01*
X132020498Y-156694180D01*
X132079463Y-156804494D01*
X132158815Y-156901185D01*
X132255506Y-156980537D01*
X132365820Y-157039502D01*
X132438380Y-157061513D01*
X132306525Y-157193368D01*
X132144010Y-157436589D01*
X132032068Y-157706842D01*
X131975000Y-157993740D01*
X131975000Y-158286260D01*
X132032068Y-158573158D01*
X132144010Y-158843411D01*
X132306525Y-159086632D01*
X132513368Y-159293475D01*
X132687760Y-159410000D01*
X132513368Y-159526525D01*
X132306525Y-159733368D01*
X132144010Y-159976589D01*
X132032068Y-160246842D01*
X131975000Y-160533740D01*
X131975000Y-160826260D01*
X132032068Y-161113158D01*
X132144010Y-161383411D01*
X132306525Y-161626632D01*
X132513368Y-161833475D01*
X132687760Y-161950000D01*
X132513368Y-162066525D01*
X132306525Y-162273368D01*
X132144010Y-162516589D01*
X132032068Y-162786842D01*
X131975000Y-163073740D01*
X131975000Y-163366260D01*
X132032068Y-163653158D01*
X132144010Y-163923411D01*
X132306525Y-164166632D01*
X132513368Y-164373475D01*
X132756589Y-164535990D01*
X133026842Y-164647932D01*
X133313740Y-164705000D01*
X133606260Y-164705000D01*
X133893158Y-164647932D01*
X134163411Y-164535990D01*
X134406632Y-164373475D01*
X134613475Y-164166632D01*
X134775990Y-163923411D01*
X134887932Y-163653158D01*
X134945000Y-163366260D01*
X134945000Y-163073740D01*
X134887932Y-162786842D01*
X134775990Y-162516589D01*
X134613475Y-162273368D01*
X134406632Y-162066525D01*
X134232240Y-161950000D01*
X134406632Y-161833475D01*
X134613475Y-161626632D01*
X134740000Y-161437273D01*
X134740000Y-161881679D01*
X134736324Y-161919002D01*
X134740000Y-161956324D01*
X134740000Y-161956334D01*
X134750997Y-162067987D01*
X134790450Y-162198047D01*
X134794454Y-162211248D01*
X134865026Y-162343278D01*
X134894938Y-162379725D01*
X134959999Y-162459003D01*
X134989003Y-162482806D01*
X139613040Y-167106844D01*
X139636838Y-167135842D01*
X139665836Y-167159640D01*
X139752562Y-167230815D01*
X139884592Y-167301387D01*
X140027853Y-167344844D01*
X140139506Y-167355841D01*
X140139515Y-167355841D01*
X140176838Y-167359517D01*
X140214161Y-167355841D01*
X144965000Y-167355841D01*
X144965000Y-167422780D01*
X145004774Y-167622739D01*
X145082795Y-167811097D01*
X145196063Y-167980615D01*
X145340226Y-168124778D01*
X145509744Y-168238046D01*
X145698102Y-168316067D01*
X145898061Y-168355841D01*
X146101939Y-168355841D01*
X146301898Y-168316067D01*
X146490256Y-168238046D01*
X146659774Y-168124778D01*
X146703711Y-168080841D01*
X162768247Y-168080841D01*
X162805569Y-168084517D01*
X162842891Y-168080841D01*
X162842902Y-168080841D01*
X162954555Y-168069844D01*
X163097816Y-168026387D01*
X163229845Y-167955815D01*
X163345570Y-167860842D01*
X163369373Y-167831838D01*
X166441213Y-164760000D01*
X167191680Y-164760000D01*
X167229002Y-164763676D01*
X167266324Y-164760000D01*
X167266335Y-164760000D01*
X167377988Y-164749003D01*
X167521249Y-164705546D01*
X167653278Y-164634974D01*
X167769003Y-164540001D01*
X167792806Y-164510997D01*
X168936004Y-163367800D01*
X168965002Y-163344002D01*
X169017527Y-163280000D01*
X169059975Y-163228278D01*
X169130547Y-163096248D01*
X169137000Y-163074975D01*
X169174004Y-162952987D01*
X169185001Y-162841334D01*
X169185001Y-162841324D01*
X169188677Y-162804002D01*
X169185001Y-162766679D01*
X169185001Y-159173321D01*
X169188677Y-159135998D01*
X169185001Y-159098675D01*
X169185001Y-159098666D01*
X169174004Y-158987013D01*
X169130547Y-158843752D01*
X169059975Y-158711723D01*
X168965002Y-158595998D01*
X168936005Y-158572201D01*
X168430296Y-158066492D01*
X168565990Y-157863411D01*
X168677932Y-157593158D01*
X168735000Y-157306260D01*
X168735000Y-157013740D01*
X168677932Y-156726842D01*
X168565990Y-156456589D01*
X168403475Y-156213368D01*
X168196632Y-156006525D01*
X168022240Y-155890000D01*
X168196632Y-155773475D01*
X168403475Y-155566632D01*
X168565990Y-155323411D01*
X168677932Y-155053158D01*
X168735000Y-154766260D01*
X168735000Y-154473740D01*
X168677932Y-154186842D01*
X168565990Y-153916589D01*
X168403475Y-153673368D01*
X168196632Y-153466525D01*
X168022240Y-153350000D01*
X168196632Y-153233475D01*
X168403475Y-153026632D01*
X168565990Y-152783411D01*
X168677932Y-152513158D01*
X168735000Y-152226260D01*
X168735000Y-151933740D01*
X168677932Y-151646842D01*
X168565990Y-151376589D01*
X168403475Y-151133368D01*
X168196632Y-150926525D01*
X168014466Y-150804805D01*
X168131355Y-150735178D01*
X168347588Y-150540269D01*
X168521641Y-150306920D01*
X168646825Y-150044099D01*
X168691476Y-149896890D01*
X168570155Y-149667000D01*
X167377000Y-149667000D01*
X167377000Y-149687000D01*
X167123000Y-149687000D01*
X167123000Y-149667000D01*
X165929845Y-149667000D01*
X165808524Y-149896890D01*
X165853175Y-150044099D01*
X165978359Y-150306920D01*
X166152412Y-150540269D01*
X166368645Y-150735178D01*
X166485534Y-150804805D01*
X166303368Y-150926525D01*
X166096525Y-151133368D01*
X165934010Y-151376589D01*
X165822068Y-151646842D01*
X165765000Y-151933740D01*
X165765000Y-152226260D01*
X165808790Y-152446407D01*
X163938210Y-154316989D01*
X163938210Y-149611530D01*
X163941886Y-149574207D01*
X163938210Y-149536884D01*
X163938210Y-149536875D01*
X163927213Y-149425222D01*
X163883756Y-149281961D01*
X163813184Y-149149932D01*
X163718211Y-149034207D01*
X163689214Y-149010410D01*
X161930805Y-147252002D01*
X161907002Y-147222998D01*
X161791277Y-147128025D01*
X161659248Y-147057453D01*
X161515987Y-147013996D01*
X161404334Y-147002999D01*
X161404323Y-147002999D01*
X161367001Y-146999323D01*
X161329679Y-147002999D01*
X160708321Y-147002999D01*
X160670998Y-146999323D01*
X160633675Y-147002999D01*
X160633666Y-147002999D01*
X160522013Y-147013996D01*
X160378752Y-147057453D01*
X160275011Y-147112905D01*
X160275011Y-145180924D01*
X160278687Y-145143599D01*
X160275011Y-145106274D01*
X160275011Y-145106266D01*
X160264014Y-144994613D01*
X160220557Y-144851352D01*
X160149985Y-144719323D01*
X160055012Y-144603598D01*
X160026015Y-144579801D01*
X156260206Y-140813993D01*
X156236403Y-140784989D01*
X156120678Y-140690016D01*
X156017731Y-140634989D01*
X160813519Y-140634989D01*
X160688441Y-140718563D01*
X160488563Y-140918441D01*
X160331520Y-141153473D01*
X160223347Y-141414626D01*
X160168200Y-141691865D01*
X160168200Y-141974535D01*
X160223347Y-142251774D01*
X160331520Y-142512927D01*
X160488563Y-142747959D01*
X160688441Y-142947837D01*
X160923473Y-143104880D01*
X161184626Y-143213053D01*
X161461865Y-143268200D01*
X161744535Y-143268200D01*
X162021774Y-143213053D01*
X162282927Y-143104880D01*
X162517959Y-142947837D01*
X162717837Y-142747959D01*
X162874178Y-142513977D01*
X166009342Y-145649142D01*
X165948815Y-145698815D01*
X165869463Y-145795506D01*
X165810498Y-145905820D01*
X165774188Y-146025518D01*
X165761928Y-146150000D01*
X165761928Y-147850000D01*
X165774188Y-147974482D01*
X165810498Y-148094180D01*
X165869463Y-148204494D01*
X165948815Y-148301185D01*
X166045506Y-148380537D01*
X166155820Y-148439502D01*
X166236466Y-148463966D01*
X166152412Y-148539731D01*
X165978359Y-148773080D01*
X165853175Y-149035901D01*
X165808524Y-149183110D01*
X165929845Y-149413000D01*
X167123000Y-149413000D01*
X167123000Y-149393000D01*
X167377000Y-149393000D01*
X167377000Y-149413000D01*
X168570155Y-149413000D01*
X168691476Y-149183110D01*
X168646825Y-149035901D01*
X168521641Y-148773080D01*
X168347588Y-148539731D01*
X168263534Y-148463966D01*
X168344180Y-148439502D01*
X168454494Y-148380537D01*
X168551185Y-148301185D01*
X168630537Y-148204494D01*
X168689502Y-148094180D01*
X168725812Y-147974482D01*
X168738072Y-147850000D01*
X168738072Y-146150000D01*
X168725812Y-146025518D01*
X168689502Y-145905820D01*
X168630537Y-145795506D01*
X168551185Y-145698815D01*
X168454494Y-145619463D01*
X168344180Y-145560498D01*
X168224482Y-145524188D01*
X168100000Y-145511928D01*
X167949761Y-145511928D01*
X167884974Y-145390722D01*
X167790001Y-145274997D01*
X167761003Y-145251199D01*
X161873795Y-139363992D01*
X161849992Y-139334988D01*
X161734267Y-139240015D01*
X161602238Y-139169443D01*
X161458977Y-139125986D01*
X161347324Y-139114989D01*
X161347313Y-139114989D01*
X161309991Y-139111313D01*
X161272669Y-139114989D01*
X120450238Y-139114989D01*
X120412915Y-139111313D01*
X120375592Y-139114989D01*
X120375583Y-139114989D01*
X120263930Y-139125986D01*
X120120669Y-139169443D01*
X119988640Y-139240015D01*
X119988638Y-139240016D01*
X119988639Y-139240016D01*
X119901912Y-139311190D01*
X119901908Y-139311194D01*
X119872915Y-139334988D01*
X119849121Y-139363981D01*
X117084002Y-142129102D01*
X117054998Y-142152905D01*
X117007310Y-142211014D01*
X116960025Y-142268630D01*
X116935240Y-142315000D01*
X116889453Y-142400660D01*
X116877858Y-142438885D01*
X116272974Y-141834002D01*
X116249171Y-141804998D01*
X116133446Y-141710025D01*
X116001417Y-141639453D01*
X115858156Y-141595996D01*
X115746503Y-141584999D01*
X115746492Y-141584999D01*
X115709170Y-141581323D01*
X115671848Y-141584999D01*
X104681321Y-141584999D01*
X104643998Y-141581323D01*
X104606675Y-141584999D01*
X104606666Y-141584999D01*
X104495013Y-141595996D01*
X104351752Y-141639453D01*
X104219723Y-141710025D01*
X104103998Y-141804998D01*
X104080200Y-141833996D01*
X101199003Y-144715194D01*
X101169999Y-144738997D01*
X101135981Y-144780449D01*
X101075026Y-144854722D01*
X101040667Y-144919003D01*
X101004454Y-144986752D01*
X100960997Y-145130013D01*
X100950000Y-145241666D01*
X100950000Y-145241676D01*
X100946324Y-145278998D01*
X94435000Y-145278998D01*
X94435000Y-138854984D01*
X94519369Y-139058669D01*
X94763962Y-139424729D01*
X95075271Y-139736038D01*
X95441331Y-139980631D01*
X95848075Y-140149110D01*
X96279872Y-140235000D01*
X96720128Y-140235000D01*
X97151925Y-140149110D01*
X97558669Y-139980631D01*
X97924729Y-139736038D01*
X98236038Y-139424729D01*
X98480631Y-139058669D01*
X98649110Y-138651925D01*
X98735000Y-138220128D01*
X98735000Y-137779872D01*
X98649110Y-137348075D01*
X98480631Y-136941331D01*
X98236038Y-136575271D01*
X97924729Y-136263962D01*
X97806554Y-136185000D01*
X169693446Y-136185000D01*
X169575271Y-136263962D01*
G36*
X139926525Y-164166632D02*
G01*
X140133368Y-164373475D01*
X140376589Y-164535990D01*
X140646842Y-164647932D01*
X140933740Y-164705000D01*
X141226260Y-164705000D01*
X141446408Y-164661210D01*
X141796200Y-165011002D01*
X141819999Y-165040001D01*
X141935724Y-165134974D01*
X142067753Y-165205546D01*
X142211014Y-165249003D01*
X142322667Y-165260000D01*
X142322676Y-165260000D01*
X142359999Y-165263676D01*
X142397322Y-165260000D01*
X144796289Y-165260000D01*
X144840226Y-165303937D01*
X145009744Y-165417205D01*
X145198102Y-165495226D01*
X145398061Y-165535000D01*
X145601939Y-165535000D01*
X145801898Y-165495226D01*
X145990256Y-165417205D01*
X146159774Y-165303937D01*
X146212659Y-165251052D01*
X146315363Y-165404759D01*
X146515241Y-165604637D01*
X146750273Y-165761680D01*
X146929314Y-165835841D01*
X140491641Y-165835841D01*
X139198894Y-164543095D01*
X139306920Y-164491641D01*
X139540269Y-164317588D01*
X139735178Y-164101355D01*
X139804805Y-163984466D01*
X139926525Y-164166632D01*
G37*
X139926525Y-164166632D02*
X140133368Y-164373475D01*
X140376589Y-164535990D01*
X140646842Y-164647932D01*
X140933740Y-164705000D01*
X141226260Y-164705000D01*
X141446408Y-164661210D01*
X141796200Y-165011002D01*
X141819999Y-165040001D01*
X141935724Y-165134974D01*
X142067753Y-165205546D01*
X142211014Y-165249003D01*
X142322667Y-165260000D01*
X142322676Y-165260000D01*
X142359999Y-165263676D01*
X142397322Y-165260000D01*
X144796289Y-165260000D01*
X144840226Y-165303937D01*
X145009744Y-165417205D01*
X145198102Y-165495226D01*
X145398061Y-165535000D01*
X145601939Y-165535000D01*
X145801898Y-165495226D01*
X145990256Y-165417205D01*
X146159774Y-165303937D01*
X146212659Y-165251052D01*
X146315363Y-165404759D01*
X146515241Y-165604637D01*
X146750273Y-165761680D01*
X146929314Y-165835841D01*
X140491641Y-165835841D01*
X139198894Y-164543095D01*
X139306920Y-164491641D01*
X139540269Y-164317588D01*
X139735178Y-164101355D01*
X139804805Y-163984466D01*
X139926525Y-164166632D01*
G36*
X154025000Y-153131939D02*
G01*
X154064774Y-153331898D01*
X154142795Y-153520256D01*
X154256063Y-153689774D01*
X154300000Y-153733711D01*
X154300001Y-154589666D01*
X154296324Y-154626998D01*
X154300001Y-154664331D01*
X154310998Y-154775984D01*
X154320551Y-154807476D01*
X154354454Y-154919244D01*
X154425026Y-155051274D01*
X154492867Y-155133937D01*
X154520000Y-155166999D01*
X154548998Y-155190797D01*
X156504023Y-157145823D01*
X156442086Y-157178929D01*
X156370503Y-157422898D01*
X157183600Y-158235995D01*
X157197743Y-158221853D01*
X157377348Y-158401458D01*
X157363205Y-158415600D01*
X158176302Y-159228697D01*
X158420271Y-159157114D01*
X158541171Y-158901604D01*
X158609900Y-158627416D01*
X158613687Y-158550590D01*
X159857804Y-158550590D01*
X159901575Y-158694899D01*
X160026759Y-158957720D01*
X160200812Y-159191069D01*
X160417045Y-159385978D01*
X160533934Y-159455605D01*
X160351768Y-159577325D01*
X160144925Y-159784168D01*
X159982410Y-160027389D01*
X159870468Y-160297642D01*
X159813400Y-160584540D01*
X159813400Y-160877060D01*
X159866856Y-161145801D01*
X159626973Y-161145801D01*
X159285173Y-160804002D01*
X159261371Y-160774999D01*
X159145646Y-160680026D01*
X159013617Y-160609454D01*
X158870356Y-160565997D01*
X158811519Y-160560202D01*
X158704637Y-160400241D01*
X158504759Y-160200363D01*
X158269727Y-160043320D01*
X158008574Y-159935147D01*
X157731335Y-159880000D01*
X157448665Y-159880000D01*
X157171426Y-159935147D01*
X156910273Y-160043320D01*
X156675241Y-160200363D01*
X156475363Y-160400241D01*
X156318320Y-160635273D01*
X156210147Y-160896426D01*
X156155000Y-161173665D01*
X156155000Y-161456335D01*
X156210147Y-161733574D01*
X156318320Y-161994727D01*
X156475363Y-162229759D01*
X156675241Y-162429637D01*
X156750631Y-162480011D01*
X156304813Y-162480011D01*
X155035000Y-161210199D01*
X155035000Y-161148061D01*
X154995226Y-160948102D01*
X154917205Y-160759744D01*
X154803937Y-160590226D01*
X154659774Y-160446063D01*
X154490256Y-160332795D01*
X154301898Y-160254774D01*
X154101939Y-160215000D01*
X153898061Y-160215000D01*
X153698102Y-160254774D01*
X153509744Y-160332795D01*
X153340226Y-160446063D01*
X153196063Y-160590226D01*
X153082795Y-160759744D01*
X153004774Y-160948102D01*
X152965000Y-161148061D01*
X152965000Y-161351939D01*
X153004774Y-161551898D01*
X153082795Y-161740256D01*
X153196063Y-161909774D01*
X153340226Y-162053937D01*
X153509744Y-162167205D01*
X153698102Y-162245226D01*
X153898061Y-162285000D01*
X153960199Y-162285000D01*
X155426211Y-163751013D01*
X155450010Y-163780012D01*
X155565735Y-163874985D01*
X155697764Y-163945557D01*
X155841025Y-163989014D01*
X155952577Y-164000001D01*
X155990011Y-164003688D01*
X156027344Y-164000011D01*
X156239728Y-164000011D01*
X156210147Y-164071426D01*
X156155000Y-164348665D01*
X156155000Y-164631335D01*
X156210147Y-164908574D01*
X156221433Y-164935821D01*
X153510623Y-164935821D01*
X153035000Y-164460199D01*
X153035000Y-164398061D01*
X152995226Y-164198102D01*
X152917205Y-164009744D01*
X152803937Y-163840226D01*
X152659774Y-163696063D01*
X152490256Y-163582795D01*
X152301898Y-163504774D01*
X152101939Y-163465000D01*
X151898061Y-163465000D01*
X151698102Y-163504774D01*
X151509744Y-163582795D01*
X151340226Y-163696063D01*
X151196063Y-163840226D01*
X151082795Y-164009744D01*
X151074722Y-164029234D01*
X150990256Y-163972796D01*
X150801898Y-163894775D01*
X150601939Y-163855001D01*
X150398061Y-163855001D01*
X150198102Y-163894775D01*
X150009744Y-163972796D01*
X149840226Y-164086064D01*
X149696063Y-164230227D01*
X149582795Y-164399745D01*
X149504774Y-164588103D01*
X149465000Y-164788062D01*
X149465000Y-164991940D01*
X149504774Y-165191899D01*
X149582795Y-165380257D01*
X149696063Y-165549775D01*
X149840226Y-165693938D01*
X150009744Y-165807206D01*
X150078875Y-165835841D01*
X147930686Y-165835841D01*
X148109727Y-165761680D01*
X148344759Y-165604637D01*
X148544637Y-165404759D01*
X148701680Y-165169727D01*
X148809853Y-164908574D01*
X148865000Y-164631335D01*
X148865000Y-164348665D01*
X148828688Y-164166114D01*
X151497009Y-161497794D01*
X151526001Y-161474001D01*
X151549795Y-161445008D01*
X151549799Y-161445004D01*
X151620973Y-161358277D01*
X151620974Y-161358276D01*
X151691546Y-161226247D01*
X151735003Y-161082986D01*
X151746000Y-160971333D01*
X151746000Y-160971324D01*
X151749676Y-160934001D01*
X151746000Y-160896678D01*
X151746000Y-159408302D01*
X156370503Y-159408302D01*
X156442086Y-159652271D01*
X156697596Y-159773171D01*
X156971784Y-159841900D01*
X157254112Y-159855817D01*
X157533730Y-159814387D01*
X157799892Y-159719203D01*
X157925114Y-159652271D01*
X157996697Y-159408302D01*
X157183600Y-158595205D01*
X156370503Y-159408302D01*
X151746000Y-159408302D01*
X151746000Y-158486112D01*
X155743383Y-158486112D01*
X155784813Y-158765730D01*
X155879997Y-159031892D01*
X155946929Y-159157114D01*
X156190898Y-159228697D01*
X157003995Y-158415600D01*
X156190898Y-157602503D01*
X155946929Y-157674086D01*
X155826029Y-157929596D01*
X155757300Y-158203784D01*
X155743383Y-158486112D01*
X151746000Y-158486112D01*
X151746000Y-157990034D01*
X151768486Y-158066671D01*
X152023996Y-158187571D01*
X152298184Y-158256300D01*
X152580512Y-158270217D01*
X152860130Y-158228787D01*
X153126292Y-158133603D01*
X153251514Y-158066671D01*
X153323097Y-157822702D01*
X152510000Y-157009605D01*
X152495858Y-157023748D01*
X152316253Y-156844143D01*
X152330395Y-156830000D01*
X152689605Y-156830000D01*
X153502702Y-157643097D01*
X153746671Y-157571514D01*
X153867571Y-157316004D01*
X153936300Y-157041816D01*
X153950217Y-156759488D01*
X153908787Y-156479870D01*
X153813603Y-156213708D01*
X153746671Y-156088486D01*
X153502702Y-156016903D01*
X152689605Y-156830000D01*
X152330395Y-156830000D01*
X152316253Y-156815858D01*
X152495858Y-156636253D01*
X152510000Y-156650395D01*
X153323097Y-155837298D01*
X153302785Y-155768072D01*
X153310000Y-155768072D01*
X153434482Y-155755812D01*
X153554180Y-155719502D01*
X153664494Y-155660537D01*
X153761185Y-155581185D01*
X153840537Y-155484494D01*
X153899502Y-155374180D01*
X153935812Y-155254482D01*
X153948072Y-155130000D01*
X153948072Y-153530000D01*
X153935812Y-153405518D01*
X153899502Y-153285820D01*
X153840537Y-153175506D01*
X153761185Y-153078815D01*
X153700497Y-153029010D01*
X154025000Y-153029010D01*
X154025000Y-153131939D01*
G37*
X154025000Y-153131939D02*
X154064774Y-153331898D01*
X154142795Y-153520256D01*
X154256063Y-153689774D01*
X154300000Y-153733711D01*
X154300001Y-154589666D01*
X154296324Y-154626998D01*
X154300001Y-154664331D01*
X154310998Y-154775984D01*
X154320551Y-154807476D01*
X154354454Y-154919244D01*
X154425026Y-155051274D01*
X154492867Y-155133937D01*
X154520000Y-155166999D01*
X154548998Y-155190797D01*
X156504023Y-157145823D01*
X156442086Y-157178929D01*
X156370503Y-157422898D01*
X157183600Y-158235995D01*
X157197743Y-158221853D01*
X157377348Y-158401458D01*
X157363205Y-158415600D01*
X158176302Y-159228697D01*
X158420271Y-159157114D01*
X158541171Y-158901604D01*
X158609900Y-158627416D01*
X158613687Y-158550590D01*
X159857804Y-158550590D01*
X159901575Y-158694899D01*
X160026759Y-158957720D01*
X160200812Y-159191069D01*
X160417045Y-159385978D01*
X160533934Y-159455605D01*
X160351768Y-159577325D01*
X160144925Y-159784168D01*
X159982410Y-160027389D01*
X159870468Y-160297642D01*
X159813400Y-160584540D01*
X159813400Y-160877060D01*
X159866856Y-161145801D01*
X159626973Y-161145801D01*
X159285173Y-160804002D01*
X159261371Y-160774999D01*
X159145646Y-160680026D01*
X159013617Y-160609454D01*
X158870356Y-160565997D01*
X158811519Y-160560202D01*
X158704637Y-160400241D01*
X158504759Y-160200363D01*
X158269727Y-160043320D01*
X158008574Y-159935147D01*
X157731335Y-159880000D01*
X157448665Y-159880000D01*
X157171426Y-159935147D01*
X156910273Y-160043320D01*
X156675241Y-160200363D01*
X156475363Y-160400241D01*
X156318320Y-160635273D01*
X156210147Y-160896426D01*
X156155000Y-161173665D01*
X156155000Y-161456335D01*
X156210147Y-161733574D01*
X156318320Y-161994727D01*
X156475363Y-162229759D01*
X156675241Y-162429637D01*
X156750631Y-162480011D01*
X156304813Y-162480011D01*
X155035000Y-161210199D01*
X155035000Y-161148061D01*
X154995226Y-160948102D01*
X154917205Y-160759744D01*
X154803937Y-160590226D01*
X154659774Y-160446063D01*
X154490256Y-160332795D01*
X154301898Y-160254774D01*
X154101939Y-160215000D01*
X153898061Y-160215000D01*
X153698102Y-160254774D01*
X153509744Y-160332795D01*
X153340226Y-160446063D01*
X153196063Y-160590226D01*
X153082795Y-160759744D01*
X153004774Y-160948102D01*
X152965000Y-161148061D01*
X152965000Y-161351939D01*
X153004774Y-161551898D01*
X153082795Y-161740256D01*
X153196063Y-161909774D01*
X153340226Y-162053937D01*
X153509744Y-162167205D01*
X153698102Y-162245226D01*
X153898061Y-162285000D01*
X153960199Y-162285000D01*
X155426211Y-163751013D01*
X155450010Y-163780012D01*
X155565735Y-163874985D01*
X155697764Y-163945557D01*
X155841025Y-163989014D01*
X155952577Y-164000001D01*
X155990011Y-164003688D01*
X156027344Y-164000011D01*
X156239728Y-164000011D01*
X156210147Y-164071426D01*
X156155000Y-164348665D01*
X156155000Y-164631335D01*
X156210147Y-164908574D01*
X156221433Y-164935821D01*
X153510623Y-164935821D01*
X153035000Y-164460199D01*
X153035000Y-164398061D01*
X152995226Y-164198102D01*
X152917205Y-164009744D01*
X152803937Y-163840226D01*
X152659774Y-163696063D01*
X152490256Y-163582795D01*
X152301898Y-163504774D01*
X152101939Y-163465000D01*
X151898061Y-163465000D01*
X151698102Y-163504774D01*
X151509744Y-163582795D01*
X151340226Y-163696063D01*
X151196063Y-163840226D01*
X151082795Y-164009744D01*
X151074722Y-164029234D01*
X150990256Y-163972796D01*
X150801898Y-163894775D01*
X150601939Y-163855001D01*
X150398061Y-163855001D01*
X150198102Y-163894775D01*
X150009744Y-163972796D01*
X149840226Y-164086064D01*
X149696063Y-164230227D01*
X149582795Y-164399745D01*
X149504774Y-164588103D01*
X149465000Y-164788062D01*
X149465000Y-164991940D01*
X149504774Y-165191899D01*
X149582795Y-165380257D01*
X149696063Y-165549775D01*
X149840226Y-165693938D01*
X150009744Y-165807206D01*
X150078875Y-165835841D01*
X147930686Y-165835841D01*
X148109727Y-165761680D01*
X148344759Y-165604637D01*
X148544637Y-165404759D01*
X148701680Y-165169727D01*
X148809853Y-164908574D01*
X148865000Y-164631335D01*
X148865000Y-164348665D01*
X148828688Y-164166114D01*
X151497009Y-161497794D01*
X151526001Y-161474001D01*
X151549795Y-161445008D01*
X151549799Y-161445004D01*
X151620973Y-161358277D01*
X151620974Y-161358276D01*
X151691546Y-161226247D01*
X151735003Y-161082986D01*
X151746000Y-160971333D01*
X151746000Y-160971324D01*
X151749676Y-160934001D01*
X151746000Y-160896678D01*
X151746000Y-159408302D01*
X156370503Y-159408302D01*
X156442086Y-159652271D01*
X156697596Y-159773171D01*
X156971784Y-159841900D01*
X157254112Y-159855817D01*
X157533730Y-159814387D01*
X157799892Y-159719203D01*
X157925114Y-159652271D01*
X157996697Y-159408302D01*
X157183600Y-158595205D01*
X156370503Y-159408302D01*
X151746000Y-159408302D01*
X151746000Y-158486112D01*
X155743383Y-158486112D01*
X155784813Y-158765730D01*
X155879997Y-159031892D01*
X155946929Y-159157114D01*
X156190898Y-159228697D01*
X157003995Y-158415600D01*
X156190898Y-157602503D01*
X155946929Y-157674086D01*
X155826029Y-157929596D01*
X155757300Y-158203784D01*
X155743383Y-158486112D01*
X151746000Y-158486112D01*
X151746000Y-157990034D01*
X151768486Y-158066671D01*
X152023996Y-158187571D01*
X152298184Y-158256300D01*
X152580512Y-158270217D01*
X152860130Y-158228787D01*
X153126292Y-158133603D01*
X153251514Y-158066671D01*
X153323097Y-157822702D01*
X152510000Y-157009605D01*
X152495858Y-157023748D01*
X152316253Y-156844143D01*
X152330395Y-156830000D01*
X152689605Y-156830000D01*
X153502702Y-157643097D01*
X153746671Y-157571514D01*
X153867571Y-157316004D01*
X153936300Y-157041816D01*
X153950217Y-156759488D01*
X153908787Y-156479870D01*
X153813603Y-156213708D01*
X153746671Y-156088486D01*
X153502702Y-156016903D01*
X152689605Y-156830000D01*
X152330395Y-156830000D01*
X152316253Y-156815858D01*
X152495858Y-156636253D01*
X152510000Y-156650395D01*
X153323097Y-155837298D01*
X153302785Y-155768072D01*
X153310000Y-155768072D01*
X153434482Y-155755812D01*
X153554180Y-155719502D01*
X153664494Y-155660537D01*
X153761185Y-155581185D01*
X153840537Y-155484494D01*
X153899502Y-155374180D01*
X153935812Y-155254482D01*
X153948072Y-155130000D01*
X153948072Y-153530000D01*
X153935812Y-153405518D01*
X153899502Y-153285820D01*
X153840537Y-153175506D01*
X153761185Y-153078815D01*
X153700497Y-153029010D01*
X154025000Y-153029010D01*
X154025000Y-153131939D01*
G36*
X158748371Y-162416803D02*
G01*
X158772170Y-162445802D01*
X158887895Y-162540775D01*
X159019924Y-162611347D01*
X159163185Y-162654804D01*
X159274838Y-162665801D01*
X159274846Y-162665801D01*
X159312171Y-162669477D01*
X159349496Y-162665801D01*
X159941647Y-162665801D01*
X159870468Y-162837642D01*
X159813400Y-163124540D01*
X159813400Y-163417060D01*
X159870468Y-163703958D01*
X159982410Y-163974211D01*
X160144925Y-164217432D01*
X160351768Y-164424275D01*
X160443863Y-164485811D01*
X160275716Y-164485811D01*
X158518919Y-162729014D01*
X158495116Y-162700010D01*
X158379391Y-162605037D01*
X158303202Y-162564313D01*
X158504759Y-162429637D01*
X158632982Y-162301414D01*
X158748371Y-162416803D01*
G37*
X158748371Y-162416803D02*
X158772170Y-162445802D01*
X158887895Y-162540775D01*
X159019924Y-162611347D01*
X159163185Y-162654804D01*
X159274838Y-162665801D01*
X159274846Y-162665801D01*
X159312171Y-162669477D01*
X159349496Y-162665801D01*
X159941647Y-162665801D01*
X159870468Y-162837642D01*
X159813400Y-163124540D01*
X159813400Y-163417060D01*
X159870468Y-163703958D01*
X159982410Y-163974211D01*
X160144925Y-164217432D01*
X160351768Y-164424275D01*
X160443863Y-164485811D01*
X160275716Y-164485811D01*
X158518919Y-162729014D01*
X158495116Y-162700010D01*
X158379391Y-162605037D01*
X158303202Y-162564313D01*
X158504759Y-162429637D01*
X158632982Y-162301414D01*
X158748371Y-162416803D01*
G36*
X138667000Y-163093000D02*
G01*
X138687000Y-163093000D01*
X138687000Y-163347000D01*
X138667000Y-163347000D01*
X138667000Y-163367000D01*
X138413000Y-163367000D01*
X138413000Y-163347000D01*
X138393000Y-163347000D01*
X138393000Y-163093000D01*
X138413000Y-163093000D01*
X138413000Y-163073000D01*
X138667000Y-163073000D01*
X138667000Y-163093000D01*
G37*
X138667000Y-163093000D02*
X138687000Y-163093000D01*
X138687000Y-163347000D01*
X138667000Y-163347000D01*
X138667000Y-163367000D01*
X138413000Y-163367000D01*
X138413000Y-163347000D01*
X138393000Y-163347000D01*
X138393000Y-163093000D01*
X138413000Y-163093000D01*
X138413000Y-163073000D01*
X138667000Y-163073000D01*
X138667000Y-163093000D01*
G36*
X136782795Y-158820256D02*
G01*
X136820902Y-158877287D01*
X136759041Y-159026631D01*
X136719267Y-159226590D01*
X136719267Y-159430468D01*
X136759041Y-159630427D01*
X136837062Y-159818785D01*
X136950330Y-159988303D01*
X137094493Y-160132466D01*
X137145364Y-160166457D01*
X137112068Y-160246842D01*
X137055000Y-160533740D01*
X137055000Y-160826260D01*
X137112068Y-161113158D01*
X137224010Y-161383411D01*
X137386525Y-161626632D01*
X137593368Y-161833475D01*
X137769406Y-161951100D01*
X137539731Y-162122412D01*
X137344822Y-162338645D01*
X137214025Y-162558225D01*
X136260000Y-161604201D01*
X136260000Y-160703711D01*
X136303937Y-160659774D01*
X136417205Y-160490256D01*
X136495226Y-160301898D01*
X136535000Y-160101939D01*
X136535000Y-159898061D01*
X136495226Y-159698102D01*
X136417205Y-159509744D01*
X136303937Y-159340226D01*
X136237083Y-159273372D01*
X136300256Y-159247205D01*
X136469774Y-159133937D01*
X136613937Y-158989774D01*
X136727205Y-158820256D01*
X136755000Y-158753153D01*
X136782795Y-158820256D01*
G37*
X136782795Y-158820256D02*
X136820902Y-158877287D01*
X136759041Y-159026631D01*
X136719267Y-159226590D01*
X136719267Y-159430468D01*
X136759041Y-159630427D01*
X136837062Y-159818785D01*
X136950330Y-159988303D01*
X137094493Y-160132466D01*
X137145364Y-160166457D01*
X137112068Y-160246842D01*
X137055000Y-160533740D01*
X137055000Y-160826260D01*
X137112068Y-161113158D01*
X137224010Y-161383411D01*
X137386525Y-161626632D01*
X137593368Y-161833475D01*
X137769406Y-161951100D01*
X137539731Y-162122412D01*
X137344822Y-162338645D01*
X137214025Y-162558225D01*
X136260000Y-161604201D01*
X136260000Y-160703711D01*
X136303937Y-160659774D01*
X136417205Y-160490256D01*
X136495226Y-160301898D01*
X136535000Y-160101939D01*
X136535000Y-159898061D01*
X136495226Y-159698102D01*
X136417205Y-159509744D01*
X136303937Y-159340226D01*
X136237083Y-159273372D01*
X136300256Y-159247205D01*
X136469774Y-159133937D01*
X136613937Y-158989774D01*
X136727205Y-158820256D01*
X136755000Y-158753153D01*
X136782795Y-158820256D01*
G36*
X161425400Y-158063800D02*
G01*
X161445400Y-158063800D01*
X161445400Y-158317800D01*
X161425400Y-158317800D01*
X161425400Y-158337800D01*
X161171400Y-158337800D01*
X161171400Y-158317800D01*
X161151400Y-158317800D01*
X161151400Y-158063800D01*
X161171400Y-158063800D01*
X161171400Y-158043800D01*
X161425400Y-158043800D01*
X161425400Y-158063800D01*
G37*
X161425400Y-158063800D02*
X161445400Y-158063800D01*
X161445400Y-158317800D01*
X161425400Y-158317800D01*
X161425400Y-158337800D01*
X161171400Y-158337800D01*
X161171400Y-158317800D01*
X161151400Y-158317800D01*
X161151400Y-158063800D01*
X161171400Y-158063800D01*
X161171400Y-158043800D01*
X161425400Y-158043800D01*
X161425400Y-158063800D01*
G36*
X115798815Y-154156185D02*
G01*
X115895506Y-154235537D01*
X116005820Y-154294502D01*
X116122841Y-154330000D01*
X116005820Y-154365498D01*
X115895506Y-154424463D01*
X115798815Y-154503815D01*
X115724103Y-154594853D01*
X115586250Y-154457000D01*
X115504141Y-154457000D01*
X115464494Y-154424463D01*
X115354180Y-154365498D01*
X115237159Y-154330000D01*
X115354180Y-154294502D01*
X115464494Y-154235537D01*
X115504141Y-154203000D01*
X115586250Y-154203000D01*
X115724103Y-154065147D01*
X115798815Y-154156185D01*
G37*
X115798815Y-154156185D02*
X115895506Y-154235537D01*
X116005820Y-154294502D01*
X116122841Y-154330000D01*
X116005820Y-154365498D01*
X115895506Y-154424463D01*
X115798815Y-154503815D01*
X115724103Y-154594853D01*
X115586250Y-154457000D01*
X115504141Y-154457000D01*
X115464494Y-154424463D01*
X115354180Y-154365498D01*
X115237159Y-154330000D01*
X115354180Y-154294502D01*
X115464494Y-154235537D01*
X115504141Y-154203000D01*
X115586250Y-154203000D01*
X115724103Y-154065147D01*
X115798815Y-154156185D01*
G36*
X142071318Y-149219812D02*
G01*
X142195800Y-149232072D01*
X142510800Y-149232072D01*
X142510800Y-149601898D01*
X142500698Y-149612000D01*
X142438561Y-149612000D01*
X142238602Y-149651774D01*
X142050244Y-149729795D01*
X141880726Y-149843063D01*
X141736563Y-149987226D01*
X141623295Y-150156744D01*
X141545274Y-150345102D01*
X141505500Y-150545061D01*
X141505500Y-150748939D01*
X141545274Y-150948898D01*
X141623295Y-151137256D01*
X141736563Y-151306774D01*
X141880726Y-151450937D01*
X142050244Y-151564205D01*
X142238602Y-151642226D01*
X142438561Y-151682000D01*
X142642439Y-151682000D01*
X142842398Y-151642226D01*
X143030756Y-151564205D01*
X143064483Y-151541670D01*
X143193244Y-151627705D01*
X143381602Y-151705726D01*
X143581561Y-151745500D01*
X143785439Y-151745500D01*
X143985398Y-151705726D01*
X144173756Y-151627705D01*
X144343274Y-151514437D01*
X144382700Y-151475011D01*
X144466063Y-151599774D01*
X144610226Y-151743937D01*
X144779744Y-151857205D01*
X144968102Y-151935226D01*
X145168061Y-151975000D01*
X145371939Y-151975000D01*
X145571898Y-151935226D01*
X145732929Y-151868524D01*
X145918102Y-151945226D01*
X146118061Y-151985000D01*
X146321939Y-151985000D01*
X146487670Y-151952034D01*
X146495333Y-152043380D01*
X146494988Y-152044518D01*
X146482728Y-152169000D01*
X146482728Y-152719000D01*
X146494988Y-152843482D01*
X146495145Y-152844000D01*
X146494988Y-152844518D01*
X146482728Y-152969000D01*
X146482728Y-153109000D01*
X145905689Y-153109000D01*
X145816631Y-153019942D01*
X145756405Y-152874544D01*
X145643137Y-152705026D01*
X145498974Y-152560863D01*
X145329456Y-152447595D01*
X145141098Y-152369574D01*
X144941139Y-152329800D01*
X144737261Y-152329800D01*
X144537302Y-152369574D01*
X144391905Y-152429800D01*
X142578889Y-152429800D01*
X141164430Y-151015341D01*
X141135144Y-150979656D01*
X140992772Y-150862814D01*
X140855800Y-150789602D01*
X140855800Y-150716998D01*
X140715634Y-150716998D01*
X140751337Y-150673494D01*
X140763717Y-150650333D01*
X140855800Y-150558250D01*
X140846267Y-150444620D01*
X140846612Y-150443482D01*
X140858872Y-150319000D01*
X140858872Y-149769000D01*
X140846612Y-149644518D01*
X140846455Y-149644000D01*
X140846612Y-149643482D01*
X140858872Y-149519000D01*
X140858872Y-149232072D01*
X141145800Y-149232072D01*
X141270282Y-149219812D01*
X141270800Y-149219655D01*
X141271318Y-149219812D01*
X141395800Y-149232072D01*
X141945800Y-149232072D01*
X142070282Y-149219812D01*
X142070800Y-149219655D01*
X142071318Y-149219812D01*
G37*
X142071318Y-149219812D02*
X142195800Y-149232072D01*
X142510800Y-149232072D01*
X142510800Y-149601898D01*
X142500698Y-149612000D01*
X142438561Y-149612000D01*
X142238602Y-149651774D01*
X142050244Y-149729795D01*
X141880726Y-149843063D01*
X141736563Y-149987226D01*
X141623295Y-150156744D01*
X141545274Y-150345102D01*
X141505500Y-150545061D01*
X141505500Y-150748939D01*
X141545274Y-150948898D01*
X141623295Y-151137256D01*
X141736563Y-151306774D01*
X141880726Y-151450937D01*
X142050244Y-151564205D01*
X142238602Y-151642226D01*
X142438561Y-151682000D01*
X142642439Y-151682000D01*
X142842398Y-151642226D01*
X143030756Y-151564205D01*
X143064483Y-151541670D01*
X143193244Y-151627705D01*
X143381602Y-151705726D01*
X143581561Y-151745500D01*
X143785439Y-151745500D01*
X143985398Y-151705726D01*
X144173756Y-151627705D01*
X144343274Y-151514437D01*
X144382700Y-151475011D01*
X144466063Y-151599774D01*
X144610226Y-151743937D01*
X144779744Y-151857205D01*
X144968102Y-151935226D01*
X145168061Y-151975000D01*
X145371939Y-151975000D01*
X145571898Y-151935226D01*
X145732929Y-151868524D01*
X145918102Y-151945226D01*
X146118061Y-151985000D01*
X146321939Y-151985000D01*
X146487670Y-151952034D01*
X146495333Y-152043380D01*
X146494988Y-152044518D01*
X146482728Y-152169000D01*
X146482728Y-152719000D01*
X146494988Y-152843482D01*
X146495145Y-152844000D01*
X146494988Y-152844518D01*
X146482728Y-152969000D01*
X146482728Y-153109000D01*
X145905689Y-153109000D01*
X145816631Y-153019942D01*
X145756405Y-152874544D01*
X145643137Y-152705026D01*
X145498974Y-152560863D01*
X145329456Y-152447595D01*
X145141098Y-152369574D01*
X144941139Y-152329800D01*
X144737261Y-152329800D01*
X144537302Y-152369574D01*
X144391905Y-152429800D01*
X142578889Y-152429800D01*
X141164430Y-151015341D01*
X141135144Y-150979656D01*
X140992772Y-150862814D01*
X140855800Y-150789602D01*
X140855800Y-150716998D01*
X140715634Y-150716998D01*
X140751337Y-150673494D01*
X140763717Y-150650333D01*
X140855800Y-150558250D01*
X140846267Y-150444620D01*
X140846612Y-150443482D01*
X140858872Y-150319000D01*
X140858872Y-149769000D01*
X140846612Y-149644518D01*
X140846455Y-149644000D01*
X140846612Y-149643482D01*
X140858872Y-149519000D01*
X140858872Y-149232072D01*
X141145800Y-149232072D01*
X141270282Y-149219812D01*
X141270800Y-149219655D01*
X141271318Y-149219812D01*
X141395800Y-149232072D01*
X141945800Y-149232072D01*
X142070282Y-149219812D01*
X142070800Y-149219655D01*
X142071318Y-149219812D01*
G36*
X155163748Y-142885858D02*
G01*
X155149605Y-142900000D01*
X155962702Y-143713097D01*
X156206671Y-143641514D01*
X156237198Y-143576998D01*
X157192338Y-144532138D01*
X156965537Y-144626082D01*
X156697748Y-144805013D01*
X156470013Y-145032748D01*
X156291082Y-145300537D01*
X156167832Y-145598088D01*
X156105000Y-145913967D01*
X156105000Y-146236033D01*
X156167832Y-146551912D01*
X156291082Y-146849463D01*
X156470013Y-147117252D01*
X156697748Y-147344987D01*
X156965537Y-147523918D01*
X157263088Y-147647168D01*
X157578967Y-147710000D01*
X157901033Y-147710000D01*
X158216912Y-147647168D01*
X158305001Y-147610680D01*
X158305002Y-149032873D01*
X157998892Y-148952616D01*
X157677405Y-148933282D01*
X157358325Y-148977039D01*
X157053912Y-149082205D01*
X156879956Y-149175186D01*
X156784192Y-149439587D01*
X157740000Y-150395395D01*
X157754143Y-150381253D01*
X157933748Y-150560858D01*
X157919605Y-150575000D01*
X157933748Y-150589143D01*
X157754143Y-150768748D01*
X157740000Y-150754605D01*
X157725858Y-150768748D01*
X157546253Y-150589143D01*
X157560395Y-150575000D01*
X156604587Y-149619192D01*
X156340186Y-149714956D01*
X156199296Y-150004571D01*
X156117616Y-150316108D01*
X156098282Y-150637595D01*
X156142039Y-150956675D01*
X156247205Y-151261088D01*
X156340186Y-151435044D01*
X156544403Y-151509010D01*
X152435597Y-151509010D01*
X152639814Y-151435044D01*
X152780704Y-151145429D01*
X152862384Y-150833892D01*
X152881718Y-150512405D01*
X152837961Y-150193325D01*
X152732795Y-149888912D01*
X152639814Y-149714956D01*
X152375413Y-149619192D01*
X151419605Y-150575000D01*
X151433748Y-150589143D01*
X151254143Y-150768748D01*
X151240000Y-150754605D01*
X151225858Y-150768748D01*
X151046253Y-150589143D01*
X151060395Y-150575000D01*
X150104587Y-149619192D01*
X149840186Y-149714956D01*
X149699296Y-150004571D01*
X149617616Y-150316108D01*
X149598282Y-150637595D01*
X149642039Y-150956675D01*
X149747205Y-151261088D01*
X149840186Y-151435044D01*
X150044403Y-151509010D01*
X149983123Y-151509010D01*
X149945790Y-151505333D01*
X149908457Y-151509010D01*
X149796804Y-151520007D01*
X149653543Y-151563464D01*
X149521514Y-151634036D01*
X149405789Y-151729009D01*
X149381990Y-151758008D01*
X149283024Y-151856974D01*
X149263717Y-151837667D01*
X149251337Y-151814506D01*
X149171985Y-151717815D01*
X149082041Y-151644000D01*
X149171985Y-151570185D01*
X149251337Y-151473494D01*
X149263717Y-151450333D01*
X149355800Y-151358250D01*
X149346267Y-151244620D01*
X149346612Y-151243482D01*
X149358872Y-151119000D01*
X149358872Y-150569000D01*
X149346612Y-150444518D01*
X149346455Y-150444000D01*
X149346612Y-150443482D01*
X149358872Y-150319000D01*
X149358872Y-149769000D01*
X149346612Y-149644518D01*
X149346455Y-149644000D01*
X149346612Y-149643482D01*
X149358872Y-149519000D01*
X149358872Y-148969000D01*
X149346612Y-148844518D01*
X149310302Y-148724820D01*
X149251337Y-148614506D01*
X149171985Y-148517815D01*
X149075294Y-148438463D01*
X148964980Y-148379498D01*
X148845282Y-148343188D01*
X148720800Y-148330928D01*
X147383872Y-148330928D01*
X147383872Y-146994000D01*
X147371612Y-146869518D01*
X147335302Y-146749820D01*
X147276673Y-146640135D01*
X147401898Y-146615226D01*
X147590256Y-146537205D01*
X147759774Y-146423937D01*
X147903937Y-146279774D01*
X148017205Y-146110256D01*
X148095226Y-145921898D01*
X148135000Y-145721939D01*
X148135000Y-145518061D01*
X148119075Y-145438000D01*
X149528199Y-145438000D01*
X149673823Y-145583624D01*
X149667832Y-145598088D01*
X149605000Y-145913967D01*
X149605000Y-146236033D01*
X149667832Y-146551912D01*
X149791082Y-146849463D01*
X149970013Y-147117252D01*
X150197748Y-147344987D01*
X150465537Y-147523918D01*
X150710279Y-147625294D01*
X150619744Y-147662795D01*
X150450226Y-147776063D01*
X150306063Y-147920226D01*
X150192795Y-148089744D01*
X150114774Y-148278102D01*
X150075000Y-148478061D01*
X150075000Y-148681939D01*
X150114774Y-148881898D01*
X150192795Y-149070256D01*
X150306063Y-149239774D01*
X150343135Y-149276846D01*
X150284192Y-149439587D01*
X151240000Y-150395395D01*
X152195808Y-149439587D01*
X152100044Y-149175186D01*
X151992161Y-149122704D01*
X152027205Y-149070256D01*
X152105226Y-148881898D01*
X152145000Y-148681939D01*
X152145000Y-148478061D01*
X152105226Y-148278102D01*
X152027205Y-148089744D01*
X151913937Y-147920226D01*
X151769774Y-147776063D01*
X151608995Y-147668634D01*
X151716912Y-147647168D01*
X152014463Y-147523918D01*
X152282252Y-147344987D01*
X152509987Y-147117252D01*
X152688918Y-146849463D01*
X152812168Y-146551912D01*
X152875000Y-146236033D01*
X152875000Y-145913967D01*
X152812168Y-145598088D01*
X152688918Y-145300537D01*
X152509987Y-145032748D01*
X152282252Y-144805013D01*
X152014463Y-144626082D01*
X151716912Y-144502832D01*
X151401033Y-144440000D01*
X151169803Y-144440000D01*
X151717101Y-143892702D01*
X154156903Y-143892702D01*
X154228486Y-144136671D01*
X154483996Y-144257571D01*
X154758184Y-144326300D01*
X155040512Y-144340217D01*
X155320130Y-144298787D01*
X155586292Y-144203603D01*
X155711514Y-144136671D01*
X155783097Y-143892702D01*
X154970000Y-143079605D01*
X154156903Y-143892702D01*
X151717101Y-143892702D01*
X152489805Y-143119999D01*
X153551932Y-143119999D01*
X153571213Y-143250130D01*
X153666397Y-143516292D01*
X153733329Y-143641514D01*
X153977298Y-143713097D01*
X154790395Y-142900000D01*
X154776253Y-142885858D01*
X154955858Y-142706253D01*
X154970000Y-142720395D01*
X154984143Y-142706253D01*
X155163748Y-142885858D01*
G37*
X155163748Y-142885858D02*
X155149605Y-142900000D01*
X155962702Y-143713097D01*
X156206671Y-143641514D01*
X156237198Y-143576998D01*
X157192338Y-144532138D01*
X156965537Y-144626082D01*
X156697748Y-144805013D01*
X156470013Y-145032748D01*
X156291082Y-145300537D01*
X156167832Y-145598088D01*
X156105000Y-145913967D01*
X156105000Y-146236033D01*
X156167832Y-146551912D01*
X156291082Y-146849463D01*
X156470013Y-147117252D01*
X156697748Y-147344987D01*
X156965537Y-147523918D01*
X157263088Y-147647168D01*
X157578967Y-147710000D01*
X157901033Y-147710000D01*
X158216912Y-147647168D01*
X158305001Y-147610680D01*
X158305002Y-149032873D01*
X157998892Y-148952616D01*
X157677405Y-148933282D01*
X157358325Y-148977039D01*
X157053912Y-149082205D01*
X156879956Y-149175186D01*
X156784192Y-149439587D01*
X157740000Y-150395395D01*
X157754143Y-150381253D01*
X157933748Y-150560858D01*
X157919605Y-150575000D01*
X157933748Y-150589143D01*
X157754143Y-150768748D01*
X157740000Y-150754605D01*
X157725858Y-150768748D01*
X157546253Y-150589143D01*
X157560395Y-150575000D01*
X156604587Y-149619192D01*
X156340186Y-149714956D01*
X156199296Y-150004571D01*
X156117616Y-150316108D01*
X156098282Y-150637595D01*
X156142039Y-150956675D01*
X156247205Y-151261088D01*
X156340186Y-151435044D01*
X156544403Y-151509010D01*
X152435597Y-151509010D01*
X152639814Y-151435044D01*
X152780704Y-151145429D01*
X152862384Y-150833892D01*
X152881718Y-150512405D01*
X152837961Y-150193325D01*
X152732795Y-149888912D01*
X152639814Y-149714956D01*
X152375413Y-149619192D01*
X151419605Y-150575000D01*
X151433748Y-150589143D01*
X151254143Y-150768748D01*
X151240000Y-150754605D01*
X151225858Y-150768748D01*
X151046253Y-150589143D01*
X151060395Y-150575000D01*
X150104587Y-149619192D01*
X149840186Y-149714956D01*
X149699296Y-150004571D01*
X149617616Y-150316108D01*
X149598282Y-150637595D01*
X149642039Y-150956675D01*
X149747205Y-151261088D01*
X149840186Y-151435044D01*
X150044403Y-151509010D01*
X149983123Y-151509010D01*
X149945790Y-151505333D01*
X149908457Y-151509010D01*
X149796804Y-151520007D01*
X149653543Y-151563464D01*
X149521514Y-151634036D01*
X149405789Y-151729009D01*
X149381990Y-151758008D01*
X149283024Y-151856974D01*
X149263717Y-151837667D01*
X149251337Y-151814506D01*
X149171985Y-151717815D01*
X149082041Y-151644000D01*
X149171985Y-151570185D01*
X149251337Y-151473494D01*
X149263717Y-151450333D01*
X149355800Y-151358250D01*
X149346267Y-151244620D01*
X149346612Y-151243482D01*
X149358872Y-151119000D01*
X149358872Y-150569000D01*
X149346612Y-150444518D01*
X149346455Y-150444000D01*
X149346612Y-150443482D01*
X149358872Y-150319000D01*
X149358872Y-149769000D01*
X149346612Y-149644518D01*
X149346455Y-149644000D01*
X149346612Y-149643482D01*
X149358872Y-149519000D01*
X149358872Y-148969000D01*
X149346612Y-148844518D01*
X149310302Y-148724820D01*
X149251337Y-148614506D01*
X149171985Y-148517815D01*
X149075294Y-148438463D01*
X148964980Y-148379498D01*
X148845282Y-148343188D01*
X148720800Y-148330928D01*
X147383872Y-148330928D01*
X147383872Y-146994000D01*
X147371612Y-146869518D01*
X147335302Y-146749820D01*
X147276673Y-146640135D01*
X147401898Y-146615226D01*
X147590256Y-146537205D01*
X147759774Y-146423937D01*
X147903937Y-146279774D01*
X148017205Y-146110256D01*
X148095226Y-145921898D01*
X148135000Y-145721939D01*
X148135000Y-145518061D01*
X148119075Y-145438000D01*
X149528199Y-145438000D01*
X149673823Y-145583624D01*
X149667832Y-145598088D01*
X149605000Y-145913967D01*
X149605000Y-146236033D01*
X149667832Y-146551912D01*
X149791082Y-146849463D01*
X149970013Y-147117252D01*
X150197748Y-147344987D01*
X150465537Y-147523918D01*
X150710279Y-147625294D01*
X150619744Y-147662795D01*
X150450226Y-147776063D01*
X150306063Y-147920226D01*
X150192795Y-148089744D01*
X150114774Y-148278102D01*
X150075000Y-148478061D01*
X150075000Y-148681939D01*
X150114774Y-148881898D01*
X150192795Y-149070256D01*
X150306063Y-149239774D01*
X150343135Y-149276846D01*
X150284192Y-149439587D01*
X151240000Y-150395395D01*
X152195808Y-149439587D01*
X152100044Y-149175186D01*
X151992161Y-149122704D01*
X152027205Y-149070256D01*
X152105226Y-148881898D01*
X152145000Y-148681939D01*
X152145000Y-148478061D01*
X152105226Y-148278102D01*
X152027205Y-148089744D01*
X151913937Y-147920226D01*
X151769774Y-147776063D01*
X151608995Y-147668634D01*
X151716912Y-147647168D01*
X152014463Y-147523918D01*
X152282252Y-147344987D01*
X152509987Y-147117252D01*
X152688918Y-146849463D01*
X152812168Y-146551912D01*
X152875000Y-146236033D01*
X152875000Y-145913967D01*
X152812168Y-145598088D01*
X152688918Y-145300537D01*
X152509987Y-145032748D01*
X152282252Y-144805013D01*
X152014463Y-144626082D01*
X151716912Y-144502832D01*
X151401033Y-144440000D01*
X151169803Y-144440000D01*
X151717101Y-143892702D01*
X154156903Y-143892702D01*
X154228486Y-144136671D01*
X154483996Y-144257571D01*
X154758184Y-144326300D01*
X155040512Y-144340217D01*
X155320130Y-144298787D01*
X155586292Y-144203603D01*
X155711514Y-144136671D01*
X155783097Y-143892702D01*
X154970000Y-143079605D01*
X154156903Y-143892702D01*
X151717101Y-143892702D01*
X152489805Y-143119999D01*
X153551932Y-143119999D01*
X153571213Y-143250130D01*
X153666397Y-143516292D01*
X153733329Y-143641514D01*
X153977298Y-143713097D01*
X154790395Y-142900000D01*
X154776253Y-142885858D01*
X154955858Y-142706253D01*
X154970000Y-142720395D01*
X154984143Y-142706253D01*
X155163748Y-142885858D01*
%TD*%
M02*
