M48
; DRILL file {KiCad 5.1.6+dfsg1-1~bpo10+1} date Sun Nov 22 17:09:55 2020
; FORMAT={-:-/ absolute / metric / decimal}
; #@! TF.CreationDate,2020-11-22T17:09:55+10:30
; #@! TF.GenerationSoftware,Kicad,Pcbnew,5.1.6+dfsg1-1~bpo10+1
; #@! TF.FileFunction,Plated,1,2,PTH
FMAT,2
METRIC
T1C0.400
T2C0.800
T3C0.900
T4C1.000
T5C1.100
T6C1.520
%
G90
G05
T1
X108.875Y-166.088
X112.073Y-155.6
X114.41Y-158.14
X114.855Y-159.474
X117.712Y-158.203
X118.145Y-151.219
X118.22Y-156.87
X118.32Y-143.17
X119.045Y-147.535
X121.635Y-154.33
X134.56Y-153.12
X135.5Y-160.0
X135.81Y-158.33
X137.475Y-146.45
X137.7Y-158.33
X137.754Y-159.329
X140.83Y-157.83
X142.54Y-150.647
X143.25Y-158.25
X143.683Y-150.71
X144.262Y-144.905
X144.5Y-154.5
X144.839Y-153.365
X145.072Y-158.902
X145.27Y-150.94
X145.5Y-164.5
X145.57Y-161.69
X145.9Y-145.63
X145.94Y-150.05
X146.0Y-167.321
X146.152Y-159.902
X146.22Y-150.95
X146.971Y-163.167
X147.1Y-145.62
X148.58Y-140.6
X148.737Y-159.0
X148.75Y-160.0
X149.0Y-156.0
X149.82Y-160.64
X150.5Y-164.89
X151.11Y-148.58
X152.0Y-164.5
X154.0Y-161.25
X155.06Y-153.03
X158.034Y-156.044
X161.019Y-148.488
X161.019Y-148.488
T2
X157.184Y-153.416
X157.184Y-158.416
X152.51Y-154.33
X152.51Y-156.83
X120.75Y-142.5
X130.91Y-142.5
X147.43Y-164.49
X157.59Y-164.49
X147.43Y-161.315
X157.59Y-161.315
X149.97Y-142.9
X154.97Y-142.9
X120.75Y-145.75
X130.91Y-145.75
X123.3Y-154.33
X123.3Y-164.49
X161.603Y-141.833
X161.603Y-151.993
T3
X134.095Y-143.535
X136.635Y-143.535
X134.095Y-150.52
X136.635Y-150.52
T4
X133.46Y-155.6
X133.46Y-158.14
X133.46Y-160.68
X133.46Y-163.22
X138.54Y-160.68
X138.54Y-163.22
X141.08Y-160.68
X141.08Y-163.22
X143.62Y-160.68
X143.62Y-163.22
X161.298Y-155.651
X161.298Y-158.191
X161.298Y-160.731
X161.298Y-163.271
X128.38Y-155.6
X128.38Y-158.14
X128.38Y-160.68
X128.38Y-163.22
X141.08Y-142.9
X143.62Y-142.9
X146.16Y-142.9
X167.25Y-147.0
X167.25Y-149.54
X167.25Y-152.08
X167.25Y-154.62
X167.25Y-157.16
X167.25Y-159.7
X167.25Y-162.24
T5
X151.24Y-146.075
X151.24Y-150.575
X157.74Y-146.075
X157.74Y-150.575
X115.68Y-144.17
X115.68Y-146.71
X115.68Y-149.25
T6
X105.52Y-144.17
X105.52Y-149.25
X105.52Y-155.409
X105.52Y-160.489
T0
M30
