%TF.GenerationSoftware,KiCad,Pcbnew,(5.1.5)-3*%
%TF.CreationDate,2020-09-12T07:11:48+09:30*%
%TF.ProjectId,robotcontrol,726f626f-7463-46f6-9e74-726f6c2e6b69,rev?*%
%TF.SameCoordinates,Original*%
%TF.FileFunction,Legend,Bot*%
%TF.FilePolarity,Positive*%
%FSLAX46Y46*%
G04 Gerber Fmt 4.6, Leading zero omitted, Abs format (unit mm)*
G04 Created by KiCad (PCBNEW (5.1.5)-3) date 2020-09-12 07:11:48*
%MOMM*%
%LPD*%
G04 APERTURE LIST*
%ADD10C,0.200000*%
%ADD11C,0.150000*%
%ADD12C,0.010000*%
G04 APERTURE END LIST*
D10*
X90995571Y-93606071D02*
X91052714Y-93548928D01*
X91109857Y-93377500D01*
X91109857Y-93263214D01*
X91052714Y-93091785D01*
X90938428Y-92977500D01*
X90824142Y-92920357D01*
X90595571Y-92863214D01*
X90424142Y-92863214D01*
X90195571Y-92920357D01*
X90081285Y-92977500D01*
X89967000Y-93091785D01*
X89909857Y-93263214D01*
X89909857Y-93377500D01*
X89967000Y-93548928D01*
X90024142Y-93606071D01*
X89967000Y-94748928D02*
X89909857Y-94634642D01*
X89909857Y-94463214D01*
X89967000Y-94291785D01*
X90081285Y-94177500D01*
X90195571Y-94120357D01*
X90424142Y-94063214D01*
X90595571Y-94063214D01*
X90824142Y-94120357D01*
X90938428Y-94177500D01*
X91052714Y-94291785D01*
X91109857Y-94463214D01*
X91109857Y-94577500D01*
X91052714Y-94748928D01*
X90995571Y-94806071D01*
X90595571Y-94806071D01*
X90595571Y-94577500D01*
X91052714Y-96177500D02*
X91109857Y-96348928D01*
X91109857Y-96634642D01*
X91052714Y-96748928D01*
X90995571Y-96806071D01*
X90881285Y-96863214D01*
X90767000Y-96863214D01*
X90652714Y-96806071D01*
X90595571Y-96748928D01*
X90538428Y-96634642D01*
X90481285Y-96406071D01*
X90424142Y-96291785D01*
X90367000Y-96234642D01*
X90252714Y-96177500D01*
X90138428Y-96177500D01*
X90024142Y-96234642D01*
X89967000Y-96291785D01*
X89909857Y-96406071D01*
X89909857Y-96691785D01*
X89967000Y-96863214D01*
X91052714Y-97891785D02*
X91109857Y-97777500D01*
X91109857Y-97548928D01*
X91052714Y-97434642D01*
X90995571Y-97377500D01*
X90881285Y-97320357D01*
X90538428Y-97320357D01*
X90424142Y-97377500D01*
X90367000Y-97434642D01*
X90309857Y-97548928D01*
X90309857Y-97777500D01*
X90367000Y-97891785D01*
X91109857Y-98920357D02*
X90481285Y-98920357D01*
X90367000Y-98863214D01*
X90309857Y-98748928D01*
X90309857Y-98520357D01*
X90367000Y-98406071D01*
X91052714Y-98920357D02*
X91109857Y-98806071D01*
X91109857Y-98520357D01*
X91052714Y-98406071D01*
X90938428Y-98348928D01*
X90824142Y-98348928D01*
X90709857Y-98406071D01*
X90652714Y-98520357D01*
X90652714Y-98806071D01*
X90595571Y-98920357D01*
X91109857Y-99663214D02*
X91052714Y-99548928D01*
X90938428Y-99491785D01*
X89909857Y-99491785D01*
X91052714Y-100577500D02*
X91109857Y-100463214D01*
X91109857Y-100234642D01*
X91052714Y-100120357D01*
X90938428Y-100063214D01*
X90481285Y-100063214D01*
X90367000Y-100120357D01*
X90309857Y-100234642D01*
X90309857Y-100463214D01*
X90367000Y-100577500D01*
X90481285Y-100634642D01*
X90595571Y-100634642D01*
X90709857Y-100063214D01*
X91109857Y-102063214D02*
X90309857Y-102063214D01*
X90424142Y-102063214D02*
X90367000Y-102120357D01*
X90309857Y-102234642D01*
X90309857Y-102406071D01*
X90367000Y-102520357D01*
X90481285Y-102577500D01*
X91109857Y-102577500D01*
X90481285Y-102577500D02*
X90367000Y-102634642D01*
X90309857Y-102748928D01*
X90309857Y-102920357D01*
X90367000Y-103034642D01*
X90481285Y-103091785D01*
X91109857Y-103091785D01*
X91109857Y-104177500D02*
X90481285Y-104177500D01*
X90367000Y-104120357D01*
X90309857Y-104006071D01*
X90309857Y-103777500D01*
X90367000Y-103663214D01*
X91052714Y-104177500D02*
X91109857Y-104063214D01*
X91109857Y-103777500D01*
X91052714Y-103663214D01*
X90938428Y-103606071D01*
X90824142Y-103606071D01*
X90709857Y-103663214D01*
X90652714Y-103777500D01*
X90652714Y-104063214D01*
X90595571Y-104177500D01*
X91109857Y-104748928D02*
X90309857Y-104748928D01*
X89909857Y-104748928D02*
X89967000Y-104691785D01*
X90024142Y-104748928D01*
X89967000Y-104806071D01*
X89909857Y-104748928D01*
X90024142Y-104748928D01*
X90309857Y-105320357D02*
X91109857Y-105320357D01*
X90424142Y-105320357D02*
X90367000Y-105377500D01*
X90309857Y-105491785D01*
X90309857Y-105663214D01*
X90367000Y-105777500D01*
X90481285Y-105834642D01*
X91109857Y-105834642D01*
X93052714Y-92806071D02*
X93109857Y-92691785D01*
X93109857Y-92463214D01*
X93052714Y-92348928D01*
X92995571Y-92291785D01*
X92881285Y-92234642D01*
X92538428Y-92234642D01*
X92424142Y-92291785D01*
X92367000Y-92348928D01*
X92309857Y-92463214D01*
X92309857Y-92691785D01*
X92367000Y-92806071D01*
X93109857Y-93491785D02*
X93052714Y-93377500D01*
X92995571Y-93320357D01*
X92881285Y-93263214D01*
X92538428Y-93263214D01*
X92424142Y-93320357D01*
X92367000Y-93377500D01*
X92309857Y-93491785D01*
X92309857Y-93663214D01*
X92367000Y-93777500D01*
X92424142Y-93834642D01*
X92538428Y-93891785D01*
X92881285Y-93891785D01*
X92995571Y-93834642D01*
X93052714Y-93777500D01*
X93109857Y-93663214D01*
X93109857Y-93491785D01*
X92309857Y-94406071D02*
X93109857Y-94406071D01*
X92424142Y-94406071D02*
X92367000Y-94463214D01*
X92309857Y-94577500D01*
X92309857Y-94748928D01*
X92367000Y-94863214D01*
X92481285Y-94920357D01*
X93109857Y-94920357D01*
X92309857Y-95320357D02*
X92309857Y-95777500D01*
X91909857Y-95491785D02*
X92938428Y-95491785D01*
X93052714Y-95548928D01*
X93109857Y-95663214D01*
X93109857Y-95777500D01*
X93109857Y-96177500D02*
X92309857Y-96177500D01*
X92538428Y-96177500D02*
X92424142Y-96234642D01*
X92367000Y-96291785D01*
X92309857Y-96406071D01*
X92309857Y-96520357D01*
X93109857Y-97091785D02*
X93052714Y-96977500D01*
X92995571Y-96920357D01*
X92881285Y-96863214D01*
X92538428Y-96863214D01*
X92424142Y-96920357D01*
X92367000Y-96977500D01*
X92309857Y-97091785D01*
X92309857Y-97263214D01*
X92367000Y-97377500D01*
X92424142Y-97434642D01*
X92538428Y-97491785D01*
X92881285Y-97491785D01*
X92995571Y-97434642D01*
X93052714Y-97377500D01*
X93109857Y-97263214D01*
X93109857Y-97091785D01*
X93109857Y-98177500D02*
X93052714Y-98063214D01*
X92938428Y-98006071D01*
X91909857Y-98006071D01*
X93109857Y-98806071D02*
X93052714Y-98691785D01*
X92938428Y-98634642D01*
X91909857Y-98634642D01*
X93052714Y-99720357D02*
X93109857Y-99606071D01*
X93109857Y-99377500D01*
X93052714Y-99263214D01*
X92938428Y-99206071D01*
X92481285Y-99206071D01*
X92367000Y-99263214D01*
X92309857Y-99377500D01*
X92309857Y-99606071D01*
X92367000Y-99720357D01*
X92481285Y-99777500D01*
X92595571Y-99777500D01*
X92709857Y-99206071D01*
X93109857Y-100291785D02*
X92309857Y-100291785D01*
X92538428Y-100291785D02*
X92424142Y-100348928D01*
X92367000Y-100406071D01*
X92309857Y-100520357D01*
X92309857Y-100634642D01*
X93109857Y-101948928D02*
X91909857Y-101948928D01*
X92367000Y-101948928D02*
X92309857Y-102063214D01*
X92309857Y-102291785D01*
X92367000Y-102406071D01*
X92424142Y-102463214D01*
X92538428Y-102520357D01*
X92881285Y-102520357D01*
X92995571Y-102463214D01*
X93052714Y-102406071D01*
X93109857Y-102291785D01*
X93109857Y-102063214D01*
X93052714Y-101948928D01*
X93109857Y-103206071D02*
X93052714Y-103091785D01*
X92995571Y-103034642D01*
X92881285Y-102977500D01*
X92538428Y-102977500D01*
X92424142Y-103034642D01*
X92367000Y-103091785D01*
X92309857Y-103206071D01*
X92309857Y-103377500D01*
X92367000Y-103491785D01*
X92424142Y-103548928D01*
X92538428Y-103606071D01*
X92881285Y-103606071D01*
X92995571Y-103548928D01*
X93052714Y-103491785D01*
X93109857Y-103377500D01*
X93109857Y-103206071D01*
X93109857Y-104634642D02*
X92481285Y-104634642D01*
X92367000Y-104577500D01*
X92309857Y-104463214D01*
X92309857Y-104234642D01*
X92367000Y-104120357D01*
X93052714Y-104634642D02*
X93109857Y-104520357D01*
X93109857Y-104234642D01*
X93052714Y-104120357D01*
X92938428Y-104063214D01*
X92824142Y-104063214D01*
X92709857Y-104120357D01*
X92652714Y-104234642D01*
X92652714Y-104520357D01*
X92595571Y-104634642D01*
X93109857Y-105206071D02*
X92309857Y-105206071D01*
X92538428Y-105206071D02*
X92424142Y-105263214D01*
X92367000Y-105320357D01*
X92309857Y-105434642D01*
X92309857Y-105548928D01*
X93109857Y-106463214D02*
X91909857Y-106463214D01*
X93052714Y-106463214D02*
X93109857Y-106348928D01*
X93109857Y-106120357D01*
X93052714Y-106006071D01*
X92995571Y-105948928D01*
X92881285Y-105891785D01*
X92538428Y-105891785D01*
X92424142Y-105948928D01*
X92367000Y-106006071D01*
X92309857Y-106120357D01*
X92309857Y-106348928D01*
X92367000Y-106463214D01*
D11*
X133500833Y-104774595D02*
X133500833Y-104298404D01*
X133215119Y-104869833D02*
X134215119Y-104536500D01*
X133215119Y-104203166D01*
X133215119Y-103869833D02*
X133881785Y-103869833D01*
X133691309Y-103869833D02*
X133786547Y-103822214D01*
X133834166Y-103774595D01*
X133881785Y-103679357D01*
X133881785Y-103584119D01*
X133881785Y-103393642D02*
X133881785Y-103012690D01*
X134215119Y-103250785D02*
X133357976Y-103250785D01*
X133262738Y-103203166D01*
X133215119Y-103107928D01*
X133215119Y-103012690D01*
X133215119Y-102679357D02*
X133881785Y-102679357D01*
X134215119Y-102679357D02*
X134167500Y-102726976D01*
X134119880Y-102679357D01*
X134167500Y-102631738D01*
X134215119Y-102679357D01*
X134119880Y-102679357D01*
X133262738Y-101774595D02*
X133215119Y-101869833D01*
X133215119Y-102060309D01*
X133262738Y-102155547D01*
X133310357Y-102203166D01*
X133405595Y-102250785D01*
X133691309Y-102250785D01*
X133786547Y-102203166D01*
X133834166Y-102155547D01*
X133881785Y-102060309D01*
X133881785Y-101869833D01*
X133834166Y-101774595D01*
X133215119Y-101346023D02*
X134215119Y-101346023D01*
X133215119Y-100917452D02*
X133738928Y-100917452D01*
X133834166Y-100965071D01*
X133881785Y-101060309D01*
X133881785Y-101203166D01*
X133834166Y-101298404D01*
X133786547Y-101346023D01*
X133215119Y-100298404D02*
X133262738Y-100393642D01*
X133310357Y-100441261D01*
X133405595Y-100488880D01*
X133691309Y-100488880D01*
X133786547Y-100441261D01*
X133834166Y-100393642D01*
X133881785Y-100298404D01*
X133881785Y-100155547D01*
X133834166Y-100060309D01*
X133786547Y-100012690D01*
X133691309Y-99965071D01*
X133405595Y-99965071D01*
X133310357Y-100012690D01*
X133262738Y-100060309D01*
X133215119Y-100155547D01*
X133215119Y-100298404D01*
X133215119Y-99536500D02*
X134215119Y-99536500D01*
X133596071Y-99441261D02*
X133215119Y-99155547D01*
X133881785Y-99155547D02*
X133500833Y-99536500D01*
X133262738Y-98346023D02*
X133215119Y-98441261D01*
X133215119Y-98631738D01*
X133262738Y-98726976D01*
X133357976Y-98774595D01*
X133738928Y-98774595D01*
X133834166Y-98726976D01*
X133881785Y-98631738D01*
X133881785Y-98441261D01*
X133834166Y-98346023D01*
X133738928Y-98298404D01*
X133643690Y-98298404D01*
X133548452Y-98774595D01*
D12*
%TO.C,G\002A\002A\002A*%
G36*
X130072396Y-98124664D02*
G01*
X130252014Y-98281610D01*
X130467406Y-98503689D01*
X130494607Y-98533948D01*
X130912424Y-99002729D01*
X131181440Y-98851448D01*
X131364258Y-98757800D01*
X131472930Y-98758182D01*
X131580341Y-98862628D01*
X131620074Y-98911833D01*
X131760184Y-99113602D01*
X131923748Y-99386077D01*
X131999772Y-99525667D01*
X132132160Y-99750318D01*
X132247036Y-99896290D01*
X132297413Y-99927833D01*
X132400801Y-100005098D01*
X132498989Y-100207734D01*
X132578053Y-100492004D01*
X132624068Y-100814170D01*
X132630333Y-100973572D01*
X132639988Y-101246965D01*
X132678873Y-101395821D01*
X132761869Y-101464328D01*
X132799667Y-101476365D01*
X132922645Y-101567864D01*
X132965603Y-101766155D01*
X132928435Y-102084769D01*
X132811037Y-102537237D01*
X132790960Y-102603087D01*
X132571304Y-103126477D01*
X132284693Y-103503872D01*
X131938518Y-103730515D01*
X131540173Y-103801645D01*
X131097049Y-103712503D01*
X131078684Y-103705608D01*
X130849903Y-103622951D01*
X130690902Y-103574125D01*
X130659003Y-103568500D01*
X130630580Y-103646406D01*
X130609288Y-103853153D01*
X130598825Y-104148284D01*
X130598333Y-104232711D01*
X130590394Y-104592245D01*
X130561340Y-104823767D01*
X130503318Y-104968080D01*
X130443500Y-105037044D01*
X130224014Y-105144988D01*
X129938264Y-105176873D01*
X129660183Y-105133815D01*
X129468455Y-105022333D01*
X129385009Y-104869246D01*
X129340544Y-104618378D01*
X129328333Y-104265330D01*
X129318781Y-103962520D01*
X129303521Y-103822500D01*
X129582333Y-103822500D01*
X129582333Y-104274055D01*
X129592869Y-104538485D01*
X129619893Y-104729315D01*
X129642807Y-104786085D01*
X129760469Y-104820018D01*
X129969357Y-104823767D01*
X130002640Y-104821363D01*
X130302000Y-104796167D01*
X130327392Y-104309333D01*
X130352784Y-103822500D01*
X129582333Y-103822500D01*
X129303521Y-103822500D01*
X129293646Y-103731895D01*
X129258207Y-103620280D01*
X129255348Y-103618052D01*
X129138263Y-103618915D01*
X128930360Y-103674500D01*
X128837907Y-103708251D01*
X128400818Y-103804905D01*
X128004192Y-103741696D01*
X127655504Y-103524845D01*
X127362231Y-103160578D01*
X127131849Y-102655120D01*
X127003532Y-102180919D01*
X126956368Y-101859341D01*
X127240002Y-101859341D01*
X127243710Y-101936754D01*
X127244274Y-101938667D01*
X127295452Y-102129517D01*
X127346660Y-102340833D01*
X127464531Y-102696752D01*
X127636623Y-103031661D01*
X127829331Y-103284929D01*
X127906705Y-103351238D01*
X128174089Y-103456318D01*
X128500517Y-103477729D01*
X128795420Y-103411104D01*
X128826976Y-103395612D01*
X128939105Y-103301968D01*
X128917329Y-103170469D01*
X128895589Y-103127582D01*
X128844327Y-102923789D01*
X128834188Y-102621566D01*
X129075128Y-102621566D01*
X129145845Y-102958555D01*
X129335665Y-103226764D01*
X129606645Y-103409490D01*
X129920838Y-103490030D01*
X130240301Y-103451681D01*
X130518077Y-103283206D01*
X130982697Y-103283206D01*
X131069543Y-103383039D01*
X131084607Y-103392072D01*
X131363092Y-103473763D01*
X131692699Y-103461808D01*
X131988117Y-103362860D01*
X132058755Y-103316085D01*
X132269547Y-103065727D01*
X132457866Y-102676705D01*
X132609286Y-102179494D01*
X132621239Y-102127690D01*
X132697000Y-101790500D01*
X132092167Y-101798939D01*
X131756585Y-101811522D01*
X131462191Y-101836322D01*
X131275667Y-101867338D01*
X131159444Y-101912072D01*
X131099446Y-101991331D01*
X131081614Y-102149342D01*
X131091890Y-102430333D01*
X131092602Y-102443238D01*
X131093255Y-102749883D01*
X131065328Y-103008818D01*
X131028543Y-103132318D01*
X130982697Y-103283206D01*
X130518077Y-103283206D01*
X130527090Y-103277740D01*
X130539083Y-103265992D01*
X130752591Y-102951987D01*
X130806168Y-102595071D01*
X130699396Y-102192888D01*
X130431862Y-101743078D01*
X130225299Y-101485202D01*
X129966395Y-101185768D01*
X130408878Y-101185768D01*
X130594038Y-101445801D01*
X130743573Y-101632706D01*
X130872181Y-101694403D01*
X131046790Y-101650444D01*
X131145899Y-101607022D01*
X131277303Y-101520415D01*
X131317799Y-101397611D01*
X131266853Y-101202627D01*
X131135766Y-100922667D01*
X131082008Y-100834437D01*
X131471439Y-100834437D01*
X131517619Y-101038657D01*
X131534799Y-101096910D01*
X131612509Y-101318592D01*
X131704801Y-101421315D01*
X131866750Y-101450539D01*
X131964788Y-101451833D01*
X132185572Y-101434208D01*
X132295585Y-101360025D01*
X132341705Y-101239610D01*
X132358735Y-101026110D01*
X132339147Y-100746812D01*
X132292382Y-100483511D01*
X132236842Y-100330955D01*
X132142353Y-100323118D01*
X131956408Y-100395566D01*
X131723840Y-100528092D01*
X131584897Y-100624791D01*
X131491739Y-100716521D01*
X131471439Y-100834437D01*
X131082008Y-100834437D01*
X131031129Y-100750934D01*
X130929969Y-100707605D01*
X130791965Y-100793929D01*
X130646446Y-100937801D01*
X130408878Y-101185768D01*
X129966395Y-101185768D01*
X129940223Y-101155500D01*
X129758844Y-101367167D01*
X129555921Y-101635776D01*
X129360298Y-101947717D01*
X129198380Y-102254547D01*
X129096569Y-102507822D01*
X129075128Y-102621566D01*
X128834188Y-102621566D01*
X128833952Y-102614556D01*
X128843669Y-102459120D01*
X128864487Y-102183543D01*
X128851310Y-102028530D01*
X128786406Y-101946093D01*
X128652043Y-101888244D01*
X128629855Y-101880482D01*
X128410633Y-101833837D01*
X128094588Y-101801315D01*
X127785993Y-101790500D01*
X127478417Y-101795165D01*
X127307329Y-101815128D01*
X127240002Y-101859341D01*
X126956368Y-101859341D01*
X126948945Y-101808731D01*
X126973223Y-101574394D01*
X127059773Y-101484647D01*
X128589141Y-101484647D01*
X128682272Y-101585534D01*
X128747808Y-101615189D01*
X128972617Y-101686455D01*
X129123792Y-101658341D01*
X129270714Y-101510117D01*
X129320741Y-101443994D01*
X129514327Y-101182155D01*
X129278490Y-100935994D01*
X129114097Y-100780255D01*
X128994778Y-100695191D01*
X128975778Y-100689833D01*
X128874112Y-100761309D01*
X128753578Y-100939273D01*
X128647211Y-101169032D01*
X128605375Y-101303056D01*
X128589141Y-101484647D01*
X127059773Y-101484647D01*
X127079284Y-101464416D01*
X127161259Y-101451833D01*
X127224340Y-101371712D01*
X127260139Y-101146684D01*
X127265947Y-101002466D01*
X127268466Y-100969192D01*
X127553993Y-100969192D01*
X127557946Y-101215891D01*
X127593772Y-101377187D01*
X127606778Y-101395389D01*
X127721980Y-101432970D01*
X127930880Y-101451441D01*
X127967060Y-101451833D01*
X128170846Y-101434925D01*
X128282679Y-101352144D01*
X128363626Y-101155405D01*
X128370268Y-101134354D01*
X128412798Y-100869061D01*
X128336288Y-100661786D01*
X128121664Y-100478253D01*
X128067983Y-100447898D01*
X129223545Y-100447898D01*
X129455613Y-100690125D01*
X129623985Y-100842361D01*
X129746580Y-100876722D01*
X129839799Y-100837353D01*
X130004763Y-100786901D01*
X130111434Y-100841545D01*
X130217271Y-100882320D01*
X130346301Y-100811671D01*
X130456043Y-100705792D01*
X130597364Y-100544920D01*
X130630626Y-100433747D01*
X130569118Y-100303867D01*
X130542083Y-100262840D01*
X130384898Y-100052577D01*
X130196035Y-99830200D01*
X130188570Y-99822064D01*
X130154730Y-99785335D01*
X130601150Y-99785335D01*
X130667485Y-99934198D01*
X130825524Y-100122219D01*
X131023308Y-100298925D01*
X131208875Y-100413841D01*
X131265673Y-100430854D01*
X131351274Y-100394482D01*
X131527330Y-100297298D01*
X131604340Y-100251797D01*
X131800678Y-100132815D01*
X131925013Y-100055549D01*
X131941704Y-100044370D01*
X131914890Y-99970202D01*
X131825858Y-99798957D01*
X131701506Y-99577548D01*
X131568732Y-99352883D01*
X131454434Y-99171875D01*
X131394691Y-99090372D01*
X131315476Y-99115140D01*
X131159762Y-99225034D01*
X130969036Y-99383720D01*
X130784787Y-99554865D01*
X130648503Y-99702133D01*
X130601150Y-99785335D01*
X130154730Y-99785335D01*
X129974109Y-99589296D01*
X129769944Y-99779731D01*
X129567968Y-99993018D01*
X129394661Y-100209032D01*
X129223545Y-100447898D01*
X128067983Y-100447898D01*
X127951639Y-100382109D01*
X127784584Y-100309311D01*
X127698230Y-100341800D01*
X127633939Y-100480956D01*
X127579971Y-100702433D01*
X127553993Y-100969192D01*
X127268466Y-100969192D01*
X127292526Y-100651450D01*
X127354227Y-100330887D01*
X127439293Y-100081240D01*
X127531707Y-99949061D01*
X128015894Y-99949061D01*
X128017090Y-100056177D01*
X128070674Y-100104232D01*
X128227319Y-100207121D01*
X128354667Y-100300344D01*
X128529563Y-100406135D01*
X128683387Y-100407701D01*
X128861928Y-100293933D01*
X129029178Y-100136678D01*
X129202060Y-99949361D01*
X129310106Y-99804517D01*
X129328333Y-99759556D01*
X129266028Y-99669897D01*
X129104829Y-99518504D01*
X128937153Y-99382902D01*
X128755332Y-99244071D01*
X129309463Y-99244071D01*
X129370744Y-99335108D01*
X129382638Y-99348394D01*
X129534200Y-99482158D01*
X129652014Y-99474813D01*
X129751667Y-99377500D01*
X129904490Y-99262570D01*
X130071457Y-99299281D01*
X130187912Y-99389185D01*
X130327986Y-99478912D01*
X130449458Y-99437299D01*
X130469745Y-99421151D01*
X130573033Y-99298022D01*
X130574522Y-99157608D01*
X130464948Y-98967163D01*
X130277453Y-98741357D01*
X129956572Y-98379770D01*
X129598968Y-98786030D01*
X129408149Y-99009636D01*
X129316789Y-99148948D01*
X129309463Y-99244071D01*
X128755332Y-99244071D01*
X128545973Y-99084214D01*
X128398791Y-99273190D01*
X128257678Y-99481188D01*
X128113544Y-99731429D01*
X128103812Y-99750195D01*
X128015894Y-99949061D01*
X127531707Y-99949061D01*
X127535966Y-99942970D01*
X127578211Y-99927833D01*
X127672991Y-99859093D01*
X127801543Y-99684435D01*
X127868766Y-99568000D01*
X128034350Y-99285234D01*
X128214379Y-99018582D01*
X128263683Y-98954167D01*
X128467456Y-98700167D01*
X128992084Y-99007501D01*
X129422704Y-98536334D01*
X129644457Y-98308976D01*
X129834097Y-98141823D01*
X129955142Y-98066569D01*
X129965057Y-98065167D01*
X130072396Y-98124664D01*
G37*
X130072396Y-98124664D02*
X130252014Y-98281610D01*
X130467406Y-98503689D01*
X130494607Y-98533948D01*
X130912424Y-99002729D01*
X131181440Y-98851448D01*
X131364258Y-98757800D01*
X131472930Y-98758182D01*
X131580341Y-98862628D01*
X131620074Y-98911833D01*
X131760184Y-99113602D01*
X131923748Y-99386077D01*
X131999772Y-99525667D01*
X132132160Y-99750318D01*
X132247036Y-99896290D01*
X132297413Y-99927833D01*
X132400801Y-100005098D01*
X132498989Y-100207734D01*
X132578053Y-100492004D01*
X132624068Y-100814170D01*
X132630333Y-100973572D01*
X132639988Y-101246965D01*
X132678873Y-101395821D01*
X132761869Y-101464328D01*
X132799667Y-101476365D01*
X132922645Y-101567864D01*
X132965603Y-101766155D01*
X132928435Y-102084769D01*
X132811037Y-102537237D01*
X132790960Y-102603087D01*
X132571304Y-103126477D01*
X132284693Y-103503872D01*
X131938518Y-103730515D01*
X131540173Y-103801645D01*
X131097049Y-103712503D01*
X131078684Y-103705608D01*
X130849903Y-103622951D01*
X130690902Y-103574125D01*
X130659003Y-103568500D01*
X130630580Y-103646406D01*
X130609288Y-103853153D01*
X130598825Y-104148284D01*
X130598333Y-104232711D01*
X130590394Y-104592245D01*
X130561340Y-104823767D01*
X130503318Y-104968080D01*
X130443500Y-105037044D01*
X130224014Y-105144988D01*
X129938264Y-105176873D01*
X129660183Y-105133815D01*
X129468455Y-105022333D01*
X129385009Y-104869246D01*
X129340544Y-104618378D01*
X129328333Y-104265330D01*
X129318781Y-103962520D01*
X129303521Y-103822500D01*
X129582333Y-103822500D01*
X129582333Y-104274055D01*
X129592869Y-104538485D01*
X129619893Y-104729315D01*
X129642807Y-104786085D01*
X129760469Y-104820018D01*
X129969357Y-104823767D01*
X130002640Y-104821363D01*
X130302000Y-104796167D01*
X130327392Y-104309333D01*
X130352784Y-103822500D01*
X129582333Y-103822500D01*
X129303521Y-103822500D01*
X129293646Y-103731895D01*
X129258207Y-103620280D01*
X129255348Y-103618052D01*
X129138263Y-103618915D01*
X128930360Y-103674500D01*
X128837907Y-103708251D01*
X128400818Y-103804905D01*
X128004192Y-103741696D01*
X127655504Y-103524845D01*
X127362231Y-103160578D01*
X127131849Y-102655120D01*
X127003532Y-102180919D01*
X126956368Y-101859341D01*
X127240002Y-101859341D01*
X127243710Y-101936754D01*
X127244274Y-101938667D01*
X127295452Y-102129517D01*
X127346660Y-102340833D01*
X127464531Y-102696752D01*
X127636623Y-103031661D01*
X127829331Y-103284929D01*
X127906705Y-103351238D01*
X128174089Y-103456318D01*
X128500517Y-103477729D01*
X128795420Y-103411104D01*
X128826976Y-103395612D01*
X128939105Y-103301968D01*
X128917329Y-103170469D01*
X128895589Y-103127582D01*
X128844327Y-102923789D01*
X128834188Y-102621566D01*
X129075128Y-102621566D01*
X129145845Y-102958555D01*
X129335665Y-103226764D01*
X129606645Y-103409490D01*
X129920838Y-103490030D01*
X130240301Y-103451681D01*
X130518077Y-103283206D01*
X130982697Y-103283206D01*
X131069543Y-103383039D01*
X131084607Y-103392072D01*
X131363092Y-103473763D01*
X131692699Y-103461808D01*
X131988117Y-103362860D01*
X132058755Y-103316085D01*
X132269547Y-103065727D01*
X132457866Y-102676705D01*
X132609286Y-102179494D01*
X132621239Y-102127690D01*
X132697000Y-101790500D01*
X132092167Y-101798939D01*
X131756585Y-101811522D01*
X131462191Y-101836322D01*
X131275667Y-101867338D01*
X131159444Y-101912072D01*
X131099446Y-101991331D01*
X131081614Y-102149342D01*
X131091890Y-102430333D01*
X131092602Y-102443238D01*
X131093255Y-102749883D01*
X131065328Y-103008818D01*
X131028543Y-103132318D01*
X130982697Y-103283206D01*
X130518077Y-103283206D01*
X130527090Y-103277740D01*
X130539083Y-103265992D01*
X130752591Y-102951987D01*
X130806168Y-102595071D01*
X130699396Y-102192888D01*
X130431862Y-101743078D01*
X130225299Y-101485202D01*
X129966395Y-101185768D01*
X130408878Y-101185768D01*
X130594038Y-101445801D01*
X130743573Y-101632706D01*
X130872181Y-101694403D01*
X131046790Y-101650444D01*
X131145899Y-101607022D01*
X131277303Y-101520415D01*
X131317799Y-101397611D01*
X131266853Y-101202627D01*
X131135766Y-100922667D01*
X131082008Y-100834437D01*
X131471439Y-100834437D01*
X131517619Y-101038657D01*
X131534799Y-101096910D01*
X131612509Y-101318592D01*
X131704801Y-101421315D01*
X131866750Y-101450539D01*
X131964788Y-101451833D01*
X132185572Y-101434208D01*
X132295585Y-101360025D01*
X132341705Y-101239610D01*
X132358735Y-101026110D01*
X132339147Y-100746812D01*
X132292382Y-100483511D01*
X132236842Y-100330955D01*
X132142353Y-100323118D01*
X131956408Y-100395566D01*
X131723840Y-100528092D01*
X131584897Y-100624791D01*
X131491739Y-100716521D01*
X131471439Y-100834437D01*
X131082008Y-100834437D01*
X131031129Y-100750934D01*
X130929969Y-100707605D01*
X130791965Y-100793929D01*
X130646446Y-100937801D01*
X130408878Y-101185768D01*
X129966395Y-101185768D01*
X129940223Y-101155500D01*
X129758844Y-101367167D01*
X129555921Y-101635776D01*
X129360298Y-101947717D01*
X129198380Y-102254547D01*
X129096569Y-102507822D01*
X129075128Y-102621566D01*
X128834188Y-102621566D01*
X128833952Y-102614556D01*
X128843669Y-102459120D01*
X128864487Y-102183543D01*
X128851310Y-102028530D01*
X128786406Y-101946093D01*
X128652043Y-101888244D01*
X128629855Y-101880482D01*
X128410633Y-101833837D01*
X128094588Y-101801315D01*
X127785993Y-101790500D01*
X127478417Y-101795165D01*
X127307329Y-101815128D01*
X127240002Y-101859341D01*
X126956368Y-101859341D01*
X126948945Y-101808731D01*
X126973223Y-101574394D01*
X127059773Y-101484647D01*
X128589141Y-101484647D01*
X128682272Y-101585534D01*
X128747808Y-101615189D01*
X128972617Y-101686455D01*
X129123792Y-101658341D01*
X129270714Y-101510117D01*
X129320741Y-101443994D01*
X129514327Y-101182155D01*
X129278490Y-100935994D01*
X129114097Y-100780255D01*
X128994778Y-100695191D01*
X128975778Y-100689833D01*
X128874112Y-100761309D01*
X128753578Y-100939273D01*
X128647211Y-101169032D01*
X128605375Y-101303056D01*
X128589141Y-101484647D01*
X127059773Y-101484647D01*
X127079284Y-101464416D01*
X127161259Y-101451833D01*
X127224340Y-101371712D01*
X127260139Y-101146684D01*
X127265947Y-101002466D01*
X127268466Y-100969192D01*
X127553993Y-100969192D01*
X127557946Y-101215891D01*
X127593772Y-101377187D01*
X127606778Y-101395389D01*
X127721980Y-101432970D01*
X127930880Y-101451441D01*
X127967060Y-101451833D01*
X128170846Y-101434925D01*
X128282679Y-101352144D01*
X128363626Y-101155405D01*
X128370268Y-101134354D01*
X128412798Y-100869061D01*
X128336288Y-100661786D01*
X128121664Y-100478253D01*
X128067983Y-100447898D01*
X129223545Y-100447898D01*
X129455613Y-100690125D01*
X129623985Y-100842361D01*
X129746580Y-100876722D01*
X129839799Y-100837353D01*
X130004763Y-100786901D01*
X130111434Y-100841545D01*
X130217271Y-100882320D01*
X130346301Y-100811671D01*
X130456043Y-100705792D01*
X130597364Y-100544920D01*
X130630626Y-100433747D01*
X130569118Y-100303867D01*
X130542083Y-100262840D01*
X130384898Y-100052577D01*
X130196035Y-99830200D01*
X130188570Y-99822064D01*
X130154730Y-99785335D01*
X130601150Y-99785335D01*
X130667485Y-99934198D01*
X130825524Y-100122219D01*
X131023308Y-100298925D01*
X131208875Y-100413841D01*
X131265673Y-100430854D01*
X131351274Y-100394482D01*
X131527330Y-100297298D01*
X131604340Y-100251797D01*
X131800678Y-100132815D01*
X131925013Y-100055549D01*
X131941704Y-100044370D01*
X131914890Y-99970202D01*
X131825858Y-99798957D01*
X131701506Y-99577548D01*
X131568732Y-99352883D01*
X131454434Y-99171875D01*
X131394691Y-99090372D01*
X131315476Y-99115140D01*
X131159762Y-99225034D01*
X130969036Y-99383720D01*
X130784787Y-99554865D01*
X130648503Y-99702133D01*
X130601150Y-99785335D01*
X130154730Y-99785335D01*
X129974109Y-99589296D01*
X129769944Y-99779731D01*
X129567968Y-99993018D01*
X129394661Y-100209032D01*
X129223545Y-100447898D01*
X128067983Y-100447898D01*
X127951639Y-100382109D01*
X127784584Y-100309311D01*
X127698230Y-100341800D01*
X127633939Y-100480956D01*
X127579971Y-100702433D01*
X127553993Y-100969192D01*
X127268466Y-100969192D01*
X127292526Y-100651450D01*
X127354227Y-100330887D01*
X127439293Y-100081240D01*
X127531707Y-99949061D01*
X128015894Y-99949061D01*
X128017090Y-100056177D01*
X128070674Y-100104232D01*
X128227319Y-100207121D01*
X128354667Y-100300344D01*
X128529563Y-100406135D01*
X128683387Y-100407701D01*
X128861928Y-100293933D01*
X129029178Y-100136678D01*
X129202060Y-99949361D01*
X129310106Y-99804517D01*
X129328333Y-99759556D01*
X129266028Y-99669897D01*
X129104829Y-99518504D01*
X128937153Y-99382902D01*
X128755332Y-99244071D01*
X129309463Y-99244071D01*
X129370744Y-99335108D01*
X129382638Y-99348394D01*
X129534200Y-99482158D01*
X129652014Y-99474813D01*
X129751667Y-99377500D01*
X129904490Y-99262570D01*
X130071457Y-99299281D01*
X130187912Y-99389185D01*
X130327986Y-99478912D01*
X130449458Y-99437299D01*
X130469745Y-99421151D01*
X130573033Y-99298022D01*
X130574522Y-99157608D01*
X130464948Y-98967163D01*
X130277453Y-98741357D01*
X129956572Y-98379770D01*
X129598968Y-98786030D01*
X129408149Y-99009636D01*
X129316789Y-99148948D01*
X129309463Y-99244071D01*
X128755332Y-99244071D01*
X128545973Y-99084214D01*
X128398791Y-99273190D01*
X128257678Y-99481188D01*
X128113544Y-99731429D01*
X128103812Y-99750195D01*
X128015894Y-99949061D01*
X127531707Y-99949061D01*
X127535966Y-99942970D01*
X127578211Y-99927833D01*
X127672991Y-99859093D01*
X127801543Y-99684435D01*
X127868766Y-99568000D01*
X128034350Y-99285234D01*
X128214379Y-99018582D01*
X128263683Y-98954167D01*
X128467456Y-98700167D01*
X128992084Y-99007501D01*
X129422704Y-98536334D01*
X129644457Y-98308976D01*
X129834097Y-98141823D01*
X129955142Y-98066569D01*
X129965057Y-98065167D01*
X130072396Y-98124664D01*
%TD*%
M02*
