%TF.GenerationSoftware,KiCad,Pcbnew,(5.1.5)-3*%
%TF.CreationDate,2020-09-12T07:11:51+09:30*%
%TF.ProjectId,robotcontrol,726f626f-7463-46f6-9e74-726f6c2e6b69,rev?*%
%TF.SameCoordinates,Original*%
%TF.FileFunction,Other,Fab,Top*%
%FSLAX46Y46*%
G04 Gerber Fmt 4.6, Leading zero omitted, Abs format (unit mm)*
G04 Created by KiCad (PCBNEW (5.1.5)-3) date 2020-09-12 07:11:51*
%MOMM*%
%LPD*%
G04 APERTURE LIST*
%ADD10C,0.100000*%
%ADD11C,0.150000*%
%ADD12C,0.075000*%
%ADD13C,0.141000*%
G04 APERTURE END LIST*
D10*
%TO.C,BT1*%
X99070000Y-108899500D02*
X99070000Y-98999500D01*
X92770000Y-108949500D02*
X100270000Y-108949500D01*
X100270000Y-108949500D02*
X100270000Y-98949500D01*
X100270000Y-98949500D02*
X92770000Y-98949500D01*
X92770000Y-98949500D02*
X92770000Y-108949500D01*
D11*
%TO.C,U3*%
X132170800Y-94544000D02*
X138170800Y-94544000D01*
X138170800Y-94544000D02*
X138170800Y-101544000D01*
X138170800Y-101544000D02*
X131170800Y-101544000D01*
X131170800Y-101544000D02*
X131170800Y-95544000D01*
X131170800Y-95544000D02*
X132170800Y-94544000D01*
D10*
%TO.C,J6*%
X135890000Y-106680000D02*
X135890000Y-110490000D01*
X135890000Y-110490000D02*
X128270000Y-110490000D01*
X128270000Y-110490000D02*
X128270000Y-105410000D01*
X128270000Y-105410000D02*
X134620000Y-105410000D01*
X134620000Y-105410000D02*
X135890000Y-106680000D01*
%TO.C,U2*%
X103530000Y-97710000D02*
X107930000Y-97710000D01*
X107930000Y-97710000D02*
X107930000Y-87710000D01*
X107930000Y-87710000D02*
X103530000Y-87710000D01*
X103530000Y-87710000D02*
X103530000Y-97710000D01*
X104800000Y-97710000D02*
X104800000Y-87710000D01*
X103530000Y-94560000D02*
X104800000Y-94560000D01*
X103530000Y-90860000D02*
X104800000Y-90860000D01*
%TO.C,U1*%
X105780000Y-99430000D02*
X106430000Y-98780000D01*
X107580000Y-98780000D02*
X106430000Y-98780000D01*
X105780000Y-99430000D02*
X105780000Y-101880000D01*
X107580000Y-101880000D02*
X105780000Y-101880000D01*
X107580000Y-98780000D02*
X107580000Y-101880000D01*
%TO.C,SW2*%
X145490000Y-91325000D02*
X148490000Y-91325000D01*
X148490000Y-91325000D02*
X148490000Y-97325000D01*
X148490000Y-97325000D02*
X142490000Y-97325000D01*
X142490000Y-97325000D02*
X142490000Y-91325000D01*
X142490000Y-91325000D02*
X145490000Y-91325000D01*
X147505564Y-94325000D02*
G75*
G03X147505564Y-94325000I-2015564J0D01*
G01*
%TO.C,SW1*%
X130810000Y-89535000D02*
X130810000Y-87630000D01*
X130810000Y-87630000D02*
X138430000Y-87630000D01*
X138430000Y-87630000D02*
X138430000Y-90170000D01*
X138430000Y-90170000D02*
X131445000Y-90170000D01*
X131445000Y-90170000D02*
X130810000Y-89535000D01*
%TO.C,R4*%
X140360000Y-106065000D02*
X140360000Y-108565000D01*
X140360000Y-108565000D02*
X146660000Y-108565000D01*
X146660000Y-108565000D02*
X146660000Y-106065000D01*
X146660000Y-106065000D02*
X140360000Y-106065000D01*
X138430000Y-107315000D02*
X140360000Y-107315000D01*
X148590000Y-107315000D02*
X146660000Y-107315000D01*
%TO.C,R3*%
X153853200Y-89763200D02*
X151353200Y-89763200D01*
X151353200Y-89763200D02*
X151353200Y-96063200D01*
X151353200Y-96063200D02*
X153853200Y-96063200D01*
X153853200Y-96063200D02*
X153853200Y-89763200D01*
X152603200Y-87833200D02*
X152603200Y-89763200D01*
X152603200Y-97993200D02*
X152603200Y-96063200D01*
%TO.C,R2*%
X113050000Y-108560000D02*
X115550000Y-108560000D01*
X115550000Y-108560000D02*
X115550000Y-102260000D01*
X115550000Y-102260000D02*
X113050000Y-102260000D01*
X113050000Y-102260000D02*
X113050000Y-108560000D01*
X114300000Y-110490000D02*
X114300000Y-108560000D01*
X114300000Y-100330000D02*
X114300000Y-102260000D01*
%TO.C,R1*%
X140360000Y-109240000D02*
X140360000Y-111740000D01*
X140360000Y-111740000D02*
X146660000Y-111740000D01*
X146660000Y-111740000D02*
X146660000Y-109240000D01*
X146660000Y-109240000D02*
X140360000Y-109240000D01*
X138430000Y-110490000D02*
X140360000Y-110490000D01*
X148590000Y-110490000D02*
X146660000Y-110490000D01*
%TO.C,J5*%
X151663400Y-100380800D02*
X153568400Y-100380800D01*
X153568400Y-100380800D02*
X153568400Y-110540800D01*
X153568400Y-110540800D02*
X151028400Y-110540800D01*
X151028400Y-110540800D02*
X151028400Y-101015800D01*
X151028400Y-101015800D02*
X151663400Y-100380800D01*
%TO.C,J4*%
X118745000Y-100330000D02*
X120650000Y-100330000D01*
X120650000Y-100330000D02*
X120650000Y-110490000D01*
X120650000Y-110490000D02*
X118110000Y-110490000D01*
X118110000Y-110490000D02*
X118110000Y-100965000D01*
X118110000Y-100965000D02*
X118745000Y-100330000D01*
%TO.C,J3*%
X123825000Y-100330000D02*
X125730000Y-100330000D01*
X125730000Y-100330000D02*
X125730000Y-110490000D01*
X125730000Y-110490000D02*
X123190000Y-110490000D01*
X123190000Y-110490000D02*
X123190000Y-100965000D01*
X123190000Y-100965000D02*
X123825000Y-100330000D01*
%TO.C,J2*%
X99070000Y-97660000D02*
X99070000Y-87760000D01*
X92770000Y-97710000D02*
X100270000Y-97710000D01*
X100270000Y-97710000D02*
X100270000Y-87710000D01*
X100270000Y-87710000D02*
X92770000Y-87710000D01*
X92770000Y-87710000D02*
X92770000Y-97710000D01*
D11*
%TO.C,J1*%
X102324400Y-106716000D02*
X102324400Y-112116000D01*
X102324400Y-112116000D02*
X102624400Y-112116000D01*
X102624400Y-112116000D02*
X102624400Y-113316000D01*
X102624400Y-113316000D02*
X110024400Y-113316000D01*
X110024400Y-113316000D02*
X110024400Y-112116000D01*
X110024400Y-112116000D02*
X110324400Y-112116000D01*
X110324400Y-112116000D02*
X110324400Y-106716000D01*
X110324400Y-106716000D02*
X102324400Y-106716000D01*
X103624400Y-112716000D02*
X109024400Y-112716000D01*
X105249400Y-106241000D02*
X105024400Y-106416000D01*
X105024400Y-106416000D02*
X104799400Y-106241000D01*
X104799400Y-106241000D02*
X104799400Y-106016000D01*
X104799400Y-106016000D02*
X105249400Y-106016000D01*
X105249400Y-106016000D02*
X105249400Y-106241000D01*
D10*
%TO.C,D5*%
X127865000Y-96520000D02*
G75*
G03X127865000Y-96520000I-1500000J0D01*
G01*
X124865000Y-95353810D02*
X124865000Y-97686190D01*
X124864445Y-97685476D02*
G75*
G03X124865000Y-95353810I1500555J1165476D01*
G01*
%TO.C,D4*%
X114240000Y-87550000D02*
X114240000Y-90250000D01*
X114240000Y-90250000D02*
X119440000Y-90250000D01*
X119440000Y-90250000D02*
X119440000Y-87550000D01*
X119440000Y-87550000D02*
X114240000Y-87550000D01*
X111760000Y-88900000D02*
X114240000Y-88900000D01*
X121920000Y-88900000D02*
X119440000Y-88900000D01*
X115020000Y-87550000D02*
X115020000Y-90250000D01*
X115120000Y-87550000D02*
X115120000Y-90250000D01*
X114920000Y-87550000D02*
X114920000Y-90250000D01*
%TO.C,D3*%
X114240000Y-95170000D02*
X114240000Y-97870000D01*
X114240000Y-97870000D02*
X119440000Y-97870000D01*
X119440000Y-97870000D02*
X119440000Y-95170000D01*
X119440000Y-95170000D02*
X114240000Y-95170000D01*
X111760000Y-96520000D02*
X114240000Y-96520000D01*
X121920000Y-96520000D02*
X119440000Y-96520000D01*
X115020000Y-95170000D02*
X115020000Y-97870000D01*
X115120000Y-95170000D02*
X115120000Y-97870000D01*
X114920000Y-95170000D02*
X114920000Y-97870000D01*
%TO.C,D2*%
X127865000Y-89535000D02*
G75*
G03X127865000Y-89535000I-1500000J0D01*
G01*
X124865000Y-88368810D02*
X124865000Y-90701190D01*
X124864445Y-90700476D02*
G75*
G03X124865000Y-88368810I1500555J1165476D01*
G01*
%TO.C,D1*%
X114240000Y-91360000D02*
X114240000Y-94060000D01*
X114240000Y-94060000D02*
X119440000Y-94060000D01*
X119440000Y-94060000D02*
X119440000Y-91360000D01*
X119440000Y-91360000D02*
X114240000Y-91360000D01*
X111760000Y-92710000D02*
X114240000Y-92710000D01*
X121920000Y-92710000D02*
X119440000Y-92710000D01*
X115020000Y-91360000D02*
X115020000Y-94060000D01*
X115120000Y-91360000D02*
X115120000Y-94060000D01*
X114920000Y-91360000D02*
X114920000Y-94060000D01*
%TO.C,C3*%
X146010000Y-101580000D02*
G75*
G03X146010000Y-101580000I-2500000J0D01*
G01*
X144597500Y-99446395D02*
X144597500Y-99946395D01*
X144847500Y-99696395D02*
X144347500Y-99696395D01*
%TO.C,C2*%
X149433600Y-99565600D02*
X146933600Y-99565600D01*
X146933600Y-99565600D02*
X146933600Y-104265600D01*
X146933600Y-104265600D02*
X149433600Y-104265600D01*
X149433600Y-104265600D02*
X149433600Y-99565600D01*
%TO.C,C1*%
X141120000Y-87650000D02*
X141120000Y-90150000D01*
X141120000Y-90150000D02*
X145820000Y-90150000D01*
X145820000Y-90150000D02*
X145820000Y-87650000D01*
X145820000Y-87650000D02*
X141120000Y-87650000D01*
%TD*%
%TO.C,BT1*%
D11*
X101052380Y-107354261D02*
X101052380Y-106735214D01*
X101433333Y-107068547D01*
X101433333Y-106925690D01*
X101480952Y-106830452D01*
X101528571Y-106782833D01*
X101623809Y-106735214D01*
X101861904Y-106735214D01*
X101957142Y-106782833D01*
X102004761Y-106830452D01*
X102052380Y-106925690D01*
X102052380Y-107211404D01*
X102004761Y-107306642D01*
X101957142Y-107354261D01*
X101957142Y-106306642D02*
X102004761Y-106259023D01*
X102052380Y-106306642D01*
X102004761Y-106354261D01*
X101957142Y-106306642D01*
X102052380Y-106306642D01*
X101052380Y-105925690D02*
X101052380Y-105259023D01*
X102052380Y-105687595D01*
X101385714Y-104973309D02*
X102052380Y-104735214D01*
X101385714Y-104497119D01*
X102052380Y-102878071D02*
X102052380Y-103354261D01*
X101052380Y-103354261D01*
X102052380Y-102544738D02*
X101385714Y-102544738D01*
X101052380Y-102544738D02*
X101100000Y-102592357D01*
X101147619Y-102544738D01*
X101100000Y-102497119D01*
X101052380Y-102544738D01*
X101147619Y-102544738D01*
X102052380Y-102068547D02*
X101052380Y-102068547D01*
X101052380Y-101687595D01*
X101100000Y-101592357D01*
X101147619Y-101544738D01*
X101242857Y-101497119D01*
X101385714Y-101497119D01*
X101480952Y-101544738D01*
X101528571Y-101592357D01*
X101576190Y-101687595D01*
X101576190Y-102068547D01*
X102052380Y-100925690D02*
X102004761Y-101020928D01*
X101957142Y-101068547D01*
X101861904Y-101116166D01*
X101576190Y-101116166D01*
X101480952Y-101068547D01*
X101433333Y-101020928D01*
X101385714Y-100925690D01*
X101385714Y-100782833D01*
X101433333Y-100687595D01*
X101480952Y-100639976D01*
X101576190Y-100592357D01*
X101861904Y-100592357D01*
X101957142Y-100639976D01*
X102004761Y-100687595D01*
X102052380Y-100782833D01*
X102052380Y-100925690D01*
X96448571Y-104735214D02*
X96496190Y-104592357D01*
X96543809Y-104544738D01*
X96639047Y-104497119D01*
X96781904Y-104497119D01*
X96877142Y-104544738D01*
X96924761Y-104592357D01*
X96972380Y-104687595D01*
X96972380Y-105068547D01*
X95972380Y-105068547D01*
X95972380Y-104735214D01*
X96020000Y-104639976D01*
X96067619Y-104592357D01*
X96162857Y-104544738D01*
X96258095Y-104544738D01*
X96353333Y-104592357D01*
X96400952Y-104639976D01*
X96448571Y-104735214D01*
X96448571Y-105068547D01*
X95972380Y-104211404D02*
X95972380Y-103639976D01*
X96972380Y-103925690D02*
X95972380Y-103925690D01*
X96972380Y-102782833D02*
X96972380Y-103354261D01*
X96972380Y-103068547D02*
X95972380Y-103068547D01*
X96115238Y-103163785D01*
X96210476Y-103259023D01*
X96258095Y-103354261D01*
%TO.C,U3*%
X128551752Y-104260666D02*
X129027942Y-104260666D01*
X128456514Y-104546380D02*
X128789847Y-103546380D01*
X129123180Y-104546380D01*
X129313657Y-103546380D02*
X129885085Y-103546380D01*
X129599371Y-104546380D02*
X129599371Y-103546380D01*
X130218419Y-104546380D02*
X130218419Y-103879714D01*
X130218419Y-103974952D02*
X130266038Y-103927333D01*
X130361276Y-103879714D01*
X130504133Y-103879714D01*
X130599371Y-103927333D01*
X130646990Y-104022571D01*
X130646990Y-104546380D01*
X130646990Y-104022571D02*
X130694609Y-103927333D01*
X130789847Y-103879714D01*
X130932704Y-103879714D01*
X131027942Y-103927333D01*
X131075561Y-104022571D01*
X131075561Y-104546380D01*
X131932704Y-104498761D02*
X131837466Y-104546380D01*
X131646990Y-104546380D01*
X131551752Y-104498761D01*
X131504133Y-104403523D01*
X131504133Y-104022571D01*
X131551752Y-103927333D01*
X131646990Y-103879714D01*
X131837466Y-103879714D01*
X131932704Y-103927333D01*
X131980323Y-104022571D01*
X131980323Y-104117809D01*
X131504133Y-104213047D01*
X132837466Y-103879714D02*
X132837466Y-104689238D01*
X132789847Y-104784476D01*
X132742228Y-104832095D01*
X132646990Y-104879714D01*
X132504133Y-104879714D01*
X132408895Y-104832095D01*
X132837466Y-104498761D02*
X132742228Y-104546380D01*
X132551752Y-104546380D01*
X132456514Y-104498761D01*
X132408895Y-104451142D01*
X132361276Y-104355904D01*
X132361276Y-104070190D01*
X132408895Y-103974952D01*
X132456514Y-103927333D01*
X132551752Y-103879714D01*
X132742228Y-103879714D01*
X132837466Y-103927333D01*
X133742228Y-104546380D02*
X133742228Y-104022571D01*
X133694609Y-103927333D01*
X133599371Y-103879714D01*
X133408895Y-103879714D01*
X133313657Y-103927333D01*
X133742228Y-104498761D02*
X133646990Y-104546380D01*
X133408895Y-104546380D01*
X133313657Y-104498761D01*
X133266038Y-104403523D01*
X133266038Y-104308285D01*
X133313657Y-104213047D01*
X133408895Y-104165428D01*
X133646990Y-104165428D01*
X133742228Y-104117809D01*
X134123180Y-103546380D02*
X134742228Y-103546380D01*
X134408895Y-103927333D01*
X134551752Y-103927333D01*
X134646990Y-103974952D01*
X134694609Y-104022571D01*
X134742228Y-104117809D01*
X134742228Y-104355904D01*
X134694609Y-104451142D01*
X134646990Y-104498761D01*
X134551752Y-104546380D01*
X134266038Y-104546380D01*
X134170800Y-104498761D01*
X134123180Y-104451142D01*
X135123180Y-103641619D02*
X135170800Y-103594000D01*
X135266038Y-103546380D01*
X135504133Y-103546380D01*
X135599371Y-103594000D01*
X135646990Y-103641619D01*
X135694609Y-103736857D01*
X135694609Y-103832095D01*
X135646990Y-103974952D01*
X135075561Y-104546380D01*
X135694609Y-104546380D01*
X136266038Y-103974952D02*
X136170800Y-103927333D01*
X136123180Y-103879714D01*
X136075561Y-103784476D01*
X136075561Y-103736857D01*
X136123180Y-103641619D01*
X136170800Y-103594000D01*
X136266038Y-103546380D01*
X136456514Y-103546380D01*
X136551752Y-103594000D01*
X136599371Y-103641619D01*
X136646990Y-103736857D01*
X136646990Y-103784476D01*
X136599371Y-103879714D01*
X136551752Y-103927333D01*
X136456514Y-103974952D01*
X136266038Y-103974952D01*
X136170800Y-104022571D01*
X136123180Y-104070190D01*
X136075561Y-104165428D01*
X136075561Y-104355904D01*
X136123180Y-104451142D01*
X136170800Y-104498761D01*
X136266038Y-104546380D01*
X136456514Y-104546380D01*
X136551752Y-104498761D01*
X136599371Y-104451142D01*
X136646990Y-104355904D01*
X136646990Y-104165428D01*
X136599371Y-104070190D01*
X136551752Y-104022571D01*
X136456514Y-103974952D01*
X137075561Y-104546380D02*
X137075561Y-103546380D01*
X137456514Y-103546380D01*
X137551752Y-103594000D01*
X137599371Y-103641619D01*
X137646990Y-103736857D01*
X137646990Y-103879714D01*
X137599371Y-103974952D01*
X137551752Y-104022571D01*
X137456514Y-104070190D01*
X137075561Y-104070190D01*
X138075561Y-104165428D02*
X138837466Y-104165428D01*
X139266038Y-104260666D02*
X139742228Y-104260666D01*
X139170800Y-104546380D02*
X139504133Y-103546380D01*
X139837466Y-104546380D01*
X140170800Y-103546380D02*
X140170800Y-104355904D01*
X140218419Y-104451142D01*
X140266038Y-104498761D01*
X140361276Y-104546380D01*
X140551752Y-104546380D01*
X140646990Y-104498761D01*
X140694609Y-104451142D01*
X140742228Y-104355904D01*
X140742228Y-103546380D01*
X133908895Y-97496380D02*
X133908895Y-98305904D01*
X133956514Y-98401142D01*
X134004133Y-98448761D01*
X134099371Y-98496380D01*
X134289847Y-98496380D01*
X134385085Y-98448761D01*
X134432704Y-98401142D01*
X134480323Y-98305904D01*
X134480323Y-97496380D01*
X134861276Y-97496380D02*
X135480323Y-97496380D01*
X135146990Y-97877333D01*
X135289847Y-97877333D01*
X135385085Y-97924952D01*
X135432704Y-97972571D01*
X135480323Y-98067809D01*
X135480323Y-98305904D01*
X135432704Y-98401142D01*
X135385085Y-98448761D01*
X135289847Y-98496380D01*
X135004133Y-98496380D01*
X134908895Y-98448761D01*
X134861276Y-98401142D01*
%TO.C,J6*%
X127376666Y-112045238D02*
X127376666Y-111569047D01*
X127662380Y-112140476D02*
X126662380Y-111807142D01*
X127662380Y-111473809D01*
X126662380Y-111283333D02*
X127662380Y-110950000D01*
X126662380Y-110616666D01*
X127662380Y-109711904D02*
X127186190Y-110045238D01*
X127662380Y-110283333D02*
X126662380Y-110283333D01*
X126662380Y-109902380D01*
X126710000Y-109807142D01*
X126757619Y-109759523D01*
X126852857Y-109711904D01*
X126995714Y-109711904D01*
X127090952Y-109759523D01*
X127138571Y-109807142D01*
X127186190Y-109902380D01*
X127186190Y-110283333D01*
X127281428Y-109283333D02*
X127281428Y-108521428D01*
X127662380Y-108045238D02*
X126662380Y-108045238D01*
X127614761Y-107616666D02*
X127662380Y-107473809D01*
X127662380Y-107235714D01*
X127614761Y-107140476D01*
X127567142Y-107092857D01*
X127471904Y-107045238D01*
X127376666Y-107045238D01*
X127281428Y-107092857D01*
X127233809Y-107140476D01*
X127186190Y-107235714D01*
X127138571Y-107426190D01*
X127090952Y-107521428D01*
X127043333Y-107569047D01*
X126948095Y-107616666D01*
X126852857Y-107616666D01*
X126757619Y-107569047D01*
X126710000Y-107521428D01*
X126662380Y-107426190D01*
X126662380Y-107188095D01*
X126710000Y-107045238D01*
X127662380Y-106616666D02*
X126662380Y-106616666D01*
X126662380Y-106235714D01*
X126710000Y-106140476D01*
X126757619Y-106092857D01*
X126852857Y-106045238D01*
X126995714Y-106045238D01*
X127090952Y-106092857D01*
X127138571Y-106140476D01*
X127186190Y-106235714D01*
X127186190Y-106616666D01*
X127281428Y-105616666D02*
X127281428Y-104854761D01*
X126662380Y-103950000D02*
X126662380Y-104140476D01*
X126710000Y-104235714D01*
X126757619Y-104283333D01*
X126900476Y-104378571D01*
X127090952Y-104426190D01*
X127471904Y-104426190D01*
X127567142Y-104378571D01*
X127614761Y-104330952D01*
X127662380Y-104235714D01*
X127662380Y-104045238D01*
X127614761Y-103950000D01*
X127567142Y-103902380D01*
X127471904Y-103854761D01*
X127233809Y-103854761D01*
X127138571Y-103902380D01*
X127090952Y-103950000D01*
X127043333Y-104045238D01*
X127043333Y-104235714D01*
X127090952Y-104330952D01*
X127138571Y-104378571D01*
X127233809Y-104426190D01*
X131746666Y-107402380D02*
X131746666Y-108116666D01*
X131699047Y-108259523D01*
X131603809Y-108354761D01*
X131460952Y-108402380D01*
X131365714Y-108402380D01*
X132651428Y-107402380D02*
X132460952Y-107402380D01*
X132365714Y-107450000D01*
X132318095Y-107497619D01*
X132222857Y-107640476D01*
X132175238Y-107830952D01*
X132175238Y-108211904D01*
X132222857Y-108307142D01*
X132270476Y-108354761D01*
X132365714Y-108402380D01*
X132556190Y-108402380D01*
X132651428Y-108354761D01*
X132699047Y-108307142D01*
X132746666Y-108211904D01*
X132746666Y-107973809D01*
X132699047Y-107878571D01*
X132651428Y-107830952D01*
X132556190Y-107783333D01*
X132365714Y-107783333D01*
X132270476Y-107830952D01*
X132222857Y-107878571D01*
X132175238Y-107973809D01*
%TO.C,U2*%
X109632380Y-97590952D02*
X109632380Y-98067142D01*
X108632380Y-98067142D01*
X109632380Y-97257619D02*
X108632380Y-97257619D01*
X109346666Y-96924285D01*
X108632380Y-96590952D01*
X109632380Y-96590952D01*
X108632380Y-96210000D02*
X108632380Y-95543333D01*
X109632380Y-95971904D01*
X109060952Y-95019523D02*
X109013333Y-95114761D01*
X108965714Y-95162380D01*
X108870476Y-95210000D01*
X108822857Y-95210000D01*
X108727619Y-95162380D01*
X108680000Y-95114761D01*
X108632380Y-95019523D01*
X108632380Y-94829047D01*
X108680000Y-94733809D01*
X108727619Y-94686190D01*
X108822857Y-94638571D01*
X108870476Y-94638571D01*
X108965714Y-94686190D01*
X109013333Y-94733809D01*
X109060952Y-94829047D01*
X109060952Y-95019523D01*
X109108571Y-95114761D01*
X109156190Y-95162380D01*
X109251428Y-95210000D01*
X109441904Y-95210000D01*
X109537142Y-95162380D01*
X109584761Y-95114761D01*
X109632380Y-95019523D01*
X109632380Y-94829047D01*
X109584761Y-94733809D01*
X109537142Y-94686190D01*
X109441904Y-94638571D01*
X109251428Y-94638571D01*
X109156190Y-94686190D01*
X109108571Y-94733809D01*
X109060952Y-94829047D01*
X108632380Y-94019523D02*
X108632380Y-93924285D01*
X108680000Y-93829047D01*
X108727619Y-93781428D01*
X108822857Y-93733809D01*
X109013333Y-93686190D01*
X109251428Y-93686190D01*
X109441904Y-93733809D01*
X109537142Y-93781428D01*
X109584761Y-93829047D01*
X109632380Y-93924285D01*
X109632380Y-94019523D01*
X109584761Y-94114761D01*
X109537142Y-94162380D01*
X109441904Y-94210000D01*
X109251428Y-94257619D01*
X109013333Y-94257619D01*
X108822857Y-94210000D01*
X108727619Y-94162380D01*
X108680000Y-94114761D01*
X108632380Y-94019523D01*
X108632380Y-92781428D02*
X108632380Y-93257619D01*
X109108571Y-93305238D01*
X109060952Y-93257619D01*
X109013333Y-93162380D01*
X109013333Y-92924285D01*
X109060952Y-92829047D01*
X109108571Y-92781428D01*
X109203809Y-92733809D01*
X109441904Y-92733809D01*
X109537142Y-92781428D01*
X109584761Y-92829047D01*
X109632380Y-92924285D01*
X109632380Y-93162380D01*
X109584761Y-93257619D01*
X109537142Y-93305238D01*
X109727619Y-92543333D02*
X109727619Y-91781428D01*
X108632380Y-91686190D02*
X108632380Y-91114761D01*
X109632380Y-91400476D02*
X108632380Y-91400476D01*
X108632380Y-90590952D02*
X108632380Y-90400476D01*
X108680000Y-90305238D01*
X108775238Y-90210000D01*
X108965714Y-90162380D01*
X109299047Y-90162380D01*
X109489523Y-90210000D01*
X109584761Y-90305238D01*
X109632380Y-90400476D01*
X109632380Y-90590952D01*
X109584761Y-90686190D01*
X109489523Y-90781428D01*
X109299047Y-90829047D01*
X108965714Y-90829047D01*
X108775238Y-90781428D01*
X108680000Y-90686190D01*
X108632380Y-90590952D01*
X108727619Y-89781428D02*
X108680000Y-89733809D01*
X108632380Y-89638571D01*
X108632380Y-89400476D01*
X108680000Y-89305238D01*
X108727619Y-89257619D01*
X108822857Y-89210000D01*
X108918095Y-89210000D01*
X109060952Y-89257619D01*
X109632380Y-89829047D01*
X109632380Y-89210000D01*
X108727619Y-88829047D02*
X108680000Y-88781428D01*
X108632380Y-88686190D01*
X108632380Y-88448095D01*
X108680000Y-88352857D01*
X108727619Y-88305238D01*
X108822857Y-88257619D01*
X108918095Y-88257619D01*
X109060952Y-88305238D01*
X109632380Y-88876666D01*
X109632380Y-88257619D01*
X108632380Y-87638571D02*
X108632380Y-87543333D01*
X108680000Y-87448095D01*
X108727619Y-87400476D01*
X108822857Y-87352857D01*
X109013333Y-87305238D01*
X109251428Y-87305238D01*
X109441904Y-87352857D01*
X109537142Y-87400476D01*
X109584761Y-87448095D01*
X109632380Y-87543333D01*
X109632380Y-87638571D01*
X109584761Y-87733809D01*
X109537142Y-87781428D01*
X109441904Y-87829047D01*
X109251428Y-87876666D01*
X109013333Y-87876666D01*
X108822857Y-87829047D01*
X108727619Y-87781428D01*
X108680000Y-87733809D01*
X108632380Y-87638571D01*
X101862380Y-93471904D02*
X102671904Y-93471904D01*
X102767142Y-93424285D01*
X102814761Y-93376666D01*
X102862380Y-93281428D01*
X102862380Y-93090952D01*
X102814761Y-92995714D01*
X102767142Y-92948095D01*
X102671904Y-92900476D01*
X101862380Y-92900476D01*
X101957619Y-92471904D02*
X101910000Y-92424285D01*
X101862380Y-92329047D01*
X101862380Y-92090952D01*
X101910000Y-91995714D01*
X101957619Y-91948095D01*
X102052857Y-91900476D01*
X102148095Y-91900476D01*
X102290952Y-91948095D01*
X102862380Y-92519523D01*
X102862380Y-91900476D01*
%TO.C,U1*%
X100346666Y-103682380D02*
X100346666Y-102682380D01*
X100680000Y-103396666D01*
X101013333Y-102682380D01*
X101013333Y-103682380D01*
X102060952Y-103587142D02*
X102013333Y-103634761D01*
X101870476Y-103682380D01*
X101775238Y-103682380D01*
X101632380Y-103634761D01*
X101537142Y-103539523D01*
X101489523Y-103444285D01*
X101441904Y-103253809D01*
X101441904Y-103110952D01*
X101489523Y-102920476D01*
X101537142Y-102825238D01*
X101632380Y-102730000D01*
X101775238Y-102682380D01*
X101870476Y-102682380D01*
X102013333Y-102730000D01*
X102060952Y-102777619D01*
X102489523Y-103682380D02*
X102489523Y-102682380D01*
X102870476Y-102682380D01*
X102965714Y-102730000D01*
X103013333Y-102777619D01*
X103060952Y-102872857D01*
X103060952Y-103015714D01*
X103013333Y-103110952D01*
X102965714Y-103158571D01*
X102870476Y-103206190D01*
X102489523Y-103206190D01*
X103394285Y-102682380D02*
X104060952Y-102682380D01*
X103632380Y-103682380D01*
X104346666Y-102682380D02*
X104965714Y-102682380D01*
X104632380Y-103063333D01*
X104775238Y-103063333D01*
X104870476Y-103110952D01*
X104918095Y-103158571D01*
X104965714Y-103253809D01*
X104965714Y-103491904D01*
X104918095Y-103587142D01*
X104870476Y-103634761D01*
X104775238Y-103682380D01*
X104489523Y-103682380D01*
X104394285Y-103634761D01*
X104346666Y-103587142D01*
X105537142Y-103110952D02*
X105441904Y-103063333D01*
X105394285Y-103015714D01*
X105346666Y-102920476D01*
X105346666Y-102872857D01*
X105394285Y-102777619D01*
X105441904Y-102730000D01*
X105537142Y-102682380D01*
X105727619Y-102682380D01*
X105822857Y-102730000D01*
X105870476Y-102777619D01*
X105918095Y-102872857D01*
X105918095Y-102920476D01*
X105870476Y-103015714D01*
X105822857Y-103063333D01*
X105727619Y-103110952D01*
X105537142Y-103110952D01*
X105441904Y-103158571D01*
X105394285Y-103206190D01*
X105346666Y-103301428D01*
X105346666Y-103491904D01*
X105394285Y-103587142D01*
X105441904Y-103634761D01*
X105537142Y-103682380D01*
X105727619Y-103682380D01*
X105822857Y-103634761D01*
X105870476Y-103587142D01*
X105918095Y-103491904D01*
X105918095Y-103301428D01*
X105870476Y-103206190D01*
X105822857Y-103158571D01*
X105727619Y-103110952D01*
X106251428Y-102682380D02*
X106870476Y-102682380D01*
X106537142Y-103063333D01*
X106680000Y-103063333D01*
X106775238Y-103110952D01*
X106822857Y-103158571D01*
X106870476Y-103253809D01*
X106870476Y-103491904D01*
X106822857Y-103587142D01*
X106775238Y-103634761D01*
X106680000Y-103682380D01*
X106394285Y-103682380D01*
X106299047Y-103634761D01*
X106251428Y-103587142D01*
X107822857Y-103682380D02*
X107251428Y-103682380D01*
X107537142Y-103682380D02*
X107537142Y-102682380D01*
X107441904Y-102825238D01*
X107346666Y-102920476D01*
X107251428Y-102968095D01*
X108251428Y-103301428D02*
X109013333Y-103301428D01*
X109441904Y-102777619D02*
X109489523Y-102730000D01*
X109584761Y-102682380D01*
X109822857Y-102682380D01*
X109918095Y-102730000D01*
X109965714Y-102777619D01*
X110013333Y-102872857D01*
X110013333Y-102968095D01*
X109965714Y-103110952D01*
X109394285Y-103682380D01*
X110013333Y-103682380D01*
X110441904Y-103301428D02*
X111203809Y-103301428D01*
X111870476Y-102682380D02*
X112060952Y-102682380D01*
X112156190Y-102730000D01*
X112251428Y-102825238D01*
X112299047Y-103015714D01*
X112299047Y-103349047D01*
X112251428Y-103539523D01*
X112156190Y-103634761D01*
X112060952Y-103682380D01*
X111870476Y-103682380D01*
X111775238Y-103634761D01*
X111680000Y-103539523D01*
X111632380Y-103349047D01*
X111632380Y-103015714D01*
X111680000Y-102825238D01*
X111775238Y-102730000D01*
X111870476Y-102682380D01*
X112584761Y-102682380D02*
X113156190Y-102682380D01*
X112870476Y-103682380D02*
X112870476Y-102682380D01*
D12*
X106406190Y-100710952D02*
X106810952Y-100710952D01*
X106858571Y-100687142D01*
X106882380Y-100663333D01*
X106906190Y-100615714D01*
X106906190Y-100520476D01*
X106882380Y-100472857D01*
X106858571Y-100449047D01*
X106810952Y-100425238D01*
X106406190Y-100425238D01*
X106906190Y-99925238D02*
X106906190Y-100210952D01*
X106906190Y-100068095D02*
X106406190Y-100068095D01*
X106477619Y-100115714D01*
X106525238Y-100163333D01*
X106549047Y-100210952D01*
%TO.C,SW2*%
D11*
X144751904Y-99227380D02*
X144418571Y-98751190D01*
X144180476Y-99227380D02*
X144180476Y-98227380D01*
X144561428Y-98227380D01*
X144656666Y-98275000D01*
X144704285Y-98322619D01*
X144751904Y-98417857D01*
X144751904Y-98560714D01*
X144704285Y-98655952D01*
X144656666Y-98703571D01*
X144561428Y-98751190D01*
X144180476Y-98751190D01*
X145561428Y-99179761D02*
X145466190Y-99227380D01*
X145275714Y-99227380D01*
X145180476Y-99179761D01*
X145132857Y-99084523D01*
X145132857Y-98703571D01*
X145180476Y-98608333D01*
X145275714Y-98560714D01*
X145466190Y-98560714D01*
X145561428Y-98608333D01*
X145609047Y-98703571D01*
X145609047Y-98798809D01*
X145132857Y-98894047D01*
X145990000Y-99179761D02*
X146085238Y-99227380D01*
X146275714Y-99227380D01*
X146370952Y-99179761D01*
X146418571Y-99084523D01*
X146418571Y-99036904D01*
X146370952Y-98941666D01*
X146275714Y-98894047D01*
X146132857Y-98894047D01*
X146037619Y-98846428D01*
X145990000Y-98751190D01*
X145990000Y-98703571D01*
X146037619Y-98608333D01*
X146132857Y-98560714D01*
X146275714Y-98560714D01*
X146370952Y-98608333D01*
X147228095Y-99179761D02*
X147132857Y-99227380D01*
X146942380Y-99227380D01*
X146847142Y-99179761D01*
X146799523Y-99084523D01*
X146799523Y-98703571D01*
X146847142Y-98608333D01*
X146942380Y-98560714D01*
X147132857Y-98560714D01*
X147228095Y-98608333D01*
X147275714Y-98703571D01*
X147275714Y-98798809D01*
X146799523Y-98894047D01*
X147561428Y-98560714D02*
X147942380Y-98560714D01*
X147704285Y-98227380D02*
X147704285Y-99084523D01*
X147751904Y-99179761D01*
X147847142Y-99227380D01*
X147942380Y-99227380D01*
X144156666Y-94729761D02*
X144299523Y-94777380D01*
X144537619Y-94777380D01*
X144632857Y-94729761D01*
X144680476Y-94682142D01*
X144728095Y-94586904D01*
X144728095Y-94491666D01*
X144680476Y-94396428D01*
X144632857Y-94348809D01*
X144537619Y-94301190D01*
X144347142Y-94253571D01*
X144251904Y-94205952D01*
X144204285Y-94158333D01*
X144156666Y-94063095D01*
X144156666Y-93967857D01*
X144204285Y-93872619D01*
X144251904Y-93825000D01*
X144347142Y-93777380D01*
X144585238Y-93777380D01*
X144728095Y-93825000D01*
X145061428Y-93777380D02*
X145299523Y-94777380D01*
X145490000Y-94063095D01*
X145680476Y-94777380D01*
X145918571Y-93777380D01*
X146251904Y-93872619D02*
X146299523Y-93825000D01*
X146394761Y-93777380D01*
X146632857Y-93777380D01*
X146728095Y-93825000D01*
X146775714Y-93872619D01*
X146823333Y-93967857D01*
X146823333Y-94063095D01*
X146775714Y-94205952D01*
X146204285Y-94777380D01*
X146823333Y-94777380D01*
%TO.C,SW1*%
X139942380Y-90876190D02*
X138942380Y-90876190D01*
X138942380Y-90495238D01*
X138990000Y-90400000D01*
X139037619Y-90352380D01*
X139132857Y-90304761D01*
X139275714Y-90304761D01*
X139370952Y-90352380D01*
X139418571Y-90400000D01*
X139466190Y-90495238D01*
X139466190Y-90876190D01*
X139942380Y-89733333D02*
X139894761Y-89828571D01*
X139847142Y-89876190D01*
X139751904Y-89923809D01*
X139466190Y-89923809D01*
X139370952Y-89876190D01*
X139323333Y-89828571D01*
X139275714Y-89733333D01*
X139275714Y-89590476D01*
X139323333Y-89495238D01*
X139370952Y-89447619D01*
X139466190Y-89400000D01*
X139751904Y-89400000D01*
X139847142Y-89447619D01*
X139894761Y-89495238D01*
X139942380Y-89590476D01*
X139942380Y-89733333D01*
X139275714Y-89066666D02*
X139942380Y-88876190D01*
X139466190Y-88685714D01*
X139942380Y-88495238D01*
X139275714Y-88304761D01*
X139894761Y-87542857D02*
X139942380Y-87638095D01*
X139942380Y-87828571D01*
X139894761Y-87923809D01*
X139799523Y-87971428D01*
X139418571Y-87971428D01*
X139323333Y-87923809D01*
X139275714Y-87828571D01*
X139275714Y-87638095D01*
X139323333Y-87542857D01*
X139418571Y-87495238D01*
X139513809Y-87495238D01*
X139609047Y-87971428D01*
X139942380Y-87066666D02*
X139275714Y-87066666D01*
X139466190Y-87066666D02*
X139370952Y-87019047D01*
X139323333Y-86971428D01*
X139275714Y-86876190D01*
X139275714Y-86780952D01*
X133286666Y-89304761D02*
X133429523Y-89352380D01*
X133667619Y-89352380D01*
X133762857Y-89304761D01*
X133810476Y-89257142D01*
X133858095Y-89161904D01*
X133858095Y-89066666D01*
X133810476Y-88971428D01*
X133762857Y-88923809D01*
X133667619Y-88876190D01*
X133477142Y-88828571D01*
X133381904Y-88780952D01*
X133334285Y-88733333D01*
X133286666Y-88638095D01*
X133286666Y-88542857D01*
X133334285Y-88447619D01*
X133381904Y-88400000D01*
X133477142Y-88352380D01*
X133715238Y-88352380D01*
X133858095Y-88400000D01*
X134191428Y-88352380D02*
X134429523Y-89352380D01*
X134620000Y-88638095D01*
X134810476Y-89352380D01*
X135048571Y-88352380D01*
X135953333Y-89352380D02*
X135381904Y-89352380D01*
X135667619Y-89352380D02*
X135667619Y-88352380D01*
X135572380Y-88495238D01*
X135477142Y-88590476D01*
X135381904Y-88638095D01*
%TO.C,R4*%
X142819523Y-110137380D02*
X142248095Y-110137380D01*
X142533809Y-110137380D02*
X142533809Y-109137380D01*
X142438571Y-109280238D01*
X142343333Y-109375476D01*
X142248095Y-109423095D01*
X143438571Y-109137380D02*
X143533809Y-109137380D01*
X143629047Y-109185000D01*
X143676666Y-109232619D01*
X143724285Y-109327857D01*
X143771904Y-109518333D01*
X143771904Y-109756428D01*
X143724285Y-109946904D01*
X143676666Y-110042142D01*
X143629047Y-110089761D01*
X143533809Y-110137380D01*
X143438571Y-110137380D01*
X143343333Y-110089761D01*
X143295714Y-110042142D01*
X143248095Y-109946904D01*
X143200476Y-109756428D01*
X143200476Y-109518333D01*
X143248095Y-109327857D01*
X143295714Y-109232619D01*
X143343333Y-109185000D01*
X143438571Y-109137380D01*
X144200476Y-110137380D02*
X144200476Y-109137380D01*
X144771904Y-110137380D02*
X144343333Y-109565952D01*
X144771904Y-109137380D02*
X144200476Y-109708809D01*
X143343333Y-107767380D02*
X143010000Y-107291190D01*
X142771904Y-107767380D02*
X142771904Y-106767380D01*
X143152857Y-106767380D01*
X143248095Y-106815000D01*
X143295714Y-106862619D01*
X143343333Y-106957857D01*
X143343333Y-107100714D01*
X143295714Y-107195952D01*
X143248095Y-107243571D01*
X143152857Y-107291190D01*
X142771904Y-107291190D01*
X144200476Y-107100714D02*
X144200476Y-107767380D01*
X143962380Y-106719761D02*
X143724285Y-107434047D01*
X144343333Y-107434047D01*
%TO.C,R3*%
X150685580Y-92603676D02*
X150209390Y-92937009D01*
X150685580Y-93175104D02*
X149685580Y-93175104D01*
X149685580Y-92794152D01*
X149733200Y-92698914D01*
X149780819Y-92651295D01*
X149876057Y-92603676D01*
X150018914Y-92603676D01*
X150114152Y-92651295D01*
X150161771Y-92698914D01*
X150209390Y-92794152D01*
X150209390Y-93175104D01*
X153055580Y-93079866D02*
X152579390Y-93413200D01*
X153055580Y-93651295D02*
X152055580Y-93651295D01*
X152055580Y-93270342D01*
X152103200Y-93175104D01*
X152150819Y-93127485D01*
X152246057Y-93079866D01*
X152388914Y-93079866D01*
X152484152Y-93127485D01*
X152531771Y-93175104D01*
X152579390Y-93270342D01*
X152579390Y-93651295D01*
X152055580Y-92746533D02*
X152055580Y-92127485D01*
X152436533Y-92460819D01*
X152436533Y-92317961D01*
X152484152Y-92222723D01*
X152531771Y-92175104D01*
X152627009Y-92127485D01*
X152865104Y-92127485D01*
X152960342Y-92175104D01*
X153007961Y-92222723D01*
X153055580Y-92317961D01*
X153055580Y-92603676D01*
X153007961Y-92698914D01*
X152960342Y-92746533D01*
%TO.C,R2*%
X116217619Y-106671904D02*
X116170000Y-106624285D01*
X116122380Y-106529047D01*
X116122380Y-106290952D01*
X116170000Y-106195714D01*
X116217619Y-106148095D01*
X116312857Y-106100476D01*
X116408095Y-106100476D01*
X116550952Y-106148095D01*
X117122380Y-106719523D01*
X117122380Y-106100476D01*
X117122380Y-105671904D02*
X116122380Y-105671904D01*
X117122380Y-105100476D02*
X116550952Y-105529047D01*
X116122380Y-105100476D02*
X116693809Y-105671904D01*
X116217619Y-104719523D02*
X116170000Y-104671904D01*
X116122380Y-104576666D01*
X116122380Y-104338571D01*
X116170000Y-104243333D01*
X116217619Y-104195714D01*
X116312857Y-104148095D01*
X116408095Y-104148095D01*
X116550952Y-104195714D01*
X117122380Y-104767142D01*
X117122380Y-104148095D01*
X114752380Y-105576666D02*
X114276190Y-105910000D01*
X114752380Y-106148095D02*
X113752380Y-106148095D01*
X113752380Y-105767142D01*
X113800000Y-105671904D01*
X113847619Y-105624285D01*
X113942857Y-105576666D01*
X114085714Y-105576666D01*
X114180952Y-105624285D01*
X114228571Y-105671904D01*
X114276190Y-105767142D01*
X114276190Y-106148095D01*
X113847619Y-105195714D02*
X113800000Y-105148095D01*
X113752380Y-105052857D01*
X113752380Y-104814761D01*
X113800000Y-104719523D01*
X113847619Y-104671904D01*
X113942857Y-104624285D01*
X114038095Y-104624285D01*
X114180952Y-104671904D01*
X114752380Y-105243333D01*
X114752380Y-104624285D01*
%TO.C,R1*%
X141771904Y-112407619D02*
X141819523Y-112360000D01*
X141914761Y-112312380D01*
X142152857Y-112312380D01*
X142248095Y-112360000D01*
X142295714Y-112407619D01*
X142343333Y-112502857D01*
X142343333Y-112598095D01*
X142295714Y-112740952D01*
X141724285Y-113312380D01*
X142343333Y-113312380D01*
X142724285Y-112407619D02*
X142771904Y-112360000D01*
X142867142Y-112312380D01*
X143105238Y-112312380D01*
X143200476Y-112360000D01*
X143248095Y-112407619D01*
X143295714Y-112502857D01*
X143295714Y-112598095D01*
X143248095Y-112740952D01*
X142676666Y-113312380D01*
X143295714Y-113312380D01*
X143914761Y-112312380D02*
X144010000Y-112312380D01*
X144105238Y-112360000D01*
X144152857Y-112407619D01*
X144200476Y-112502857D01*
X144248095Y-112693333D01*
X144248095Y-112931428D01*
X144200476Y-113121904D01*
X144152857Y-113217142D01*
X144105238Y-113264761D01*
X144010000Y-113312380D01*
X143914761Y-113312380D01*
X143819523Y-113264761D01*
X143771904Y-113217142D01*
X143724285Y-113121904D01*
X143676666Y-112931428D01*
X143676666Y-112693333D01*
X143724285Y-112502857D01*
X143771904Y-112407619D01*
X143819523Y-112360000D01*
X143914761Y-112312380D01*
X145248095Y-113312380D02*
X144914761Y-112836190D01*
X144676666Y-113312380D02*
X144676666Y-112312380D01*
X145057619Y-112312380D01*
X145152857Y-112360000D01*
X145200476Y-112407619D01*
X145248095Y-112502857D01*
X145248095Y-112645714D01*
X145200476Y-112740952D01*
X145152857Y-112788571D01*
X145057619Y-112836190D01*
X144676666Y-112836190D01*
X143343333Y-110942380D02*
X143010000Y-110466190D01*
X142771904Y-110942380D02*
X142771904Y-109942380D01*
X143152857Y-109942380D01*
X143248095Y-109990000D01*
X143295714Y-110037619D01*
X143343333Y-110132857D01*
X143343333Y-110275714D01*
X143295714Y-110370952D01*
X143248095Y-110418571D01*
X143152857Y-110466190D01*
X142771904Y-110466190D01*
X144295714Y-110942380D02*
X143724285Y-110942380D01*
X144010000Y-110942380D02*
X144010000Y-109942380D01*
X143914761Y-110085238D01*
X143819523Y-110180476D01*
X143724285Y-110228095D01*
%TO.C,J5*%
X151607923Y-112053180D02*
X151131733Y-112053180D01*
X151131733Y-111053180D01*
X152512685Y-111957942D02*
X152465066Y-112005561D01*
X152322209Y-112053180D01*
X152226971Y-112053180D01*
X152084114Y-112005561D01*
X151988876Y-111910323D01*
X151941257Y-111815085D01*
X151893638Y-111624609D01*
X151893638Y-111481752D01*
X151941257Y-111291276D01*
X151988876Y-111196038D01*
X152084114Y-111100800D01*
X152226971Y-111053180D01*
X152322209Y-111053180D01*
X152465066Y-111100800D01*
X152512685Y-111148419D01*
X152941257Y-112053180D02*
X152941257Y-111053180D01*
X153179352Y-111053180D01*
X153322209Y-111100800D01*
X153417447Y-111196038D01*
X153465066Y-111291276D01*
X153512685Y-111481752D01*
X153512685Y-111624609D01*
X153465066Y-111815085D01*
X153417447Y-111910323D01*
X153322209Y-112005561D01*
X153179352Y-112053180D01*
X152941257Y-112053180D01*
X151750780Y-105794133D02*
X152465066Y-105794133D01*
X152607923Y-105841752D01*
X152703161Y-105936990D01*
X152750780Y-106079847D01*
X152750780Y-106175085D01*
X151750780Y-104841752D02*
X151750780Y-105317942D01*
X152226971Y-105365561D01*
X152179352Y-105317942D01*
X152131733Y-105222704D01*
X152131733Y-104984609D01*
X152179352Y-104889371D01*
X152226971Y-104841752D01*
X152322209Y-104794133D01*
X152560304Y-104794133D01*
X152655542Y-104841752D01*
X152703161Y-104889371D01*
X152750780Y-104984609D01*
X152750780Y-105222704D01*
X152703161Y-105317942D01*
X152655542Y-105365561D01*
%TO.C,J4*%
X116475238Y-112002380D02*
X115999047Y-112002380D01*
X115999047Y-111002380D01*
X116951428Y-112002380D02*
X116856190Y-111954761D01*
X116808571Y-111907142D01*
X116760952Y-111811904D01*
X116760952Y-111526190D01*
X116808571Y-111430952D01*
X116856190Y-111383333D01*
X116951428Y-111335714D01*
X117094285Y-111335714D01*
X117189523Y-111383333D01*
X117237142Y-111430952D01*
X117284761Y-111526190D01*
X117284761Y-111811904D01*
X117237142Y-111907142D01*
X117189523Y-111954761D01*
X117094285Y-112002380D01*
X116951428Y-112002380D01*
X118141904Y-112002380D02*
X118141904Y-111478571D01*
X118094285Y-111383333D01*
X117999047Y-111335714D01*
X117808571Y-111335714D01*
X117713333Y-111383333D01*
X118141904Y-111954761D02*
X118046666Y-112002380D01*
X117808571Y-112002380D01*
X117713333Y-111954761D01*
X117665714Y-111859523D01*
X117665714Y-111764285D01*
X117713333Y-111669047D01*
X117808571Y-111621428D01*
X118046666Y-111621428D01*
X118141904Y-111573809D01*
X119046666Y-112002380D02*
X119046666Y-111002380D01*
X119046666Y-111954761D02*
X118951428Y-112002380D01*
X118760952Y-112002380D01*
X118665714Y-111954761D01*
X118618095Y-111907142D01*
X118570476Y-111811904D01*
X118570476Y-111526190D01*
X118618095Y-111430952D01*
X118665714Y-111383333D01*
X118760952Y-111335714D01*
X118951428Y-111335714D01*
X119046666Y-111383333D01*
X119951428Y-111954761D02*
X119856190Y-112002380D01*
X119665714Y-112002380D01*
X119570476Y-111954761D01*
X119522857Y-111907142D01*
X119475238Y-111811904D01*
X119475238Y-111526190D01*
X119522857Y-111430952D01*
X119570476Y-111383333D01*
X119665714Y-111335714D01*
X119856190Y-111335714D01*
X119951428Y-111383333D01*
X120760952Y-111954761D02*
X120665714Y-112002380D01*
X120475238Y-112002380D01*
X120380000Y-111954761D01*
X120332380Y-111859523D01*
X120332380Y-111478571D01*
X120380000Y-111383333D01*
X120475238Y-111335714D01*
X120665714Y-111335714D01*
X120760952Y-111383333D01*
X120808571Y-111478571D01*
X120808571Y-111573809D01*
X120332380Y-111669047D01*
X121380000Y-112002380D02*
X121284761Y-111954761D01*
X121237142Y-111859523D01*
X121237142Y-111002380D01*
X121903809Y-112002380D02*
X121808571Y-111954761D01*
X121760952Y-111859523D01*
X121760952Y-111002380D01*
X122237142Y-111097619D02*
X122284761Y-111050000D01*
X122380000Y-111002380D01*
X122618095Y-111002380D01*
X122713333Y-111050000D01*
X122760952Y-111097619D01*
X122808571Y-111192857D01*
X122808571Y-111288095D01*
X122760952Y-111430952D01*
X122189523Y-112002380D01*
X122808571Y-112002380D01*
X118832380Y-105743333D02*
X119546666Y-105743333D01*
X119689523Y-105790952D01*
X119784761Y-105886190D01*
X119832380Y-106029047D01*
X119832380Y-106124285D01*
X119165714Y-104838571D02*
X119832380Y-104838571D01*
X118784761Y-105076666D02*
X119499047Y-105314761D01*
X119499047Y-104695714D01*
%TO.C,J3*%
X121555238Y-112002380D02*
X121079047Y-112002380D01*
X121079047Y-111002380D01*
X122031428Y-112002380D02*
X121936190Y-111954761D01*
X121888571Y-111907142D01*
X121840952Y-111811904D01*
X121840952Y-111526190D01*
X121888571Y-111430952D01*
X121936190Y-111383333D01*
X122031428Y-111335714D01*
X122174285Y-111335714D01*
X122269523Y-111383333D01*
X122317142Y-111430952D01*
X122364761Y-111526190D01*
X122364761Y-111811904D01*
X122317142Y-111907142D01*
X122269523Y-111954761D01*
X122174285Y-112002380D01*
X122031428Y-112002380D01*
X123221904Y-112002380D02*
X123221904Y-111478571D01*
X123174285Y-111383333D01*
X123079047Y-111335714D01*
X122888571Y-111335714D01*
X122793333Y-111383333D01*
X123221904Y-111954761D02*
X123126666Y-112002380D01*
X122888571Y-112002380D01*
X122793333Y-111954761D01*
X122745714Y-111859523D01*
X122745714Y-111764285D01*
X122793333Y-111669047D01*
X122888571Y-111621428D01*
X123126666Y-111621428D01*
X123221904Y-111573809D01*
X124126666Y-112002380D02*
X124126666Y-111002380D01*
X124126666Y-111954761D02*
X124031428Y-112002380D01*
X123840952Y-112002380D01*
X123745714Y-111954761D01*
X123698095Y-111907142D01*
X123650476Y-111811904D01*
X123650476Y-111526190D01*
X123698095Y-111430952D01*
X123745714Y-111383333D01*
X123840952Y-111335714D01*
X124031428Y-111335714D01*
X124126666Y-111383333D01*
X125031428Y-111954761D02*
X124936190Y-112002380D01*
X124745714Y-112002380D01*
X124650476Y-111954761D01*
X124602857Y-111907142D01*
X124555238Y-111811904D01*
X124555238Y-111526190D01*
X124602857Y-111430952D01*
X124650476Y-111383333D01*
X124745714Y-111335714D01*
X124936190Y-111335714D01*
X125031428Y-111383333D01*
X125840952Y-111954761D02*
X125745714Y-112002380D01*
X125555238Y-112002380D01*
X125460000Y-111954761D01*
X125412380Y-111859523D01*
X125412380Y-111478571D01*
X125460000Y-111383333D01*
X125555238Y-111335714D01*
X125745714Y-111335714D01*
X125840952Y-111383333D01*
X125888571Y-111478571D01*
X125888571Y-111573809D01*
X125412380Y-111669047D01*
X126460000Y-112002380D02*
X126364761Y-111954761D01*
X126317142Y-111859523D01*
X126317142Y-111002380D01*
X126983809Y-112002380D02*
X126888571Y-111954761D01*
X126840952Y-111859523D01*
X126840952Y-111002380D01*
X127888571Y-112002380D02*
X127317142Y-112002380D01*
X127602857Y-112002380D02*
X127602857Y-111002380D01*
X127507619Y-111145238D01*
X127412380Y-111240476D01*
X127317142Y-111288095D01*
X123912380Y-105743333D02*
X124626666Y-105743333D01*
X124769523Y-105790952D01*
X124864761Y-105886190D01*
X124912380Y-106029047D01*
X124912380Y-106124285D01*
X123912380Y-105362380D02*
X123912380Y-104743333D01*
X124293333Y-105076666D01*
X124293333Y-104933809D01*
X124340952Y-104838571D01*
X124388571Y-104790952D01*
X124483809Y-104743333D01*
X124721904Y-104743333D01*
X124817142Y-104790952D01*
X124864761Y-104838571D01*
X124912380Y-104933809D01*
X124912380Y-105219523D01*
X124864761Y-105314761D01*
X124817142Y-105362380D01*
%TO.C,J2*%
X102052380Y-95757619D02*
X101052380Y-95757619D01*
X101052380Y-95376666D01*
X101100000Y-95281428D01*
X101147619Y-95233809D01*
X101242857Y-95186190D01*
X101385714Y-95186190D01*
X101480952Y-95233809D01*
X101528571Y-95281428D01*
X101576190Y-95376666D01*
X101576190Y-95757619D01*
X102052380Y-94614761D02*
X102004761Y-94710000D01*
X101957142Y-94757619D01*
X101861904Y-94805238D01*
X101576190Y-94805238D01*
X101480952Y-94757619D01*
X101433333Y-94710000D01*
X101385714Y-94614761D01*
X101385714Y-94471904D01*
X101433333Y-94376666D01*
X101480952Y-94329047D01*
X101576190Y-94281428D01*
X101861904Y-94281428D01*
X101957142Y-94329047D01*
X102004761Y-94376666D01*
X102052380Y-94471904D01*
X102052380Y-94614761D01*
X101385714Y-93948095D02*
X102052380Y-93757619D01*
X101576190Y-93567142D01*
X102052380Y-93376666D01*
X101385714Y-93186190D01*
X102004761Y-92424285D02*
X102052380Y-92519523D01*
X102052380Y-92710000D01*
X102004761Y-92805238D01*
X101909523Y-92852857D01*
X101528571Y-92852857D01*
X101433333Y-92805238D01*
X101385714Y-92710000D01*
X101385714Y-92519523D01*
X101433333Y-92424285D01*
X101528571Y-92376666D01*
X101623809Y-92376666D01*
X101719047Y-92852857D01*
X102052380Y-91948095D02*
X101385714Y-91948095D01*
X101576190Y-91948095D02*
X101480952Y-91900476D01*
X101433333Y-91852857D01*
X101385714Y-91757619D01*
X101385714Y-91662380D01*
X102052380Y-90567142D02*
X101385714Y-90567142D01*
X101052380Y-90567142D02*
X101100000Y-90614761D01*
X101147619Y-90567142D01*
X101100000Y-90519523D01*
X101052380Y-90567142D01*
X101147619Y-90567142D01*
X101385714Y-90090952D02*
X102052380Y-90090952D01*
X101480952Y-90090952D02*
X101433333Y-90043333D01*
X101385714Y-89948095D01*
X101385714Y-89805238D01*
X101433333Y-89710000D01*
X101528571Y-89662380D01*
X102052380Y-89662380D01*
X94542380Y-96103333D02*
X95256666Y-96103333D01*
X95399523Y-96150952D01*
X95494761Y-96246190D01*
X95542380Y-96389047D01*
X95542380Y-96484285D01*
X94637619Y-95674761D02*
X94590000Y-95627142D01*
X94542380Y-95531904D01*
X94542380Y-95293809D01*
X94590000Y-95198571D01*
X94637619Y-95150952D01*
X94732857Y-95103333D01*
X94828095Y-95103333D01*
X94970952Y-95150952D01*
X95542380Y-95722380D01*
X95542380Y-95103333D01*
%TO.C,J1*%
X101800590Y-114018380D02*
X101800590Y-114827904D01*
X101848209Y-114923142D01*
X101895828Y-114970761D01*
X101991066Y-115018380D01*
X102181542Y-115018380D01*
X102276780Y-114970761D01*
X102324400Y-114923142D01*
X102372019Y-114827904D01*
X102372019Y-114018380D01*
X102800590Y-114970761D02*
X102943447Y-115018380D01*
X103181542Y-115018380D01*
X103276780Y-114970761D01*
X103324400Y-114923142D01*
X103372019Y-114827904D01*
X103372019Y-114732666D01*
X103324400Y-114637428D01*
X103276780Y-114589809D01*
X103181542Y-114542190D01*
X102991066Y-114494571D01*
X102895828Y-114446952D01*
X102848209Y-114399333D01*
X102800590Y-114304095D01*
X102800590Y-114208857D01*
X102848209Y-114113619D01*
X102895828Y-114066000D01*
X102991066Y-114018380D01*
X103229161Y-114018380D01*
X103372019Y-114066000D01*
X104133923Y-114494571D02*
X104276780Y-114542190D01*
X104324400Y-114589809D01*
X104372019Y-114685047D01*
X104372019Y-114827904D01*
X104324400Y-114923142D01*
X104276780Y-114970761D01*
X104181542Y-115018380D01*
X103800590Y-115018380D01*
X103800590Y-114018380D01*
X104133923Y-114018380D01*
X104229161Y-114066000D01*
X104276780Y-114113619D01*
X104324400Y-114208857D01*
X104324400Y-114304095D01*
X104276780Y-114399333D01*
X104229161Y-114446952D01*
X104133923Y-114494571D01*
X103800590Y-114494571D01*
X104562495Y-115113619D02*
X105324400Y-115113619D01*
X105895828Y-114494571D02*
X106038685Y-114542190D01*
X106086304Y-114589809D01*
X106133923Y-114685047D01*
X106133923Y-114827904D01*
X106086304Y-114923142D01*
X106038685Y-114970761D01*
X105943447Y-115018380D01*
X105562495Y-115018380D01*
X105562495Y-114018380D01*
X105895828Y-114018380D01*
X105991066Y-114066000D01*
X106038685Y-114113619D01*
X106086304Y-114208857D01*
X106086304Y-114304095D01*
X106038685Y-114399333D01*
X105991066Y-114446952D01*
X105895828Y-114494571D01*
X105562495Y-114494571D01*
X106324400Y-115113619D02*
X107086304Y-115113619D01*
X107324400Y-115018380D02*
X107324400Y-114018380D01*
X107657733Y-114732666D01*
X107991066Y-114018380D01*
X107991066Y-115018380D01*
X108467257Y-115018380D02*
X108467257Y-114351714D01*
X108467257Y-114018380D02*
X108419638Y-114066000D01*
X108467257Y-114113619D01*
X108514876Y-114066000D01*
X108467257Y-114018380D01*
X108467257Y-114113619D01*
X109372019Y-114970761D02*
X109276780Y-115018380D01*
X109086304Y-115018380D01*
X108991066Y-114970761D01*
X108943447Y-114923142D01*
X108895828Y-114827904D01*
X108895828Y-114542190D01*
X108943447Y-114446952D01*
X108991066Y-114399333D01*
X109086304Y-114351714D01*
X109276780Y-114351714D01*
X109372019Y-114399333D01*
X109800590Y-115018380D02*
X109800590Y-114351714D01*
X109800590Y-114542190D02*
X109848209Y-114446952D01*
X109895828Y-114399333D01*
X109991066Y-114351714D01*
X110086304Y-114351714D01*
X110562495Y-115018380D02*
X110467257Y-114970761D01*
X110419638Y-114923142D01*
X110372019Y-114827904D01*
X110372019Y-114542190D01*
X110419638Y-114446952D01*
X110467257Y-114399333D01*
X110562495Y-114351714D01*
X110705352Y-114351714D01*
X110800590Y-114399333D01*
X110848209Y-114446952D01*
X110895828Y-114542190D01*
X110895828Y-114827904D01*
X110848209Y-114923142D01*
X110800590Y-114970761D01*
X110705352Y-115018380D01*
X110562495Y-115018380D01*
X105991066Y-109468380D02*
X105991066Y-110182666D01*
X105943447Y-110325523D01*
X105848209Y-110420761D01*
X105705352Y-110468380D01*
X105610114Y-110468380D01*
X106991066Y-110468380D02*
X106419638Y-110468380D01*
X106705352Y-110468380D02*
X106705352Y-109468380D01*
X106610114Y-109611238D01*
X106514876Y-109706476D01*
X106419638Y-109754095D01*
%TO.C,D5*%
X124436428Y-99884761D02*
X124579285Y-99932380D01*
X124817380Y-99932380D01*
X124912619Y-99884761D01*
X124960238Y-99837142D01*
X125007857Y-99741904D01*
X125007857Y-99646666D01*
X124960238Y-99551428D01*
X124912619Y-99503809D01*
X124817380Y-99456190D01*
X124626904Y-99408571D01*
X124531666Y-99360952D01*
X124484047Y-99313333D01*
X124436428Y-99218095D01*
X124436428Y-99122857D01*
X124484047Y-99027619D01*
X124531666Y-98980000D01*
X124626904Y-98932380D01*
X124865000Y-98932380D01*
X125007857Y-98980000D01*
X125293571Y-98932380D02*
X125865000Y-98932380D01*
X125579285Y-99932380D02*
X125579285Y-98932380D01*
X126150714Y-99646666D02*
X126626904Y-99646666D01*
X126055476Y-99932380D02*
X126388809Y-98932380D01*
X126722142Y-99932380D01*
X126912619Y-98932380D02*
X127484047Y-98932380D01*
X127198333Y-99932380D02*
X127198333Y-98932380D01*
X127817380Y-99408571D02*
X128150714Y-99408571D01*
X128293571Y-99932380D02*
X127817380Y-99932380D01*
X127817380Y-98932380D01*
X128293571Y-98932380D01*
%TO.C,D4*%
X114697142Y-91822380D02*
X114125714Y-91822380D01*
X114411428Y-91822380D02*
X114411428Y-90822380D01*
X114316190Y-90965238D01*
X114220952Y-91060476D01*
X114125714Y-91108095D01*
X115125714Y-91822380D02*
X115125714Y-90822380D01*
X115697142Y-91822380D01*
X115697142Y-90822380D01*
X116649523Y-90822380D02*
X116173333Y-90822380D01*
X116125714Y-91298571D01*
X116173333Y-91250952D01*
X116268571Y-91203333D01*
X116506666Y-91203333D01*
X116601904Y-91250952D01*
X116649523Y-91298571D01*
X116697142Y-91393809D01*
X116697142Y-91631904D01*
X116649523Y-91727142D01*
X116601904Y-91774761D01*
X116506666Y-91822380D01*
X116268571Y-91822380D01*
X116173333Y-91774761D01*
X116125714Y-91727142D01*
X117268571Y-91250952D02*
X117173333Y-91203333D01*
X117125714Y-91155714D01*
X117078095Y-91060476D01*
X117078095Y-91012857D01*
X117125714Y-90917619D01*
X117173333Y-90870000D01*
X117268571Y-90822380D01*
X117459047Y-90822380D01*
X117554285Y-90870000D01*
X117601904Y-90917619D01*
X117649523Y-91012857D01*
X117649523Y-91060476D01*
X117601904Y-91155714D01*
X117554285Y-91203333D01*
X117459047Y-91250952D01*
X117268571Y-91250952D01*
X117173333Y-91298571D01*
X117125714Y-91346190D01*
X117078095Y-91441428D01*
X117078095Y-91631904D01*
X117125714Y-91727142D01*
X117173333Y-91774761D01*
X117268571Y-91822380D01*
X117459047Y-91822380D01*
X117554285Y-91774761D01*
X117601904Y-91727142D01*
X117649523Y-91631904D01*
X117649523Y-91441428D01*
X117601904Y-91346190D01*
X117554285Y-91298571D01*
X117459047Y-91250952D01*
X118601904Y-91822380D02*
X118030476Y-91822380D01*
X118316190Y-91822380D02*
X118316190Y-90822380D01*
X118220952Y-90965238D01*
X118125714Y-91060476D01*
X118030476Y-91108095D01*
X119078095Y-91822380D02*
X119268571Y-91822380D01*
X119363809Y-91774761D01*
X119411428Y-91727142D01*
X119506666Y-91584285D01*
X119554285Y-91393809D01*
X119554285Y-91012857D01*
X119506666Y-90917619D01*
X119459047Y-90870000D01*
X119363809Y-90822380D01*
X119173333Y-90822380D01*
X119078095Y-90870000D01*
X119030476Y-90917619D01*
X118982857Y-91012857D01*
X118982857Y-91250952D01*
X119030476Y-91346190D01*
X119078095Y-91393809D01*
X119173333Y-91441428D01*
X119363809Y-91441428D01*
X119459047Y-91393809D01*
X119506666Y-91346190D01*
X119554285Y-91250952D01*
X111498095Y-87252380D02*
X111498095Y-86252380D01*
X112069523Y-87252380D02*
X111640952Y-86680952D01*
X112069523Y-86252380D02*
X111498095Y-86823809D01*
X116491904Y-89352380D02*
X116491904Y-88352380D01*
X116730000Y-88352380D01*
X116872857Y-88400000D01*
X116968095Y-88495238D01*
X117015714Y-88590476D01*
X117063333Y-88780952D01*
X117063333Y-88923809D01*
X117015714Y-89114285D01*
X116968095Y-89209523D01*
X116872857Y-89304761D01*
X116730000Y-89352380D01*
X116491904Y-89352380D01*
X117920476Y-88685714D02*
X117920476Y-89352380D01*
X117682380Y-88304761D02*
X117444285Y-89019047D01*
X118063333Y-89019047D01*
%TO.C,D3*%
X114697142Y-99442380D02*
X114125714Y-99442380D01*
X114411428Y-99442380D02*
X114411428Y-98442380D01*
X114316190Y-98585238D01*
X114220952Y-98680476D01*
X114125714Y-98728095D01*
X115125714Y-99442380D02*
X115125714Y-98442380D01*
X115697142Y-99442380D01*
X115697142Y-98442380D01*
X116649523Y-98442380D02*
X116173333Y-98442380D01*
X116125714Y-98918571D01*
X116173333Y-98870952D01*
X116268571Y-98823333D01*
X116506666Y-98823333D01*
X116601904Y-98870952D01*
X116649523Y-98918571D01*
X116697142Y-99013809D01*
X116697142Y-99251904D01*
X116649523Y-99347142D01*
X116601904Y-99394761D01*
X116506666Y-99442380D01*
X116268571Y-99442380D01*
X116173333Y-99394761D01*
X116125714Y-99347142D01*
X117268571Y-98870952D02*
X117173333Y-98823333D01*
X117125714Y-98775714D01*
X117078095Y-98680476D01*
X117078095Y-98632857D01*
X117125714Y-98537619D01*
X117173333Y-98490000D01*
X117268571Y-98442380D01*
X117459047Y-98442380D01*
X117554285Y-98490000D01*
X117601904Y-98537619D01*
X117649523Y-98632857D01*
X117649523Y-98680476D01*
X117601904Y-98775714D01*
X117554285Y-98823333D01*
X117459047Y-98870952D01*
X117268571Y-98870952D01*
X117173333Y-98918571D01*
X117125714Y-98966190D01*
X117078095Y-99061428D01*
X117078095Y-99251904D01*
X117125714Y-99347142D01*
X117173333Y-99394761D01*
X117268571Y-99442380D01*
X117459047Y-99442380D01*
X117554285Y-99394761D01*
X117601904Y-99347142D01*
X117649523Y-99251904D01*
X117649523Y-99061428D01*
X117601904Y-98966190D01*
X117554285Y-98918571D01*
X117459047Y-98870952D01*
X118601904Y-99442380D02*
X118030476Y-99442380D01*
X118316190Y-99442380D02*
X118316190Y-98442380D01*
X118220952Y-98585238D01*
X118125714Y-98680476D01*
X118030476Y-98728095D01*
X119078095Y-99442380D02*
X119268571Y-99442380D01*
X119363809Y-99394761D01*
X119411428Y-99347142D01*
X119506666Y-99204285D01*
X119554285Y-99013809D01*
X119554285Y-98632857D01*
X119506666Y-98537619D01*
X119459047Y-98490000D01*
X119363809Y-98442380D01*
X119173333Y-98442380D01*
X119078095Y-98490000D01*
X119030476Y-98537619D01*
X118982857Y-98632857D01*
X118982857Y-98870952D01*
X119030476Y-98966190D01*
X119078095Y-99013809D01*
X119173333Y-99061428D01*
X119363809Y-99061428D01*
X119459047Y-99013809D01*
X119506666Y-98966190D01*
X119554285Y-98870952D01*
X111498095Y-94872380D02*
X111498095Y-93872380D01*
X112069523Y-94872380D02*
X111640952Y-94300952D01*
X112069523Y-93872380D02*
X111498095Y-94443809D01*
X116491904Y-96972380D02*
X116491904Y-95972380D01*
X116730000Y-95972380D01*
X116872857Y-96020000D01*
X116968095Y-96115238D01*
X117015714Y-96210476D01*
X117063333Y-96400952D01*
X117063333Y-96543809D01*
X117015714Y-96734285D01*
X116968095Y-96829523D01*
X116872857Y-96924761D01*
X116730000Y-96972380D01*
X116491904Y-96972380D01*
X117396666Y-95972380D02*
X118015714Y-95972380D01*
X117682380Y-96353333D01*
X117825238Y-96353333D01*
X117920476Y-96400952D01*
X117968095Y-96448571D01*
X118015714Y-96543809D01*
X118015714Y-96781904D01*
X117968095Y-96877142D01*
X117920476Y-96924761D01*
X117825238Y-96972380D01*
X117539523Y-96972380D01*
X117444285Y-96924761D01*
X117396666Y-96877142D01*
%TO.C,D2*%
X124579285Y-92852142D02*
X124531666Y-92899761D01*
X124388809Y-92947380D01*
X124293571Y-92947380D01*
X124150714Y-92899761D01*
X124055476Y-92804523D01*
X124007857Y-92709285D01*
X123960238Y-92518809D01*
X123960238Y-92375952D01*
X124007857Y-92185476D01*
X124055476Y-92090238D01*
X124150714Y-91995000D01*
X124293571Y-91947380D01*
X124388809Y-91947380D01*
X124531666Y-91995000D01*
X124579285Y-92042619D01*
X125007857Y-92947380D02*
X125007857Y-91947380D01*
X125436428Y-92947380D02*
X125436428Y-92423571D01*
X125388809Y-92328333D01*
X125293571Y-92280714D01*
X125150714Y-92280714D01*
X125055476Y-92328333D01*
X125007857Y-92375952D01*
X126341190Y-92947380D02*
X126341190Y-92423571D01*
X126293571Y-92328333D01*
X126198333Y-92280714D01*
X126007857Y-92280714D01*
X125912619Y-92328333D01*
X126341190Y-92899761D02*
X126245952Y-92947380D01*
X126007857Y-92947380D01*
X125912619Y-92899761D01*
X125865000Y-92804523D01*
X125865000Y-92709285D01*
X125912619Y-92614047D01*
X126007857Y-92566428D01*
X126245952Y-92566428D01*
X126341190Y-92518809D01*
X126817380Y-92947380D02*
X126817380Y-92280714D01*
X126817380Y-92471190D02*
X126865000Y-92375952D01*
X126912619Y-92328333D01*
X127007857Y-92280714D01*
X127103095Y-92280714D01*
X127865000Y-92280714D02*
X127865000Y-93090238D01*
X127817380Y-93185476D01*
X127769761Y-93233095D01*
X127674523Y-93280714D01*
X127531666Y-93280714D01*
X127436428Y-93233095D01*
X127865000Y-92899761D02*
X127769761Y-92947380D01*
X127579285Y-92947380D01*
X127484047Y-92899761D01*
X127436428Y-92852142D01*
X127388809Y-92756904D01*
X127388809Y-92471190D01*
X127436428Y-92375952D01*
X127484047Y-92328333D01*
X127579285Y-92280714D01*
X127769761Y-92280714D01*
X127865000Y-92328333D01*
X128722142Y-92899761D02*
X128626904Y-92947380D01*
X128436428Y-92947380D01*
X128341190Y-92899761D01*
X128293571Y-92804523D01*
X128293571Y-92423571D01*
X128341190Y-92328333D01*
X128436428Y-92280714D01*
X128626904Y-92280714D01*
X128722142Y-92328333D01*
X128769761Y-92423571D01*
X128769761Y-92518809D01*
X128293571Y-92614047D01*
%TO.C,D1*%
X114697142Y-95632380D02*
X114125714Y-95632380D01*
X114411428Y-95632380D02*
X114411428Y-94632380D01*
X114316190Y-94775238D01*
X114220952Y-94870476D01*
X114125714Y-94918095D01*
X115125714Y-95632380D02*
X115125714Y-94632380D01*
X115697142Y-95632380D01*
X115697142Y-94632380D01*
X116649523Y-94632380D02*
X116173333Y-94632380D01*
X116125714Y-95108571D01*
X116173333Y-95060952D01*
X116268571Y-95013333D01*
X116506666Y-95013333D01*
X116601904Y-95060952D01*
X116649523Y-95108571D01*
X116697142Y-95203809D01*
X116697142Y-95441904D01*
X116649523Y-95537142D01*
X116601904Y-95584761D01*
X116506666Y-95632380D01*
X116268571Y-95632380D01*
X116173333Y-95584761D01*
X116125714Y-95537142D01*
X117268571Y-95060952D02*
X117173333Y-95013333D01*
X117125714Y-94965714D01*
X117078095Y-94870476D01*
X117078095Y-94822857D01*
X117125714Y-94727619D01*
X117173333Y-94680000D01*
X117268571Y-94632380D01*
X117459047Y-94632380D01*
X117554285Y-94680000D01*
X117601904Y-94727619D01*
X117649523Y-94822857D01*
X117649523Y-94870476D01*
X117601904Y-94965714D01*
X117554285Y-95013333D01*
X117459047Y-95060952D01*
X117268571Y-95060952D01*
X117173333Y-95108571D01*
X117125714Y-95156190D01*
X117078095Y-95251428D01*
X117078095Y-95441904D01*
X117125714Y-95537142D01*
X117173333Y-95584761D01*
X117268571Y-95632380D01*
X117459047Y-95632380D01*
X117554285Y-95584761D01*
X117601904Y-95537142D01*
X117649523Y-95441904D01*
X117649523Y-95251428D01*
X117601904Y-95156190D01*
X117554285Y-95108571D01*
X117459047Y-95060952D01*
X118601904Y-95632380D02*
X118030476Y-95632380D01*
X118316190Y-95632380D02*
X118316190Y-94632380D01*
X118220952Y-94775238D01*
X118125714Y-94870476D01*
X118030476Y-94918095D01*
X119078095Y-95632380D02*
X119268571Y-95632380D01*
X119363809Y-95584761D01*
X119411428Y-95537142D01*
X119506666Y-95394285D01*
X119554285Y-95203809D01*
X119554285Y-94822857D01*
X119506666Y-94727619D01*
X119459047Y-94680000D01*
X119363809Y-94632380D01*
X119173333Y-94632380D01*
X119078095Y-94680000D01*
X119030476Y-94727619D01*
X118982857Y-94822857D01*
X118982857Y-95060952D01*
X119030476Y-95156190D01*
X119078095Y-95203809D01*
X119173333Y-95251428D01*
X119363809Y-95251428D01*
X119459047Y-95203809D01*
X119506666Y-95156190D01*
X119554285Y-95060952D01*
X111498095Y-91062380D02*
X111498095Y-90062380D01*
X112069523Y-91062380D02*
X111640952Y-90490952D01*
X112069523Y-90062380D02*
X111498095Y-90633809D01*
X116491904Y-93162380D02*
X116491904Y-92162380D01*
X116730000Y-92162380D01*
X116872857Y-92210000D01*
X116968095Y-92305238D01*
X117015714Y-92400476D01*
X117063333Y-92590952D01*
X117063333Y-92733809D01*
X117015714Y-92924285D01*
X116968095Y-93019523D01*
X116872857Y-93114761D01*
X116730000Y-93162380D01*
X116491904Y-93162380D01*
X118015714Y-93162380D02*
X117444285Y-93162380D01*
X117730000Y-93162380D02*
X117730000Y-92162380D01*
X117634761Y-92305238D01*
X117539523Y-92400476D01*
X117444285Y-92448095D01*
%TO.C,C3*%
X140212380Y-102651428D02*
X140212380Y-103222857D01*
X140212380Y-102937142D02*
X139212380Y-102937142D01*
X139355238Y-103032380D01*
X139450476Y-103127619D01*
X139498095Y-103222857D01*
X139212380Y-102032380D02*
X139212380Y-101937142D01*
X139260000Y-101841904D01*
X139307619Y-101794285D01*
X139402857Y-101746666D01*
X139593333Y-101699047D01*
X139831428Y-101699047D01*
X140021904Y-101746666D01*
X140117142Y-101794285D01*
X140164761Y-101841904D01*
X140212380Y-101937142D01*
X140212380Y-102032380D01*
X140164761Y-102127619D01*
X140117142Y-102175238D01*
X140021904Y-102222857D01*
X139831428Y-102270476D01*
X139593333Y-102270476D01*
X139402857Y-102222857D01*
X139307619Y-102175238D01*
X139260000Y-102127619D01*
X139212380Y-102032380D01*
X139545714Y-100841904D02*
X140212380Y-100841904D01*
X139545714Y-101270476D02*
X140069523Y-101270476D01*
X140164761Y-101222857D01*
X140212380Y-101127619D01*
X140212380Y-100984761D01*
X140164761Y-100889523D01*
X140117142Y-100841904D01*
X139688571Y-100032380D02*
X139688571Y-100365714D01*
X140212380Y-100365714D02*
X139212380Y-100365714D01*
X139212380Y-99889523D01*
X143867142Y-101746666D02*
X143914761Y-101794285D01*
X143962380Y-101937142D01*
X143962380Y-102032380D01*
X143914761Y-102175238D01*
X143819523Y-102270476D01*
X143724285Y-102318095D01*
X143533809Y-102365714D01*
X143390952Y-102365714D01*
X143200476Y-102318095D01*
X143105238Y-102270476D01*
X143010000Y-102175238D01*
X142962380Y-102032380D01*
X142962380Y-101937142D01*
X143010000Y-101794285D01*
X143057619Y-101746666D01*
X142962380Y-101413333D02*
X142962380Y-100794285D01*
X143343333Y-101127619D01*
X143343333Y-100984761D01*
X143390952Y-100889523D01*
X143438571Y-100841904D01*
X143533809Y-100794285D01*
X143771904Y-100794285D01*
X143867142Y-100841904D01*
X143914761Y-100889523D01*
X143962380Y-100984761D01*
X143962380Y-101270476D01*
X143914761Y-101365714D01*
X143867142Y-101413333D01*
%TO.C,C2*%
X146135980Y-103463219D02*
X146135980Y-104034647D01*
X146135980Y-103748933D02*
X145135980Y-103748933D01*
X145278838Y-103844171D01*
X145374076Y-103939409D01*
X145421695Y-104034647D01*
X145135980Y-102844171D02*
X145135980Y-102748933D01*
X145183600Y-102653695D01*
X145231219Y-102606076D01*
X145326457Y-102558457D01*
X145516933Y-102510838D01*
X145755028Y-102510838D01*
X145945504Y-102558457D01*
X146040742Y-102606076D01*
X146088361Y-102653695D01*
X146135980Y-102748933D01*
X146135980Y-102844171D01*
X146088361Y-102939409D01*
X146040742Y-102987028D01*
X145945504Y-103034647D01*
X145755028Y-103082266D01*
X145516933Y-103082266D01*
X145326457Y-103034647D01*
X145231219Y-102987028D01*
X145183600Y-102939409D01*
X145135980Y-102844171D01*
X145135980Y-101891790D02*
X145135980Y-101796552D01*
X145183600Y-101701314D01*
X145231219Y-101653695D01*
X145326457Y-101606076D01*
X145516933Y-101558457D01*
X145755028Y-101558457D01*
X145945504Y-101606076D01*
X146040742Y-101653695D01*
X146088361Y-101701314D01*
X146135980Y-101796552D01*
X146135980Y-101891790D01*
X146088361Y-101987028D01*
X146040742Y-102034647D01*
X145945504Y-102082266D01*
X145755028Y-102129885D01*
X145516933Y-102129885D01*
X145326457Y-102082266D01*
X145231219Y-102034647D01*
X145183600Y-101987028D01*
X145135980Y-101891790D01*
X145469314Y-101129885D02*
X146135980Y-101129885D01*
X145564552Y-101129885D02*
X145516933Y-101082266D01*
X145469314Y-100987028D01*
X145469314Y-100844171D01*
X145516933Y-100748933D01*
X145612171Y-100701314D01*
X146135980Y-100701314D01*
X145612171Y-99891790D02*
X145612171Y-100225123D01*
X146135980Y-100225123D02*
X145135980Y-100225123D01*
X145135980Y-99748933D01*
D13*
X148519314Y-102072266D02*
X148564076Y-102117028D01*
X148608838Y-102251314D01*
X148608838Y-102340838D01*
X148564076Y-102475123D01*
X148474552Y-102564647D01*
X148385028Y-102609409D01*
X148205980Y-102654171D01*
X148071695Y-102654171D01*
X147892647Y-102609409D01*
X147803123Y-102564647D01*
X147713600Y-102475123D01*
X147668838Y-102340838D01*
X147668838Y-102251314D01*
X147713600Y-102117028D01*
X147758361Y-102072266D01*
X147758361Y-101714171D02*
X147713600Y-101669409D01*
X147668838Y-101579885D01*
X147668838Y-101356076D01*
X147713600Y-101266552D01*
X147758361Y-101221790D01*
X147847885Y-101177028D01*
X147937409Y-101177028D01*
X148071695Y-101221790D01*
X148608838Y-101758933D01*
X148608838Y-101177028D01*
%TO.C,C1*%
D11*
X141922380Y-91852380D02*
X141350952Y-91852380D01*
X141636666Y-91852380D02*
X141636666Y-90852380D01*
X141541428Y-90995238D01*
X141446190Y-91090476D01*
X141350952Y-91138095D01*
X142541428Y-90852380D02*
X142636666Y-90852380D01*
X142731904Y-90900000D01*
X142779523Y-90947619D01*
X142827142Y-91042857D01*
X142874761Y-91233333D01*
X142874761Y-91471428D01*
X142827142Y-91661904D01*
X142779523Y-91757142D01*
X142731904Y-91804761D01*
X142636666Y-91852380D01*
X142541428Y-91852380D01*
X142446190Y-91804761D01*
X142398571Y-91757142D01*
X142350952Y-91661904D01*
X142303333Y-91471428D01*
X142303333Y-91233333D01*
X142350952Y-91042857D01*
X142398571Y-90947619D01*
X142446190Y-90900000D01*
X142541428Y-90852380D01*
X143493809Y-90852380D02*
X143589047Y-90852380D01*
X143684285Y-90900000D01*
X143731904Y-90947619D01*
X143779523Y-91042857D01*
X143827142Y-91233333D01*
X143827142Y-91471428D01*
X143779523Y-91661904D01*
X143731904Y-91757142D01*
X143684285Y-91804761D01*
X143589047Y-91852380D01*
X143493809Y-91852380D01*
X143398571Y-91804761D01*
X143350952Y-91757142D01*
X143303333Y-91661904D01*
X143255714Y-91471428D01*
X143255714Y-91233333D01*
X143303333Y-91042857D01*
X143350952Y-90947619D01*
X143398571Y-90900000D01*
X143493809Y-90852380D01*
X144255714Y-91185714D02*
X144255714Y-91852380D01*
X144255714Y-91280952D02*
X144303333Y-91233333D01*
X144398571Y-91185714D01*
X144541428Y-91185714D01*
X144636666Y-91233333D01*
X144684285Y-91328571D01*
X144684285Y-91852380D01*
X145493809Y-91328571D02*
X145160476Y-91328571D01*
X145160476Y-91852380D02*
X145160476Y-90852380D01*
X145636666Y-90852380D01*
D13*
X143313333Y-89235714D02*
X143268571Y-89280476D01*
X143134285Y-89325238D01*
X143044761Y-89325238D01*
X142910476Y-89280476D01*
X142820952Y-89190952D01*
X142776190Y-89101428D01*
X142731428Y-88922380D01*
X142731428Y-88788095D01*
X142776190Y-88609047D01*
X142820952Y-88519523D01*
X142910476Y-88430000D01*
X143044761Y-88385238D01*
X143134285Y-88385238D01*
X143268571Y-88430000D01*
X143313333Y-88474761D01*
X144208571Y-89325238D02*
X143671428Y-89325238D01*
X143940000Y-89325238D02*
X143940000Y-88385238D01*
X143850476Y-88519523D01*
X143760952Y-88609047D01*
X143671428Y-88653809D01*
%TD*%
M02*
