%TF.GenerationSoftware,KiCad,Pcbnew,(5.1.5)-3*%
%TF.CreationDate,2020-09-12T07:11:48+09:30*%
%TF.ProjectId,robotcontrol,726f626f-7463-46f6-9e74-726f6c2e6b69,rev?*%
%TF.SameCoordinates,Original*%
%TF.FileFunction,Legend,Top*%
%TF.FilePolarity,Positive*%
%FSLAX46Y46*%
G04 Gerber Fmt 4.6, Leading zero omitted, Abs format (unit mm)*
G04 Created by KiCad (PCBNEW (5.1.5)-3) date 2020-09-12 07:11:48*
%MOMM*%
%LPD*%
G04 APERTURE LIST*
%ADD10C,0.150000*%
%ADD11C,0.140000*%
%ADD12C,0.120000*%
G04 APERTURE END LIST*
D10*
X91178071Y-89852547D02*
X91178071Y-90614452D01*
X90868547Y-95321428D02*
X91630452Y-95321428D01*
X91249500Y-95702380D02*
X91249500Y-94940476D01*
X91241571Y-101155547D02*
X91241571Y-101917452D01*
X90932047Y-106560928D02*
X91693952Y-106560928D01*
X91313000Y-106941880D02*
X91313000Y-106179976D01*
X89114380Y-95995690D02*
X89114380Y-95329023D01*
X90114380Y-95757595D01*
X89733428Y-94948071D02*
X89733428Y-94186166D01*
X90114380Y-93186166D02*
X90114380Y-93757595D01*
X90114380Y-93471880D02*
X89114380Y-93471880D01*
X89257238Y-93567119D01*
X89352476Y-93662357D01*
X89400095Y-93757595D01*
X89209619Y-92805214D02*
X89162000Y-92757595D01*
X89114380Y-92662357D01*
X89114380Y-92424261D01*
X89162000Y-92329023D01*
X89209619Y-92281404D01*
X89304857Y-92233785D01*
X89400095Y-92233785D01*
X89542952Y-92281404D01*
X90114380Y-92852833D01*
X90114380Y-92233785D01*
X89114380Y-91948071D02*
X90114380Y-91614738D01*
X89114380Y-91281404D01*
X90114380Y-90186166D02*
X89114380Y-90186166D01*
X90114380Y-89709976D02*
X89114380Y-89709976D01*
X90114380Y-89138547D01*
X89114380Y-89138547D01*
X89654071Y-106909785D02*
X89701690Y-106766928D01*
X89749309Y-106719309D01*
X89844547Y-106671690D01*
X89987404Y-106671690D01*
X90082642Y-106719309D01*
X90130261Y-106766928D01*
X90177880Y-106862166D01*
X90177880Y-107243119D01*
X89177880Y-107243119D01*
X89177880Y-106909785D01*
X89225500Y-106814547D01*
X89273119Y-106766928D01*
X89368357Y-106719309D01*
X89463595Y-106719309D01*
X89558833Y-106766928D01*
X89606452Y-106814547D01*
X89654071Y-106909785D01*
X89654071Y-107243119D01*
X90177880Y-105814547D02*
X89654071Y-105814547D01*
X89558833Y-105862166D01*
X89511214Y-105957404D01*
X89511214Y-106147880D01*
X89558833Y-106243119D01*
X90130261Y-105814547D02*
X90177880Y-105909785D01*
X90177880Y-106147880D01*
X90130261Y-106243119D01*
X90035023Y-106290738D01*
X89939785Y-106290738D01*
X89844547Y-106243119D01*
X89796928Y-106147880D01*
X89796928Y-105909785D01*
X89749309Y-105814547D01*
X89511214Y-105481214D02*
X89511214Y-105100261D01*
X89177880Y-105338357D02*
X90035023Y-105338357D01*
X90130261Y-105290738D01*
X90177880Y-105195500D01*
X90177880Y-105100261D01*
X89511214Y-104909785D02*
X89511214Y-104528833D01*
X89177880Y-104766928D02*
X90035023Y-104766928D01*
X90130261Y-104719309D01*
X90177880Y-104624071D01*
X90177880Y-104528833D01*
X90130261Y-103814547D02*
X90177880Y-103909785D01*
X90177880Y-104100261D01*
X90130261Y-104195500D01*
X90035023Y-104243119D01*
X89654071Y-104243119D01*
X89558833Y-104195500D01*
X89511214Y-104100261D01*
X89511214Y-103909785D01*
X89558833Y-103814547D01*
X89654071Y-103766928D01*
X89749309Y-103766928D01*
X89844547Y-104243119D01*
X90177880Y-103338357D02*
X89511214Y-103338357D01*
X89701690Y-103338357D02*
X89606452Y-103290738D01*
X89558833Y-103243119D01*
X89511214Y-103147880D01*
X89511214Y-103052642D01*
X89511214Y-102814547D02*
X90177880Y-102576452D01*
X89511214Y-102338357D02*
X90177880Y-102576452D01*
X90415976Y-102671690D01*
X90463595Y-102719309D01*
X90511214Y-102814547D01*
X90177880Y-101195500D02*
X89177880Y-101195500D01*
X90177880Y-100719309D02*
X89177880Y-100719309D01*
X90177880Y-100147880D01*
X89177880Y-100147880D01*
X155582880Y-111759047D02*
X154582880Y-111759047D01*
X155582880Y-111187619D01*
X154582880Y-111187619D01*
X155582880Y-110711428D02*
X154916214Y-110711428D01*
X154582880Y-110711428D02*
X154630500Y-110759047D01*
X154678119Y-110711428D01*
X154630500Y-110663809D01*
X154582880Y-110711428D01*
X154678119Y-110711428D01*
X155582880Y-110235238D02*
X154582880Y-110235238D01*
X155201928Y-110140000D02*
X155582880Y-109854285D01*
X154916214Y-109854285D02*
X155297166Y-110235238D01*
X155582880Y-109282857D02*
X155535261Y-109378095D01*
X155487642Y-109425714D01*
X155392404Y-109473333D01*
X155106690Y-109473333D01*
X155011452Y-109425714D01*
X154963833Y-109378095D01*
X154916214Y-109282857D01*
X154916214Y-109140000D01*
X154963833Y-109044761D01*
X155011452Y-108997142D01*
X155106690Y-108949523D01*
X155392404Y-108949523D01*
X155487642Y-108997142D01*
X155535261Y-109044761D01*
X155582880Y-109140000D01*
X155582880Y-109282857D01*
X155582880Y-108378095D02*
X155535261Y-108473333D01*
X155440023Y-108520952D01*
X154582880Y-108520952D01*
X155582880Y-107568571D02*
X155059071Y-107568571D01*
X154963833Y-107616190D01*
X154916214Y-107711428D01*
X154916214Y-107901904D01*
X154963833Y-107997142D01*
X155535261Y-107568571D02*
X155582880Y-107663809D01*
X155582880Y-107901904D01*
X155535261Y-107997142D01*
X155440023Y-108044761D01*
X155344785Y-108044761D01*
X155249547Y-107997142D01*
X155201928Y-107901904D01*
X155201928Y-107663809D01*
X155154309Y-107568571D01*
X155582880Y-107092380D02*
X154916214Y-107092380D01*
X154582880Y-107092380D02*
X154630500Y-107140000D01*
X154678119Y-107092380D01*
X154630500Y-107044761D01*
X154582880Y-107092380D01*
X154678119Y-107092380D01*
X155582880Y-105854285D02*
X154582880Y-105854285D01*
X154582880Y-105473333D01*
X154630500Y-105378095D01*
X154678119Y-105330476D01*
X154773357Y-105282857D01*
X154916214Y-105282857D01*
X155011452Y-105330476D01*
X155059071Y-105378095D01*
X155106690Y-105473333D01*
X155106690Y-105854285D01*
X155582880Y-104425714D02*
X155059071Y-104425714D01*
X154963833Y-104473333D01*
X154916214Y-104568571D01*
X154916214Y-104759047D01*
X154963833Y-104854285D01*
X155535261Y-104425714D02*
X155582880Y-104520952D01*
X155582880Y-104759047D01*
X155535261Y-104854285D01*
X155440023Y-104901904D01*
X155344785Y-104901904D01*
X155249547Y-104854285D01*
X155201928Y-104759047D01*
X155201928Y-104520952D01*
X155154309Y-104425714D01*
X154916214Y-104092380D02*
X154916214Y-103711428D01*
X154582880Y-103949523D02*
X155440023Y-103949523D01*
X155535261Y-103901904D01*
X155582880Y-103806666D01*
X155582880Y-103711428D01*
X155582880Y-103378095D02*
X154916214Y-103378095D01*
X155106690Y-103378095D02*
X155011452Y-103330476D01*
X154963833Y-103282857D01*
X154916214Y-103187619D01*
X154916214Y-103092380D01*
X155582880Y-102759047D02*
X154916214Y-102759047D01*
X154582880Y-102759047D02*
X154630500Y-102806666D01*
X154678119Y-102759047D01*
X154630500Y-102711428D01*
X154582880Y-102759047D01*
X154678119Y-102759047D01*
X155535261Y-101854285D02*
X155582880Y-101949523D01*
X155582880Y-102140000D01*
X155535261Y-102235238D01*
X155487642Y-102282857D01*
X155392404Y-102330476D01*
X155106690Y-102330476D01*
X155011452Y-102282857D01*
X154963833Y-102235238D01*
X154916214Y-102140000D01*
X154916214Y-101949523D01*
X154963833Y-101854285D01*
X155582880Y-101425714D02*
X154582880Y-101425714D01*
X155201928Y-101330476D02*
X155582880Y-101044761D01*
X154916214Y-101044761D02*
X155297166Y-101425714D01*
X154678119Y-99901904D02*
X154630500Y-99854285D01*
X154582880Y-99759047D01*
X154582880Y-99520952D01*
X154630500Y-99425714D01*
X154678119Y-99378095D01*
X154773357Y-99330476D01*
X154868595Y-99330476D01*
X155011452Y-99378095D01*
X155582880Y-99949523D01*
X155582880Y-99330476D01*
X154582880Y-98711428D02*
X154582880Y-98616190D01*
X154630500Y-98520952D01*
X154678119Y-98473333D01*
X154773357Y-98425714D01*
X154963833Y-98378095D01*
X155201928Y-98378095D01*
X155392404Y-98425714D01*
X155487642Y-98473333D01*
X155535261Y-98520952D01*
X155582880Y-98616190D01*
X155582880Y-98711428D01*
X155535261Y-98806666D01*
X155487642Y-98854285D01*
X155392404Y-98901904D01*
X155201928Y-98949523D01*
X154963833Y-98949523D01*
X154773357Y-98901904D01*
X154678119Y-98854285D01*
X154630500Y-98806666D01*
X154582880Y-98711428D01*
X154678119Y-97997142D02*
X154630500Y-97949523D01*
X154582880Y-97854285D01*
X154582880Y-97616190D01*
X154630500Y-97520952D01*
X154678119Y-97473333D01*
X154773357Y-97425714D01*
X154868595Y-97425714D01*
X155011452Y-97473333D01*
X155582880Y-98044761D01*
X155582880Y-97425714D01*
X154582880Y-96806666D02*
X154582880Y-96711428D01*
X154630500Y-96616190D01*
X154678119Y-96568571D01*
X154773357Y-96520952D01*
X154963833Y-96473333D01*
X155201928Y-96473333D01*
X155392404Y-96520952D01*
X155487642Y-96568571D01*
X155535261Y-96616190D01*
X155582880Y-96711428D01*
X155582880Y-96806666D01*
X155535261Y-96901904D01*
X155487642Y-96949523D01*
X155392404Y-96997142D01*
X155201928Y-97044761D01*
X154963833Y-97044761D01*
X154773357Y-96997142D01*
X154678119Y-96949523D01*
X154630500Y-96901904D01*
X154582880Y-96806666D01*
D11*
X133362857Y-105136904D02*
X133362857Y-104336904D01*
X133629523Y-104908333D01*
X133896190Y-104336904D01*
X133896190Y-105136904D01*
X134277142Y-105136904D02*
X134277142Y-104336904D01*
X134620000Y-105098809D02*
X134734285Y-105136904D01*
X134924761Y-105136904D01*
X135000952Y-105098809D01*
X135039047Y-105060714D01*
X135077142Y-104984523D01*
X135077142Y-104908333D01*
X135039047Y-104832142D01*
X135000952Y-104794047D01*
X134924761Y-104755952D01*
X134772380Y-104717857D01*
X134696190Y-104679761D01*
X134658095Y-104641666D01*
X134620000Y-104565476D01*
X134620000Y-104489285D01*
X134658095Y-104413095D01*
X134696190Y-104375000D01*
X134772380Y-104336904D01*
X134962857Y-104336904D01*
X135077142Y-104375000D01*
X135572380Y-104336904D02*
X135724761Y-104336904D01*
X135800952Y-104375000D01*
X135877142Y-104451190D01*
X135915238Y-104603571D01*
X135915238Y-104870238D01*
X135877142Y-105022619D01*
X135800952Y-105098809D01*
X135724761Y-105136904D01*
X135572380Y-105136904D01*
X135496190Y-105098809D01*
X135420000Y-105022619D01*
X135381904Y-104870238D01*
X135381904Y-104603571D01*
X135420000Y-104451190D01*
X135496190Y-104375000D01*
X135572380Y-104336904D01*
X128803476Y-110979000D02*
X128727285Y-110940904D01*
X128613000Y-110940904D01*
X128498714Y-110979000D01*
X128422523Y-111055190D01*
X128384428Y-111131380D01*
X128346333Y-111283761D01*
X128346333Y-111398047D01*
X128384428Y-111550428D01*
X128422523Y-111626619D01*
X128498714Y-111702809D01*
X128613000Y-111740904D01*
X128689190Y-111740904D01*
X128803476Y-111702809D01*
X128841571Y-111664714D01*
X128841571Y-111398047D01*
X128689190Y-111398047D01*
X129184428Y-111740904D02*
X129184428Y-110940904D01*
X129641571Y-111740904D01*
X129641571Y-110940904D01*
X130022523Y-111740904D02*
X130022523Y-110940904D01*
X130213000Y-110940904D01*
X130327285Y-110979000D01*
X130403476Y-111055190D01*
X130441571Y-111131380D01*
X130479666Y-111283761D01*
X130479666Y-111398047D01*
X130441571Y-111550428D01*
X130403476Y-111626619D01*
X130327285Y-111702809D01*
X130213000Y-111740904D01*
X130022523Y-111740904D01*
D12*
%TO.C,BT1*%
X99060000Y-98869500D02*
X99060000Y-109029500D01*
X100330000Y-98869500D02*
X92710000Y-98869500D01*
X92710000Y-98869500D02*
X92710000Y-109029500D01*
X92710000Y-109029500D02*
X100330000Y-109029500D01*
X100330000Y-109029500D02*
X100330000Y-98869500D01*
D10*
%TO.C,U3*%
X131045800Y-94419000D02*
X131045800Y-94644000D01*
X138295800Y-94419000D02*
X138295800Y-94744000D01*
X138295800Y-101669000D02*
X138295800Y-101344000D01*
X131045800Y-101669000D02*
X131045800Y-101344000D01*
X131045800Y-94419000D02*
X131370800Y-94419000D01*
X131045800Y-101669000D02*
X131370800Y-101669000D01*
X138295800Y-101669000D02*
X137970800Y-101669000D01*
X138295800Y-94419000D02*
X137970800Y-94419000D01*
X131045800Y-94644000D02*
X129620800Y-94644000D01*
D12*
%TO.C,J6*%
X128210000Y-105350000D02*
X128210000Y-110550000D01*
X133350000Y-105350000D02*
X128210000Y-105350000D01*
X135950000Y-110550000D02*
X128210000Y-110550000D01*
X133350000Y-105350000D02*
X133350000Y-107950000D01*
X133350000Y-107950000D02*
X135950000Y-107950000D01*
X135950000Y-107950000D02*
X135950000Y-110550000D01*
X134620000Y-105350000D02*
X135950000Y-105350000D01*
X135950000Y-105350000D02*
X135950000Y-106680000D01*
%TO.C,U2*%
X103410000Y-97830000D02*
X103410000Y-87590000D01*
X108051000Y-97830000D02*
X108051000Y-87590000D01*
X103410000Y-97830000D02*
X108051000Y-97830000D01*
X103410000Y-87590000D02*
X108051000Y-87590000D01*
X104920000Y-97830000D02*
X104920000Y-87590000D01*
X103410000Y-94560000D02*
X104920000Y-94560000D01*
X103410000Y-90859000D02*
X104920000Y-90859000D01*
%TO.C,U1*%
X105780000Y-101940000D02*
X107580000Y-101940000D01*
X107580000Y-98720000D02*
X105130000Y-98720000D01*
%TO.C,SW2*%
X143240000Y-97575000D02*
X147740000Y-97575000D01*
X141990000Y-93575000D02*
X141990000Y-95075000D01*
X147740000Y-91075000D02*
X143240000Y-91075000D01*
X148990000Y-95075000D02*
X148990000Y-93575000D01*
%TO.C,SW1*%
X138490000Y-90230000D02*
X138490000Y-87570000D01*
X133350000Y-90230000D02*
X138490000Y-90230000D01*
X133350000Y-87570000D02*
X138490000Y-87570000D01*
X133350000Y-90230000D02*
X133350000Y-87570000D01*
X132080000Y-90230000D02*
X130750000Y-90230000D01*
X130750000Y-90230000D02*
X130750000Y-88900000D01*
%TO.C,R4*%
X140240000Y-105945000D02*
X140240000Y-108685000D01*
X140240000Y-108685000D02*
X146780000Y-108685000D01*
X146780000Y-108685000D02*
X146780000Y-105945000D01*
X146780000Y-105945000D02*
X140240000Y-105945000D01*
X139470000Y-107315000D02*
X140240000Y-107315000D01*
X147550000Y-107315000D02*
X146780000Y-107315000D01*
%TO.C,R3*%
X153973200Y-89643200D02*
X151233200Y-89643200D01*
X151233200Y-89643200D02*
X151233200Y-96183200D01*
X151233200Y-96183200D02*
X153973200Y-96183200D01*
X153973200Y-96183200D02*
X153973200Y-89643200D01*
X152603200Y-88873200D02*
X152603200Y-89643200D01*
X152603200Y-96953200D02*
X152603200Y-96183200D01*
%TO.C,R2*%
X112930000Y-108680000D02*
X115670000Y-108680000D01*
X115670000Y-108680000D02*
X115670000Y-102140000D01*
X115670000Y-102140000D02*
X112930000Y-102140000D01*
X112930000Y-102140000D02*
X112930000Y-108680000D01*
X114300000Y-109450000D02*
X114300000Y-108680000D01*
X114300000Y-101370000D02*
X114300000Y-102140000D01*
%TO.C,R1*%
X140240000Y-109120000D02*
X140240000Y-111860000D01*
X140240000Y-111860000D02*
X146780000Y-111860000D01*
X146780000Y-111860000D02*
X146780000Y-109120000D01*
X146780000Y-109120000D02*
X140240000Y-109120000D01*
X139470000Y-110490000D02*
X140240000Y-110490000D01*
X147550000Y-110490000D02*
X146780000Y-110490000D01*
%TO.C,J5*%
X150968400Y-110600800D02*
X153628400Y-110600800D01*
X150968400Y-102920800D02*
X150968400Y-110600800D01*
X153628400Y-102920800D02*
X153628400Y-110600800D01*
X150968400Y-102920800D02*
X153628400Y-102920800D01*
X150968400Y-101650800D02*
X150968400Y-100320800D01*
X150968400Y-100320800D02*
X152298400Y-100320800D01*
%TO.C,J4*%
X118050000Y-110550000D02*
X120710000Y-110550000D01*
X118050000Y-102870000D02*
X118050000Y-110550000D01*
X120710000Y-102870000D02*
X120710000Y-110550000D01*
X118050000Y-102870000D02*
X120710000Y-102870000D01*
X118050000Y-101600000D02*
X118050000Y-100270000D01*
X118050000Y-100270000D02*
X119380000Y-100270000D01*
%TO.C,J3*%
X123130000Y-110550000D02*
X125790000Y-110550000D01*
X123130000Y-102870000D02*
X123130000Y-110550000D01*
X125790000Y-102870000D02*
X125790000Y-110550000D01*
X123130000Y-102870000D02*
X125790000Y-102870000D01*
X123130000Y-101600000D02*
X123130000Y-100270000D01*
X123130000Y-100270000D02*
X124460000Y-100270000D01*
%TO.C,J2*%
X99060000Y-87630000D02*
X99060000Y-97790000D01*
X100330000Y-87630000D02*
X92710000Y-87630000D01*
X92710000Y-87630000D02*
X92710000Y-97790000D01*
X92710000Y-97790000D02*
X100330000Y-97790000D01*
X100330000Y-97790000D02*
X100330000Y-87630000D01*
D10*
%TO.C,J1*%
X102174400Y-108316000D02*
X102174400Y-109716000D01*
X102174400Y-112116000D02*
X102174400Y-112266000D01*
X102174400Y-112266000D02*
X102474400Y-112266000D01*
X102474400Y-112266000D02*
X102474400Y-112716000D01*
X110174400Y-112716000D02*
X110174400Y-112266000D01*
X110174400Y-112266000D02*
X110474400Y-112266000D01*
X110474400Y-112266000D02*
X110474400Y-112116000D01*
X110474400Y-109716000D02*
X110474400Y-108316000D01*
X105249400Y-106141000D02*
X104524400Y-106141000D01*
X104524400Y-106141000D02*
X104524400Y-106566000D01*
X104524400Y-106566000D02*
X103799400Y-106566000D01*
X108124400Y-106566000D02*
X108849400Y-106566000D01*
D12*
%TO.C,D5*%
X124805000Y-95284000D02*
X124805000Y-95440000D01*
X124805000Y-97600000D02*
X124805000Y-97756000D01*
X127406130Y-97599837D02*
G75*
G02X125324039Y-97600000I-1041130J1079837D01*
G01*
X127406130Y-95440163D02*
G75*
G03X125324039Y-95440000I-1041130J-1079837D01*
G01*
X128037335Y-97598608D02*
G75*
G02X124805000Y-97755516I-1672335J1078608D01*
G01*
X128037335Y-95441392D02*
G75*
G03X124805000Y-95284484I-1672335J-1078608D01*
G01*
%TO.C,D4*%
X114120000Y-87430000D02*
X114120000Y-90370000D01*
X114120000Y-90370000D02*
X119560000Y-90370000D01*
X119560000Y-90370000D02*
X119560000Y-87430000D01*
X119560000Y-87430000D02*
X114120000Y-87430000D01*
X113100000Y-88900000D02*
X114120000Y-88900000D01*
X120580000Y-88900000D02*
X119560000Y-88900000D01*
X115020000Y-87430000D02*
X115020000Y-90370000D01*
X115140000Y-87430000D02*
X115140000Y-90370000D01*
X114900000Y-87430000D02*
X114900000Y-90370000D01*
%TO.C,D3*%
X114120000Y-95050000D02*
X114120000Y-97990000D01*
X114120000Y-97990000D02*
X119560000Y-97990000D01*
X119560000Y-97990000D02*
X119560000Y-95050000D01*
X119560000Y-95050000D02*
X114120000Y-95050000D01*
X113100000Y-96520000D02*
X114120000Y-96520000D01*
X120580000Y-96520000D02*
X119560000Y-96520000D01*
X115020000Y-95050000D02*
X115020000Y-97990000D01*
X115140000Y-95050000D02*
X115140000Y-97990000D01*
X114900000Y-95050000D02*
X114900000Y-97990000D01*
%TO.C,D2*%
X124805000Y-88299000D02*
X124805000Y-88455000D01*
X124805000Y-90615000D02*
X124805000Y-90771000D01*
X127406130Y-90614837D02*
G75*
G02X125324039Y-90615000I-1041130J1079837D01*
G01*
X127406130Y-88455163D02*
G75*
G03X125324039Y-88455000I-1041130J-1079837D01*
G01*
X128037335Y-90613608D02*
G75*
G02X124805000Y-90770516I-1672335J1078608D01*
G01*
X128037335Y-88456392D02*
G75*
G03X124805000Y-88299484I-1672335J-1078608D01*
G01*
%TO.C,D1*%
X114120000Y-91240000D02*
X114120000Y-94180000D01*
X114120000Y-94180000D02*
X119560000Y-94180000D01*
X119560000Y-94180000D02*
X119560000Y-91240000D01*
X119560000Y-91240000D02*
X114120000Y-91240000D01*
X113100000Y-92710000D02*
X114120000Y-92710000D01*
X120580000Y-92710000D02*
X119560000Y-92710000D01*
X115020000Y-91240000D02*
X115020000Y-94180000D01*
X115140000Y-91240000D02*
X115140000Y-94180000D01*
X114900000Y-91240000D02*
X114900000Y-94180000D01*
%TO.C,C3*%
X146130000Y-101580000D02*
G75*
G03X146130000Y-101580000I-2620000J0D01*
G01*
X146090000Y-101580000D02*
X140930000Y-101580000D01*
X146090000Y-101620000D02*
X140930000Y-101620000D01*
X146089000Y-101660000D02*
X140931000Y-101660000D01*
X146088000Y-101700000D02*
X140932000Y-101700000D01*
X146086000Y-101740000D02*
X140934000Y-101740000D01*
X146083000Y-101780000D02*
X140937000Y-101780000D01*
X146079000Y-101820000D02*
X144550000Y-101820000D01*
X142470000Y-101820000D02*
X140941000Y-101820000D01*
X146075000Y-101860000D02*
X144550000Y-101860000D01*
X142470000Y-101860000D02*
X140945000Y-101860000D01*
X146071000Y-101900000D02*
X144550000Y-101900000D01*
X142470000Y-101900000D02*
X140949000Y-101900000D01*
X146066000Y-101940000D02*
X144550000Y-101940000D01*
X142470000Y-101940000D02*
X140954000Y-101940000D01*
X146060000Y-101980000D02*
X144550000Y-101980000D01*
X142470000Y-101980000D02*
X140960000Y-101980000D01*
X146053000Y-102020000D02*
X144550000Y-102020000D01*
X142470000Y-102020000D02*
X140967000Y-102020000D01*
X146046000Y-102060000D02*
X144550000Y-102060000D01*
X142470000Y-102060000D02*
X140974000Y-102060000D01*
X146038000Y-102100000D02*
X144550000Y-102100000D01*
X142470000Y-102100000D02*
X140982000Y-102100000D01*
X146030000Y-102140000D02*
X144550000Y-102140000D01*
X142470000Y-102140000D02*
X140990000Y-102140000D01*
X146021000Y-102180000D02*
X144550000Y-102180000D01*
X142470000Y-102180000D02*
X140999000Y-102180000D01*
X146011000Y-102220000D02*
X144550000Y-102220000D01*
X142470000Y-102220000D02*
X141009000Y-102220000D01*
X146001000Y-102260000D02*
X144550000Y-102260000D01*
X142470000Y-102260000D02*
X141019000Y-102260000D01*
X145990000Y-102301000D02*
X144550000Y-102301000D01*
X142470000Y-102301000D02*
X141030000Y-102301000D01*
X145978000Y-102341000D02*
X144550000Y-102341000D01*
X142470000Y-102341000D02*
X141042000Y-102341000D01*
X145965000Y-102381000D02*
X144550000Y-102381000D01*
X142470000Y-102381000D02*
X141055000Y-102381000D01*
X145952000Y-102421000D02*
X144550000Y-102421000D01*
X142470000Y-102421000D02*
X141068000Y-102421000D01*
X145938000Y-102461000D02*
X144550000Y-102461000D01*
X142470000Y-102461000D02*
X141082000Y-102461000D01*
X145924000Y-102501000D02*
X144550000Y-102501000D01*
X142470000Y-102501000D02*
X141096000Y-102501000D01*
X145908000Y-102541000D02*
X144550000Y-102541000D01*
X142470000Y-102541000D02*
X141112000Y-102541000D01*
X145892000Y-102581000D02*
X144550000Y-102581000D01*
X142470000Y-102581000D02*
X141128000Y-102581000D01*
X145875000Y-102621000D02*
X144550000Y-102621000D01*
X142470000Y-102621000D02*
X141145000Y-102621000D01*
X145858000Y-102661000D02*
X144550000Y-102661000D01*
X142470000Y-102661000D02*
X141162000Y-102661000D01*
X145839000Y-102701000D02*
X144550000Y-102701000D01*
X142470000Y-102701000D02*
X141181000Y-102701000D01*
X145820000Y-102741000D02*
X144550000Y-102741000D01*
X142470000Y-102741000D02*
X141200000Y-102741000D01*
X145800000Y-102781000D02*
X144550000Y-102781000D01*
X142470000Y-102781000D02*
X141220000Y-102781000D01*
X145778000Y-102821000D02*
X144550000Y-102821000D01*
X142470000Y-102821000D02*
X141242000Y-102821000D01*
X145757000Y-102861000D02*
X144550000Y-102861000D01*
X142470000Y-102861000D02*
X141263000Y-102861000D01*
X145734000Y-102901000D02*
X144550000Y-102901000D01*
X142470000Y-102901000D02*
X141286000Y-102901000D01*
X145710000Y-102941000D02*
X144550000Y-102941000D01*
X142470000Y-102941000D02*
X141310000Y-102941000D01*
X145685000Y-102981000D02*
X144550000Y-102981000D01*
X142470000Y-102981000D02*
X141335000Y-102981000D01*
X145659000Y-103021000D02*
X144550000Y-103021000D01*
X142470000Y-103021000D02*
X141361000Y-103021000D01*
X145632000Y-103061000D02*
X144550000Y-103061000D01*
X142470000Y-103061000D02*
X141388000Y-103061000D01*
X145605000Y-103101000D02*
X144550000Y-103101000D01*
X142470000Y-103101000D02*
X141415000Y-103101000D01*
X145575000Y-103141000D02*
X144550000Y-103141000D01*
X142470000Y-103141000D02*
X141445000Y-103141000D01*
X145545000Y-103181000D02*
X144550000Y-103181000D01*
X142470000Y-103181000D02*
X141475000Y-103181000D01*
X145514000Y-103221000D02*
X144550000Y-103221000D01*
X142470000Y-103221000D02*
X141506000Y-103221000D01*
X145481000Y-103261000D02*
X144550000Y-103261000D01*
X142470000Y-103261000D02*
X141539000Y-103261000D01*
X145447000Y-103301000D02*
X144550000Y-103301000D01*
X142470000Y-103301000D02*
X141573000Y-103301000D01*
X145411000Y-103341000D02*
X144550000Y-103341000D01*
X142470000Y-103341000D02*
X141609000Y-103341000D01*
X145374000Y-103381000D02*
X144550000Y-103381000D01*
X142470000Y-103381000D02*
X141646000Y-103381000D01*
X145336000Y-103421000D02*
X144550000Y-103421000D01*
X142470000Y-103421000D02*
X141684000Y-103421000D01*
X145295000Y-103461000D02*
X144550000Y-103461000D01*
X142470000Y-103461000D02*
X141725000Y-103461000D01*
X145253000Y-103501000D02*
X144550000Y-103501000D01*
X142470000Y-103501000D02*
X141767000Y-103501000D01*
X145209000Y-103541000D02*
X144550000Y-103541000D01*
X142470000Y-103541000D02*
X141811000Y-103541000D01*
X145163000Y-103581000D02*
X144550000Y-103581000D01*
X142470000Y-103581000D02*
X141857000Y-103581000D01*
X145115000Y-103621000D02*
X144550000Y-103621000D01*
X142470000Y-103621000D02*
X141905000Y-103621000D01*
X145064000Y-103661000D02*
X144550000Y-103661000D01*
X142470000Y-103661000D02*
X141956000Y-103661000D01*
X145010000Y-103701000D02*
X144550000Y-103701000D01*
X142470000Y-103701000D02*
X142010000Y-103701000D01*
X144953000Y-103741000D02*
X144550000Y-103741000D01*
X142470000Y-103741000D02*
X142067000Y-103741000D01*
X144893000Y-103781000D02*
X144550000Y-103781000D01*
X142470000Y-103781000D02*
X142127000Y-103781000D01*
X144829000Y-103821000D02*
X144550000Y-103821000D01*
X142470000Y-103821000D02*
X142191000Y-103821000D01*
X144761000Y-103861000D02*
X144550000Y-103861000D01*
X142470000Y-103861000D02*
X142259000Y-103861000D01*
X144688000Y-103901000D02*
X142332000Y-103901000D01*
X144608000Y-103941000D02*
X142412000Y-103941000D01*
X144521000Y-103981000D02*
X142499000Y-103981000D01*
X144425000Y-104021000D02*
X142595000Y-104021000D01*
X144315000Y-104061000D02*
X142705000Y-104061000D01*
X144187000Y-104101000D02*
X142833000Y-104101000D01*
X144028000Y-104141000D02*
X142992000Y-104141000D01*
X143794000Y-104181000D02*
X143226000Y-104181000D01*
X144985000Y-98775225D02*
X144985000Y-99275225D01*
X145235000Y-99025225D02*
X144735000Y-99025225D01*
%TO.C,C2*%
X149553600Y-99445600D02*
X149553600Y-104385600D01*
X146813600Y-99445600D02*
X146813600Y-104385600D01*
X149553600Y-99445600D02*
X149238600Y-99445600D01*
X147128600Y-99445600D02*
X146813600Y-99445600D01*
X149553600Y-104385600D02*
X149238600Y-104385600D01*
X147128600Y-104385600D02*
X146813600Y-104385600D01*
%TO.C,C1*%
X141000000Y-87530000D02*
X145940000Y-87530000D01*
X141000000Y-90270000D02*
X145940000Y-90270000D01*
X141000000Y-87530000D02*
X141000000Y-87845000D01*
X141000000Y-89955000D02*
X141000000Y-90270000D01*
X145940000Y-87530000D02*
X145940000Y-87845000D01*
X145940000Y-89955000D02*
X145940000Y-90270000D01*
%TO.C,BT1*%
D10*
X101528571Y-104735214D02*
X101576190Y-104592357D01*
X101623809Y-104544738D01*
X101719047Y-104497119D01*
X101861904Y-104497119D01*
X101957142Y-104544738D01*
X102004761Y-104592357D01*
X102052380Y-104687595D01*
X102052380Y-105068547D01*
X101052380Y-105068547D01*
X101052380Y-104735214D01*
X101100000Y-104639976D01*
X101147619Y-104592357D01*
X101242857Y-104544738D01*
X101338095Y-104544738D01*
X101433333Y-104592357D01*
X101480952Y-104639976D01*
X101528571Y-104735214D01*
X101528571Y-105068547D01*
X101052380Y-104211404D02*
X101052380Y-103639976D01*
X102052380Y-103925690D02*
X101052380Y-103925690D01*
X102052380Y-102782833D02*
X102052380Y-103354261D01*
X102052380Y-103068547D02*
X101052380Y-103068547D01*
X101195238Y-103163785D01*
X101290476Y-103259023D01*
X101338095Y-103354261D01*
%TO.C,U3*%
X133908895Y-91446380D02*
X133908895Y-92255904D01*
X133956514Y-92351142D01*
X134004133Y-92398761D01*
X134099371Y-92446380D01*
X134289847Y-92446380D01*
X134385085Y-92398761D01*
X134432704Y-92351142D01*
X134480323Y-92255904D01*
X134480323Y-91446380D01*
X134861276Y-91446380D02*
X135480323Y-91446380D01*
X135146990Y-91827333D01*
X135289847Y-91827333D01*
X135385085Y-91874952D01*
X135432704Y-91922571D01*
X135480323Y-92017809D01*
X135480323Y-92255904D01*
X135432704Y-92351142D01*
X135385085Y-92398761D01*
X135289847Y-92446380D01*
X135004133Y-92446380D01*
X134908895Y-92398761D01*
X134861276Y-92351142D01*
%TO.C,J6*%
X136402380Y-108283333D02*
X137116666Y-108283333D01*
X137259523Y-108330952D01*
X137354761Y-108426190D01*
X137402380Y-108569047D01*
X137402380Y-108664285D01*
X136402380Y-107378571D02*
X136402380Y-107569047D01*
X136450000Y-107664285D01*
X136497619Y-107711904D01*
X136640476Y-107807142D01*
X136830952Y-107854761D01*
X137211904Y-107854761D01*
X137307142Y-107807142D01*
X137354761Y-107759523D01*
X137402380Y-107664285D01*
X137402380Y-107473809D01*
X137354761Y-107378571D01*
X137307142Y-107330952D01*
X137211904Y-107283333D01*
X136973809Y-107283333D01*
X136878571Y-107330952D01*
X136830952Y-107378571D01*
X136783333Y-107473809D01*
X136783333Y-107664285D01*
X136830952Y-107759523D01*
X136878571Y-107807142D01*
X136973809Y-107854761D01*
%TO.C,U2*%
X105156095Y-86256880D02*
X105156095Y-87066404D01*
X105203714Y-87161642D01*
X105251333Y-87209261D01*
X105346571Y-87256880D01*
X105537047Y-87256880D01*
X105632285Y-87209261D01*
X105679904Y-87161642D01*
X105727523Y-87066404D01*
X105727523Y-86256880D01*
X106156095Y-86352119D02*
X106203714Y-86304500D01*
X106298952Y-86256880D01*
X106537047Y-86256880D01*
X106632285Y-86304500D01*
X106679904Y-86352119D01*
X106727523Y-86447357D01*
X106727523Y-86542595D01*
X106679904Y-86685452D01*
X106108476Y-87256880D01*
X106727523Y-87256880D01*
%TO.C,U1*%
X105918095Y-96882380D02*
X105918095Y-97691904D01*
X105965714Y-97787142D01*
X106013333Y-97834761D01*
X106108571Y-97882380D01*
X106299047Y-97882380D01*
X106394285Y-97834761D01*
X106441904Y-97787142D01*
X106489523Y-97691904D01*
X106489523Y-96882380D01*
X107489523Y-97882380D02*
X106918095Y-97882380D01*
X107203809Y-97882380D02*
X107203809Y-96882380D01*
X107108571Y-97025238D01*
X107013333Y-97120476D01*
X106918095Y-97168095D01*
%TO.C,SW2*%
X144156666Y-90479761D02*
X144299523Y-90527380D01*
X144537619Y-90527380D01*
X144632857Y-90479761D01*
X144680476Y-90432142D01*
X144728095Y-90336904D01*
X144728095Y-90241666D01*
X144680476Y-90146428D01*
X144632857Y-90098809D01*
X144537619Y-90051190D01*
X144347142Y-90003571D01*
X144251904Y-89955952D01*
X144204285Y-89908333D01*
X144156666Y-89813095D01*
X144156666Y-89717857D01*
X144204285Y-89622619D01*
X144251904Y-89575000D01*
X144347142Y-89527380D01*
X144585238Y-89527380D01*
X144728095Y-89575000D01*
X145061428Y-89527380D02*
X145299523Y-90527380D01*
X145490000Y-89813095D01*
X145680476Y-90527380D01*
X145918571Y-89527380D01*
X146251904Y-89622619D02*
X146299523Y-89575000D01*
X146394761Y-89527380D01*
X146632857Y-89527380D01*
X146728095Y-89575000D01*
X146775714Y-89622619D01*
X146823333Y-89717857D01*
X146823333Y-89813095D01*
X146775714Y-89955952D01*
X146204285Y-90527380D01*
X146823333Y-90527380D01*
%TO.C,SW1*%
X130154761Y-90233333D02*
X130202380Y-90090476D01*
X130202380Y-89852380D01*
X130154761Y-89757142D01*
X130107142Y-89709523D01*
X130011904Y-89661904D01*
X129916666Y-89661904D01*
X129821428Y-89709523D01*
X129773809Y-89757142D01*
X129726190Y-89852380D01*
X129678571Y-90042857D01*
X129630952Y-90138095D01*
X129583333Y-90185714D01*
X129488095Y-90233333D01*
X129392857Y-90233333D01*
X129297619Y-90185714D01*
X129250000Y-90138095D01*
X129202380Y-90042857D01*
X129202380Y-89804761D01*
X129250000Y-89661904D01*
X129202380Y-89328571D02*
X130202380Y-89090476D01*
X129488095Y-88900000D01*
X130202380Y-88709523D01*
X129202380Y-88471428D01*
X130202380Y-87566666D02*
X130202380Y-88138095D01*
X130202380Y-87852380D02*
X129202380Y-87852380D01*
X129345238Y-87947619D01*
X129440476Y-88042857D01*
X129488095Y-88138095D01*
%TO.C,R4*%
X143343333Y-105397380D02*
X143010000Y-104921190D01*
X142771904Y-105397380D02*
X142771904Y-104397380D01*
X143152857Y-104397380D01*
X143248095Y-104445000D01*
X143295714Y-104492619D01*
X143343333Y-104587857D01*
X143343333Y-104730714D01*
X143295714Y-104825952D01*
X143248095Y-104873571D01*
X143152857Y-104921190D01*
X142771904Y-104921190D01*
X144200476Y-104730714D02*
X144200476Y-105397380D01*
X143962380Y-104349761D02*
X143724285Y-105064047D01*
X144343333Y-105064047D01*
%TO.C,R3*%
X155425580Y-93079866D02*
X154949390Y-93413200D01*
X155425580Y-93651295D02*
X154425580Y-93651295D01*
X154425580Y-93270342D01*
X154473200Y-93175104D01*
X154520819Y-93127485D01*
X154616057Y-93079866D01*
X154758914Y-93079866D01*
X154854152Y-93127485D01*
X154901771Y-93175104D01*
X154949390Y-93270342D01*
X154949390Y-93651295D01*
X154425580Y-92746533D02*
X154425580Y-92127485D01*
X154806533Y-92460819D01*
X154806533Y-92317961D01*
X154854152Y-92222723D01*
X154901771Y-92175104D01*
X154997009Y-92127485D01*
X155235104Y-92127485D01*
X155330342Y-92175104D01*
X155377961Y-92222723D01*
X155425580Y-92317961D01*
X155425580Y-92603676D01*
X155377961Y-92698914D01*
X155330342Y-92746533D01*
%TO.C,R2*%
X112382380Y-105576666D02*
X111906190Y-105910000D01*
X112382380Y-106148095D02*
X111382380Y-106148095D01*
X111382380Y-105767142D01*
X111430000Y-105671904D01*
X111477619Y-105624285D01*
X111572857Y-105576666D01*
X111715714Y-105576666D01*
X111810952Y-105624285D01*
X111858571Y-105671904D01*
X111906190Y-105767142D01*
X111906190Y-106148095D01*
X111477619Y-105195714D02*
X111430000Y-105148095D01*
X111382380Y-105052857D01*
X111382380Y-104814761D01*
X111430000Y-104719523D01*
X111477619Y-104671904D01*
X111572857Y-104624285D01*
X111668095Y-104624285D01*
X111810952Y-104671904D01*
X112382380Y-105243333D01*
X112382380Y-104624285D01*
%TO.C,R1*%
X143343333Y-108572380D02*
X143010000Y-108096190D01*
X142771904Y-108572380D02*
X142771904Y-107572380D01*
X143152857Y-107572380D01*
X143248095Y-107620000D01*
X143295714Y-107667619D01*
X143343333Y-107762857D01*
X143343333Y-107905714D01*
X143295714Y-108000952D01*
X143248095Y-108048571D01*
X143152857Y-108096190D01*
X142771904Y-108096190D01*
X144295714Y-108572380D02*
X143724285Y-108572380D01*
X144010000Y-108572380D02*
X144010000Y-107572380D01*
X143914761Y-107715238D01*
X143819523Y-107810476D01*
X143724285Y-107858095D01*
%TO.C,J5*%
X151965066Y-98773180D02*
X151965066Y-99487466D01*
X151917447Y-99630323D01*
X151822209Y-99725561D01*
X151679352Y-99773180D01*
X151584114Y-99773180D01*
X152917447Y-98773180D02*
X152441257Y-98773180D01*
X152393638Y-99249371D01*
X152441257Y-99201752D01*
X152536495Y-99154133D01*
X152774590Y-99154133D01*
X152869828Y-99201752D01*
X152917447Y-99249371D01*
X152965066Y-99344609D01*
X152965066Y-99582704D01*
X152917447Y-99677942D01*
X152869828Y-99725561D01*
X152774590Y-99773180D01*
X152536495Y-99773180D01*
X152441257Y-99725561D01*
X152393638Y-99677942D01*
%TO.C,J4*%
X119046666Y-98722380D02*
X119046666Y-99436666D01*
X118999047Y-99579523D01*
X118903809Y-99674761D01*
X118760952Y-99722380D01*
X118665714Y-99722380D01*
X119951428Y-99055714D02*
X119951428Y-99722380D01*
X119713333Y-98674761D02*
X119475238Y-99389047D01*
X120094285Y-99389047D01*
%TO.C,J3*%
X124126666Y-98722380D02*
X124126666Y-99436666D01*
X124079047Y-99579523D01*
X123983809Y-99674761D01*
X123840952Y-99722380D01*
X123745714Y-99722380D01*
X124507619Y-98722380D02*
X125126666Y-98722380D01*
X124793333Y-99103333D01*
X124936190Y-99103333D01*
X125031428Y-99150952D01*
X125079047Y-99198571D01*
X125126666Y-99293809D01*
X125126666Y-99531904D01*
X125079047Y-99627142D01*
X125031428Y-99674761D01*
X124936190Y-99722380D01*
X124650476Y-99722380D01*
X124555238Y-99674761D01*
X124507619Y-99627142D01*
%TO.C,J2*%
X100607880Y-93043333D02*
X101322166Y-93043333D01*
X101465023Y-93090952D01*
X101560261Y-93186190D01*
X101607880Y-93329047D01*
X101607880Y-93424285D01*
X100703119Y-92614761D02*
X100655500Y-92567142D01*
X100607880Y-92471904D01*
X100607880Y-92233809D01*
X100655500Y-92138571D01*
X100703119Y-92090952D01*
X100798357Y-92043333D01*
X100893595Y-92043333D01*
X101036452Y-92090952D01*
X101607880Y-92662380D01*
X101607880Y-92043333D01*
%TO.C,J1*%
X105991066Y-104918380D02*
X105991066Y-105632666D01*
X105943447Y-105775523D01*
X105848209Y-105870761D01*
X105705352Y-105918380D01*
X105610114Y-105918380D01*
X106991066Y-105918380D02*
X106419638Y-105918380D01*
X106705352Y-105918380D02*
X106705352Y-104918380D01*
X106610114Y-105061238D01*
X106514876Y-105156476D01*
X106419638Y-105204095D01*
%TO.C,D5*%
X125626904Y-94012380D02*
X125626904Y-93012380D01*
X125865000Y-93012380D01*
X126007857Y-93060000D01*
X126103095Y-93155238D01*
X126150714Y-93250476D01*
X126198333Y-93440952D01*
X126198333Y-93583809D01*
X126150714Y-93774285D01*
X126103095Y-93869523D01*
X126007857Y-93964761D01*
X125865000Y-94012380D01*
X125626904Y-94012380D01*
X127103095Y-93012380D02*
X126626904Y-93012380D01*
X126579285Y-93488571D01*
X126626904Y-93440952D01*
X126722142Y-93393333D01*
X126960238Y-93393333D01*
X127055476Y-93440952D01*
X127103095Y-93488571D01*
X127150714Y-93583809D01*
X127150714Y-93821904D01*
X127103095Y-93917142D01*
X127055476Y-93964761D01*
X126960238Y-94012380D01*
X126722142Y-94012380D01*
X126626904Y-93964761D01*
X126579285Y-93917142D01*
%TO.C,D4*%
X116101904Y-86882380D02*
X116101904Y-85882380D01*
X116340000Y-85882380D01*
X116482857Y-85930000D01*
X116578095Y-86025238D01*
X116625714Y-86120476D01*
X116673333Y-86310952D01*
X116673333Y-86453809D01*
X116625714Y-86644285D01*
X116578095Y-86739523D01*
X116482857Y-86834761D01*
X116340000Y-86882380D01*
X116101904Y-86882380D01*
X117530476Y-86215714D02*
X117530476Y-86882380D01*
X117292380Y-85834761D02*
X117054285Y-86549047D01*
X117673333Y-86549047D01*
X111498095Y-87252380D02*
X111498095Y-86252380D01*
X112069523Y-87252380D02*
X111640952Y-86680952D01*
X112069523Y-86252380D02*
X111498095Y-86823809D01*
%TO.C,D3*%
X116101904Y-94502380D02*
X116101904Y-93502380D01*
X116340000Y-93502380D01*
X116482857Y-93550000D01*
X116578095Y-93645238D01*
X116625714Y-93740476D01*
X116673333Y-93930952D01*
X116673333Y-94073809D01*
X116625714Y-94264285D01*
X116578095Y-94359523D01*
X116482857Y-94454761D01*
X116340000Y-94502380D01*
X116101904Y-94502380D01*
X117006666Y-93502380D02*
X117625714Y-93502380D01*
X117292380Y-93883333D01*
X117435238Y-93883333D01*
X117530476Y-93930952D01*
X117578095Y-93978571D01*
X117625714Y-94073809D01*
X117625714Y-94311904D01*
X117578095Y-94407142D01*
X117530476Y-94454761D01*
X117435238Y-94502380D01*
X117149523Y-94502380D01*
X117054285Y-94454761D01*
X117006666Y-94407142D01*
X111498095Y-94872380D02*
X111498095Y-93872380D01*
X112069523Y-94872380D02*
X111640952Y-94300952D01*
X112069523Y-93872380D02*
X111498095Y-94443809D01*
%TO.C,D2*%
X125626904Y-87027380D02*
X125626904Y-86027380D01*
X125865000Y-86027380D01*
X126007857Y-86075000D01*
X126103095Y-86170238D01*
X126150714Y-86265476D01*
X126198333Y-86455952D01*
X126198333Y-86598809D01*
X126150714Y-86789285D01*
X126103095Y-86884523D01*
X126007857Y-86979761D01*
X125865000Y-87027380D01*
X125626904Y-87027380D01*
X126579285Y-86122619D02*
X126626904Y-86075000D01*
X126722142Y-86027380D01*
X126960238Y-86027380D01*
X127055476Y-86075000D01*
X127103095Y-86122619D01*
X127150714Y-86217857D01*
X127150714Y-86313095D01*
X127103095Y-86455952D01*
X126531666Y-87027380D01*
X127150714Y-87027380D01*
%TO.C,D1*%
X116101904Y-90692380D02*
X116101904Y-89692380D01*
X116340000Y-89692380D01*
X116482857Y-89740000D01*
X116578095Y-89835238D01*
X116625714Y-89930476D01*
X116673333Y-90120952D01*
X116673333Y-90263809D01*
X116625714Y-90454285D01*
X116578095Y-90549523D01*
X116482857Y-90644761D01*
X116340000Y-90692380D01*
X116101904Y-90692380D01*
X117625714Y-90692380D02*
X117054285Y-90692380D01*
X117340000Y-90692380D02*
X117340000Y-89692380D01*
X117244761Y-89835238D01*
X117149523Y-89930476D01*
X117054285Y-89978095D01*
X111498095Y-91062380D02*
X111498095Y-90062380D01*
X112069523Y-91062380D02*
X111640952Y-90490952D01*
X112069523Y-90062380D02*
X111498095Y-90633809D01*
%TO.C,C3*%
X147617142Y-101746666D02*
X147664761Y-101794285D01*
X147712380Y-101937142D01*
X147712380Y-102032380D01*
X147664761Y-102175238D01*
X147569523Y-102270476D01*
X147474285Y-102318095D01*
X147283809Y-102365714D01*
X147140952Y-102365714D01*
X146950476Y-102318095D01*
X146855238Y-102270476D01*
X146760000Y-102175238D01*
X146712380Y-102032380D01*
X146712380Y-101937142D01*
X146760000Y-101794285D01*
X146807619Y-101746666D01*
X146712380Y-101413333D02*
X146712380Y-100794285D01*
X147093333Y-101127619D01*
X147093333Y-100984761D01*
X147140952Y-100889523D01*
X147188571Y-100841904D01*
X147283809Y-100794285D01*
X147521904Y-100794285D01*
X147617142Y-100841904D01*
X147664761Y-100889523D01*
X147712380Y-100984761D01*
X147712380Y-101270476D01*
X147664761Y-101365714D01*
X147617142Y-101413333D01*
%TO.C,C2*%
X151040742Y-102082266D02*
X151088361Y-102129885D01*
X151135980Y-102272742D01*
X151135980Y-102367980D01*
X151088361Y-102510838D01*
X150993123Y-102606076D01*
X150897885Y-102653695D01*
X150707409Y-102701314D01*
X150564552Y-102701314D01*
X150374076Y-102653695D01*
X150278838Y-102606076D01*
X150183600Y-102510838D01*
X150135980Y-102367980D01*
X150135980Y-102272742D01*
X150183600Y-102129885D01*
X150231219Y-102082266D01*
X150231219Y-101701314D02*
X150183600Y-101653695D01*
X150135980Y-101558457D01*
X150135980Y-101320361D01*
X150183600Y-101225123D01*
X150231219Y-101177504D01*
X150326457Y-101129885D01*
X150421695Y-101129885D01*
X150564552Y-101177504D01*
X151135980Y-101748933D01*
X151135980Y-101129885D01*
%TO.C,C1*%
X143303333Y-86757142D02*
X143255714Y-86804761D01*
X143112857Y-86852380D01*
X143017619Y-86852380D01*
X142874761Y-86804761D01*
X142779523Y-86709523D01*
X142731904Y-86614285D01*
X142684285Y-86423809D01*
X142684285Y-86280952D01*
X142731904Y-86090476D01*
X142779523Y-85995238D01*
X142874761Y-85900000D01*
X143017619Y-85852380D01*
X143112857Y-85852380D01*
X143255714Y-85900000D01*
X143303333Y-85947619D01*
X144255714Y-86852380D02*
X143684285Y-86852380D01*
X143970000Y-86852380D02*
X143970000Y-85852380D01*
X143874761Y-85995238D01*
X143779523Y-86090476D01*
X143684285Y-86138095D01*
%TD*%
M02*
