M48
; DRILL file {KiCad (5.1.5)-3} date 12/09/2020 7:12:04 AM
; FORMAT={-:-/ absolute / metric / decimal}
; #@! TF.CreationDate,2020-09-12T07:12:04+09:30
; #@! TF.GenerationSoftware,Kicad,Pcbnew,(5.1.5)-3
; #@! TF.FileFunction,Plated,1,2,PTH
FMAT,2
METRIC
T1C0.400
T2C0.800
T3C0.900
T4C1.000
T5C1.100
T6C1.200
T7C1.400
T8C1.520
%
G90
G05
T1
X103.073Y-101.6
X105.41Y-104.14
X105.855Y-105.474
X108.712Y-104.203
X109.145Y-97.218
X109.22Y-102.87
X109.32Y-89.17
X112.635Y-100.33
X125.56Y-99.12
X126.81Y-104.33
X128.7Y-104.33
X133.54Y-96.647
X134.683Y-96.71
X135.262Y-90.905
X135.49Y-103.83
X135.839Y-99.365
X136.27Y-96.94
X136.57Y-107.69
X136.779Y-105.093
X136.9Y-91.63
X136.94Y-96.05
X137.22Y-96.95
X138.1Y-91.62
X139.58Y-86.6
X140.82Y-106.64
X142.11Y-94.58
X146.06Y-99.03
X149.034Y-102.044
X152.019Y-94.488
X152.019Y-94.488
T2
X114.3Y-100.33
X114.3Y-110.49
X143.51Y-100.33
X143.51Y-102.83
X140.97Y-88.9
X145.97Y-88.9
X152.603Y-87.833
X152.603Y-97.993
X138.43Y-107.315
X148.59Y-107.315
X138.43Y-110.49
X148.59Y-110.49
X148.184Y-99.416
X148.184Y-104.416
T3
X125.095Y-96.52
X127.635Y-96.52
X125.095Y-89.535
X127.635Y-89.535
T4
X119.38Y-101.6
X119.38Y-104.14
X119.38Y-106.68
X119.38Y-109.22
X132.08Y-88.9
X134.62Y-88.9
X137.16Y-88.9
X129.54Y-106.68
X129.54Y-109.22
X132.08Y-106.68
X132.08Y-109.22
X134.62Y-106.68
X134.62Y-109.22
X124.46Y-101.6
X124.46Y-104.14
X124.46Y-106.68
X124.46Y-109.22
X152.298Y-101.651
X152.298Y-104.191
X152.298Y-106.731
X152.298Y-109.271
T5
X106.68Y-90.17
X106.68Y-92.71
X106.68Y-95.25
X142.24Y-92.075
X142.24Y-96.575
X148.74Y-92.075
X148.74Y-96.575
X111.76Y-92.71
X121.92Y-92.71
X111.76Y-88.9
X121.92Y-88.9
X111.76Y-96.52
X121.92Y-96.52
T6
X102.449Y-110.916
X110.199Y-110.916
T7
X102.599Y-107.116
X110.049Y-107.116
T8
X96.52Y-90.17
X96.52Y-95.25
X96.52Y-101.409
X96.52Y-106.489
T0
M30
