%TF.GenerationSoftware,KiCad,Pcbnew,(5.1.5)-3*%
%TF.CreationDate,2020-09-12T07:11:51+09:30*%
%TF.ProjectId,robotcontrol,726f626f-7463-46f6-9e74-726f6c2e6b69,rev?*%
%TF.SameCoordinates,Original*%
%TF.FileFunction,Other,User*%
%FSLAX46Y46*%
G04 Gerber Fmt 4.6, Leading zero omitted, Abs format (unit mm)*
G04 Created by KiCad (PCBNEW (5.1.5)-3) date 2020-09-12 07:11:51*
%MOMM*%
%LPD*%
G04 APERTURE LIST*
%ADD10C,0.050000*%
G04 APERTURE END LIST*
D10*
%TO.C,BT1*%
X92520000Y-109199500D02*
X92520000Y-98699500D01*
X92520000Y-109199500D02*
X100520000Y-109199500D01*
X100520000Y-98699500D02*
X92520000Y-98699500D01*
X100520000Y-98699500D02*
X100520000Y-109199500D01*
%TO.C,U3*%
X129370800Y-92744000D02*
X129370800Y-103344000D01*
X139970800Y-92744000D02*
X139970800Y-103344000D01*
X129370800Y-92744000D02*
X139970800Y-92744000D01*
X129370800Y-103344000D02*
X139970800Y-103344000D01*
%TO.C,J6*%
X136420000Y-104880000D02*
X127770000Y-104880000D01*
X127770000Y-104880000D02*
X127770000Y-111030000D01*
X127770000Y-111030000D02*
X136420000Y-111030000D01*
X136420000Y-111030000D02*
X136420000Y-104880000D01*
%TO.C,U2*%
X103280000Y-97960000D02*
X108190000Y-97960000D01*
X108190000Y-97960000D02*
X108190000Y-87460000D01*
X108190000Y-87460000D02*
X103280000Y-87460000D01*
X103280000Y-87460000D02*
X103280000Y-97960000D01*
%TO.C,U1*%
X104780000Y-98530000D02*
X108580000Y-98530000D01*
X108580000Y-98530000D02*
X108580000Y-102130000D01*
X108580000Y-102130000D02*
X104780000Y-102130000D01*
X104780000Y-102130000D02*
X104780000Y-98530000D01*
%TO.C,SW2*%
X149990000Y-98075000D02*
X150240000Y-98075000D01*
X150240000Y-98075000D02*
X150240000Y-97825000D01*
X149990000Y-90575000D02*
X150240000Y-90575000D01*
X150240000Y-90575000D02*
X150240000Y-90825000D01*
X140740000Y-90825000D02*
X140740000Y-90575000D01*
X140740000Y-90575000D02*
X140990000Y-90575000D01*
X140740000Y-97825000D02*
X140740000Y-98075000D01*
X140740000Y-98075000D02*
X140990000Y-98075000D01*
X140990000Y-90575000D02*
X149990000Y-90575000D01*
X140740000Y-97825000D02*
X140740000Y-90825000D01*
X149990000Y-98075000D02*
X140990000Y-98075000D01*
X150240000Y-90825000D02*
X150240000Y-97825000D01*
%TO.C,SW1*%
X130280000Y-90700000D02*
X138930000Y-90700000D01*
X138930000Y-90700000D02*
X138930000Y-87100000D01*
X138930000Y-87100000D02*
X130280000Y-87100000D01*
X130280000Y-87100000D02*
X130280000Y-90700000D01*
%TO.C,R4*%
X137380000Y-105815000D02*
X137380000Y-108815000D01*
X137380000Y-108815000D02*
X149640000Y-108815000D01*
X149640000Y-108815000D02*
X149640000Y-105815000D01*
X149640000Y-105815000D02*
X137380000Y-105815000D01*
%TO.C,R3*%
X154103200Y-86783200D02*
X151103200Y-86783200D01*
X151103200Y-86783200D02*
X151103200Y-99043200D01*
X151103200Y-99043200D02*
X154103200Y-99043200D01*
X154103200Y-99043200D02*
X154103200Y-86783200D01*
%TO.C,R2*%
X112800000Y-111540000D02*
X115800000Y-111540000D01*
X115800000Y-111540000D02*
X115800000Y-99280000D01*
X115800000Y-99280000D02*
X112800000Y-99280000D01*
X112800000Y-99280000D02*
X112800000Y-111540000D01*
%TO.C,R1*%
X137380000Y-108990000D02*
X137380000Y-111990000D01*
X137380000Y-111990000D02*
X149640000Y-111990000D01*
X149640000Y-111990000D02*
X149640000Y-108990000D01*
X149640000Y-108990000D02*
X137380000Y-108990000D01*
%TO.C,J5*%
X150498400Y-99850800D02*
X150498400Y-111050800D01*
X150498400Y-111050800D02*
X154098400Y-111050800D01*
X154098400Y-111050800D02*
X154098400Y-99850800D01*
X154098400Y-99850800D02*
X150498400Y-99850800D01*
%TO.C,J4*%
X117580000Y-99800000D02*
X117580000Y-111000000D01*
X117580000Y-111000000D02*
X121180000Y-111000000D01*
X121180000Y-111000000D02*
X121180000Y-99800000D01*
X121180000Y-99800000D02*
X117580000Y-99800000D01*
%TO.C,J3*%
X122660000Y-99800000D02*
X122660000Y-111000000D01*
X122660000Y-111000000D02*
X126260000Y-111000000D01*
X126260000Y-111000000D02*
X126260000Y-99800000D01*
X126260000Y-99800000D02*
X122660000Y-99800000D01*
%TO.C,J2*%
X92520000Y-97960000D02*
X92520000Y-87460000D01*
X92520000Y-97960000D02*
X100520000Y-97960000D01*
X100520000Y-87460000D02*
X92520000Y-87460000D01*
X100520000Y-87460000D02*
X100520000Y-97960000D01*
%TO.C,J1*%
X101054400Y-105626000D02*
X101054400Y-113816000D01*
X101054400Y-113816000D02*
X111604400Y-113816000D01*
X111604400Y-113816000D02*
X111604400Y-105626000D01*
X111604400Y-105626000D02*
X101054400Y-105626000D01*
%TO.C,D5*%
X123945000Y-94270000D02*
X123945000Y-98770000D01*
X123945000Y-98770000D02*
X128795000Y-98770000D01*
X128795000Y-98770000D02*
X128795000Y-94270000D01*
X128795000Y-94270000D02*
X123945000Y-94270000D01*
%TO.C,D4*%
X110410000Y-87300000D02*
X110410000Y-90500000D01*
X110410000Y-90500000D02*
X123270000Y-90500000D01*
X123270000Y-90500000D02*
X123270000Y-87300000D01*
X123270000Y-87300000D02*
X110410000Y-87300000D01*
%TO.C,D3*%
X110410000Y-94920000D02*
X110410000Y-98120000D01*
X110410000Y-98120000D02*
X123270000Y-98120000D01*
X123270000Y-98120000D02*
X123270000Y-94920000D01*
X123270000Y-94920000D02*
X110410000Y-94920000D01*
%TO.C,D2*%
X123945000Y-87285000D02*
X123945000Y-91785000D01*
X123945000Y-91785000D02*
X128795000Y-91785000D01*
X128795000Y-91785000D02*
X128795000Y-87285000D01*
X128795000Y-87285000D02*
X123945000Y-87285000D01*
%TO.C,D1*%
X110410000Y-91110000D02*
X110410000Y-94310000D01*
X110410000Y-94310000D02*
X123270000Y-94310000D01*
X123270000Y-94310000D02*
X123270000Y-91110000D01*
X123270000Y-91110000D02*
X110410000Y-91110000D01*
%TO.C,C3*%
X146260000Y-101580000D02*
G75*
G03X146260000Y-101580000I-2750000J0D01*
G01*
%TO.C,C2*%
X149683600Y-98365600D02*
X146683600Y-98365600D01*
X146683600Y-98365600D02*
X146683600Y-105465600D01*
X146683600Y-105465600D02*
X149683600Y-105465600D01*
X149683600Y-105465600D02*
X149683600Y-98365600D01*
%TO.C,C1*%
X139920000Y-87400000D02*
X139920000Y-90400000D01*
X139920000Y-90400000D02*
X147020000Y-90400000D01*
X147020000Y-90400000D02*
X147020000Y-87400000D01*
X147020000Y-87400000D02*
X139920000Y-87400000D01*
%TD*%
M02*
