%TF.GenerationSoftware,KiCad,Pcbnew,(5.1.5)-3*%
%TF.CreationDate,2020-09-12T07:11:50+09:30*%
%TF.ProjectId,robotcontrol,726f626f-7463-46f6-9e74-726f6c2e6b69,rev?*%
%TF.SameCoordinates,Original*%
%TF.FileFunction,OtherDrawing,Comment*%
%FSLAX46Y46*%
G04 Gerber Fmt 4.6, Leading zero omitted, Abs format (unit mm)*
G04 Created by KiCad (PCBNEW (5.1.5)-3) date 2020-09-12 07:11:50*
%MOMM*%
%LPD*%
G04 APERTURE LIST*
%ADD10C,0.080000*%
G04 APERTURE END LIST*
%TO.C,J1*%
D10*
X104610114Y-112942190D02*
X104610114Y-112442190D01*
X104800590Y-112442190D01*
X104848209Y-112466000D01*
X104872019Y-112489809D01*
X104895828Y-112537428D01*
X104895828Y-112608857D01*
X104872019Y-112656476D01*
X104848209Y-112680285D01*
X104800590Y-112704095D01*
X104610114Y-112704095D01*
X105395828Y-112894571D02*
X105372019Y-112918380D01*
X105300590Y-112942190D01*
X105252971Y-112942190D01*
X105181542Y-112918380D01*
X105133923Y-112870761D01*
X105110114Y-112823142D01*
X105086304Y-112727904D01*
X105086304Y-112656476D01*
X105110114Y-112561238D01*
X105133923Y-112513619D01*
X105181542Y-112466000D01*
X105252971Y-112442190D01*
X105300590Y-112442190D01*
X105372019Y-112466000D01*
X105395828Y-112489809D01*
X105776780Y-112680285D02*
X105848209Y-112704095D01*
X105872019Y-112727904D01*
X105895828Y-112775523D01*
X105895828Y-112846952D01*
X105872019Y-112894571D01*
X105848209Y-112918380D01*
X105800590Y-112942190D01*
X105610114Y-112942190D01*
X105610114Y-112442190D01*
X105776780Y-112442190D01*
X105824400Y-112466000D01*
X105848209Y-112489809D01*
X105872019Y-112537428D01*
X105872019Y-112585047D01*
X105848209Y-112632666D01*
X105824400Y-112656476D01*
X105776780Y-112680285D01*
X105610114Y-112680285D01*
X106491066Y-112680285D02*
X106657733Y-112680285D01*
X106729161Y-112942190D02*
X106491066Y-112942190D01*
X106491066Y-112442190D01*
X106729161Y-112442190D01*
X107157733Y-112942190D02*
X107157733Y-112442190D01*
X107157733Y-112918380D02*
X107110114Y-112942190D01*
X107014876Y-112942190D01*
X106967257Y-112918380D01*
X106943447Y-112894571D01*
X106919638Y-112846952D01*
X106919638Y-112704095D01*
X106943447Y-112656476D01*
X106967257Y-112632666D01*
X107014876Y-112608857D01*
X107110114Y-112608857D01*
X107157733Y-112632666D01*
X107610114Y-112608857D02*
X107610114Y-113013619D01*
X107586304Y-113061238D01*
X107562495Y-113085047D01*
X107514876Y-113108857D01*
X107443447Y-113108857D01*
X107395828Y-113085047D01*
X107610114Y-112918380D02*
X107562495Y-112942190D01*
X107467257Y-112942190D01*
X107419638Y-112918380D01*
X107395828Y-112894571D01*
X107372019Y-112846952D01*
X107372019Y-112704095D01*
X107395828Y-112656476D01*
X107419638Y-112632666D01*
X107467257Y-112608857D01*
X107562495Y-112608857D01*
X107610114Y-112632666D01*
X108038685Y-112918380D02*
X107991066Y-112942190D01*
X107895828Y-112942190D01*
X107848209Y-112918380D01*
X107824400Y-112870761D01*
X107824400Y-112680285D01*
X107848209Y-112632666D01*
X107895828Y-112608857D01*
X107991066Y-112608857D01*
X108038685Y-112632666D01*
X108062495Y-112680285D01*
X108062495Y-112727904D01*
X107824400Y-112775523D01*
%TD*%
M02*
